M48
;GenerationSoftware,Autodesk,EAGLE,9.5.2*%
;CreationDate,2021-01-29T07:53:51Z*%
FMAT,2
ICI,OFF
METRIC,TZ,000.000
T3C0.350
T2C1.016
T1C3.200
%
G90
M71
T1
X62300Y2700
X62300Y28300
X2700Y2700
X2700Y28300
T2
X60470Y9150
X8820Y7880
X60470Y11690
X60470Y14230
X60470Y16770
X60470Y19310
X60470Y21850
X53670Y21850
X53670Y19310
X53670Y16770
X53670Y14230
X53670Y11690
X53670Y9150
X46870Y21850
X46870Y19310
X46870Y16770
X46870Y14230
X46870Y11690
X46870Y9150
X3740Y23120
X6280Y23120
X8820Y23120
X11360Y23120
X13900Y23120
X16440Y7880
X39300Y7880
X36760Y7880
X34220Y7880
X31680Y7880
X29140Y7880
X26600Y7880
X24060Y7880
X21520Y7880
X18980Y7880
X16440Y23120
X13900Y7880
X11360Y7880
X18980Y23120
X6280Y7880
X3740Y7880
X39300Y23120
X36760Y23120
X34220Y23120
X31680Y23120
X29140Y23120
X26600Y23120
X24060Y23120
X21520Y23120
T3
X31700Y27650
X8750Y28500
X15100Y12900
X12600Y20263
X6100Y12900
X19650Y16400
X11950Y15550
X22700Y20100
X19600Y14800
X12937Y16050
X11900Y11100
X53850Y28500
X33900Y14500
X29000Y14500
X31450Y12600
X29000Y10800
X33900Y10800
X53200Y2500
X42500Y2500
X30050Y2500
X19300Y2500
X9500Y2500
X42300Y28500
X15300Y28500
X20750Y20263
M30