G04 EAGLE Gerber RS-274X export*
G75*
%MOMM*%
%FSLAX34Y34*%
%LPD*%
%INBottom Copper*%
%IPPOS*%
%AMOC8*
5,1,8,0,0,1.08239X$1,22.5*%
G01*
%ADD10R,1.080000X1.050000*%
%ADD11R,1.050000X1.080000*%
%ADD12C,1.524000*%
%ADD13R,1.000000X1.100000*%
%ADD14R,1.100000X1.000000*%
%ADD15C,0.508000*%
%ADD16C,0.756400*%

G36*
X601290Y10176D02*
X601290Y10176D01*
X601385Y10185D01*
X601411Y10196D01*
X601439Y10200D01*
X601523Y10245D01*
X601610Y10283D01*
X601631Y10302D01*
X601656Y10316D01*
X601722Y10385D01*
X601792Y10449D01*
X601806Y10473D01*
X601825Y10494D01*
X601866Y10580D01*
X601912Y10664D01*
X601917Y10691D01*
X601929Y10717D01*
X601939Y10812D01*
X601957Y10905D01*
X601953Y10933D01*
X601956Y10961D01*
X601936Y11055D01*
X601922Y11149D01*
X601908Y11181D01*
X601904Y11202D01*
X601887Y11230D01*
X601855Y11303D01*
X598622Y16902D01*
X596839Y23556D01*
X596839Y30444D01*
X598622Y37098D01*
X602066Y43063D01*
X606937Y47934D01*
X612902Y51378D01*
X619556Y53161D01*
X626444Y53161D01*
X633098Y51378D01*
X638697Y48145D01*
X638786Y48111D01*
X638873Y48071D01*
X638901Y48068D01*
X638927Y48058D01*
X639023Y48054D01*
X639117Y48044D01*
X639145Y48050D01*
X639173Y48049D01*
X639265Y48076D01*
X639358Y48096D01*
X639382Y48111D01*
X639409Y48119D01*
X639487Y48173D01*
X639569Y48222D01*
X639587Y48244D01*
X639610Y48260D01*
X639667Y48337D01*
X639729Y48409D01*
X639739Y48436D01*
X639756Y48458D01*
X639785Y48549D01*
X639821Y48637D01*
X639825Y48673D01*
X639831Y48692D01*
X639831Y48725D01*
X639839Y48804D01*
X639839Y261196D01*
X639824Y261290D01*
X639815Y261385D01*
X639804Y261411D01*
X639800Y261439D01*
X639755Y261523D01*
X639717Y261610D01*
X639698Y261631D01*
X639684Y261656D01*
X639615Y261722D01*
X639551Y261792D01*
X639527Y261806D01*
X639506Y261825D01*
X639420Y261866D01*
X639336Y261912D01*
X639309Y261917D01*
X639283Y261929D01*
X639188Y261939D01*
X639095Y261957D01*
X639067Y261953D01*
X639039Y261956D01*
X638945Y261936D01*
X638851Y261922D01*
X638819Y261908D01*
X638798Y261904D01*
X638770Y261887D01*
X638697Y261855D01*
X633098Y258622D01*
X626444Y256839D01*
X619556Y256839D01*
X612902Y258622D01*
X606937Y262066D01*
X602066Y266937D01*
X598622Y272902D01*
X596839Y279556D01*
X596839Y286444D01*
X598622Y293098D01*
X601855Y298697D01*
X601889Y298786D01*
X601929Y298873D01*
X601932Y298901D01*
X601942Y298927D01*
X601946Y299023D01*
X601956Y299117D01*
X601950Y299145D01*
X601951Y299173D01*
X601924Y299265D01*
X601904Y299358D01*
X601889Y299382D01*
X601881Y299409D01*
X601827Y299487D01*
X601778Y299569D01*
X601756Y299587D01*
X601740Y299610D01*
X601663Y299667D01*
X601591Y299729D01*
X601564Y299739D01*
X601542Y299756D01*
X601451Y299785D01*
X601363Y299821D01*
X601327Y299825D01*
X601308Y299831D01*
X601275Y299831D01*
X601196Y299839D01*
X48804Y299839D01*
X48710Y299824D01*
X48615Y299815D01*
X48589Y299804D01*
X48561Y299800D01*
X48477Y299755D01*
X48390Y299717D01*
X48369Y299698D01*
X48344Y299684D01*
X48278Y299615D01*
X48208Y299551D01*
X48194Y299527D01*
X48175Y299506D01*
X48134Y299420D01*
X48088Y299336D01*
X48083Y299309D01*
X48071Y299283D01*
X48061Y299188D01*
X48043Y299095D01*
X48047Y299067D01*
X48044Y299039D01*
X48064Y298945D01*
X48078Y298851D01*
X48092Y298819D01*
X48096Y298798D01*
X48113Y298770D01*
X48145Y298697D01*
X51378Y293098D01*
X53161Y286444D01*
X53161Y279556D01*
X51378Y272902D01*
X47934Y266937D01*
X43063Y262066D01*
X37098Y258622D01*
X30444Y256839D01*
X23556Y256839D01*
X16902Y258622D01*
X11303Y261855D01*
X11214Y261889D01*
X11127Y261929D01*
X11099Y261932D01*
X11073Y261942D01*
X10977Y261946D01*
X10883Y261956D01*
X10855Y261950D01*
X10827Y261951D01*
X10735Y261924D01*
X10642Y261904D01*
X10618Y261889D01*
X10591Y261881D01*
X10513Y261827D01*
X10431Y261778D01*
X10413Y261756D01*
X10390Y261740D01*
X10333Y261663D01*
X10271Y261591D01*
X10261Y261564D01*
X10244Y261542D01*
X10215Y261451D01*
X10179Y261363D01*
X10175Y261327D01*
X10169Y261308D01*
X10169Y261275D01*
X10161Y261196D01*
X10161Y48804D01*
X10176Y48710D01*
X10185Y48615D01*
X10196Y48589D01*
X10200Y48561D01*
X10245Y48477D01*
X10283Y48390D01*
X10302Y48369D01*
X10316Y48344D01*
X10385Y48278D01*
X10449Y48208D01*
X10473Y48194D01*
X10494Y48175D01*
X10580Y48134D01*
X10664Y48088D01*
X10691Y48083D01*
X10717Y48071D01*
X10812Y48061D01*
X10905Y48043D01*
X10933Y48047D01*
X10961Y48044D01*
X11055Y48064D01*
X11149Y48078D01*
X11181Y48092D01*
X11202Y48096D01*
X11230Y48113D01*
X11303Y48145D01*
X16902Y51378D01*
X23556Y53161D01*
X30444Y53161D01*
X37098Y51378D01*
X43063Y47934D01*
X47934Y43063D01*
X51378Y37098D01*
X53161Y30444D01*
X53161Y23556D01*
X51378Y16902D01*
X48145Y11303D01*
X48111Y11214D01*
X48071Y11127D01*
X48068Y11099D01*
X48058Y11073D01*
X48054Y10977D01*
X48044Y10883D01*
X48050Y10855D01*
X48049Y10827D01*
X48076Y10735D01*
X48096Y10642D01*
X48111Y10618D01*
X48119Y10591D01*
X48173Y10513D01*
X48222Y10431D01*
X48244Y10413D01*
X48260Y10390D01*
X48337Y10333D01*
X48409Y10271D01*
X48436Y10261D01*
X48458Y10244D01*
X48549Y10215D01*
X48637Y10179D01*
X48673Y10175D01*
X48692Y10169D01*
X48725Y10169D01*
X48804Y10161D01*
X601196Y10161D01*
X601290Y10176D01*
G37*
%LPC*%
G36*
X89651Y103349D02*
X89651Y103349D01*
X88449Y104551D01*
X88449Y117249D01*
X89651Y118451D01*
X90398Y118451D01*
X90418Y118454D01*
X90437Y118452D01*
X90539Y118474D01*
X90641Y118490D01*
X90658Y118500D01*
X90678Y118504D01*
X90767Y118557D01*
X90858Y118606D01*
X90872Y118620D01*
X90889Y118630D01*
X90956Y118709D01*
X91028Y118784D01*
X91036Y118802D01*
X91049Y118817D01*
X91088Y118913D01*
X91131Y119007D01*
X91133Y119027D01*
X91141Y119045D01*
X91159Y119212D01*
X91159Y124188D01*
X91156Y124208D01*
X91158Y124227D01*
X91136Y124329D01*
X91120Y124431D01*
X91110Y124448D01*
X91106Y124468D01*
X91053Y124557D01*
X91004Y124648D01*
X90990Y124662D01*
X90980Y124679D01*
X90901Y124746D01*
X90826Y124818D01*
X90808Y124826D01*
X90793Y124839D01*
X90697Y124878D01*
X90603Y124921D01*
X90583Y124923D01*
X90565Y124931D01*
X90398Y124949D01*
X89651Y124949D01*
X88449Y126151D01*
X88449Y138649D01*
X89651Y139851D01*
X101849Y139851D01*
X102065Y139635D01*
X102081Y139623D01*
X102094Y139608D01*
X102181Y139552D01*
X102265Y139491D01*
X102284Y139486D01*
X102301Y139475D01*
X102401Y139450D01*
X102500Y139419D01*
X102520Y139420D01*
X102539Y139415D01*
X102642Y139423D01*
X102746Y139425D01*
X102765Y139432D01*
X102785Y139434D01*
X102880Y139474D01*
X102977Y139510D01*
X102993Y139522D01*
X103011Y139530D01*
X103142Y139635D01*
X103440Y139933D01*
X104019Y140268D01*
X104666Y140441D01*
X108477Y140441D01*
X108477Y133162D01*
X108480Y133142D01*
X108478Y133123D01*
X108500Y133021D01*
X108517Y132919D01*
X108526Y132902D01*
X108530Y132882D01*
X108583Y132793D01*
X108632Y132702D01*
X108646Y132688D01*
X108656Y132671D01*
X108735Y132604D01*
X108810Y132533D01*
X108828Y132524D01*
X108843Y132511D01*
X108939Y132472D01*
X109033Y132429D01*
X109053Y132427D01*
X109071Y132419D01*
X109238Y132401D01*
X110001Y132401D01*
X110001Y132399D01*
X109238Y132399D01*
X109218Y132396D01*
X109199Y132398D01*
X109097Y132376D01*
X108995Y132359D01*
X108978Y132350D01*
X108958Y132346D01*
X108869Y132293D01*
X108778Y132244D01*
X108764Y132230D01*
X108747Y132220D01*
X108680Y132141D01*
X108609Y132066D01*
X108600Y132048D01*
X108587Y132033D01*
X108548Y131937D01*
X108505Y131843D01*
X108503Y131823D01*
X108495Y131805D01*
X108477Y131638D01*
X108477Y124359D01*
X104666Y124359D01*
X104019Y124532D01*
X103440Y124867D01*
X103142Y125165D01*
X103126Y125177D01*
X103113Y125192D01*
X103026Y125248D01*
X102942Y125309D01*
X102923Y125314D01*
X102906Y125325D01*
X102806Y125350D01*
X102707Y125381D01*
X102687Y125380D01*
X102668Y125385D01*
X102565Y125377D01*
X102461Y125375D01*
X102442Y125368D01*
X102422Y125366D01*
X102327Y125326D01*
X102230Y125290D01*
X102215Y125278D01*
X102196Y125270D01*
X102065Y125165D01*
X101849Y124949D01*
X101102Y124949D01*
X101082Y124946D01*
X101063Y124948D01*
X100961Y124926D01*
X100859Y124910D01*
X100842Y124900D01*
X100822Y124896D01*
X100733Y124843D01*
X100642Y124794D01*
X100628Y124780D01*
X100611Y124770D01*
X100544Y124691D01*
X100472Y124616D01*
X100464Y124598D01*
X100451Y124583D01*
X100412Y124487D01*
X100369Y124393D01*
X100367Y124373D01*
X100359Y124355D01*
X100341Y124188D01*
X100341Y119212D01*
X100344Y119192D01*
X100342Y119173D01*
X100364Y119071D01*
X100380Y118969D01*
X100390Y118952D01*
X100394Y118932D01*
X100447Y118843D01*
X100496Y118752D01*
X100510Y118738D01*
X100520Y118721D01*
X100599Y118654D01*
X100674Y118582D01*
X100692Y118574D01*
X100707Y118561D01*
X100803Y118522D01*
X100897Y118479D01*
X100917Y118477D01*
X100935Y118469D01*
X101102Y118451D01*
X101349Y118451D01*
X102551Y117249D01*
X102551Y116252D01*
X102554Y116232D01*
X102552Y116213D01*
X102574Y116111D01*
X102590Y116009D01*
X102600Y115992D01*
X102604Y115972D01*
X102657Y115883D01*
X102706Y115792D01*
X102720Y115778D01*
X102730Y115761D01*
X102809Y115694D01*
X102884Y115622D01*
X102902Y115614D01*
X102917Y115601D01*
X103013Y115562D01*
X103107Y115519D01*
X103127Y115517D01*
X103145Y115509D01*
X103312Y115491D01*
X114927Y115491D01*
X115017Y115505D01*
X115108Y115513D01*
X115138Y115525D01*
X115169Y115530D01*
X115250Y115573D01*
X115334Y115609D01*
X115366Y115635D01*
X115387Y115646D01*
X115409Y115669D01*
X115465Y115714D01*
X115696Y115945D01*
X117840Y116833D01*
X120160Y116833D01*
X122304Y115945D01*
X122435Y115814D01*
X122509Y115761D01*
X122578Y115701D01*
X122608Y115689D01*
X122635Y115670D01*
X122722Y115643D01*
X122807Y115609D01*
X122847Y115605D01*
X122870Y115598D01*
X122902Y115599D01*
X122973Y115591D01*
X143079Y115591D01*
X143150Y115602D01*
X143222Y115604D01*
X143271Y115622D01*
X143322Y115630D01*
X143385Y115664D01*
X143453Y115689D01*
X143493Y115721D01*
X143539Y115746D01*
X143589Y115798D01*
X143645Y115842D01*
X143673Y115886D01*
X143709Y115924D01*
X143739Y115989D01*
X143778Y116049D01*
X143790Y116100D01*
X143812Y116147D01*
X143820Y116218D01*
X143838Y116288D01*
X143834Y116340D01*
X143839Y116391D01*
X143824Y116462D01*
X143819Y116533D01*
X143798Y116581D01*
X143787Y116632D01*
X143750Y116693D01*
X143722Y116759D01*
X143677Y116815D01*
X143661Y116843D01*
X143643Y116858D01*
X143617Y116890D01*
X142186Y118321D01*
X135909Y124598D01*
X135909Y127048D01*
X135906Y127068D01*
X135908Y127087D01*
X135886Y127189D01*
X135870Y127291D01*
X135860Y127308D01*
X135856Y127328D01*
X135803Y127417D01*
X135754Y127508D01*
X135740Y127522D01*
X135730Y127539D01*
X135651Y127606D01*
X135576Y127678D01*
X135558Y127686D01*
X135543Y127699D01*
X135447Y127738D01*
X135353Y127781D01*
X135333Y127783D01*
X135315Y127791D01*
X135148Y127809D01*
X134812Y127809D01*
X134792Y127806D01*
X134773Y127808D01*
X134671Y127786D01*
X134569Y127770D01*
X134552Y127760D01*
X134532Y127756D01*
X134443Y127703D01*
X134352Y127654D01*
X134338Y127640D01*
X134321Y127630D01*
X134254Y127551D01*
X134182Y127476D01*
X134174Y127458D01*
X134161Y127443D01*
X134122Y127347D01*
X134079Y127253D01*
X134077Y127233D01*
X134069Y127215D01*
X134051Y127048D01*
X134051Y126051D01*
X132849Y124849D01*
X121151Y124849D01*
X119949Y126051D01*
X119949Y138749D01*
X121151Y139951D01*
X132849Y139951D01*
X134051Y138749D01*
X134051Y137752D01*
X134054Y137732D01*
X134052Y137713D01*
X134074Y137611D01*
X134090Y137509D01*
X134100Y137492D01*
X134104Y137472D01*
X134157Y137383D01*
X134206Y137292D01*
X134220Y137278D01*
X134230Y137261D01*
X134309Y137194D01*
X134384Y137122D01*
X134402Y137114D01*
X134417Y137101D01*
X134513Y137062D01*
X134607Y137019D01*
X134627Y137017D01*
X134645Y137009D01*
X134812Y136991D01*
X135148Y136991D01*
X135168Y136994D01*
X135187Y136992D01*
X135289Y137014D01*
X135391Y137030D01*
X135408Y137040D01*
X135428Y137044D01*
X135517Y137097D01*
X135608Y137146D01*
X135622Y137160D01*
X135639Y137170D01*
X135706Y137249D01*
X135778Y137324D01*
X135786Y137342D01*
X135799Y137357D01*
X135838Y137453D01*
X135881Y137547D01*
X135883Y137567D01*
X135891Y137585D01*
X135909Y137752D01*
X135909Y142188D01*
X135906Y142208D01*
X135908Y142227D01*
X135886Y142329D01*
X135870Y142431D01*
X135860Y142448D01*
X135856Y142468D01*
X135803Y142557D01*
X135754Y142648D01*
X135740Y142662D01*
X135730Y142679D01*
X135651Y142746D01*
X135576Y142818D01*
X135558Y142826D01*
X135543Y142839D01*
X135447Y142878D01*
X135353Y142921D01*
X135333Y142923D01*
X135315Y142931D01*
X135148Y142949D01*
X134351Y142949D01*
X133149Y144151D01*
X133149Y150043D01*
X133135Y150133D01*
X133127Y150224D01*
X133115Y150254D01*
X133110Y150286D01*
X133067Y150367D01*
X133031Y150450D01*
X133005Y150483D01*
X132994Y150503D01*
X132971Y150525D01*
X132926Y150581D01*
X129063Y154444D01*
X128989Y154497D01*
X128920Y154557D01*
X128890Y154569D01*
X128864Y154588D01*
X128777Y154615D01*
X128692Y154649D01*
X128651Y154653D01*
X128629Y154660D01*
X128596Y154659D01*
X128525Y154667D01*
X128208Y154667D01*
X126385Y155422D01*
X126341Y155433D01*
X126299Y155452D01*
X126222Y155461D01*
X126146Y155478D01*
X126100Y155474D01*
X126055Y155479D01*
X125978Y155463D01*
X125901Y155455D01*
X125859Y155437D01*
X125814Y155427D01*
X125747Y155387D01*
X125676Y155355D01*
X125642Y155324D01*
X125603Y155301D01*
X125552Y155242D01*
X125495Y155189D01*
X125473Y155149D01*
X125443Y155114D01*
X125414Y155042D01*
X125377Y154973D01*
X125368Y154928D01*
X125351Y154886D01*
X125336Y154750D01*
X125333Y154731D01*
X125334Y154726D01*
X125333Y154719D01*
X125333Y154340D01*
X124445Y152196D01*
X122804Y150555D01*
X120660Y149667D01*
X120475Y149667D01*
X120385Y149653D01*
X120294Y149645D01*
X120264Y149633D01*
X120232Y149628D01*
X120151Y149585D01*
X120068Y149549D01*
X120035Y149523D01*
X120015Y149512D01*
X119993Y149489D01*
X119937Y149444D01*
X116902Y146409D01*
X114812Y146409D01*
X114792Y146406D01*
X114773Y146408D01*
X114671Y146386D01*
X114569Y146370D01*
X114552Y146360D01*
X114532Y146356D01*
X114443Y146303D01*
X114352Y146254D01*
X114338Y146240D01*
X114321Y146230D01*
X114254Y146151D01*
X114182Y146076D01*
X114174Y146058D01*
X114161Y146043D01*
X114122Y145947D01*
X114079Y145853D01*
X114077Y145833D01*
X114069Y145815D01*
X114051Y145648D01*
X114051Y145151D01*
X112849Y143949D01*
X100151Y143949D01*
X98949Y145151D01*
X98949Y145648D01*
X98946Y145668D01*
X98948Y145687D01*
X98926Y145789D01*
X98910Y145891D01*
X98900Y145908D01*
X98896Y145928D01*
X98843Y146017D01*
X98794Y146108D01*
X98780Y146122D01*
X98770Y146139D01*
X98691Y146206D01*
X98616Y146278D01*
X98598Y146286D01*
X98583Y146299D01*
X98487Y146338D01*
X98393Y146381D01*
X98373Y146383D01*
X98355Y146391D01*
X98188Y146409D01*
X92312Y146409D01*
X92292Y146406D01*
X92273Y146408D01*
X92171Y146386D01*
X92069Y146370D01*
X92052Y146360D01*
X92032Y146356D01*
X91943Y146303D01*
X91852Y146254D01*
X91838Y146240D01*
X91821Y146230D01*
X91754Y146151D01*
X91682Y146076D01*
X91674Y146058D01*
X91661Y146043D01*
X91622Y145947D01*
X91579Y145853D01*
X91577Y145833D01*
X91569Y145815D01*
X91551Y145648D01*
X91551Y145151D01*
X90349Y143949D01*
X77651Y143949D01*
X76449Y145151D01*
X76449Y156849D01*
X77651Y158051D01*
X90349Y158051D01*
X91551Y156849D01*
X91551Y156352D01*
X91554Y156332D01*
X91552Y156313D01*
X91574Y156211D01*
X91590Y156109D01*
X91600Y156092D01*
X91604Y156072D01*
X91657Y155983D01*
X91706Y155892D01*
X91720Y155878D01*
X91730Y155861D01*
X91809Y155794D01*
X91884Y155722D01*
X91902Y155714D01*
X91917Y155701D01*
X92013Y155662D01*
X92107Y155619D01*
X92127Y155617D01*
X92145Y155609D01*
X92312Y155591D01*
X98188Y155591D01*
X98208Y155594D01*
X98227Y155592D01*
X98329Y155614D01*
X98431Y155630D01*
X98448Y155640D01*
X98468Y155644D01*
X98557Y155697D01*
X98648Y155746D01*
X98662Y155760D01*
X98679Y155770D01*
X98746Y155849D01*
X98818Y155924D01*
X98826Y155942D01*
X98839Y155957D01*
X98878Y156053D01*
X98921Y156147D01*
X98923Y156167D01*
X98931Y156185D01*
X98949Y156352D01*
X98949Y156849D01*
X100151Y158051D01*
X112849Y158051D01*
X113029Y157871D01*
X113067Y157844D01*
X113098Y157810D01*
X113166Y157773D01*
X113229Y157727D01*
X113273Y157714D01*
X113313Y157692D01*
X113390Y157678D01*
X113464Y157655D01*
X113510Y157656D01*
X113555Y157648D01*
X113632Y157659D01*
X113710Y157661D01*
X113753Y157677D01*
X113799Y157684D01*
X113868Y157719D01*
X113941Y157746D01*
X113977Y157774D01*
X114018Y157795D01*
X114072Y157851D01*
X114133Y157899D01*
X114158Y157938D01*
X114190Y157971D01*
X114256Y158090D01*
X114266Y158106D01*
X114267Y158111D01*
X114271Y158118D01*
X114555Y158804D01*
X116196Y160445D01*
X118340Y161333D01*
X120660Y161333D01*
X122483Y160578D01*
X122527Y160567D01*
X122569Y160548D01*
X122646Y160539D01*
X122722Y160522D01*
X122768Y160526D01*
X122813Y160521D01*
X122890Y160537D01*
X122967Y160545D01*
X123009Y160563D01*
X123054Y160573D01*
X123121Y160613D01*
X123192Y160645D01*
X123226Y160676D01*
X123265Y160699D01*
X123316Y160758D01*
X123373Y160811D01*
X123395Y160851D01*
X123425Y160886D01*
X123454Y160958D01*
X123491Y161027D01*
X123500Y161072D01*
X123517Y161114D01*
X123532Y161250D01*
X123535Y161269D01*
X123534Y161274D01*
X123535Y161281D01*
X123535Y161660D01*
X124423Y163804D01*
X126064Y165445D01*
X128208Y166333D01*
X130528Y166333D01*
X131607Y165886D01*
X131651Y165875D01*
X131693Y165856D01*
X131770Y165848D01*
X131846Y165830D01*
X131892Y165834D01*
X131937Y165829D01*
X132014Y165846D01*
X132091Y165853D01*
X132133Y165872D01*
X132178Y165881D01*
X132245Y165921D01*
X132316Y165953D01*
X132350Y165984D01*
X132389Y166008D01*
X132440Y166067D01*
X132497Y166119D01*
X132519Y166160D01*
X132549Y166194D01*
X132562Y166227D01*
X139077Y166227D01*
X139077Y159959D01*
X138371Y159959D01*
X138300Y159948D01*
X138228Y159946D01*
X138179Y159928D01*
X138128Y159920D01*
X138065Y159886D01*
X137997Y159861D01*
X137957Y159829D01*
X137911Y159804D01*
X137861Y159752D01*
X137805Y159708D01*
X137777Y159664D01*
X137741Y159626D01*
X137711Y159561D01*
X137672Y159501D01*
X137660Y159450D01*
X137638Y159403D01*
X137630Y159332D01*
X137612Y159262D01*
X137616Y159210D01*
X137611Y159159D01*
X137626Y159088D01*
X137631Y159017D01*
X137652Y158969D01*
X137663Y158918D01*
X137700Y158857D01*
X137728Y158791D01*
X137773Y158735D01*
X137789Y158707D01*
X137807Y158692D01*
X137833Y158660D01*
X138719Y157774D01*
X138793Y157721D01*
X138862Y157661D01*
X138892Y157649D01*
X138918Y157630D01*
X139005Y157603D01*
X139090Y157569D01*
X139131Y157565D01*
X139153Y157558D01*
X139186Y157559D01*
X139257Y157551D01*
X145648Y157551D01*
X145668Y157554D01*
X145687Y157552D01*
X145789Y157574D01*
X145891Y157590D01*
X145908Y157600D01*
X145928Y157604D01*
X146017Y157657D01*
X146108Y157706D01*
X146122Y157720D01*
X146139Y157730D01*
X146206Y157809D01*
X146278Y157884D01*
X146286Y157902D01*
X146299Y157917D01*
X146338Y158013D01*
X146381Y158107D01*
X146383Y158127D01*
X146391Y158145D01*
X146409Y158312D01*
X146409Y159198D01*
X146406Y159218D01*
X146408Y159237D01*
X146386Y159339D01*
X146370Y159441D01*
X146360Y159458D01*
X146356Y159478D01*
X146303Y159567D01*
X146254Y159658D01*
X146240Y159672D01*
X146230Y159689D01*
X146151Y159756D01*
X146076Y159828D01*
X146058Y159836D01*
X146043Y159849D01*
X145947Y159888D01*
X145853Y159931D01*
X145833Y159933D01*
X145815Y159941D01*
X145648Y159959D01*
X142123Y159959D01*
X142123Y166988D01*
X142121Y167004D01*
X142122Y167018D01*
X142121Y167021D01*
X142122Y167027D01*
X142100Y167129D01*
X142083Y167231D01*
X142074Y167248D01*
X142070Y167268D01*
X142017Y167357D01*
X141968Y167448D01*
X141954Y167462D01*
X141944Y167479D01*
X141865Y167546D01*
X141790Y167617D01*
X141772Y167626D01*
X141757Y167639D01*
X141661Y167678D01*
X141567Y167721D01*
X141547Y167723D01*
X141529Y167731D01*
X141362Y167749D01*
X140599Y167749D01*
X140599Y167751D01*
X141362Y167751D01*
X141382Y167754D01*
X141401Y167752D01*
X141503Y167774D01*
X141605Y167791D01*
X141622Y167800D01*
X141642Y167804D01*
X141731Y167857D01*
X141822Y167906D01*
X141836Y167920D01*
X141853Y167930D01*
X141920Y168009D01*
X141991Y168084D01*
X142000Y168102D01*
X142013Y168117D01*
X142052Y168213D01*
X142095Y168307D01*
X142097Y168327D01*
X142105Y168345D01*
X142123Y168512D01*
X142123Y175541D01*
X145648Y175541D01*
X145668Y175544D01*
X145687Y175542D01*
X145789Y175564D01*
X145891Y175580D01*
X145908Y175590D01*
X145928Y175594D01*
X146017Y175647D01*
X146108Y175696D01*
X146122Y175710D01*
X146139Y175720D01*
X146206Y175799D01*
X146278Y175874D01*
X146286Y175892D01*
X146299Y175907D01*
X146338Y176003D01*
X146381Y176097D01*
X146383Y176117D01*
X146391Y176135D01*
X146409Y176302D01*
X146409Y176836D01*
X146390Y176952D01*
X146372Y177070D01*
X146370Y177074D01*
X146370Y177078D01*
X146314Y177184D01*
X146259Y177289D01*
X146256Y177292D01*
X146254Y177296D01*
X146167Y177378D01*
X146083Y177460D01*
X146079Y177462D01*
X146076Y177465D01*
X145968Y177515D01*
X145861Y177566D01*
X145857Y177567D01*
X145853Y177569D01*
X145735Y177582D01*
X145617Y177596D01*
X145612Y177595D01*
X145609Y177596D01*
X145595Y177593D01*
X145451Y177571D01*
X145034Y177459D01*
X140823Y177459D01*
X140823Y184488D01*
X140820Y184507D01*
X140822Y184526D01*
X140822Y184527D01*
X140800Y184629D01*
X140783Y184731D01*
X140774Y184748D01*
X140770Y184768D01*
X140717Y184857D01*
X140668Y184948D01*
X140654Y184962D01*
X140644Y184979D01*
X140565Y185046D01*
X140490Y185117D01*
X140472Y185126D01*
X140457Y185139D01*
X140361Y185178D01*
X140267Y185221D01*
X140247Y185223D01*
X140229Y185231D01*
X140062Y185249D01*
X138538Y185249D01*
X138518Y185246D01*
X138499Y185248D01*
X138397Y185226D01*
X138295Y185209D01*
X138278Y185200D01*
X138258Y185196D01*
X138169Y185143D01*
X138078Y185094D01*
X138064Y185080D01*
X138047Y185070D01*
X137980Y184991D01*
X137909Y184916D01*
X137900Y184898D01*
X137887Y184883D01*
X137848Y184787D01*
X137805Y184693D01*
X137803Y184673D01*
X137795Y184655D01*
X137777Y184488D01*
X137777Y177459D01*
X133566Y177459D01*
X132919Y177632D01*
X132340Y177967D01*
X131890Y178417D01*
X131832Y178459D01*
X131780Y178508D01*
X131733Y178530D01*
X131691Y178560D01*
X131622Y178581D01*
X131557Y178611D01*
X131505Y178617D01*
X131455Y178633D01*
X131384Y178631D01*
X131313Y178639D01*
X131262Y178627D01*
X131210Y178626D01*
X131142Y178602D01*
X131072Y178586D01*
X131027Y178560D01*
X130979Y178542D01*
X130923Y178497D01*
X130861Y178460D01*
X130827Y178421D01*
X130787Y178388D01*
X130748Y178328D01*
X130701Y178273D01*
X130682Y178225D01*
X130654Y178181D01*
X130636Y178112D01*
X130609Y178045D01*
X130601Y177974D01*
X130593Y177943D01*
X130595Y177919D01*
X130591Y177878D01*
X130591Y173098D01*
X120902Y163409D01*
X114812Y163409D01*
X114792Y163406D01*
X114773Y163408D01*
X114671Y163386D01*
X114569Y163370D01*
X114552Y163360D01*
X114532Y163356D01*
X114443Y163303D01*
X114352Y163254D01*
X114338Y163240D01*
X114321Y163230D01*
X114254Y163151D01*
X114182Y163076D01*
X114174Y163058D01*
X114161Y163043D01*
X114122Y162947D01*
X114079Y162853D01*
X114077Y162833D01*
X114069Y162815D01*
X114051Y162648D01*
X114051Y162151D01*
X112849Y160949D01*
X100151Y160949D01*
X98949Y162151D01*
X98949Y173849D01*
X100151Y175051D01*
X112849Y175051D01*
X114051Y173849D01*
X114051Y173352D01*
X114054Y173332D01*
X114052Y173313D01*
X114074Y173211D01*
X114090Y173109D01*
X114100Y173092D01*
X114104Y173072D01*
X114157Y172983D01*
X114206Y172892D01*
X114220Y172878D01*
X114230Y172861D01*
X114309Y172794D01*
X114384Y172722D01*
X114402Y172714D01*
X114417Y172701D01*
X114513Y172662D01*
X114607Y172619D01*
X114627Y172617D01*
X114645Y172609D01*
X114812Y172591D01*
X116783Y172591D01*
X116873Y172605D01*
X116964Y172613D01*
X116994Y172625D01*
X117026Y172630D01*
X117107Y172673D01*
X117190Y172709D01*
X117223Y172735D01*
X117243Y172746D01*
X117265Y172769D01*
X117321Y172814D01*
X121186Y176679D01*
X121239Y176753D01*
X121299Y176822D01*
X121311Y176852D01*
X121330Y176878D01*
X121357Y176965D01*
X121391Y177050D01*
X121395Y177091D01*
X121402Y177113D01*
X121401Y177146D01*
X121409Y177217D01*
X121409Y177412D01*
X121394Y177506D01*
X121385Y177601D01*
X121374Y177627D01*
X121370Y177655D01*
X121325Y177739D01*
X121287Y177826D01*
X121268Y177847D01*
X121254Y177872D01*
X121185Y177938D01*
X121121Y178008D01*
X121097Y178022D01*
X121076Y178041D01*
X120990Y178082D01*
X120906Y178128D01*
X120879Y178133D01*
X120853Y178145D01*
X120758Y178156D01*
X120665Y178173D01*
X120637Y178169D01*
X120609Y178172D01*
X120515Y178152D01*
X120421Y178139D01*
X120389Y178124D01*
X120368Y178120D01*
X120340Y178103D01*
X120267Y178071D01*
X119681Y177732D01*
X119034Y177559D01*
X114823Y177559D01*
X114823Y184588D01*
X114820Y184608D01*
X114822Y184627D01*
X114800Y184729D01*
X114783Y184831D01*
X114774Y184848D01*
X114770Y184868D01*
X114717Y184957D01*
X114668Y185048D01*
X114654Y185062D01*
X114644Y185079D01*
X114565Y185146D01*
X114490Y185217D01*
X114472Y185226D01*
X114457Y185239D01*
X114361Y185278D01*
X114267Y185321D01*
X114247Y185323D01*
X114229Y185331D01*
X114062Y185349D01*
X113299Y185349D01*
X113299Y185351D01*
X114062Y185351D01*
X114082Y185354D01*
X114101Y185352D01*
X114203Y185374D01*
X114305Y185391D01*
X114322Y185400D01*
X114342Y185404D01*
X114431Y185457D01*
X114522Y185506D01*
X114536Y185520D01*
X114553Y185530D01*
X114620Y185609D01*
X114691Y185684D01*
X114700Y185702D01*
X114713Y185717D01*
X114752Y185813D01*
X114795Y185907D01*
X114797Y185927D01*
X114805Y185945D01*
X114823Y186112D01*
X114823Y193141D01*
X119034Y193141D01*
X119681Y192968D01*
X120267Y192629D01*
X120357Y192595D01*
X120443Y192555D01*
X120471Y192552D01*
X120497Y192542D01*
X120593Y192538D01*
X120687Y192528D01*
X120715Y192534D01*
X120743Y192533D01*
X120835Y192560D01*
X120928Y192580D01*
X120952Y192595D01*
X120979Y192603D01*
X121057Y192657D01*
X121139Y192706D01*
X121157Y192728D01*
X121180Y192744D01*
X121237Y192821D01*
X121299Y192893D01*
X121309Y192919D01*
X121326Y192942D01*
X121355Y193033D01*
X121391Y193121D01*
X121395Y193157D01*
X121401Y193176D01*
X121401Y193209D01*
X121409Y193288D01*
X121409Y195571D01*
X121398Y195642D01*
X121396Y195714D01*
X121378Y195763D01*
X121370Y195814D01*
X121336Y195877D01*
X121311Y195945D01*
X121279Y195985D01*
X121254Y196031D01*
X121202Y196081D01*
X121158Y196137D01*
X121114Y196165D01*
X121076Y196201D01*
X121011Y196231D01*
X120951Y196270D01*
X120900Y196282D01*
X120853Y196304D01*
X120782Y196312D01*
X120712Y196330D01*
X120660Y196326D01*
X120609Y196332D01*
X120538Y196316D01*
X120467Y196311D01*
X120419Y196290D01*
X120368Y196279D01*
X120307Y196242D01*
X120241Y196214D01*
X120185Y196170D01*
X120157Y196153D01*
X120142Y196135D01*
X120110Y196110D01*
X119549Y195549D01*
X107051Y195549D01*
X105849Y196751D01*
X105849Y197498D01*
X105846Y197518D01*
X105848Y197537D01*
X105826Y197639D01*
X105810Y197741D01*
X105800Y197758D01*
X105796Y197778D01*
X105743Y197867D01*
X105694Y197958D01*
X105680Y197972D01*
X105670Y197989D01*
X105591Y198056D01*
X105516Y198128D01*
X105498Y198136D01*
X105483Y198149D01*
X105387Y198188D01*
X105293Y198231D01*
X105273Y198233D01*
X105255Y198241D01*
X105088Y198259D01*
X82067Y198259D01*
X81977Y198245D01*
X81886Y198237D01*
X81856Y198225D01*
X81824Y198220D01*
X81743Y198177D01*
X81660Y198141D01*
X81627Y198115D01*
X81607Y198104D01*
X81585Y198081D01*
X81529Y198036D01*
X65814Y182321D01*
X65761Y182247D01*
X65701Y182178D01*
X65689Y182148D01*
X65670Y182122D01*
X65643Y182035D01*
X65609Y181950D01*
X65605Y181909D01*
X65598Y181887D01*
X65599Y181854D01*
X65591Y181783D01*
X65591Y132973D01*
X65605Y132883D01*
X65613Y132792D01*
X65625Y132762D01*
X65630Y132731D01*
X65673Y132650D01*
X65709Y132566D01*
X65735Y132534D01*
X65746Y132513D01*
X65769Y132491D01*
X65814Y132435D01*
X65945Y132304D01*
X66833Y130160D01*
X66833Y127840D01*
X65945Y125696D01*
X64304Y124055D01*
X62160Y123167D01*
X59840Y123167D01*
X57696Y124055D01*
X56055Y125696D01*
X55167Y127840D01*
X55167Y130160D01*
X56055Y132304D01*
X56186Y132435D01*
X56239Y132509D01*
X56299Y132578D01*
X56311Y132608D01*
X56330Y132635D01*
X56357Y132722D01*
X56391Y132807D01*
X56395Y132847D01*
X56402Y132870D01*
X56401Y132902D01*
X56409Y132973D01*
X56409Y185902D01*
X77948Y207441D01*
X105088Y207441D01*
X105108Y207444D01*
X105127Y207442D01*
X105229Y207464D01*
X105331Y207480D01*
X105348Y207490D01*
X105368Y207494D01*
X105457Y207547D01*
X105548Y207596D01*
X105562Y207610D01*
X105579Y207620D01*
X105646Y207699D01*
X105718Y207774D01*
X105726Y207792D01*
X105739Y207807D01*
X105778Y207903D01*
X105821Y207997D01*
X105823Y208017D01*
X105831Y208035D01*
X105849Y208202D01*
X105849Y208949D01*
X107051Y210151D01*
X108248Y210151D01*
X108268Y210154D01*
X108287Y210152D01*
X108389Y210174D01*
X108491Y210190D01*
X108508Y210200D01*
X108528Y210204D01*
X108617Y210257D01*
X108708Y210306D01*
X108722Y210320D01*
X108739Y210330D01*
X108806Y210409D01*
X108878Y210484D01*
X108886Y210502D01*
X108899Y210517D01*
X108938Y210613D01*
X108981Y210707D01*
X108983Y210727D01*
X108991Y210745D01*
X109009Y210912D01*
X109009Y214505D01*
X108990Y214620D01*
X108973Y214736D01*
X108971Y214742D01*
X108970Y214748D01*
X108915Y214851D01*
X108862Y214956D01*
X108857Y214960D01*
X108854Y214965D01*
X108770Y215046D01*
X108686Y215128D01*
X108680Y215131D01*
X108676Y215135D01*
X108659Y215143D01*
X108539Y215209D01*
X108122Y215382D01*
X105402Y218102D01*
X103929Y221656D01*
X103929Y240744D01*
X105402Y244298D01*
X108122Y247018D01*
X111676Y248491D01*
X115524Y248491D01*
X119078Y247018D01*
X121798Y244298D01*
X123271Y240744D01*
X123271Y221656D01*
X121798Y218102D01*
X119078Y215382D01*
X118661Y215209D01*
X118561Y215147D01*
X118461Y215087D01*
X118457Y215082D01*
X118452Y215079D01*
X118377Y214989D01*
X118301Y214900D01*
X118299Y214894D01*
X118295Y214890D01*
X118253Y214782D01*
X118209Y214672D01*
X118208Y214665D01*
X118207Y214660D01*
X118206Y214642D01*
X118191Y214505D01*
X118191Y210912D01*
X118194Y210892D01*
X118192Y210873D01*
X118214Y210771D01*
X118230Y210669D01*
X118240Y210652D01*
X118244Y210632D01*
X118297Y210543D01*
X118346Y210452D01*
X118360Y210438D01*
X118370Y210421D01*
X118449Y210354D01*
X118524Y210282D01*
X118542Y210274D01*
X118557Y210261D01*
X118653Y210222D01*
X118747Y210179D01*
X118767Y210177D01*
X118785Y210169D01*
X118952Y210151D01*
X119549Y210151D01*
X120751Y208949D01*
X120751Y207465D01*
X120762Y207395D01*
X120764Y207323D01*
X120782Y207274D01*
X120790Y207223D01*
X120824Y207159D01*
X120849Y207092D01*
X120881Y207051D01*
X120906Y207005D01*
X120958Y206956D01*
X121002Y206900D01*
X121046Y206872D01*
X121084Y206836D01*
X121149Y206806D01*
X121209Y206767D01*
X121260Y206754D01*
X121307Y206732D01*
X121378Y206724D01*
X121448Y206707D01*
X121500Y206711D01*
X121551Y206705D01*
X121622Y206720D01*
X121693Y206726D01*
X121741Y206746D01*
X121792Y206757D01*
X121853Y206794D01*
X121919Y206822D01*
X121975Y206867D01*
X122003Y206883D01*
X122018Y206901D01*
X122050Y206927D01*
X122696Y207573D01*
X124840Y208461D01*
X127160Y208461D01*
X129304Y207573D01*
X129313Y207564D01*
X129387Y207511D01*
X129456Y207451D01*
X129487Y207439D01*
X129513Y207420D01*
X129600Y207393D01*
X129685Y207359D01*
X129726Y207355D01*
X129748Y207348D01*
X129780Y207349D01*
X129851Y207341D01*
X131088Y207341D01*
X131108Y207344D01*
X131127Y207342D01*
X131229Y207364D01*
X131331Y207380D01*
X131348Y207390D01*
X131368Y207394D01*
X131457Y207447D01*
X131548Y207496D01*
X131562Y207510D01*
X131579Y207520D01*
X131646Y207599D01*
X131718Y207674D01*
X131726Y207692D01*
X131739Y207707D01*
X131778Y207803D01*
X131821Y207897D01*
X131823Y207917D01*
X131831Y207935D01*
X131849Y208102D01*
X131849Y208849D01*
X133051Y210051D01*
X133648Y210051D01*
X133668Y210054D01*
X133687Y210052D01*
X133789Y210074D01*
X133891Y210090D01*
X133908Y210100D01*
X133928Y210104D01*
X134017Y210157D01*
X134108Y210206D01*
X134122Y210220D01*
X134139Y210230D01*
X134206Y210309D01*
X134278Y210384D01*
X134286Y210402D01*
X134299Y210417D01*
X134338Y210513D01*
X134381Y210607D01*
X134383Y210627D01*
X134391Y210645D01*
X134409Y210812D01*
X134409Y214505D01*
X134390Y214620D01*
X134373Y214736D01*
X134371Y214742D01*
X134370Y214748D01*
X134315Y214851D01*
X134262Y214956D01*
X134257Y214960D01*
X134254Y214965D01*
X134170Y215046D01*
X134086Y215128D01*
X134080Y215131D01*
X134076Y215135D01*
X134059Y215143D01*
X133939Y215209D01*
X133522Y215382D01*
X130802Y218102D01*
X129329Y221656D01*
X129329Y240744D01*
X130802Y244298D01*
X133522Y247018D01*
X137076Y248491D01*
X140924Y248491D01*
X144478Y247018D01*
X147198Y244298D01*
X148671Y240744D01*
X148671Y221656D01*
X147198Y218102D01*
X144478Y215382D01*
X144061Y215209D01*
X143961Y215147D01*
X143861Y215087D01*
X143857Y215082D01*
X143852Y215079D01*
X143777Y214989D01*
X143701Y214900D01*
X143699Y214894D01*
X143695Y214890D01*
X143653Y214782D01*
X143609Y214672D01*
X143608Y214665D01*
X143607Y214660D01*
X143606Y214642D01*
X143591Y214505D01*
X143591Y210812D01*
X143594Y210792D01*
X143592Y210773D01*
X143614Y210671D01*
X143630Y210569D01*
X143640Y210552D01*
X143644Y210532D01*
X143697Y210443D01*
X143746Y210352D01*
X143760Y210338D01*
X143770Y210321D01*
X143849Y210254D01*
X143924Y210182D01*
X143942Y210174D01*
X143957Y210161D01*
X144053Y210122D01*
X144147Y210079D01*
X144167Y210077D01*
X144185Y210069D01*
X144352Y210051D01*
X145549Y210051D01*
X146751Y208849D01*
X146751Y203081D01*
X146762Y203010D01*
X146764Y202938D01*
X146782Y202889D01*
X146790Y202838D01*
X146824Y202775D01*
X146849Y202707D01*
X146881Y202667D01*
X146906Y202621D01*
X146958Y202571D01*
X147002Y202515D01*
X147046Y202487D01*
X147084Y202451D01*
X147149Y202421D01*
X147209Y202382D01*
X147260Y202370D01*
X147307Y202348D01*
X147378Y202340D01*
X147448Y202322D01*
X147500Y202326D01*
X147551Y202321D01*
X147622Y202336D01*
X147693Y202341D01*
X147741Y202362D01*
X147792Y202373D01*
X147853Y202410D01*
X147919Y202438D01*
X147975Y202483D01*
X148003Y202499D01*
X148018Y202517D01*
X148050Y202543D01*
X149321Y203814D01*
X152748Y207241D01*
X156088Y207241D01*
X156108Y207244D01*
X156127Y207242D01*
X156229Y207264D01*
X156331Y207280D01*
X156348Y207290D01*
X156368Y207294D01*
X156457Y207347D01*
X156548Y207396D01*
X156562Y207410D01*
X156579Y207420D01*
X156646Y207499D01*
X156718Y207574D01*
X156726Y207592D01*
X156739Y207607D01*
X156778Y207703D01*
X156821Y207797D01*
X156823Y207817D01*
X156831Y207835D01*
X156849Y208002D01*
X156849Y208749D01*
X158051Y209951D01*
X159048Y209951D01*
X159068Y209954D01*
X159087Y209952D01*
X159189Y209974D01*
X159291Y209990D01*
X159308Y210000D01*
X159328Y210004D01*
X159417Y210057D01*
X159508Y210106D01*
X159522Y210120D01*
X159539Y210130D01*
X159606Y210209D01*
X159678Y210284D01*
X159686Y210302D01*
X159699Y210317D01*
X159738Y210413D01*
X159781Y210507D01*
X159783Y210527D01*
X159791Y210545D01*
X159809Y210712D01*
X159809Y214505D01*
X159790Y214620D01*
X159773Y214736D01*
X159771Y214742D01*
X159770Y214748D01*
X159715Y214851D01*
X159662Y214956D01*
X159657Y214960D01*
X159654Y214965D01*
X159570Y215046D01*
X159486Y215128D01*
X159480Y215131D01*
X159476Y215135D01*
X159459Y215143D01*
X159339Y215209D01*
X158922Y215382D01*
X156202Y218102D01*
X154729Y221656D01*
X154729Y240744D01*
X156202Y244298D01*
X158922Y247018D01*
X162476Y248491D01*
X166324Y248491D01*
X169878Y247018D01*
X172598Y244298D01*
X174071Y240744D01*
X174071Y221656D01*
X172598Y218102D01*
X169878Y215382D01*
X169461Y215209D01*
X169361Y215147D01*
X169261Y215087D01*
X169257Y215082D01*
X169252Y215079D01*
X169177Y214989D01*
X169101Y214900D01*
X169099Y214894D01*
X169095Y214890D01*
X169053Y214782D01*
X169009Y214672D01*
X169008Y214665D01*
X169007Y214660D01*
X169006Y214642D01*
X168991Y214505D01*
X168991Y210712D01*
X168994Y210692D01*
X168992Y210673D01*
X169014Y210571D01*
X169030Y210469D01*
X169040Y210452D01*
X169044Y210432D01*
X169097Y210343D01*
X169146Y210252D01*
X169160Y210238D01*
X169170Y210221D01*
X169249Y210154D01*
X169324Y210082D01*
X169342Y210074D01*
X169357Y210061D01*
X169453Y210022D01*
X169547Y209979D01*
X169567Y209977D01*
X169585Y209969D01*
X169752Y209951D01*
X170549Y209951D01*
X171751Y208749D01*
X171751Y196551D01*
X170549Y195349D01*
X158051Y195349D01*
X156890Y196510D01*
X156832Y196551D01*
X156780Y196601D01*
X156733Y196623D01*
X156691Y196653D01*
X156622Y196674D01*
X156557Y196704D01*
X156505Y196710D01*
X156455Y196725D01*
X156384Y196724D01*
X156313Y196732D01*
X156262Y196720D01*
X156210Y196719D01*
X156142Y196694D01*
X156072Y196679D01*
X156027Y196653D01*
X155979Y196635D01*
X155923Y196590D01*
X155861Y196553D01*
X155827Y196514D01*
X155787Y196481D01*
X155748Y196421D01*
X155701Y196366D01*
X155682Y196318D01*
X155654Y196274D01*
X155636Y196205D01*
X155609Y196138D01*
X155601Y196067D01*
X155593Y196036D01*
X155595Y196012D01*
X155591Y195971D01*
X155591Y192522D01*
X155602Y192451D01*
X155604Y192379D01*
X155622Y192330D01*
X155630Y192279D01*
X155664Y192216D01*
X155689Y192148D01*
X155721Y192108D01*
X155746Y192062D01*
X155798Y192012D01*
X155842Y191956D01*
X155886Y191928D01*
X155924Y191892D01*
X155989Y191862D01*
X156049Y191823D01*
X156100Y191810D01*
X156147Y191789D01*
X156218Y191781D01*
X156288Y191763D01*
X156340Y191767D01*
X156391Y191761D01*
X156462Y191777D01*
X156533Y191782D01*
X156581Y191803D01*
X156632Y191814D01*
X156693Y191851D01*
X156759Y191879D01*
X156815Y191923D01*
X156843Y191940D01*
X156858Y191958D01*
X156890Y191983D01*
X157340Y192433D01*
X157919Y192768D01*
X158566Y192941D01*
X162777Y192941D01*
X162777Y185912D01*
X162780Y185892D01*
X162778Y185873D01*
X162800Y185771D01*
X162817Y185669D01*
X162826Y185652D01*
X162830Y185632D01*
X162883Y185543D01*
X162932Y185452D01*
X162946Y185438D01*
X162956Y185421D01*
X163035Y185354D01*
X163110Y185283D01*
X163128Y185274D01*
X163143Y185261D01*
X163239Y185222D01*
X163333Y185179D01*
X163353Y185177D01*
X163371Y185169D01*
X163538Y185151D01*
X164301Y185151D01*
X164301Y185149D01*
X163538Y185149D01*
X163518Y185146D01*
X163499Y185148D01*
X163397Y185126D01*
X163295Y185109D01*
X163278Y185100D01*
X163258Y185096D01*
X163169Y185043D01*
X163078Y184994D01*
X163064Y184980D01*
X163047Y184970D01*
X162980Y184891D01*
X162909Y184816D01*
X162900Y184798D01*
X162887Y184783D01*
X162848Y184687D01*
X162805Y184593D01*
X162803Y184573D01*
X162795Y184555D01*
X162777Y184388D01*
X162777Y177359D01*
X158566Y177359D01*
X157919Y177532D01*
X157340Y177867D01*
X156890Y178317D01*
X156832Y178359D01*
X156780Y178408D01*
X156733Y178430D01*
X156691Y178460D01*
X156622Y178481D01*
X156557Y178511D01*
X156505Y178517D01*
X156455Y178533D01*
X156384Y178531D01*
X156313Y178539D01*
X156262Y178527D01*
X156210Y178526D01*
X156142Y178502D01*
X156072Y178486D01*
X156027Y178460D01*
X155979Y178442D01*
X155923Y178397D01*
X155861Y178360D01*
X155827Y178321D01*
X155787Y178288D01*
X155748Y178228D01*
X155701Y178173D01*
X155682Y178125D01*
X155654Y178081D01*
X155636Y178012D01*
X155609Y177945D01*
X155601Y177874D01*
X155593Y177843D01*
X155595Y177819D01*
X155591Y177778D01*
X155591Y132973D01*
X155605Y132883D01*
X155613Y132792D01*
X155625Y132763D01*
X155630Y132731D01*
X155673Y132650D01*
X155709Y132566D01*
X155735Y132534D01*
X155746Y132513D01*
X155769Y132491D01*
X155814Y132435D01*
X155945Y132304D01*
X156833Y130160D01*
X156833Y127840D01*
X155923Y125643D01*
X155912Y125599D01*
X155893Y125557D01*
X155885Y125480D01*
X155867Y125404D01*
X155871Y125358D01*
X155866Y125313D01*
X155883Y125236D01*
X155890Y125159D01*
X155908Y125117D01*
X155918Y125072D01*
X155958Y125005D01*
X155990Y124934D01*
X156021Y124900D01*
X156044Y124861D01*
X156104Y124810D01*
X156156Y124753D01*
X156196Y124731D01*
X156231Y124701D01*
X156304Y124672D01*
X156372Y124635D01*
X156417Y124626D01*
X156459Y124609D01*
X156595Y124594D01*
X156614Y124591D01*
X156619Y124592D01*
X156626Y124591D01*
X195283Y124591D01*
X195373Y124605D01*
X195464Y124613D01*
X195494Y124625D01*
X195526Y124630D01*
X195607Y124673D01*
X195690Y124709D01*
X195723Y124735D01*
X195743Y124746D01*
X195765Y124769D01*
X195821Y124814D01*
X213117Y142110D01*
X213159Y142168D01*
X213209Y142220D01*
X213231Y142267D01*
X213261Y142309D01*
X213282Y142378D01*
X213312Y142443D01*
X213318Y142495D01*
X213333Y142545D01*
X213332Y142616D01*
X213339Y142687D01*
X213328Y142738D01*
X213327Y142790D01*
X213302Y142858D01*
X213287Y142928D01*
X213260Y142972D01*
X213243Y143021D01*
X213198Y143077D01*
X213161Y143139D01*
X213121Y143173D01*
X213089Y143213D01*
X213029Y143252D01*
X212974Y143299D01*
X212926Y143318D01*
X212882Y143346D01*
X212812Y143364D01*
X212746Y143391D01*
X212675Y143399D01*
X212643Y143407D01*
X212620Y143405D01*
X212579Y143409D01*
X199973Y143409D01*
X199883Y143395D01*
X199792Y143387D01*
X199763Y143375D01*
X199731Y143370D01*
X199650Y143327D01*
X199566Y143291D01*
X199534Y143265D01*
X199513Y143254D01*
X199491Y143231D01*
X199435Y143186D01*
X199304Y143055D01*
X197160Y142167D01*
X194840Y142167D01*
X192696Y143055D01*
X191055Y144696D01*
X190167Y146840D01*
X190167Y149160D01*
X191055Y151304D01*
X192696Y152945D01*
X194840Y153833D01*
X197160Y153833D01*
X199304Y152945D01*
X199435Y152814D01*
X199509Y152761D01*
X199578Y152701D01*
X199609Y152689D01*
X199635Y152670D01*
X199722Y152643D01*
X199807Y152609D01*
X199848Y152605D01*
X199870Y152598D01*
X199902Y152599D01*
X199973Y152591D01*
X212783Y152591D01*
X212873Y152605D01*
X212964Y152613D01*
X212994Y152625D01*
X213026Y152630D01*
X213107Y152673D01*
X213190Y152709D01*
X213223Y152735D01*
X213243Y152746D01*
X213265Y152769D01*
X213321Y152814D01*
X255617Y195110D01*
X255659Y195168D01*
X255709Y195220D01*
X255731Y195267D01*
X255761Y195309D01*
X255782Y195378D01*
X255812Y195443D01*
X255818Y195495D01*
X255833Y195545D01*
X255832Y195616D01*
X255839Y195687D01*
X255828Y195738D01*
X255827Y195790D01*
X255802Y195858D01*
X255787Y195928D01*
X255760Y195973D01*
X255743Y196021D01*
X255698Y196077D01*
X255661Y196139D01*
X255621Y196173D01*
X255589Y196213D01*
X255529Y196252D01*
X255474Y196299D01*
X255426Y196318D01*
X255382Y196346D01*
X255312Y196364D01*
X255246Y196391D01*
X255175Y196399D01*
X255143Y196407D01*
X255120Y196405D01*
X255079Y196409D01*
X230973Y196409D01*
X230883Y196395D01*
X230792Y196387D01*
X230763Y196375D01*
X230731Y196370D01*
X230650Y196327D01*
X230566Y196291D01*
X230534Y196265D01*
X230513Y196254D01*
X230491Y196231D01*
X230435Y196186D01*
X230304Y196055D01*
X228160Y195167D01*
X225840Y195167D01*
X223696Y196055D01*
X222055Y197696D01*
X221167Y199840D01*
X221167Y202160D01*
X222055Y204304D01*
X223696Y205945D01*
X225840Y206833D01*
X228160Y206833D01*
X230304Y205945D01*
X230435Y205814D01*
X230509Y205761D01*
X230578Y205701D01*
X230609Y205689D01*
X230635Y205670D01*
X230722Y205643D01*
X230807Y205609D01*
X230848Y205605D01*
X230870Y205598D01*
X230902Y205599D01*
X230973Y205591D01*
X393783Y205591D01*
X393873Y205605D01*
X393964Y205613D01*
X393994Y205625D01*
X394026Y205630D01*
X394107Y205673D01*
X394190Y205709D01*
X394223Y205735D01*
X394243Y205746D01*
X394265Y205769D01*
X394321Y205814D01*
X433186Y244679D01*
X435117Y246610D01*
X435159Y246668D01*
X435209Y246720D01*
X435231Y246767D01*
X435261Y246809D01*
X435282Y246878D01*
X435312Y246943D01*
X435318Y246995D01*
X435333Y247045D01*
X435332Y247116D01*
X435339Y247187D01*
X435328Y247238D01*
X435327Y247290D01*
X435302Y247358D01*
X435287Y247428D01*
X435260Y247473D01*
X435243Y247521D01*
X435198Y247577D01*
X435161Y247639D01*
X435121Y247673D01*
X435089Y247713D01*
X435029Y247752D01*
X434974Y247799D01*
X434926Y247818D01*
X434882Y247846D01*
X434812Y247864D01*
X434746Y247891D01*
X434675Y247899D01*
X434643Y247907D01*
X434620Y247905D01*
X434579Y247909D01*
X399425Y247909D01*
X399354Y247898D01*
X399283Y247896D01*
X399234Y247878D01*
X399182Y247870D01*
X399119Y247836D01*
X399052Y247811D01*
X399011Y247779D01*
X398965Y247754D01*
X398916Y247702D01*
X398860Y247658D01*
X398831Y247614D01*
X398796Y247576D01*
X398765Y247511D01*
X398727Y247451D01*
X398714Y247400D01*
X398692Y247353D01*
X398684Y247282D01*
X398666Y247212D01*
X398671Y247160D01*
X398665Y247109D01*
X398680Y247038D01*
X398686Y246967D01*
X398706Y246919D01*
X398717Y246868D01*
X398754Y246807D01*
X398782Y246741D01*
X398827Y246685D01*
X398843Y246657D01*
X398861Y246642D01*
X398887Y246610D01*
X401198Y244298D01*
X402671Y240744D01*
X402671Y221656D01*
X401198Y218102D01*
X398478Y215382D01*
X394924Y213909D01*
X391076Y213909D01*
X387522Y215382D01*
X384802Y218102D01*
X383329Y221656D01*
X383329Y240744D01*
X384802Y244298D01*
X387113Y246610D01*
X387155Y246668D01*
X387204Y246720D01*
X387226Y246767D01*
X387257Y246809D01*
X387278Y246878D01*
X387308Y246943D01*
X387314Y246995D01*
X387329Y247045D01*
X387327Y247116D01*
X387335Y247187D01*
X387324Y247238D01*
X387323Y247290D01*
X387298Y247358D01*
X387283Y247428D01*
X387256Y247473D01*
X387238Y247521D01*
X387193Y247577D01*
X387157Y247639D01*
X387117Y247673D01*
X387085Y247713D01*
X387024Y247752D01*
X386970Y247799D01*
X386922Y247818D01*
X386878Y247846D01*
X386808Y247864D01*
X386742Y247891D01*
X386670Y247899D01*
X386639Y247907D01*
X386616Y247905D01*
X386575Y247909D01*
X383717Y247909D01*
X383627Y247895D01*
X383536Y247887D01*
X383506Y247875D01*
X383474Y247870D01*
X383393Y247827D01*
X383310Y247791D01*
X383277Y247765D01*
X383257Y247754D01*
X383235Y247731D01*
X383179Y247686D01*
X377327Y241835D01*
X377259Y241740D01*
X377189Y241646D01*
X377187Y241640D01*
X377184Y241635D01*
X377149Y241524D01*
X377113Y241412D01*
X377113Y241406D01*
X377111Y241400D01*
X377114Y241283D01*
X377116Y241167D01*
X377118Y241159D01*
X377118Y241154D01*
X377124Y241137D01*
X377162Y241005D01*
X377271Y240744D01*
X377271Y221656D01*
X375798Y218102D01*
X373078Y215382D01*
X369524Y213909D01*
X365676Y213909D01*
X362122Y215382D01*
X359402Y218102D01*
X357929Y221656D01*
X357929Y240744D01*
X359402Y244298D01*
X362122Y247018D01*
X365676Y248491D01*
X369524Y248491D01*
X370097Y248253D01*
X370210Y248227D01*
X370324Y248198D01*
X370330Y248199D01*
X370336Y248197D01*
X370452Y248208D01*
X370569Y248217D01*
X370575Y248220D01*
X370581Y248220D01*
X370689Y248268D01*
X370795Y248314D01*
X370801Y248318D01*
X370806Y248320D01*
X370820Y248333D01*
X370926Y248418D01*
X378617Y256110D01*
X378659Y256168D01*
X378709Y256220D01*
X378731Y256267D01*
X378761Y256309D01*
X378782Y256378D01*
X378812Y256443D01*
X378818Y256495D01*
X378833Y256545D01*
X378832Y256616D01*
X378839Y256687D01*
X378828Y256738D01*
X378827Y256790D01*
X378802Y256858D01*
X378787Y256928D01*
X378760Y256972D01*
X378743Y257021D01*
X378698Y257077D01*
X378661Y257139D01*
X378621Y257173D01*
X378589Y257213D01*
X378529Y257252D01*
X378474Y257299D01*
X378426Y257318D01*
X378382Y257346D01*
X378312Y257364D01*
X378246Y257391D01*
X378175Y257399D01*
X378143Y257407D01*
X378120Y257405D01*
X378079Y257409D01*
X58217Y257409D01*
X58127Y257395D01*
X58036Y257387D01*
X58006Y257375D01*
X57974Y257370D01*
X57893Y257327D01*
X57810Y257291D01*
X57777Y257265D01*
X57757Y257254D01*
X57735Y257231D01*
X57679Y257186D01*
X45721Y245229D01*
X45653Y245134D01*
X45583Y245040D01*
X45582Y245035D01*
X45578Y245029D01*
X45544Y244918D01*
X45507Y244807D01*
X45507Y244800D01*
X45505Y244794D01*
X45509Y244677D01*
X45510Y244561D01*
X45512Y244553D01*
X45512Y244548D01*
X45518Y244531D01*
X45556Y244400D01*
X47071Y240744D01*
X47071Y221656D01*
X45598Y218102D01*
X42878Y215382D01*
X39324Y213909D01*
X35476Y213909D01*
X31922Y215382D01*
X29202Y218102D01*
X27729Y221656D01*
X27729Y240744D01*
X29202Y244298D01*
X31922Y247018D01*
X35476Y248491D01*
X35683Y248491D01*
X35773Y248505D01*
X35864Y248513D01*
X35894Y248525D01*
X35926Y248530D01*
X36007Y248573D01*
X36090Y248609D01*
X36123Y248635D01*
X36143Y248646D01*
X36165Y248669D01*
X36221Y248714D01*
X54098Y266591D01*
X595989Y266591D01*
X632121Y230459D01*
X632121Y177641D01*
X622214Y167734D01*
X622161Y167660D01*
X622101Y167590D01*
X622089Y167560D01*
X622070Y167534D01*
X622043Y167447D01*
X622009Y167362D01*
X622005Y167321D01*
X621998Y167299D01*
X621999Y167267D01*
X621991Y167196D01*
X621991Y165776D01*
X620518Y162222D01*
X617798Y159502D01*
X614244Y158029D01*
X595156Y158029D01*
X591602Y159502D01*
X588882Y162222D01*
X587409Y165776D01*
X587409Y169624D01*
X588882Y173178D01*
X591602Y175898D01*
X595156Y177371D01*
X614244Y177371D01*
X617042Y176211D01*
X617156Y176185D01*
X617269Y176156D01*
X617276Y176157D01*
X617282Y176155D01*
X617398Y176166D01*
X617515Y176175D01*
X617520Y176178D01*
X617527Y176178D01*
X617634Y176226D01*
X617741Y176272D01*
X617747Y176276D01*
X617751Y176278D01*
X617765Y176291D01*
X617872Y176377D01*
X622716Y181221D01*
X622769Y181295D01*
X622829Y181364D01*
X622841Y181394D01*
X622860Y181421D01*
X622887Y181508D01*
X622921Y181593D01*
X622925Y181633D01*
X622932Y181656D01*
X622931Y181688D01*
X622939Y181759D01*
X622939Y189639D01*
X622924Y189735D01*
X622914Y189832D01*
X622904Y189856D01*
X622900Y189882D01*
X622854Y189968D01*
X622814Y190057D01*
X622797Y190076D01*
X622784Y190099D01*
X622714Y190167D01*
X622648Y190238D01*
X622625Y190251D01*
X622606Y190269D01*
X622518Y190310D01*
X622432Y190357D01*
X622407Y190361D01*
X622383Y190372D01*
X622286Y190383D01*
X622190Y190400D01*
X622164Y190397D01*
X622139Y190400D01*
X622043Y190379D01*
X621947Y190365D01*
X621924Y190353D01*
X621898Y190347D01*
X621815Y190297D01*
X621728Y190253D01*
X621709Y190234D01*
X621687Y190221D01*
X621624Y190147D01*
X621556Y190078D01*
X621540Y190049D01*
X621527Y190034D01*
X621515Y190004D01*
X621475Y189931D01*
X620518Y187622D01*
X617798Y184902D01*
X614244Y183429D01*
X595156Y183429D01*
X591602Y184902D01*
X588882Y187622D01*
X587409Y191176D01*
X587409Y195024D01*
X587764Y195879D01*
X587790Y195993D01*
X587819Y196107D01*
X587818Y196113D01*
X587820Y196119D01*
X587809Y196235D01*
X587800Y196352D01*
X587797Y196357D01*
X587797Y196364D01*
X587749Y196472D01*
X587704Y196578D01*
X587699Y196584D01*
X587697Y196588D01*
X587684Y196603D01*
X587599Y196709D01*
X536621Y247686D01*
X536547Y247739D01*
X536478Y247799D01*
X536448Y247811D01*
X536422Y247830D01*
X536335Y247857D01*
X536250Y247891D01*
X536209Y247895D01*
X536187Y247902D01*
X536154Y247901D01*
X536083Y247909D01*
X489421Y247909D01*
X489350Y247898D01*
X489278Y247896D01*
X489229Y247878D01*
X489178Y247870D01*
X489115Y247836D01*
X489047Y247811D01*
X489007Y247779D01*
X488961Y247754D01*
X488911Y247702D01*
X488855Y247658D01*
X488827Y247614D01*
X488791Y247576D01*
X488761Y247511D01*
X488722Y247451D01*
X488710Y247400D01*
X488688Y247353D01*
X488680Y247282D01*
X488662Y247212D01*
X488666Y247160D01*
X488661Y247109D01*
X488676Y247038D01*
X488681Y246967D01*
X488702Y246919D01*
X488713Y246868D01*
X488750Y246807D01*
X488778Y246741D01*
X488823Y246685D01*
X488839Y246657D01*
X488857Y246642D01*
X488883Y246610D01*
X490814Y244679D01*
X512179Y223314D01*
X512253Y223261D01*
X512322Y223201D01*
X512352Y223189D01*
X512378Y223170D01*
X512465Y223143D01*
X512550Y223109D01*
X512591Y223105D01*
X512613Y223098D01*
X512646Y223099D01*
X512717Y223091D01*
X520005Y223091D01*
X520120Y223109D01*
X520236Y223127D01*
X520242Y223129D01*
X520248Y223130D01*
X520351Y223185D01*
X520456Y223238D01*
X520460Y223243D01*
X520466Y223246D01*
X520546Y223330D01*
X520628Y223414D01*
X520631Y223420D01*
X520635Y223424D01*
X520643Y223441D01*
X520709Y223561D01*
X520882Y223978D01*
X523602Y226698D01*
X527156Y228171D01*
X546244Y228171D01*
X549798Y226698D01*
X552518Y223978D01*
X553991Y220424D01*
X553991Y216576D01*
X552518Y213022D01*
X549798Y210302D01*
X546244Y208829D01*
X527156Y208829D01*
X523602Y210302D01*
X520882Y213022D01*
X520709Y213439D01*
X520647Y213538D01*
X520587Y213639D01*
X520582Y213643D01*
X520579Y213648D01*
X520490Y213722D01*
X520400Y213799D01*
X520394Y213801D01*
X520390Y213805D01*
X520282Y213846D01*
X520172Y213891D01*
X520165Y213892D01*
X520160Y213893D01*
X520142Y213894D01*
X520005Y213909D01*
X513337Y213909D01*
X513267Y213898D01*
X513195Y213896D01*
X513146Y213878D01*
X513095Y213870D01*
X513031Y213836D01*
X512964Y213811D01*
X512923Y213779D01*
X512877Y213754D01*
X512828Y213702D01*
X512772Y213658D01*
X512744Y213614D01*
X512708Y213576D01*
X512678Y213511D01*
X512639Y213451D01*
X512626Y213400D01*
X512604Y213353D01*
X512596Y213282D01*
X512579Y213212D01*
X512583Y213160D01*
X512577Y213109D01*
X512592Y213038D01*
X512598Y212967D01*
X512618Y212919D01*
X512629Y212868D01*
X512666Y212807D01*
X512694Y212741D01*
X512739Y212685D01*
X512756Y212657D01*
X512773Y212642D01*
X512799Y212610D01*
X513591Y211818D01*
X513591Y179917D01*
X513594Y179898D01*
X513592Y179880D01*
X513607Y179811D01*
X513613Y179736D01*
X513625Y179706D01*
X513630Y179674D01*
X513641Y179655D01*
X513644Y179640D01*
X513677Y179584D01*
X513709Y179510D01*
X513735Y179477D01*
X513746Y179457D01*
X513764Y179440D01*
X513770Y179429D01*
X513781Y179419D01*
X513814Y179379D01*
X519910Y173283D01*
X519926Y173271D01*
X519938Y173255D01*
X520004Y173213D01*
X520044Y173179D01*
X520067Y173170D01*
X520109Y173139D01*
X520128Y173133D01*
X520145Y173122D01*
X520246Y173097D01*
X520250Y173096D01*
X520273Y173087D01*
X520283Y173086D01*
X520344Y173067D01*
X520364Y173067D01*
X520384Y173062D01*
X520487Y173070D01*
X520590Y173073D01*
X520609Y173080D01*
X520629Y173082D01*
X520686Y173106D01*
X520699Y173108D01*
X520729Y173124D01*
X520821Y173158D01*
X520837Y173170D01*
X520855Y173178D01*
X520902Y173215D01*
X520917Y173223D01*
X520932Y173239D01*
X520986Y173283D01*
X523602Y175898D01*
X527156Y177371D01*
X546244Y177371D01*
X549798Y175898D01*
X552518Y173178D01*
X553991Y169624D01*
X553991Y165776D01*
X552518Y162222D01*
X549798Y159502D01*
X546244Y158029D01*
X527156Y158029D01*
X523602Y159502D01*
X520882Y162222D01*
X520709Y162639D01*
X520647Y162738D01*
X520587Y162839D01*
X520582Y162843D01*
X520579Y162848D01*
X520490Y162922D01*
X520400Y162999D01*
X520394Y163001D01*
X520390Y163005D01*
X520282Y163047D01*
X520172Y163091D01*
X520165Y163092D01*
X520160Y163093D01*
X520142Y163094D01*
X520005Y163109D01*
X517098Y163109D01*
X504409Y175798D01*
X504409Y207700D01*
X504395Y207790D01*
X504387Y207881D01*
X504375Y207911D01*
X504370Y207943D01*
X504327Y208023D01*
X504291Y208107D01*
X504265Y208139D01*
X504254Y208160D01*
X504231Y208182D01*
X504186Y208238D01*
X481780Y230645D01*
X481706Y230698D01*
X481636Y230757D01*
X481606Y230769D01*
X481580Y230788D01*
X481493Y230815D01*
X481408Y230849D01*
X481367Y230854D01*
X481345Y230861D01*
X481313Y230860D01*
X481241Y230868D01*
X442759Y230868D01*
X442668Y230853D01*
X442578Y230846D01*
X442548Y230833D01*
X442516Y230828D01*
X442435Y230785D01*
X442351Y230749D01*
X442319Y230724D01*
X442298Y230713D01*
X442276Y230689D01*
X442220Y230645D01*
X435966Y224390D01*
X435924Y224332D01*
X435875Y224280D01*
X435853Y224233D01*
X435822Y224191D01*
X435801Y224122D01*
X435771Y224057D01*
X435765Y224005D01*
X435750Y223955D01*
X435752Y223884D01*
X435744Y223813D01*
X435755Y223762D01*
X435756Y223710D01*
X435781Y223642D01*
X435796Y223572D01*
X435823Y223527D01*
X435841Y223479D01*
X435886Y223423D01*
X435922Y223361D01*
X435962Y223327D01*
X435995Y223287D01*
X436055Y223248D01*
X436109Y223201D01*
X436158Y223182D01*
X436201Y223154D01*
X436271Y223136D01*
X436337Y223109D01*
X436409Y223101D01*
X436440Y223093D01*
X436463Y223095D01*
X436504Y223091D01*
X452005Y223091D01*
X452120Y223109D01*
X452236Y223127D01*
X452242Y223129D01*
X452248Y223130D01*
X452351Y223185D01*
X452456Y223238D01*
X452460Y223243D01*
X452466Y223246D01*
X452546Y223330D01*
X452628Y223414D01*
X452631Y223420D01*
X452635Y223424D01*
X452643Y223441D01*
X452709Y223561D01*
X452882Y223978D01*
X455602Y226698D01*
X459156Y228171D01*
X478244Y228171D01*
X481798Y226698D01*
X484518Y223978D01*
X485991Y220424D01*
X485991Y216576D01*
X484518Y213022D01*
X481798Y210302D01*
X478244Y208829D01*
X459156Y208829D01*
X455602Y210302D01*
X452882Y213022D01*
X452709Y213439D01*
X452647Y213538D01*
X452587Y213639D01*
X452582Y213643D01*
X452579Y213648D01*
X452490Y213722D01*
X452400Y213799D01*
X452394Y213801D01*
X452390Y213805D01*
X452282Y213846D01*
X452172Y213891D01*
X452165Y213892D01*
X452160Y213893D01*
X452142Y213894D01*
X452005Y213909D01*
X435884Y213909D01*
X435794Y213895D01*
X435703Y213887D01*
X435673Y213875D01*
X435641Y213870D01*
X435560Y213827D01*
X435476Y213791D01*
X435444Y213765D01*
X435423Y213754D01*
X435401Y213731D01*
X435345Y213686D01*
X403808Y182149D01*
X266457Y182149D01*
X266367Y182135D01*
X266276Y182127D01*
X266246Y182115D01*
X266214Y182110D01*
X266133Y182067D01*
X266050Y182031D01*
X266017Y182005D01*
X265997Y181994D01*
X265975Y181971D01*
X265919Y181926D01*
X257883Y173890D01*
X257841Y173832D01*
X257791Y173780D01*
X257769Y173733D01*
X257739Y173691D01*
X257718Y173622D01*
X257688Y173557D01*
X257682Y173505D01*
X257667Y173455D01*
X257668Y173384D01*
X257661Y173313D01*
X257672Y173262D01*
X257673Y173210D01*
X257698Y173142D01*
X257713Y173072D01*
X257740Y173027D01*
X257757Y172979D01*
X257802Y172923D01*
X257839Y172861D01*
X257879Y172827D01*
X257911Y172787D01*
X257971Y172748D01*
X258026Y172701D01*
X258074Y172682D01*
X258118Y172654D01*
X258188Y172636D01*
X258254Y172609D01*
X258325Y172601D01*
X258357Y172593D01*
X258380Y172595D01*
X258421Y172591D01*
X452130Y172591D01*
X452244Y172610D01*
X452361Y172627D01*
X452366Y172629D01*
X452372Y172630D01*
X452475Y172685D01*
X452580Y172738D01*
X452584Y172743D01*
X452590Y172746D01*
X452671Y172831D01*
X452752Y172914D01*
X452756Y172920D01*
X452759Y172924D01*
X452767Y172941D01*
X452833Y173061D01*
X452882Y173178D01*
X455602Y175898D01*
X459156Y177371D01*
X478244Y177371D01*
X481798Y175898D01*
X484518Y173178D01*
X485991Y169624D01*
X485991Y165776D01*
X484518Y162222D01*
X481798Y159502D01*
X478244Y158029D01*
X459156Y158029D01*
X455602Y159502D01*
X452882Y162222D01*
X452584Y162939D01*
X452523Y163039D01*
X452463Y163139D01*
X452458Y163143D01*
X452455Y163148D01*
X452365Y163223D01*
X452276Y163299D01*
X452270Y163301D01*
X452265Y163305D01*
X452157Y163347D01*
X452048Y163391D01*
X452040Y163392D01*
X452036Y163393D01*
X452017Y163394D01*
X451881Y163409D01*
X257800Y163409D01*
X257710Y163395D01*
X257619Y163387D01*
X257589Y163375D01*
X257557Y163370D01*
X257477Y163327D01*
X257393Y163291D01*
X257361Y163265D01*
X257340Y163254D01*
X257318Y163231D01*
X257262Y163186D01*
X203397Y109321D01*
X200485Y106409D01*
X122973Y106409D01*
X122883Y106395D01*
X122792Y106387D01*
X122762Y106375D01*
X122731Y106370D01*
X122650Y106327D01*
X122566Y106291D01*
X122534Y106265D01*
X122513Y106254D01*
X122491Y106231D01*
X122435Y106186D01*
X122304Y106055D01*
X120160Y105167D01*
X117840Y105167D01*
X115696Y106055D01*
X115665Y106086D01*
X115591Y106139D01*
X115522Y106199D01*
X115492Y106211D01*
X115465Y106230D01*
X115378Y106257D01*
X115293Y106291D01*
X115253Y106295D01*
X115230Y106302D01*
X115198Y106301D01*
X115127Y106309D01*
X103312Y106309D01*
X103292Y106306D01*
X103273Y106308D01*
X103171Y106286D01*
X103069Y106270D01*
X103052Y106260D01*
X103032Y106256D01*
X102943Y106203D01*
X102852Y106154D01*
X102838Y106140D01*
X102821Y106130D01*
X102754Y106051D01*
X102682Y105976D01*
X102674Y105958D01*
X102661Y105943D01*
X102622Y105847D01*
X102579Y105753D01*
X102577Y105733D01*
X102569Y105715D01*
X102551Y105548D01*
X102551Y104551D01*
X101349Y103349D01*
X89651Y103349D01*
G37*
%LPD*%
%LPC*%
G36*
X55098Y41409D02*
X55098Y41409D01*
X34768Y61740D01*
X34714Y61778D01*
X34668Y61824D01*
X34595Y61864D01*
X34568Y61884D01*
X34549Y61889D01*
X34521Y61905D01*
X31922Y62982D01*
X29202Y65702D01*
X27729Y69256D01*
X27729Y88344D01*
X29202Y91898D01*
X31922Y94618D01*
X35476Y96091D01*
X39324Y96091D01*
X42878Y94618D01*
X45598Y91898D01*
X47071Y88344D01*
X47071Y69256D01*
X45598Y65702D01*
X45233Y65336D01*
X45221Y65320D01*
X45205Y65308D01*
X45149Y65220D01*
X45089Y65136D01*
X45083Y65117D01*
X45072Y65101D01*
X45047Y65000D01*
X45017Y64901D01*
X45017Y64881D01*
X45012Y64862D01*
X45020Y64759D01*
X45023Y64655D01*
X45030Y64637D01*
X45032Y64617D01*
X45072Y64522D01*
X45108Y64424D01*
X45120Y64409D01*
X45128Y64391D01*
X45233Y64260D01*
X58679Y50814D01*
X58753Y50761D01*
X58822Y50701D01*
X58852Y50689D01*
X58878Y50670D01*
X58965Y50643D01*
X59050Y50609D01*
X59091Y50605D01*
X59113Y50598D01*
X59146Y50599D01*
X59217Y50591D01*
X96579Y50591D01*
X96650Y50602D01*
X96722Y50604D01*
X96771Y50622D01*
X96822Y50630D01*
X96885Y50664D01*
X96953Y50689D01*
X96993Y50721D01*
X97039Y50746D01*
X97089Y50798D01*
X97145Y50842D01*
X97173Y50886D01*
X97209Y50924D01*
X97239Y50989D01*
X97278Y51049D01*
X97290Y51100D01*
X97312Y51147D01*
X97320Y51218D01*
X97338Y51288D01*
X97334Y51340D01*
X97339Y51391D01*
X97324Y51462D01*
X97319Y51533D01*
X97298Y51581D01*
X97287Y51632D01*
X97250Y51693D01*
X97222Y51759D01*
X97178Y51815D01*
X97161Y51843D01*
X97143Y51858D01*
X97117Y51890D01*
X87721Y61286D01*
X87647Y61339D01*
X87578Y61399D01*
X87548Y61411D01*
X87522Y61430D01*
X87435Y61457D01*
X87350Y61491D01*
X87309Y61495D01*
X87287Y61502D01*
X87254Y61501D01*
X87183Y61509D01*
X86276Y61509D01*
X82722Y62982D01*
X80002Y65702D01*
X78529Y69256D01*
X78529Y88344D01*
X80002Y91898D01*
X82722Y94618D01*
X86276Y96091D01*
X90124Y96091D01*
X93678Y94618D01*
X96398Y91898D01*
X97871Y88344D01*
X97871Y69256D01*
X96561Y66095D01*
X96535Y65982D01*
X96506Y65868D01*
X96507Y65862D01*
X96505Y65856D01*
X96516Y65739D01*
X96525Y65623D01*
X96528Y65617D01*
X96528Y65611D01*
X96576Y65504D01*
X96622Y65397D01*
X96626Y65391D01*
X96628Y65386D01*
X96641Y65373D01*
X96726Y65266D01*
X102551Y59442D01*
X102625Y59389D01*
X102694Y59329D01*
X102724Y59317D01*
X102750Y59298D01*
X102837Y59271D01*
X102922Y59237D01*
X102963Y59233D01*
X102985Y59226D01*
X103018Y59227D01*
X103089Y59219D01*
X547411Y59219D01*
X547501Y59233D01*
X547592Y59241D01*
X547622Y59253D01*
X547654Y59258D01*
X547735Y59301D01*
X547818Y59337D01*
X547851Y59363D01*
X547871Y59374D01*
X547893Y59397D01*
X547949Y59442D01*
X567186Y78679D01*
X567239Y78753D01*
X567299Y78822D01*
X567311Y78852D01*
X567330Y78878D01*
X567357Y78965D01*
X567391Y79050D01*
X567395Y79091D01*
X567402Y79113D01*
X567401Y79146D01*
X567409Y79217D01*
X567409Y107902D01*
X580998Y121491D01*
X588005Y121491D01*
X588120Y121509D01*
X588236Y121527D01*
X588242Y121529D01*
X588248Y121530D01*
X588351Y121585D01*
X588456Y121638D01*
X588460Y121643D01*
X588466Y121646D01*
X588546Y121730D01*
X588628Y121814D01*
X588631Y121820D01*
X588635Y121824D01*
X588643Y121841D01*
X588709Y121961D01*
X588882Y122378D01*
X591602Y125098D01*
X595156Y126571D01*
X614244Y126571D01*
X617798Y125098D01*
X620518Y122378D01*
X621991Y118824D01*
X621991Y114976D01*
X620518Y111422D01*
X617798Y108702D01*
X614244Y107229D01*
X595156Y107229D01*
X591602Y108702D01*
X588882Y111422D01*
X588709Y111839D01*
X588647Y111938D01*
X588587Y112039D01*
X588582Y112043D01*
X588579Y112048D01*
X588490Y112122D01*
X588400Y112199D01*
X588394Y112201D01*
X588390Y112205D01*
X588282Y112246D01*
X588172Y112291D01*
X588165Y112292D01*
X588160Y112293D01*
X588142Y112294D01*
X588005Y112309D01*
X585117Y112309D01*
X585027Y112295D01*
X584936Y112287D01*
X584906Y112275D01*
X584874Y112270D01*
X584793Y112227D01*
X584710Y112191D01*
X584677Y112165D01*
X584657Y112154D01*
X584635Y112131D01*
X584579Y112086D01*
X576814Y104321D01*
X576770Y104261D01*
X576734Y104223D01*
X576727Y104209D01*
X576701Y104178D01*
X576689Y104148D01*
X576670Y104122D01*
X576643Y104035D01*
X576609Y103950D01*
X576605Y103909D01*
X576598Y103887D01*
X576599Y103854D01*
X576591Y103783D01*
X576591Y75098D01*
X573679Y72186D01*
X553383Y51890D01*
X553341Y51832D01*
X553291Y51780D01*
X553269Y51733D01*
X553239Y51691D01*
X553218Y51622D01*
X553188Y51557D01*
X553182Y51505D01*
X553167Y51455D01*
X553168Y51384D01*
X553161Y51313D01*
X553172Y51262D01*
X553173Y51210D01*
X553198Y51142D01*
X553213Y51072D01*
X553240Y51027D01*
X553257Y50979D01*
X553302Y50923D01*
X553339Y50861D01*
X553379Y50827D01*
X553411Y50787D01*
X553471Y50748D01*
X553526Y50701D01*
X553574Y50682D01*
X553618Y50654D01*
X553688Y50636D01*
X553754Y50609D01*
X553825Y50601D01*
X553857Y50593D01*
X553880Y50595D01*
X553921Y50591D01*
X556983Y50591D01*
X557073Y50605D01*
X557164Y50613D01*
X557194Y50625D01*
X557226Y50630D01*
X557307Y50673D01*
X557390Y50709D01*
X557423Y50735D01*
X557443Y50746D01*
X557465Y50769D01*
X557521Y50814D01*
X590267Y83560D01*
X590279Y83576D01*
X590295Y83588D01*
X590351Y83676D01*
X590411Y83759D01*
X590417Y83778D01*
X590428Y83795D01*
X590453Y83896D01*
X590483Y83994D01*
X590483Y84014D01*
X590488Y84034D01*
X590480Y84137D01*
X590477Y84240D01*
X590470Y84259D01*
X590468Y84279D01*
X590428Y84374D01*
X590392Y84471D01*
X590380Y84487D01*
X590372Y84505D01*
X590267Y84636D01*
X588882Y86022D01*
X587409Y89576D01*
X587409Y93424D01*
X588882Y96978D01*
X591602Y99698D01*
X595156Y101171D01*
X614244Y101171D01*
X617798Y99698D01*
X620518Y96978D01*
X621991Y93424D01*
X621991Y89576D01*
X620518Y86022D01*
X617798Y83302D01*
X614244Y81829D01*
X601837Y81829D01*
X601747Y81815D01*
X601656Y81807D01*
X601626Y81795D01*
X601594Y81790D01*
X601513Y81747D01*
X601430Y81711D01*
X601397Y81685D01*
X601377Y81674D01*
X601355Y81651D01*
X601299Y81606D01*
X561102Y41409D01*
X55098Y41409D01*
G37*
%LPD*%
%LPC*%
G36*
X201151Y173949D02*
X201151Y173949D01*
X199949Y175151D01*
X199949Y186849D01*
X201151Y188051D01*
X202148Y188051D01*
X202168Y188054D01*
X202187Y188052D01*
X202289Y188074D01*
X202391Y188090D01*
X202408Y188100D01*
X202428Y188104D01*
X202517Y188157D01*
X202608Y188206D01*
X202622Y188220D01*
X202639Y188230D01*
X202706Y188309D01*
X202778Y188384D01*
X202786Y188402D01*
X202799Y188417D01*
X202838Y188513D01*
X202881Y188607D01*
X202883Y188627D01*
X202891Y188645D01*
X202909Y188812D01*
X202909Y197198D01*
X202906Y197218D01*
X202908Y197237D01*
X202886Y197339D01*
X202870Y197441D01*
X202860Y197458D01*
X202856Y197478D01*
X202803Y197567D01*
X202754Y197658D01*
X202740Y197672D01*
X202730Y197689D01*
X202651Y197756D01*
X202576Y197828D01*
X202558Y197836D01*
X202543Y197849D01*
X202447Y197888D01*
X202353Y197931D01*
X202333Y197933D01*
X202315Y197941D01*
X202148Y197959D01*
X198212Y197959D01*
X198192Y197956D01*
X198173Y197958D01*
X198071Y197936D01*
X197969Y197920D01*
X197952Y197910D01*
X197932Y197906D01*
X197843Y197853D01*
X197752Y197804D01*
X197738Y197790D01*
X197721Y197780D01*
X197654Y197701D01*
X197582Y197626D01*
X197574Y197608D01*
X197561Y197593D01*
X197522Y197497D01*
X197479Y197403D01*
X197477Y197383D01*
X197469Y197365D01*
X197451Y197198D01*
X197451Y196451D01*
X196249Y195249D01*
X183751Y195249D01*
X182549Y196451D01*
X182549Y208649D01*
X183751Y209851D01*
X184448Y209851D01*
X184468Y209854D01*
X184487Y209852D01*
X184589Y209874D01*
X184691Y209890D01*
X184708Y209900D01*
X184728Y209904D01*
X184817Y209957D01*
X184908Y210006D01*
X184922Y210020D01*
X184939Y210030D01*
X185006Y210109D01*
X185078Y210184D01*
X185086Y210202D01*
X185099Y210217D01*
X185138Y210313D01*
X185181Y210407D01*
X185183Y210427D01*
X185191Y210445D01*
X185209Y210612D01*
X185209Y214505D01*
X185190Y214620D01*
X185173Y214736D01*
X185171Y214742D01*
X185170Y214748D01*
X185115Y214851D01*
X185062Y214956D01*
X185057Y214960D01*
X185054Y214965D01*
X184970Y215046D01*
X184886Y215128D01*
X184880Y215131D01*
X184876Y215135D01*
X184859Y215143D01*
X184739Y215209D01*
X184322Y215382D01*
X181602Y218102D01*
X180129Y221656D01*
X180129Y240744D01*
X181602Y244298D01*
X184322Y247018D01*
X187876Y248491D01*
X191724Y248491D01*
X195278Y247018D01*
X197998Y244298D01*
X199471Y240744D01*
X199471Y221656D01*
X197998Y218102D01*
X195278Y215382D01*
X194861Y215209D01*
X194761Y215147D01*
X194661Y215087D01*
X194657Y215082D01*
X194652Y215079D01*
X194577Y214989D01*
X194501Y214900D01*
X194499Y214894D01*
X194495Y214890D01*
X194453Y214782D01*
X194409Y214672D01*
X194408Y214665D01*
X194407Y214660D01*
X194406Y214642D01*
X194391Y214505D01*
X194391Y210612D01*
X194394Y210592D01*
X194392Y210573D01*
X194414Y210471D01*
X194430Y210369D01*
X194440Y210352D01*
X194444Y210332D01*
X194497Y210243D01*
X194546Y210152D01*
X194560Y210138D01*
X194570Y210121D01*
X194649Y210054D01*
X194724Y209982D01*
X194742Y209974D01*
X194757Y209961D01*
X194853Y209922D01*
X194947Y209879D01*
X194967Y209877D01*
X194985Y209869D01*
X195152Y209851D01*
X196249Y209851D01*
X197451Y208649D01*
X197451Y207902D01*
X197454Y207882D01*
X197452Y207863D01*
X197474Y207761D01*
X197490Y207659D01*
X197500Y207642D01*
X197504Y207622D01*
X197557Y207533D01*
X197606Y207442D01*
X197620Y207428D01*
X197630Y207411D01*
X197709Y207344D01*
X197784Y207272D01*
X197802Y207264D01*
X197817Y207251D01*
X197913Y207212D01*
X198007Y207169D01*
X198027Y207167D01*
X198045Y207159D01*
X198212Y207141D01*
X203449Y207141D01*
X203539Y207155D01*
X203630Y207163D01*
X203659Y207175D01*
X203691Y207180D01*
X203772Y207223D01*
X203856Y207259D01*
X203888Y207285D01*
X203909Y207296D01*
X203931Y207319D01*
X203987Y207364D01*
X204196Y207573D01*
X206340Y208461D01*
X208660Y208461D01*
X210804Y207573D01*
X212445Y205932D01*
X213333Y203788D01*
X213333Y201468D01*
X212445Y199324D01*
X212314Y199193D01*
X212261Y199119D01*
X212201Y199050D01*
X212189Y199019D01*
X212170Y198993D01*
X212143Y198906D01*
X212109Y198821D01*
X212105Y198780D01*
X212098Y198758D01*
X212099Y198726D01*
X212091Y198655D01*
X212091Y188812D01*
X212094Y188792D01*
X212092Y188773D01*
X212114Y188671D01*
X212130Y188569D01*
X212140Y188552D01*
X212144Y188532D01*
X212197Y188443D01*
X212246Y188352D01*
X212260Y188338D01*
X212270Y188321D01*
X212349Y188254D01*
X212424Y188182D01*
X212442Y188174D01*
X212457Y188161D01*
X212553Y188122D01*
X212647Y188079D01*
X212667Y188077D01*
X212685Y188069D01*
X212852Y188051D01*
X213849Y188051D01*
X215051Y186849D01*
X215051Y175151D01*
X213849Y173949D01*
X201151Y173949D01*
G37*
%LPD*%
%LPC*%
G36*
X340276Y213909D02*
X340276Y213909D01*
X336722Y215382D01*
X334002Y218102D01*
X332529Y221656D01*
X332529Y240744D01*
X334002Y244298D01*
X336722Y247018D01*
X340276Y248491D01*
X344124Y248491D01*
X347678Y247018D01*
X350398Y244298D01*
X351871Y240744D01*
X351871Y221656D01*
X350398Y218102D01*
X347678Y215382D01*
X344124Y213909D01*
X340276Y213909D01*
G37*
%LPD*%
%LPC*%
G36*
X60876Y213909D02*
X60876Y213909D01*
X57322Y215382D01*
X54602Y218102D01*
X53129Y221656D01*
X53129Y240744D01*
X54602Y244298D01*
X57322Y247018D01*
X60876Y248491D01*
X64724Y248491D01*
X68278Y247018D01*
X70998Y244298D01*
X72471Y240744D01*
X72471Y221656D01*
X70998Y218102D01*
X68278Y215382D01*
X64724Y213909D01*
X60876Y213909D01*
G37*
%LPD*%
%LPC*%
G36*
X86276Y213909D02*
X86276Y213909D01*
X82722Y215382D01*
X80002Y218102D01*
X78529Y221656D01*
X78529Y240744D01*
X80002Y244298D01*
X82722Y247018D01*
X86276Y248491D01*
X90124Y248491D01*
X93678Y247018D01*
X96398Y244298D01*
X97871Y240744D01*
X97871Y221656D01*
X96398Y218102D01*
X93678Y215382D01*
X90124Y213909D01*
X86276Y213909D01*
G37*
%LPD*%
%LPC*%
G36*
X314876Y213909D02*
X314876Y213909D01*
X311322Y215382D01*
X308602Y218102D01*
X307129Y221656D01*
X307129Y240744D01*
X308602Y244298D01*
X311322Y247018D01*
X314876Y248491D01*
X318724Y248491D01*
X322278Y247018D01*
X324998Y244298D01*
X326471Y240744D01*
X326471Y221656D01*
X324998Y218102D01*
X322278Y215382D01*
X318724Y213909D01*
X314876Y213909D01*
G37*
%LPD*%
%LPC*%
G36*
X213276Y213909D02*
X213276Y213909D01*
X209722Y215382D01*
X207002Y218102D01*
X205529Y221656D01*
X205529Y240744D01*
X207002Y244298D01*
X209722Y247018D01*
X213276Y248491D01*
X217124Y248491D01*
X220678Y247018D01*
X223398Y244298D01*
X224871Y240744D01*
X224871Y221656D01*
X223398Y218102D01*
X220678Y215382D01*
X217124Y213909D01*
X213276Y213909D01*
G37*
%LPD*%
%LPC*%
G36*
X238676Y213909D02*
X238676Y213909D01*
X235122Y215382D01*
X232402Y218102D01*
X230929Y221656D01*
X230929Y240744D01*
X232402Y244298D01*
X235122Y247018D01*
X238676Y248491D01*
X242524Y248491D01*
X246078Y247018D01*
X248798Y244298D01*
X250271Y240744D01*
X250271Y221656D01*
X248798Y218102D01*
X246078Y215382D01*
X242524Y213909D01*
X238676Y213909D01*
G37*
%LPD*%
%LPC*%
G36*
X264076Y213909D02*
X264076Y213909D01*
X260522Y215382D01*
X257802Y218102D01*
X256329Y221656D01*
X256329Y240744D01*
X257802Y244298D01*
X260522Y247018D01*
X264076Y248491D01*
X267924Y248491D01*
X271478Y247018D01*
X274198Y244298D01*
X275671Y240744D01*
X275671Y221656D01*
X274198Y218102D01*
X271478Y215382D01*
X267924Y213909D01*
X264076Y213909D01*
G37*
%LPD*%
%LPC*%
G36*
X527156Y183429D02*
X527156Y183429D01*
X523602Y184902D01*
X520882Y187622D01*
X519409Y191176D01*
X519409Y195024D01*
X520882Y198578D01*
X523602Y201298D01*
X527156Y202771D01*
X546244Y202771D01*
X549798Y201298D01*
X552518Y198578D01*
X553991Y195024D01*
X553991Y191176D01*
X552518Y187622D01*
X549798Y184902D01*
X546244Y183429D01*
X527156Y183429D01*
G37*
%LPD*%
%LPC*%
G36*
X459156Y183429D02*
X459156Y183429D01*
X455602Y184902D01*
X452882Y187622D01*
X451409Y191176D01*
X451409Y195024D01*
X452882Y198578D01*
X455602Y201298D01*
X459156Y202771D01*
X478244Y202771D01*
X481798Y201298D01*
X484518Y198578D01*
X485991Y195024D01*
X485991Y191176D01*
X484518Y187622D01*
X481798Y184902D01*
X478244Y183429D01*
X459156Y183429D01*
G37*
%LPD*%
%LPC*%
G36*
X162476Y61509D02*
X162476Y61509D01*
X158922Y62982D01*
X156202Y65702D01*
X154729Y69256D01*
X154729Y88344D01*
X156202Y91898D01*
X158922Y94618D01*
X162476Y96091D01*
X166324Y96091D01*
X169878Y94618D01*
X172598Y91898D01*
X174071Y88344D01*
X174071Y69256D01*
X172598Y65702D01*
X169878Y62982D01*
X166324Y61509D01*
X162476Y61509D01*
G37*
%LPD*%
%LPC*%
G36*
X187876Y61509D02*
X187876Y61509D01*
X184322Y62982D01*
X181602Y65702D01*
X180129Y69256D01*
X180129Y88344D01*
X181602Y91898D01*
X184322Y94618D01*
X187876Y96091D01*
X191724Y96091D01*
X195278Y94618D01*
X197998Y91898D01*
X199471Y88344D01*
X199471Y69256D01*
X197998Y65702D01*
X195278Y62982D01*
X191724Y61509D01*
X187876Y61509D01*
G37*
%LPD*%
%LPC*%
G36*
X213276Y61509D02*
X213276Y61509D01*
X209722Y62982D01*
X207002Y65702D01*
X205529Y69256D01*
X205529Y88344D01*
X207002Y91898D01*
X209722Y94618D01*
X213276Y96091D01*
X217124Y96091D01*
X220678Y94618D01*
X223398Y91898D01*
X224871Y88344D01*
X224871Y69256D01*
X223398Y65702D01*
X220678Y62982D01*
X217124Y61509D01*
X213276Y61509D01*
G37*
%LPD*%
%LPC*%
G36*
X238676Y61509D02*
X238676Y61509D01*
X235122Y62982D01*
X232402Y65702D01*
X230929Y69256D01*
X230929Y88344D01*
X232402Y91898D01*
X235122Y94618D01*
X238676Y96091D01*
X242524Y96091D01*
X246078Y94618D01*
X248798Y91898D01*
X250271Y88344D01*
X250271Y69256D01*
X248798Y65702D01*
X246078Y62982D01*
X242524Y61509D01*
X238676Y61509D01*
G37*
%LPD*%
%LPC*%
G36*
X264076Y61509D02*
X264076Y61509D01*
X260522Y62982D01*
X257802Y65702D01*
X256329Y69256D01*
X256329Y88344D01*
X257802Y91898D01*
X260522Y94618D01*
X264076Y96091D01*
X267924Y96091D01*
X271478Y94618D01*
X274198Y91898D01*
X275671Y88344D01*
X275671Y69256D01*
X274198Y65702D01*
X271478Y62982D01*
X267924Y61509D01*
X264076Y61509D01*
G37*
%LPD*%
%LPC*%
G36*
X289476Y61509D02*
X289476Y61509D01*
X285922Y62982D01*
X283202Y65702D01*
X281729Y69256D01*
X281729Y88344D01*
X283202Y91898D01*
X285922Y94618D01*
X289476Y96091D01*
X293324Y96091D01*
X296878Y94618D01*
X299598Y91898D01*
X301071Y88344D01*
X301071Y69256D01*
X299598Y65702D01*
X296878Y62982D01*
X293324Y61509D01*
X289476Y61509D01*
G37*
%LPD*%
%LPC*%
G36*
X314876Y61509D02*
X314876Y61509D01*
X311322Y62982D01*
X308602Y65702D01*
X307129Y69256D01*
X307129Y88344D01*
X308602Y91898D01*
X311322Y94618D01*
X314876Y96091D01*
X318724Y96091D01*
X322278Y94618D01*
X324998Y91898D01*
X326471Y88344D01*
X326471Y69256D01*
X324998Y65702D01*
X322278Y62982D01*
X318724Y61509D01*
X314876Y61509D01*
G37*
%LPD*%
%LPC*%
G36*
X340276Y61509D02*
X340276Y61509D01*
X336722Y62982D01*
X334002Y65702D01*
X332529Y69256D01*
X332529Y88344D01*
X334002Y91898D01*
X336722Y94618D01*
X340276Y96091D01*
X344124Y96091D01*
X347678Y94618D01*
X350398Y91898D01*
X351871Y88344D01*
X351871Y69256D01*
X350398Y65702D01*
X347678Y62982D01*
X344124Y61509D01*
X340276Y61509D01*
G37*
%LPD*%
%LPC*%
G36*
X365676Y61509D02*
X365676Y61509D01*
X362122Y62982D01*
X359402Y65702D01*
X357929Y69256D01*
X357929Y88344D01*
X359402Y91898D01*
X362122Y94618D01*
X365676Y96091D01*
X369524Y96091D01*
X373078Y94618D01*
X375798Y91898D01*
X377271Y88344D01*
X377271Y69256D01*
X375798Y65702D01*
X373078Y62982D01*
X369524Y61509D01*
X365676Y61509D01*
G37*
%LPD*%
%LPC*%
G36*
X391076Y61509D02*
X391076Y61509D01*
X387522Y62982D01*
X384802Y65702D01*
X383329Y69256D01*
X383329Y88344D01*
X384802Y91898D01*
X387522Y94618D01*
X391076Y96091D01*
X394924Y96091D01*
X398478Y94618D01*
X401198Y91898D01*
X402671Y88344D01*
X402671Y69256D01*
X401198Y65702D01*
X398478Y62982D01*
X394924Y61509D01*
X391076Y61509D01*
G37*
%LPD*%
%LPC*%
G36*
X60876Y61509D02*
X60876Y61509D01*
X57322Y62982D01*
X54602Y65702D01*
X53129Y69256D01*
X53129Y88344D01*
X54602Y91898D01*
X57322Y94618D01*
X60876Y96091D01*
X64724Y96091D01*
X68278Y94618D01*
X70998Y91898D01*
X72471Y88344D01*
X72471Y69256D01*
X70998Y65702D01*
X68278Y62982D01*
X64724Y61509D01*
X60876Y61509D01*
G37*
%LPD*%
%LPC*%
G36*
X111676Y61509D02*
X111676Y61509D01*
X108122Y62982D01*
X105402Y65702D01*
X103929Y69256D01*
X103929Y88344D01*
X105402Y91898D01*
X108122Y94618D01*
X111676Y96091D01*
X115524Y96091D01*
X119078Y94618D01*
X121798Y91898D01*
X123271Y88344D01*
X123271Y69256D01*
X121798Y65702D01*
X119078Y62982D01*
X115524Y61509D01*
X111676Y61509D01*
G37*
%LPD*%
%LPC*%
G36*
X459156Y81829D02*
X459156Y81829D01*
X455602Y83302D01*
X452882Y86022D01*
X451409Y89576D01*
X451409Y93424D01*
X452882Y96978D01*
X455602Y99698D01*
X459156Y101171D01*
X478244Y101171D01*
X481798Y99698D01*
X484518Y96978D01*
X485991Y93424D01*
X485991Y89576D01*
X484518Y86022D01*
X481798Y83302D01*
X478244Y81829D01*
X459156Y81829D01*
G37*
%LPD*%
%LPC*%
G36*
X527156Y81829D02*
X527156Y81829D01*
X523602Y83302D01*
X520882Y86022D01*
X519409Y89576D01*
X519409Y93424D01*
X520882Y96978D01*
X523602Y99698D01*
X527156Y101171D01*
X546244Y101171D01*
X549798Y99698D01*
X552518Y96978D01*
X553991Y93424D01*
X553991Y89576D01*
X552518Y86022D01*
X549798Y83302D01*
X546244Y81829D01*
X527156Y81829D01*
G37*
%LPD*%
%LPC*%
G36*
X289476Y213909D02*
X289476Y213909D01*
X285922Y215382D01*
X283202Y218102D01*
X281729Y221656D01*
X281729Y240744D01*
X283202Y244298D01*
X285922Y247018D01*
X289476Y248491D01*
X293324Y248491D01*
X296878Y247018D01*
X299598Y244298D01*
X301071Y240744D01*
X301071Y221656D01*
X299598Y218102D01*
X296878Y215382D01*
X293324Y213909D01*
X289476Y213909D01*
G37*
%LPD*%
%LPC*%
G36*
X459156Y107229D02*
X459156Y107229D01*
X455602Y108702D01*
X452882Y111422D01*
X451409Y114976D01*
X451409Y118824D01*
X452882Y122378D01*
X455602Y125098D01*
X459156Y126571D01*
X478244Y126571D01*
X481798Y125098D01*
X484518Y122378D01*
X485991Y118824D01*
X485991Y114976D01*
X484518Y111422D01*
X481798Y108702D01*
X478244Y107229D01*
X459156Y107229D01*
G37*
%LPD*%
%LPC*%
G36*
X527156Y107229D02*
X527156Y107229D01*
X523602Y108702D01*
X520882Y111422D01*
X519409Y114976D01*
X519409Y118824D01*
X520882Y122378D01*
X523602Y125098D01*
X527156Y126571D01*
X546244Y126571D01*
X549798Y125098D01*
X552518Y122378D01*
X553991Y118824D01*
X553991Y114976D01*
X552518Y111422D01*
X549798Y108702D01*
X546244Y107229D01*
X527156Y107229D01*
G37*
%LPD*%
%LPC*%
G36*
X459156Y132629D02*
X459156Y132629D01*
X455602Y134102D01*
X452882Y136822D01*
X451409Y140376D01*
X451409Y144224D01*
X452882Y147778D01*
X455602Y150498D01*
X459156Y151971D01*
X478244Y151971D01*
X481798Y150498D01*
X484518Y147778D01*
X485991Y144224D01*
X485991Y140376D01*
X484518Y136822D01*
X481798Y134102D01*
X478244Y132629D01*
X459156Y132629D01*
G37*
%LPD*%
%LPC*%
G36*
X527156Y132629D02*
X527156Y132629D01*
X523602Y134102D01*
X520882Y136822D01*
X519409Y140376D01*
X519409Y144224D01*
X520882Y147778D01*
X523602Y150498D01*
X527156Y151971D01*
X546244Y151971D01*
X549798Y150498D01*
X552518Y147778D01*
X553991Y144224D01*
X553991Y140376D01*
X552518Y136822D01*
X549798Y134102D01*
X546244Y132629D01*
X527156Y132629D01*
G37*
%LPD*%
%LPC*%
G36*
X595156Y132629D02*
X595156Y132629D01*
X591602Y134102D01*
X588882Y136822D01*
X587409Y140376D01*
X587409Y144224D01*
X588882Y147778D01*
X591602Y150498D01*
X595156Y151971D01*
X614244Y151971D01*
X617798Y150498D01*
X620518Y147778D01*
X621991Y144224D01*
X621991Y140376D01*
X620518Y136822D01*
X617798Y134102D01*
X614244Y132629D01*
X595156Y132629D01*
G37*
%LPD*%
%LPC*%
G36*
X137076Y61509D02*
X137076Y61509D01*
X133522Y62982D01*
X130802Y65702D01*
X129329Y69256D01*
X129329Y88344D01*
X130802Y91898D01*
X133522Y94618D01*
X137076Y96091D01*
X140924Y96091D01*
X144478Y94618D01*
X147198Y91898D01*
X148671Y88344D01*
X148671Y69256D01*
X147198Y65702D01*
X144478Y62982D01*
X140924Y61509D01*
X137076Y61509D01*
G37*
%LPD*%
%LPC*%
G36*
X179151Y156449D02*
X179151Y156449D01*
X177949Y157651D01*
X177949Y170349D01*
X179151Y171551D01*
X190849Y171551D01*
X192051Y170349D01*
X192051Y169610D01*
X192058Y169564D01*
X192056Y169518D01*
X192078Y169444D01*
X192090Y169367D01*
X192112Y169326D01*
X192125Y169282D01*
X192169Y169218D01*
X192206Y169150D01*
X192239Y169118D01*
X192265Y169080D01*
X192328Y169034D01*
X192384Y168980D01*
X192426Y168961D01*
X192462Y168933D01*
X192536Y168909D01*
X192607Y168877D01*
X192653Y168871D01*
X192696Y168857D01*
X192774Y168858D01*
X192851Y168849D01*
X192896Y168859D01*
X192942Y168860D01*
X193074Y168898D01*
X193092Y168902D01*
X193096Y168904D01*
X193103Y168906D01*
X195340Y169833D01*
X197660Y169833D01*
X198897Y169321D01*
X198941Y169310D01*
X198983Y169291D01*
X199060Y169282D01*
X199136Y169264D01*
X199182Y169269D01*
X199227Y169264D01*
X199304Y169280D01*
X199381Y169287D01*
X199423Y169306D01*
X199468Y169316D01*
X199535Y169356D01*
X199606Y169387D01*
X199640Y169419D01*
X199679Y169442D01*
X199730Y169501D01*
X199787Y169554D01*
X199809Y169594D01*
X199839Y169629D01*
X199868Y169701D01*
X199905Y169769D01*
X199913Y169814D01*
X201151Y171051D01*
X213849Y171051D01*
X215051Y169849D01*
X215051Y158151D01*
X213849Y156949D01*
X201151Y156949D01*
X199915Y158185D01*
X199910Y158219D01*
X199888Y158259D01*
X199875Y158304D01*
X199831Y158368D01*
X199794Y158436D01*
X199761Y158468D01*
X199735Y158506D01*
X199673Y158552D01*
X199616Y158606D01*
X199574Y158625D01*
X199538Y158652D01*
X199464Y158676D01*
X199393Y158709D01*
X199347Y158714D01*
X199304Y158729D01*
X199226Y158728D01*
X199149Y158736D01*
X199104Y158727D01*
X199058Y158726D01*
X198926Y158688D01*
X198908Y158684D01*
X198904Y158682D01*
X198897Y158679D01*
X197660Y158167D01*
X195340Y158167D01*
X193103Y159094D01*
X193059Y159104D01*
X193017Y159123D01*
X192940Y159132D01*
X192864Y159150D01*
X192818Y159146D01*
X192773Y159151D01*
X192696Y159134D01*
X192619Y159127D01*
X192577Y159108D01*
X192532Y159098D01*
X192465Y159058D01*
X192394Y159027D01*
X192360Y158996D01*
X192321Y158972D01*
X192270Y158913D01*
X192213Y158860D01*
X192191Y158820D01*
X192161Y158785D01*
X192132Y158713D01*
X192095Y158645D01*
X192086Y158600D01*
X192069Y158557D01*
X192054Y158421D01*
X192051Y158403D01*
X192052Y158398D01*
X192051Y158390D01*
X192051Y157651D01*
X190849Y156449D01*
X179151Y156449D01*
G37*
%LPD*%
G36*
X140082Y185254D02*
X140082Y185254D01*
X140101Y185252D01*
X140203Y185274D01*
X140305Y185291D01*
X140322Y185300D01*
X140342Y185304D01*
X140431Y185357D01*
X140522Y185406D01*
X140536Y185420D01*
X140553Y185430D01*
X140620Y185509D01*
X140691Y185584D01*
X140700Y185602D01*
X140713Y185617D01*
X140752Y185713D01*
X140795Y185807D01*
X140797Y185827D01*
X140805Y185845D01*
X140823Y186012D01*
X140823Y193041D01*
X145034Y193041D01*
X145451Y192929D01*
X145570Y192917D01*
X145687Y192904D01*
X145692Y192905D01*
X145696Y192905D01*
X145812Y192931D01*
X145928Y192956D01*
X145931Y192959D01*
X145935Y192960D01*
X146038Y193022D01*
X146139Y193083D01*
X146142Y193086D01*
X146145Y193088D01*
X146222Y193179D01*
X146299Y193270D01*
X146300Y193273D01*
X146303Y193277D01*
X146346Y193387D01*
X146391Y193498D01*
X146391Y193503D01*
X146393Y193506D01*
X146393Y193519D01*
X146409Y193664D01*
X146409Y194688D01*
X146406Y194708D01*
X146408Y194727D01*
X146386Y194829D01*
X146370Y194931D01*
X146360Y194948D01*
X146356Y194968D01*
X146303Y195057D01*
X146254Y195148D01*
X146240Y195162D01*
X146230Y195179D01*
X146151Y195246D01*
X146076Y195318D01*
X146058Y195326D01*
X146043Y195339D01*
X145947Y195378D01*
X145853Y195421D01*
X145833Y195423D01*
X145815Y195431D01*
X145648Y195449D01*
X133051Y195449D01*
X131890Y196610D01*
X131832Y196651D01*
X131780Y196701D01*
X131733Y196723D01*
X131691Y196753D01*
X131622Y196774D01*
X131557Y196804D01*
X131505Y196810D01*
X131455Y196825D01*
X131384Y196824D01*
X131313Y196832D01*
X131262Y196820D01*
X131210Y196819D01*
X131142Y196794D01*
X131072Y196779D01*
X131027Y196753D01*
X130979Y196735D01*
X130923Y196690D01*
X130861Y196653D01*
X130827Y196614D01*
X130787Y196581D01*
X130748Y196521D01*
X130701Y196466D01*
X130682Y196418D01*
X130654Y196374D01*
X130636Y196305D01*
X130609Y196238D01*
X130601Y196167D01*
X130593Y196136D01*
X130595Y196112D01*
X130591Y196071D01*
X130591Y192622D01*
X130602Y192551D01*
X130604Y192479D01*
X130622Y192430D01*
X130630Y192379D01*
X130664Y192316D01*
X130689Y192248D01*
X130721Y192208D01*
X130746Y192162D01*
X130798Y192112D01*
X130842Y192056D01*
X130886Y192028D01*
X130924Y191992D01*
X130989Y191962D01*
X131049Y191923D01*
X131100Y191910D01*
X131147Y191889D01*
X131218Y191881D01*
X131288Y191863D01*
X131340Y191867D01*
X131391Y191861D01*
X131462Y191877D01*
X131533Y191882D01*
X131581Y191903D01*
X131632Y191914D01*
X131693Y191951D01*
X131759Y191979D01*
X131815Y192023D01*
X131843Y192040D01*
X131858Y192058D01*
X131890Y192083D01*
X132340Y192533D01*
X132919Y192868D01*
X133566Y193041D01*
X137777Y193041D01*
X137777Y186012D01*
X137780Y185992D01*
X137778Y185973D01*
X137800Y185871D01*
X137817Y185769D01*
X137826Y185752D01*
X137830Y185732D01*
X137883Y185643D01*
X137932Y185552D01*
X137946Y185538D01*
X137956Y185521D01*
X138035Y185454D01*
X138110Y185383D01*
X138128Y185374D01*
X138143Y185361D01*
X138239Y185322D01*
X138333Y185279D01*
X138353Y185277D01*
X138371Y185269D01*
X138538Y185251D01*
X140062Y185251D01*
X140082Y185254D01*
G37*
%LPC*%
G36*
X165823Y186673D02*
X165823Y186673D01*
X165823Y192941D01*
X170034Y192941D01*
X170681Y192768D01*
X171260Y192433D01*
X171733Y191960D01*
X172068Y191381D01*
X172241Y190734D01*
X172241Y186673D01*
X165823Y186673D01*
G37*
%LPD*%
%LPC*%
G36*
X191523Y186573D02*
X191523Y186573D01*
X191523Y192841D01*
X195734Y192841D01*
X196381Y192668D01*
X196960Y192333D01*
X197433Y191860D01*
X197768Y191281D01*
X197941Y190634D01*
X197941Y186573D01*
X191523Y186573D01*
G37*
%LPD*%
%LPC*%
G36*
X79773Y133923D02*
X79773Y133923D01*
X79773Y140341D01*
X83834Y140341D01*
X84481Y140168D01*
X85060Y139833D01*
X85533Y139360D01*
X85868Y138781D01*
X86041Y138134D01*
X86041Y133923D01*
X79773Y133923D01*
G37*
%LPD*%
%LPC*%
G36*
X79773Y124459D02*
X79773Y124459D01*
X79773Y130877D01*
X86041Y130877D01*
X86041Y126666D01*
X85868Y126019D01*
X85533Y125440D01*
X85060Y124967D01*
X84481Y124632D01*
X83834Y124459D01*
X79773Y124459D01*
G37*
%LPD*%
%LPC*%
G36*
X105359Y186873D02*
X105359Y186873D01*
X105359Y190934D01*
X105532Y191581D01*
X105867Y192160D01*
X106340Y192633D01*
X106919Y192968D01*
X107566Y193141D01*
X111777Y193141D01*
X111777Y186873D01*
X105359Y186873D01*
G37*
%LPD*%
%LPC*%
G36*
X182059Y186573D02*
X182059Y186573D01*
X182059Y190634D01*
X182232Y191281D01*
X182567Y191860D01*
X183040Y192333D01*
X183619Y192668D01*
X184266Y192841D01*
X188477Y192841D01*
X188477Y186573D01*
X182059Y186573D01*
G37*
%LPD*%
%LPC*%
G36*
X132659Y169273D02*
X132659Y169273D01*
X132659Y173334D01*
X132832Y173981D01*
X133167Y174560D01*
X133640Y175033D01*
X134219Y175368D01*
X134866Y175541D01*
X139077Y175541D01*
X139077Y169273D01*
X132659Y169273D01*
G37*
%LPD*%
%LPC*%
G36*
X70459Y133923D02*
X70459Y133923D01*
X70459Y138134D01*
X70632Y138781D01*
X70967Y139360D01*
X71440Y139833D01*
X72019Y140168D01*
X72666Y140341D01*
X76727Y140341D01*
X76727Y133923D01*
X70459Y133923D01*
G37*
%LPD*%
%LPC*%
G36*
X191523Y177259D02*
X191523Y177259D01*
X191523Y183527D01*
X197941Y183527D01*
X197941Y179466D01*
X197768Y178819D01*
X197433Y178240D01*
X196960Y177767D01*
X196381Y177432D01*
X195734Y177259D01*
X191523Y177259D01*
G37*
%LPD*%
%LPC*%
G36*
X165823Y177359D02*
X165823Y177359D01*
X165823Y183627D01*
X172241Y183627D01*
X172241Y179566D01*
X172068Y178919D01*
X171733Y178340D01*
X171260Y177867D01*
X170681Y177532D01*
X170034Y177359D01*
X165823Y177359D01*
G37*
%LPD*%
%LPC*%
G36*
X107566Y177559D02*
X107566Y177559D01*
X106919Y177732D01*
X106340Y178067D01*
X105867Y178540D01*
X105532Y179119D01*
X105359Y179766D01*
X105359Y183827D01*
X111777Y183827D01*
X111777Y177559D01*
X107566Y177559D01*
G37*
%LPD*%
%LPC*%
G36*
X184266Y177259D02*
X184266Y177259D01*
X183619Y177432D01*
X183040Y177767D01*
X182567Y178240D01*
X182232Y178819D01*
X182059Y179466D01*
X182059Y183527D01*
X188477Y183527D01*
X188477Y177259D01*
X184266Y177259D01*
G37*
%LPD*%
%LPC*%
G36*
X72666Y124459D02*
X72666Y124459D01*
X72019Y124632D01*
X71440Y124967D01*
X70967Y125440D01*
X70632Y126019D01*
X70459Y126666D01*
X70459Y130877D01*
X76727Y130877D01*
X76727Y124459D01*
X72666Y124459D01*
G37*
%LPD*%
%LPC*%
G36*
X80023Y112423D02*
X80023Y112423D01*
X80023Y118941D01*
X83834Y118941D01*
X84481Y118768D01*
X85060Y118433D01*
X85533Y117960D01*
X85868Y117381D01*
X86041Y116734D01*
X86041Y112423D01*
X80023Y112423D01*
G37*
%LPD*%
%LPC*%
G36*
X111523Y133923D02*
X111523Y133923D01*
X111523Y140441D01*
X115334Y140441D01*
X115981Y140268D01*
X116560Y139933D01*
X117033Y139460D01*
X117368Y138881D01*
X117541Y138234D01*
X117541Y133923D01*
X111523Y133923D01*
G37*
%LPD*%
%LPC*%
G36*
X85523Y169523D02*
X85523Y169523D01*
X85523Y175541D01*
X89834Y175541D01*
X90481Y175368D01*
X91060Y175033D01*
X91533Y174560D01*
X91868Y173981D01*
X92041Y173334D01*
X92041Y169523D01*
X85523Y169523D01*
G37*
%LPD*%
%LPC*%
G36*
X169523Y165523D02*
X169523Y165523D01*
X169523Y172041D01*
X173334Y172041D01*
X173981Y171868D01*
X174560Y171533D01*
X175033Y171060D01*
X175368Y170481D01*
X175541Y169834D01*
X175541Y165523D01*
X169523Y165523D01*
G37*
%LPD*%
%LPC*%
G36*
X80023Y102859D02*
X80023Y102859D01*
X80023Y109377D01*
X86041Y109377D01*
X86041Y105066D01*
X85868Y104419D01*
X85533Y103840D01*
X85060Y103367D01*
X84481Y103032D01*
X83834Y102859D01*
X80023Y102859D01*
G37*
%LPD*%
%LPC*%
G36*
X75959Y169523D02*
X75959Y169523D01*
X75959Y173334D01*
X76132Y173981D01*
X76467Y174560D01*
X76940Y175033D01*
X77519Y175368D01*
X78166Y175541D01*
X82477Y175541D01*
X82477Y169523D01*
X75959Y169523D01*
G37*
%LPD*%
%LPC*%
G36*
X169523Y155959D02*
X169523Y155959D01*
X169523Y162477D01*
X175541Y162477D01*
X175541Y158166D01*
X175368Y157519D01*
X175033Y156940D01*
X174560Y156467D01*
X173981Y156132D01*
X173334Y155959D01*
X169523Y155959D01*
G37*
%LPD*%
%LPC*%
G36*
X111523Y124359D02*
X111523Y124359D01*
X111523Y130877D01*
X117541Y130877D01*
X117541Y126566D01*
X117368Y125919D01*
X117033Y125340D01*
X116560Y124867D01*
X115981Y124532D01*
X115334Y124359D01*
X111523Y124359D01*
G37*
%LPD*%
%LPC*%
G36*
X85523Y160459D02*
X85523Y160459D01*
X85523Y166477D01*
X92041Y166477D01*
X92041Y162666D01*
X91868Y162019D01*
X91533Y161440D01*
X91060Y160967D01*
X90481Y160632D01*
X89834Y160459D01*
X85523Y160459D01*
G37*
%LPD*%
%LPC*%
G36*
X70959Y112423D02*
X70959Y112423D01*
X70959Y116734D01*
X71132Y117381D01*
X71467Y117960D01*
X71940Y118433D01*
X72519Y118768D01*
X73166Y118941D01*
X76977Y118941D01*
X76977Y112423D01*
X70959Y112423D01*
G37*
%LPD*%
%LPC*%
G36*
X160459Y165523D02*
X160459Y165523D01*
X160459Y169834D01*
X160632Y170481D01*
X160967Y171060D01*
X161440Y171533D01*
X162019Y171868D01*
X162666Y172041D01*
X166477Y172041D01*
X166477Y165523D01*
X160459Y165523D01*
G37*
%LPD*%
%LPC*%
G36*
X162666Y155959D02*
X162666Y155959D01*
X162019Y156132D01*
X161440Y156467D01*
X160967Y156940D01*
X160632Y157519D01*
X160459Y158166D01*
X160459Y162477D01*
X166477Y162477D01*
X166477Y155959D01*
X162666Y155959D01*
G37*
%LPD*%
%LPC*%
G36*
X78166Y160459D02*
X78166Y160459D01*
X77519Y160632D01*
X76940Y160967D01*
X76467Y161440D01*
X76132Y162019D01*
X75959Y162666D01*
X75959Y166477D01*
X82477Y166477D01*
X82477Y160459D01*
X78166Y160459D01*
G37*
%LPD*%
%LPC*%
G36*
X73166Y102859D02*
X73166Y102859D01*
X72519Y103032D01*
X71940Y103367D01*
X71467Y103840D01*
X71132Y104419D01*
X70959Y105066D01*
X70959Y109377D01*
X76977Y109377D01*
X76977Y102859D01*
X73166Y102859D01*
G37*
%LPD*%
%LPC*%
G36*
X78499Y110899D02*
X78499Y110899D01*
X78499Y110901D01*
X78501Y110901D01*
X78501Y110899D01*
X78499Y110899D01*
G37*
%LPD*%
%LPC*%
G36*
X83999Y167999D02*
X83999Y167999D01*
X83999Y168001D01*
X84001Y168001D01*
X84001Y167999D01*
X83999Y167999D01*
G37*
%LPD*%
%LPC*%
G36*
X167999Y163999D02*
X167999Y163999D01*
X167999Y164001D01*
X168001Y164001D01*
X168001Y163999D01*
X167999Y163999D01*
G37*
%LPD*%
%LPC*%
G36*
X78249Y132399D02*
X78249Y132399D01*
X78249Y132401D01*
X78251Y132401D01*
X78251Y132399D01*
X78249Y132399D01*
G37*
%LPD*%
%LPC*%
G36*
X189999Y185049D02*
X189999Y185049D01*
X189999Y185051D01*
X190001Y185051D01*
X190001Y185049D01*
X189999Y185049D01*
G37*
%LPD*%
D10*
X113300Y202850D03*
X113300Y185350D03*
X140600Y150250D03*
X140600Y167750D03*
D11*
X95750Y132400D03*
X78250Y132400D03*
D10*
X139300Y202750D03*
X139300Y185250D03*
X164300Y202650D03*
X164300Y185150D03*
X190000Y202550D03*
X190000Y185050D03*
D12*
X393000Y86420D02*
X393000Y71180D01*
X367600Y71180D02*
X367600Y86420D01*
X342200Y86420D02*
X342200Y71180D01*
X316800Y71180D02*
X316800Y86420D01*
X291400Y86420D02*
X291400Y71180D01*
X266000Y71180D02*
X266000Y86420D01*
X240600Y86420D02*
X240600Y71180D01*
X215200Y71180D02*
X215200Y86420D01*
X189800Y86420D02*
X189800Y71180D01*
X164400Y71180D02*
X164400Y86420D01*
X139000Y86420D02*
X139000Y71180D01*
X113600Y71180D02*
X113600Y86420D01*
X88200Y86420D02*
X88200Y71180D01*
X62800Y71180D02*
X62800Y86420D01*
X37400Y86420D02*
X37400Y71180D01*
X393000Y223580D02*
X393000Y238820D01*
X367600Y238820D02*
X367600Y223580D01*
X342200Y223580D02*
X342200Y238820D01*
X316800Y238820D02*
X316800Y223580D01*
X291400Y223580D02*
X291400Y238820D01*
X266000Y238820D02*
X266000Y223580D01*
X240600Y223580D02*
X240600Y238820D01*
X215200Y238820D02*
X215200Y223580D01*
X189800Y223580D02*
X189800Y238820D01*
X164400Y238820D02*
X164400Y223580D01*
X139000Y223580D02*
X139000Y238820D01*
X113600Y238820D02*
X113600Y223580D01*
X88200Y223580D02*
X88200Y238820D01*
X62800Y238820D02*
X62800Y223580D01*
X37400Y223580D02*
X37400Y238820D01*
X461080Y91500D02*
X476320Y91500D01*
X476320Y116900D02*
X461080Y116900D01*
X461080Y142300D02*
X476320Y142300D01*
X476320Y167700D02*
X461080Y167700D01*
X461080Y193100D02*
X476320Y193100D01*
X476320Y218500D02*
X461080Y218500D01*
X529080Y91500D02*
X544320Y91500D01*
X544320Y116900D02*
X529080Y116900D01*
X529080Y142300D02*
X544320Y142300D01*
X544320Y167700D02*
X529080Y167700D01*
X529080Y193100D02*
X544320Y193100D01*
X544320Y218500D02*
X529080Y218500D01*
D13*
X110000Y132400D03*
X127000Y132400D03*
X78500Y110900D03*
X95500Y110900D03*
D14*
X106500Y151000D03*
X106500Y168000D03*
X84000Y168000D03*
X84000Y151000D03*
X207500Y164000D03*
X207500Y181000D03*
D13*
X168000Y164000D03*
X185000Y164000D03*
D12*
X597080Y218500D02*
X612320Y218500D01*
X612320Y193100D02*
X597080Y193100D01*
X597080Y167700D02*
X612320Y167700D01*
X612320Y142300D02*
X597080Y142300D01*
X597080Y116900D02*
X612320Y116900D01*
X612320Y91500D02*
X597080Y91500D01*
D15*
X189800Y202750D02*
X189800Y231200D01*
X189800Y202750D02*
X190000Y202550D01*
X207422Y202550D01*
X207500Y202628D01*
D16*
X207500Y202628D03*
D15*
X207500Y181000D01*
X164400Y202750D02*
X164400Y231200D01*
X164400Y202750D02*
X164300Y202650D01*
X154650Y202650D01*
X151000Y199000D01*
X151000Y129000D01*
D16*
X151000Y129000D03*
D15*
X139000Y203050D02*
X139000Y231200D01*
X139000Y203050D02*
X139300Y202750D01*
X126122Y202750D01*
X126000Y202628D01*
D16*
X126000Y202628D03*
D15*
X126000Y175000D01*
X119000Y168000D01*
X106500Y168000D01*
X113600Y203150D02*
X113600Y231200D01*
X113600Y203150D02*
X113300Y202850D01*
X79850Y202850D01*
X61000Y184000D01*
X61000Y129000D01*
D16*
X61000Y129000D03*
X87500Y285000D03*
X317000Y276500D03*
X153000Y285000D03*
X423000Y285000D03*
X95000Y25000D03*
X193000Y25000D03*
X300500Y25000D03*
X425000Y25000D03*
X532000Y25000D03*
X339000Y108000D03*
X290000Y108000D03*
X314500Y126000D03*
X290000Y145000D03*
X339000Y145000D03*
X538500Y285000D03*
X119000Y111000D03*
D15*
X462700Y168000D02*
X468700Y167700D01*
X255583Y168000D02*
X198583Y111000D01*
X119000Y111000D01*
X255583Y168000D02*
X462700Y168000D01*
X95750Y132400D02*
X95750Y111150D01*
X95500Y110900D01*
X118900Y110900D01*
X119000Y111000D01*
X433667Y218500D02*
X468700Y218500D01*
X433667Y218500D02*
X401907Y186740D01*
X264240Y186740D02*
X197500Y120000D01*
X264240Y186740D02*
X401907Y186740D01*
X147000Y120000D02*
X140500Y126500D01*
X140500Y132000D01*
X140500Y150150D01*
X140600Y150250D01*
X147000Y120000D02*
X197500Y120000D01*
X140100Y132400D02*
X127000Y132400D01*
X140100Y132400D02*
X140500Y132000D01*
X140600Y150250D02*
X139750Y150250D01*
X129500Y160500D01*
X129368Y160500D01*
D16*
X129368Y160500D03*
D15*
X519000Y167700D02*
X536700Y167700D01*
X519000Y167700D02*
X509000Y177700D01*
X509000Y209917D01*
X483458Y235458D02*
X440542Y235458D01*
D16*
X196000Y148000D03*
D15*
X398953Y193870D02*
X440542Y235458D01*
X483458Y235458D02*
X509000Y209917D01*
X260870Y193870D02*
X215000Y148000D01*
X196000Y148000D01*
X260870Y193870D02*
X398953Y193870D01*
X438000Y243000D02*
X486000Y243000D01*
X438000Y243000D02*
X396000Y201000D01*
X227000Y201000D01*
D16*
X227000Y201000D03*
D15*
X510500Y218500D02*
X536700Y218500D01*
X510500Y218500D02*
X486000Y243000D01*
X106500Y151000D02*
X84000Y151000D01*
X106500Y151000D02*
X115000Y151000D01*
X119500Y155500D01*
D16*
X119500Y155500D03*
D15*
X185000Y164000D02*
X196500Y164000D01*
X207500Y164000D01*
D16*
X196500Y164000D03*
D15*
X594088Y262000D02*
X627530Y228558D01*
X594088Y262000D02*
X56000Y262000D01*
X604700Y167700D02*
X615688Y167700D01*
X627530Y179542D01*
X627530Y228558D01*
X56000Y262000D02*
X37400Y243400D01*
X37400Y231200D01*
X37400Y78800D02*
X37400Y65600D01*
X57000Y46000D01*
X559200Y46000D01*
X604700Y91500D01*
X88200Y78800D02*
X88200Y67300D01*
X100872Y54628D02*
X549628Y54628D01*
X572000Y77000D01*
X572000Y106000D01*
X582900Y116900D02*
X604700Y116900D01*
X100872Y54628D02*
X88200Y67300D01*
X572000Y106000D02*
X582900Y116900D01*
X597700Y193100D02*
X604700Y193100D01*
X597700Y193100D02*
X538300Y252500D01*
X381500Y252500D01*
X367600Y238600D01*
X367600Y231200D01*
M02*
