G04 EAGLE Gerber RS-274X export*
G75*
%MOMM*%
%FSLAX34Y34*%
%LPD*%
%IN*%
%IPPOS*%
%AMOC8*
5,1,8,0,0,1.08239X$1,22.5*%
G01*
%ADD10C,0.254000*%


D10*
X0Y0D02*
X650000Y0D01*
X650000Y310000D01*
X0Y310000D01*
X0Y0D01*
X43000Y282476D02*
X42932Y281431D01*
X42795Y280392D01*
X42590Y279365D01*
X42319Y278353D01*
X41983Y277361D01*
X41582Y276393D01*
X41118Y275454D01*
X40595Y274546D01*
X40013Y273675D01*
X39375Y272844D01*
X38684Y272057D01*
X37943Y271316D01*
X37156Y270625D01*
X36325Y269988D01*
X35454Y269406D01*
X34546Y268882D01*
X33607Y268418D01*
X32639Y268017D01*
X31647Y267681D01*
X30635Y267410D01*
X29608Y267205D01*
X28569Y267069D01*
X27524Y267000D01*
X26476Y267000D01*
X25431Y267069D01*
X24392Y267205D01*
X23365Y267410D01*
X22353Y267681D01*
X21361Y268017D01*
X20393Y268418D01*
X19454Y268882D01*
X18546Y269406D01*
X17675Y269988D01*
X16844Y270625D01*
X16057Y271316D01*
X15316Y272057D01*
X14625Y272844D01*
X13988Y273675D01*
X13406Y274546D01*
X12882Y275454D01*
X12418Y276393D01*
X12017Y277361D01*
X11681Y278353D01*
X11410Y279365D01*
X11205Y280392D01*
X11069Y281431D01*
X11000Y282476D01*
X11000Y283524D01*
X11069Y284569D01*
X11205Y285608D01*
X11410Y286635D01*
X11681Y287647D01*
X12017Y288639D01*
X12418Y289607D01*
X12882Y290546D01*
X13406Y291454D01*
X13988Y292325D01*
X14625Y293156D01*
X15316Y293943D01*
X16057Y294684D01*
X16844Y295375D01*
X17675Y296013D01*
X18546Y296595D01*
X19454Y297118D01*
X20393Y297582D01*
X21361Y297983D01*
X22353Y298319D01*
X23365Y298590D01*
X24392Y298795D01*
X25431Y298932D01*
X26476Y299000D01*
X27524Y299000D01*
X28569Y298932D01*
X29608Y298795D01*
X30635Y298590D01*
X31647Y298319D01*
X32639Y297983D01*
X33607Y297582D01*
X34546Y297118D01*
X35454Y296595D01*
X36325Y296013D01*
X37156Y295375D01*
X37943Y294684D01*
X38684Y293943D01*
X39375Y293156D01*
X40013Y292325D01*
X40595Y291454D01*
X41118Y290546D01*
X41582Y289607D01*
X41983Y288639D01*
X42319Y287647D01*
X42590Y286635D01*
X42795Y285608D01*
X42932Y284569D01*
X43000Y283524D01*
X43000Y282476D01*
X43000Y26476D02*
X42932Y25431D01*
X42795Y24392D01*
X42590Y23365D01*
X42319Y22353D01*
X41983Y21361D01*
X41582Y20393D01*
X41118Y19454D01*
X40595Y18546D01*
X40013Y17675D01*
X39375Y16844D01*
X38684Y16057D01*
X37943Y15316D01*
X37156Y14625D01*
X36325Y13988D01*
X35454Y13406D01*
X34546Y12882D01*
X33607Y12418D01*
X32639Y12017D01*
X31647Y11681D01*
X30635Y11410D01*
X29608Y11205D01*
X28569Y11069D01*
X27524Y11000D01*
X26476Y11000D01*
X25431Y11069D01*
X24392Y11205D01*
X23365Y11410D01*
X22353Y11681D01*
X21361Y12017D01*
X20393Y12418D01*
X19454Y12882D01*
X18546Y13406D01*
X17675Y13988D01*
X16844Y14625D01*
X16057Y15316D01*
X15316Y16057D01*
X14625Y16844D01*
X13988Y17675D01*
X13406Y18546D01*
X12882Y19454D01*
X12418Y20393D01*
X12017Y21361D01*
X11681Y22353D01*
X11410Y23365D01*
X11205Y24392D01*
X11069Y25431D01*
X11000Y26476D01*
X11000Y27524D01*
X11069Y28569D01*
X11205Y29608D01*
X11410Y30635D01*
X11681Y31647D01*
X12017Y32639D01*
X12418Y33607D01*
X12882Y34546D01*
X13406Y35454D01*
X13988Y36325D01*
X14625Y37156D01*
X15316Y37943D01*
X16057Y38684D01*
X16844Y39375D01*
X17675Y40013D01*
X18546Y40595D01*
X19454Y41118D01*
X20393Y41582D01*
X21361Y41983D01*
X22353Y42319D01*
X23365Y42590D01*
X24392Y42795D01*
X25431Y42932D01*
X26476Y43000D01*
X27524Y43000D01*
X28569Y42932D01*
X29608Y42795D01*
X30635Y42590D01*
X31647Y42319D01*
X32639Y41983D01*
X33607Y41582D01*
X34546Y41118D01*
X35454Y40595D01*
X36325Y40013D01*
X37156Y39375D01*
X37943Y38684D01*
X38684Y37943D01*
X39375Y37156D01*
X40013Y36325D01*
X40595Y35454D01*
X41118Y34546D01*
X41582Y33607D01*
X41983Y32639D01*
X42319Y31647D01*
X42590Y30635D01*
X42795Y29608D01*
X42932Y28569D01*
X43000Y27524D01*
X43000Y26476D01*
X639000Y282476D02*
X638932Y281431D01*
X638795Y280392D01*
X638590Y279365D01*
X638319Y278353D01*
X637983Y277361D01*
X637582Y276393D01*
X637118Y275454D01*
X636595Y274546D01*
X636013Y273675D01*
X635375Y272844D01*
X634684Y272057D01*
X633943Y271316D01*
X633156Y270625D01*
X632325Y269988D01*
X631454Y269406D01*
X630546Y268882D01*
X629607Y268418D01*
X628639Y268017D01*
X627647Y267681D01*
X626635Y267410D01*
X625608Y267205D01*
X624569Y267069D01*
X623524Y267000D01*
X622476Y267000D01*
X621431Y267069D01*
X620392Y267205D01*
X619365Y267410D01*
X618353Y267681D01*
X617361Y268017D01*
X616393Y268418D01*
X615454Y268882D01*
X614546Y269406D01*
X613675Y269988D01*
X612844Y270625D01*
X612057Y271316D01*
X611316Y272057D01*
X610625Y272844D01*
X609988Y273675D01*
X609406Y274546D01*
X608882Y275454D01*
X608418Y276393D01*
X608017Y277361D01*
X607681Y278353D01*
X607410Y279365D01*
X607205Y280392D01*
X607069Y281431D01*
X607000Y282476D01*
X607000Y283524D01*
X607069Y284569D01*
X607205Y285608D01*
X607410Y286635D01*
X607681Y287647D01*
X608017Y288639D01*
X608418Y289607D01*
X608882Y290546D01*
X609406Y291454D01*
X609988Y292325D01*
X610625Y293156D01*
X611316Y293943D01*
X612057Y294684D01*
X612844Y295375D01*
X613675Y296013D01*
X614546Y296595D01*
X615454Y297118D01*
X616393Y297582D01*
X617361Y297983D01*
X618353Y298319D01*
X619365Y298590D01*
X620392Y298795D01*
X621431Y298932D01*
X622476Y299000D01*
X623524Y299000D01*
X624569Y298932D01*
X625608Y298795D01*
X626635Y298590D01*
X627647Y298319D01*
X628639Y297983D01*
X629607Y297582D01*
X630546Y297118D01*
X631454Y296595D01*
X632325Y296013D01*
X633156Y295375D01*
X633943Y294684D01*
X634684Y293943D01*
X635375Y293156D01*
X636013Y292325D01*
X636595Y291454D01*
X637118Y290546D01*
X637582Y289607D01*
X637983Y288639D01*
X638319Y287647D01*
X638590Y286635D01*
X638795Y285608D01*
X638932Y284569D01*
X639000Y283524D01*
X639000Y282476D01*
X639000Y26476D02*
X638932Y25431D01*
X638795Y24392D01*
X638590Y23365D01*
X638319Y22353D01*
X637983Y21361D01*
X637582Y20393D01*
X637118Y19454D01*
X636595Y18546D01*
X636013Y17675D01*
X635375Y16844D01*
X634684Y16057D01*
X633943Y15316D01*
X633156Y14625D01*
X632325Y13988D01*
X631454Y13406D01*
X630546Y12882D01*
X629607Y12418D01*
X628639Y12017D01*
X627647Y11681D01*
X626635Y11410D01*
X625608Y11205D01*
X624569Y11069D01*
X623524Y11000D01*
X622476Y11000D01*
X621431Y11069D01*
X620392Y11205D01*
X619365Y11410D01*
X618353Y11681D01*
X617361Y12017D01*
X616393Y12418D01*
X615454Y12882D01*
X614546Y13406D01*
X613675Y13988D01*
X612844Y14625D01*
X612057Y15316D01*
X611316Y16057D01*
X610625Y16844D01*
X609988Y17675D01*
X609406Y18546D01*
X608882Y19454D01*
X608418Y20393D01*
X608017Y21361D01*
X607681Y22353D01*
X607410Y23365D01*
X607205Y24392D01*
X607069Y25431D01*
X607000Y26476D01*
X607000Y27524D01*
X607069Y28569D01*
X607205Y29608D01*
X607410Y30635D01*
X607681Y31647D01*
X608017Y32639D01*
X608418Y33607D01*
X608882Y34546D01*
X609406Y35454D01*
X609988Y36325D01*
X610625Y37156D01*
X611316Y37943D01*
X612057Y38684D01*
X612844Y39375D01*
X613675Y40013D01*
X614546Y40595D01*
X615454Y41118D01*
X616393Y41582D01*
X617361Y41983D01*
X618353Y42319D01*
X619365Y42590D01*
X620392Y42795D01*
X621431Y42932D01*
X622476Y43000D01*
X623524Y43000D01*
X624569Y42932D01*
X625608Y42795D01*
X626635Y42590D01*
X627647Y42319D01*
X628639Y41983D01*
X629607Y41582D01*
X630546Y41118D01*
X631454Y40595D01*
X632325Y40013D01*
X633156Y39375D01*
X633943Y38684D01*
X634684Y37943D01*
X635375Y37156D01*
X636013Y36325D01*
X636595Y35454D01*
X637118Y34546D01*
X637582Y33607D01*
X637983Y32639D01*
X638319Y31647D01*
X638590Y30635D01*
X638795Y29608D01*
X638932Y28569D01*
X639000Y27524D01*
X639000Y26476D01*
M02*
