G04 EAGLE Gerber RS-274X export*
G75*
%MOMM*%
%FSLAX34Y34*%
%LPD*%
%INSilkscreen Bottom*%
%IPPOS*%
%AMOC8*
5,1,8,0,0,1.08239X$1,22.5*%
G01*
%ADD10C,0.152400*%
%ADD11C,0.076200*%
%ADD12C,0.101600*%


D10*
X3000Y65000D02*
X432000Y65000D01*
X432000Y245000D01*
X3000Y245000D01*
X497500Y231200D02*
X497500Y78800D01*
X440000Y78800D01*
X440000Y231200D02*
X497500Y231200D01*
X439500Y231200D02*
X439500Y78800D01*
X507500Y78800D02*
X507500Y231200D01*
X508000Y231200D02*
X565500Y231200D01*
X565500Y78800D02*
X508000Y78800D01*
X565500Y78800D02*
X565500Y231200D01*
X378238Y287432D02*
X378238Y303688D01*
X373722Y303688D01*
X373589Y303686D01*
X373457Y303680D01*
X373325Y303670D01*
X373193Y303657D01*
X373061Y303639D01*
X372931Y303618D01*
X372800Y303593D01*
X372671Y303564D01*
X372543Y303531D01*
X372415Y303495D01*
X372289Y303455D01*
X372164Y303411D01*
X372040Y303363D01*
X371918Y303312D01*
X371797Y303257D01*
X371678Y303199D01*
X371560Y303137D01*
X371445Y303072D01*
X371331Y303003D01*
X371220Y302932D01*
X371111Y302856D01*
X371004Y302778D01*
X370899Y302697D01*
X370797Y302612D01*
X370697Y302525D01*
X370600Y302435D01*
X370505Y302342D01*
X370414Y302246D01*
X370325Y302148D01*
X370239Y302047D01*
X370156Y301943D01*
X370076Y301837D01*
X370000Y301729D01*
X369926Y301619D01*
X369856Y301506D01*
X369789Y301392D01*
X369726Y301275D01*
X369666Y301157D01*
X369609Y301037D01*
X369556Y300915D01*
X369507Y300792D01*
X369461Y300668D01*
X369419Y300542D01*
X369381Y300415D01*
X369346Y300287D01*
X369315Y300158D01*
X369288Y300029D01*
X369265Y299898D01*
X369245Y299767D01*
X369230Y299635D01*
X369218Y299503D01*
X369210Y299371D01*
X369206Y299238D01*
X369206Y299106D01*
X369210Y298973D01*
X369218Y298841D01*
X369230Y298709D01*
X369245Y298577D01*
X369265Y298446D01*
X369288Y298315D01*
X369315Y298186D01*
X369346Y298057D01*
X369381Y297929D01*
X369419Y297802D01*
X369461Y297676D01*
X369507Y297552D01*
X369556Y297429D01*
X369609Y297307D01*
X369666Y297187D01*
X369726Y297069D01*
X369789Y296952D01*
X369856Y296838D01*
X369926Y296725D01*
X370000Y296615D01*
X370076Y296507D01*
X370156Y296401D01*
X370239Y296297D01*
X370325Y296196D01*
X370414Y296098D01*
X370505Y296002D01*
X370600Y295909D01*
X370697Y295819D01*
X370797Y295732D01*
X370899Y295647D01*
X371004Y295566D01*
X371111Y295488D01*
X371220Y295412D01*
X371331Y295341D01*
X371445Y295272D01*
X371560Y295207D01*
X371678Y295145D01*
X371797Y295087D01*
X371918Y295032D01*
X372040Y294981D01*
X372164Y294933D01*
X372289Y294889D01*
X372415Y294849D01*
X372543Y294813D01*
X372671Y294780D01*
X372800Y294751D01*
X372931Y294726D01*
X373061Y294705D01*
X373193Y294687D01*
X373325Y294674D01*
X373457Y294664D01*
X373589Y294658D01*
X373722Y294656D01*
X373722Y294657D02*
X378238Y294657D01*
X360768Y287432D02*
X356253Y287432D01*
X360768Y287432D02*
X360869Y287434D01*
X360970Y287440D01*
X361071Y287449D01*
X361172Y287462D01*
X361272Y287479D01*
X361371Y287500D01*
X361469Y287524D01*
X361566Y287552D01*
X361663Y287584D01*
X361758Y287619D01*
X361851Y287658D01*
X361943Y287700D01*
X362034Y287746D01*
X362123Y287795D01*
X362209Y287847D01*
X362294Y287903D01*
X362377Y287961D01*
X362457Y288023D01*
X362535Y288088D01*
X362611Y288155D01*
X362684Y288225D01*
X362754Y288298D01*
X362821Y288374D01*
X362886Y288452D01*
X362948Y288532D01*
X363006Y288615D01*
X363062Y288700D01*
X363114Y288787D01*
X363163Y288875D01*
X363209Y288966D01*
X363251Y289058D01*
X363290Y289151D01*
X363325Y289246D01*
X363357Y289343D01*
X363385Y289440D01*
X363409Y289538D01*
X363430Y289637D01*
X363447Y289737D01*
X363460Y289838D01*
X363469Y289939D01*
X363475Y290040D01*
X363477Y290141D01*
X363478Y290141D02*
X363478Y294657D01*
X363477Y294657D02*
X363475Y294776D01*
X363469Y294896D01*
X363459Y295015D01*
X363445Y295133D01*
X363428Y295252D01*
X363406Y295369D01*
X363381Y295486D01*
X363351Y295601D01*
X363318Y295716D01*
X363281Y295830D01*
X363241Y295942D01*
X363196Y296053D01*
X363148Y296162D01*
X363097Y296270D01*
X363042Y296376D01*
X362983Y296480D01*
X362921Y296582D01*
X362856Y296682D01*
X362787Y296780D01*
X362715Y296876D01*
X362640Y296969D01*
X362563Y297059D01*
X362482Y297147D01*
X362398Y297232D01*
X362311Y297314D01*
X362222Y297394D01*
X362130Y297470D01*
X362036Y297544D01*
X361939Y297614D01*
X361841Y297681D01*
X361740Y297745D01*
X361636Y297805D01*
X361531Y297862D01*
X361424Y297915D01*
X361316Y297965D01*
X361206Y298011D01*
X361094Y298053D01*
X360981Y298092D01*
X360867Y298127D01*
X360752Y298158D01*
X360635Y298186D01*
X360518Y298209D01*
X360401Y298229D01*
X360282Y298245D01*
X360163Y298257D01*
X360044Y298265D01*
X359925Y298269D01*
X359805Y298269D01*
X359686Y298265D01*
X359567Y298257D01*
X359448Y298245D01*
X359329Y298229D01*
X359212Y298209D01*
X359095Y298186D01*
X358978Y298158D01*
X358863Y298127D01*
X358749Y298092D01*
X358636Y298053D01*
X358524Y298011D01*
X358414Y297965D01*
X358306Y297915D01*
X358199Y297862D01*
X358094Y297805D01*
X357990Y297745D01*
X357889Y297681D01*
X357791Y297614D01*
X357694Y297544D01*
X357600Y297470D01*
X357508Y297394D01*
X357419Y297314D01*
X357332Y297232D01*
X357248Y297147D01*
X357167Y297059D01*
X357090Y296969D01*
X357015Y296876D01*
X356943Y296780D01*
X356874Y296682D01*
X356809Y296582D01*
X356747Y296480D01*
X356688Y296376D01*
X356633Y296270D01*
X356582Y296162D01*
X356534Y296053D01*
X356489Y295942D01*
X356449Y295830D01*
X356412Y295716D01*
X356379Y295601D01*
X356349Y295486D01*
X356324Y295369D01*
X356302Y295252D01*
X356285Y295133D01*
X356271Y295015D01*
X356261Y294896D01*
X356255Y294776D01*
X356253Y294657D01*
X356253Y292851D01*
X363478Y292851D01*
X349410Y287432D02*
X349410Y298269D01*
X344894Y298269D01*
X344790Y298267D01*
X344687Y298261D01*
X344583Y298251D01*
X344480Y298237D01*
X344378Y298219D01*
X344277Y298198D01*
X344176Y298172D01*
X344077Y298143D01*
X343978Y298110D01*
X343881Y298073D01*
X343786Y298032D01*
X343692Y297988D01*
X343600Y297940D01*
X343510Y297889D01*
X343421Y297834D01*
X343335Y297776D01*
X343252Y297714D01*
X343170Y297650D01*
X343092Y297582D01*
X343016Y297512D01*
X342942Y297439D01*
X342872Y297362D01*
X342804Y297284D01*
X342740Y297202D01*
X342678Y297119D01*
X342620Y297033D01*
X342565Y296944D01*
X342514Y296854D01*
X342466Y296762D01*
X342422Y296668D01*
X342381Y296573D01*
X342344Y296476D01*
X342311Y296377D01*
X342282Y296278D01*
X342256Y296177D01*
X342235Y296076D01*
X342217Y295974D01*
X342203Y295871D01*
X342193Y295767D01*
X342187Y295664D01*
X342185Y295560D01*
X342185Y287432D01*
X332632Y287432D02*
X328117Y287432D01*
X332632Y287432D02*
X332733Y287434D01*
X332834Y287440D01*
X332935Y287449D01*
X333036Y287462D01*
X333136Y287479D01*
X333235Y287500D01*
X333333Y287524D01*
X333430Y287552D01*
X333527Y287584D01*
X333622Y287619D01*
X333715Y287658D01*
X333807Y287700D01*
X333898Y287746D01*
X333987Y287795D01*
X334073Y287847D01*
X334158Y287903D01*
X334241Y287961D01*
X334321Y288023D01*
X334399Y288088D01*
X334475Y288155D01*
X334548Y288225D01*
X334618Y288298D01*
X334685Y288374D01*
X334750Y288452D01*
X334812Y288532D01*
X334870Y288615D01*
X334926Y288700D01*
X334978Y288787D01*
X335027Y288875D01*
X335073Y288966D01*
X335115Y289058D01*
X335154Y289151D01*
X335189Y289246D01*
X335221Y289343D01*
X335249Y289440D01*
X335273Y289538D01*
X335294Y289637D01*
X335311Y289737D01*
X335324Y289838D01*
X335333Y289939D01*
X335339Y290040D01*
X335341Y290141D01*
X335342Y290141D02*
X335342Y294657D01*
X335341Y294657D02*
X335339Y294776D01*
X335333Y294896D01*
X335323Y295015D01*
X335309Y295133D01*
X335292Y295252D01*
X335270Y295369D01*
X335245Y295486D01*
X335215Y295601D01*
X335182Y295716D01*
X335145Y295830D01*
X335105Y295942D01*
X335060Y296053D01*
X335012Y296162D01*
X334961Y296270D01*
X334906Y296376D01*
X334847Y296480D01*
X334785Y296582D01*
X334720Y296682D01*
X334651Y296780D01*
X334579Y296876D01*
X334504Y296969D01*
X334427Y297059D01*
X334346Y297147D01*
X334262Y297232D01*
X334175Y297314D01*
X334086Y297394D01*
X333994Y297470D01*
X333900Y297544D01*
X333803Y297614D01*
X333705Y297681D01*
X333604Y297745D01*
X333500Y297805D01*
X333395Y297862D01*
X333288Y297915D01*
X333180Y297965D01*
X333070Y298011D01*
X332958Y298053D01*
X332845Y298092D01*
X332731Y298127D01*
X332616Y298158D01*
X332499Y298186D01*
X332382Y298209D01*
X332265Y298229D01*
X332146Y298245D01*
X332027Y298257D01*
X331908Y298265D01*
X331789Y298269D01*
X331669Y298269D01*
X331550Y298265D01*
X331431Y298257D01*
X331312Y298245D01*
X331193Y298229D01*
X331076Y298209D01*
X330959Y298186D01*
X330842Y298158D01*
X330727Y298127D01*
X330613Y298092D01*
X330500Y298053D01*
X330388Y298011D01*
X330278Y297965D01*
X330170Y297915D01*
X330063Y297862D01*
X329958Y297805D01*
X329854Y297745D01*
X329753Y297681D01*
X329655Y297614D01*
X329558Y297544D01*
X329464Y297470D01*
X329372Y297394D01*
X329283Y297314D01*
X329196Y297232D01*
X329112Y297147D01*
X329031Y297059D01*
X328954Y296969D01*
X328879Y296876D01*
X328807Y296780D01*
X328738Y296682D01*
X328673Y296582D01*
X328611Y296480D01*
X328552Y296376D01*
X328497Y296270D01*
X328446Y296162D01*
X328398Y296053D01*
X328353Y295942D01*
X328313Y295830D01*
X328276Y295716D01*
X328243Y295601D01*
X328213Y295486D01*
X328188Y295369D01*
X328166Y295252D01*
X328149Y295133D01*
X328135Y295015D01*
X328125Y294896D01*
X328119Y294776D01*
X328117Y294657D01*
X328117Y292851D01*
X335342Y292851D01*
X323092Y298269D02*
X317673Y298269D01*
X321286Y303688D02*
X321286Y290141D01*
X321285Y290141D02*
X321283Y290040D01*
X321277Y289939D01*
X321268Y289838D01*
X321255Y289737D01*
X321238Y289637D01*
X321217Y289538D01*
X321193Y289440D01*
X321165Y289343D01*
X321133Y289246D01*
X321098Y289151D01*
X321059Y289058D01*
X321017Y288966D01*
X320971Y288875D01*
X320922Y288787D01*
X320870Y288700D01*
X320814Y288615D01*
X320756Y288532D01*
X320694Y288452D01*
X320629Y288374D01*
X320562Y288298D01*
X320492Y288225D01*
X320419Y288155D01*
X320343Y288088D01*
X320265Y288023D01*
X320185Y287961D01*
X320102Y287903D01*
X320017Y287847D01*
X319931Y287795D01*
X319842Y287746D01*
X319751Y287700D01*
X319659Y287658D01*
X319566Y287619D01*
X319471Y287584D01*
X319374Y287552D01*
X319277Y287524D01*
X319179Y287500D01*
X319080Y287479D01*
X318980Y287462D01*
X318879Y287449D01*
X318778Y287440D01*
X318677Y287434D01*
X318576Y287432D01*
X317673Y287432D01*
X311289Y287432D02*
X311289Y298269D01*
X305870Y298269D01*
X305870Y296463D01*
X300953Y294657D02*
X300953Y291044D01*
X300952Y294657D02*
X300950Y294776D01*
X300944Y294896D01*
X300934Y295015D01*
X300920Y295133D01*
X300903Y295252D01*
X300881Y295369D01*
X300856Y295486D01*
X300826Y295601D01*
X300793Y295716D01*
X300756Y295830D01*
X300716Y295942D01*
X300671Y296053D01*
X300623Y296162D01*
X300572Y296270D01*
X300517Y296376D01*
X300458Y296480D01*
X300396Y296582D01*
X300331Y296682D01*
X300262Y296780D01*
X300190Y296876D01*
X300115Y296969D01*
X300038Y297059D01*
X299957Y297147D01*
X299873Y297232D01*
X299786Y297314D01*
X299697Y297394D01*
X299605Y297470D01*
X299511Y297544D01*
X299414Y297614D01*
X299316Y297681D01*
X299215Y297745D01*
X299111Y297805D01*
X299006Y297862D01*
X298899Y297915D01*
X298791Y297965D01*
X298681Y298011D01*
X298569Y298053D01*
X298456Y298092D01*
X298342Y298127D01*
X298227Y298158D01*
X298110Y298186D01*
X297993Y298209D01*
X297876Y298229D01*
X297757Y298245D01*
X297638Y298257D01*
X297519Y298265D01*
X297400Y298269D01*
X297280Y298269D01*
X297161Y298265D01*
X297042Y298257D01*
X296923Y298245D01*
X296804Y298229D01*
X296687Y298209D01*
X296570Y298186D01*
X296453Y298158D01*
X296338Y298127D01*
X296224Y298092D01*
X296111Y298053D01*
X295999Y298011D01*
X295889Y297965D01*
X295781Y297915D01*
X295674Y297862D01*
X295569Y297805D01*
X295465Y297745D01*
X295364Y297681D01*
X295266Y297614D01*
X295169Y297544D01*
X295075Y297470D01*
X294983Y297394D01*
X294894Y297314D01*
X294807Y297232D01*
X294723Y297147D01*
X294642Y297059D01*
X294565Y296969D01*
X294490Y296876D01*
X294418Y296780D01*
X294349Y296682D01*
X294284Y296582D01*
X294222Y296480D01*
X294163Y296376D01*
X294108Y296270D01*
X294057Y296162D01*
X294009Y296053D01*
X293964Y295942D01*
X293924Y295830D01*
X293887Y295716D01*
X293854Y295601D01*
X293824Y295486D01*
X293799Y295369D01*
X293777Y295252D01*
X293760Y295133D01*
X293746Y295015D01*
X293736Y294896D01*
X293730Y294776D01*
X293728Y294657D01*
X293728Y291044D01*
X293730Y290925D01*
X293736Y290805D01*
X293746Y290686D01*
X293760Y290568D01*
X293777Y290449D01*
X293799Y290332D01*
X293824Y290215D01*
X293854Y290100D01*
X293887Y289985D01*
X293924Y289871D01*
X293964Y289759D01*
X294009Y289648D01*
X294057Y289539D01*
X294108Y289431D01*
X294163Y289325D01*
X294222Y289221D01*
X294284Y289119D01*
X294349Y289019D01*
X294418Y288921D01*
X294490Y288825D01*
X294565Y288732D01*
X294642Y288642D01*
X294723Y288554D01*
X294807Y288469D01*
X294894Y288387D01*
X294983Y288307D01*
X295075Y288231D01*
X295169Y288157D01*
X295266Y288087D01*
X295364Y288020D01*
X295465Y287956D01*
X295569Y287896D01*
X295674Y287839D01*
X295781Y287786D01*
X295889Y287736D01*
X295999Y287690D01*
X296111Y287648D01*
X296224Y287609D01*
X296338Y287574D01*
X296453Y287543D01*
X296570Y287515D01*
X296687Y287492D01*
X296804Y287472D01*
X296923Y287456D01*
X297042Y287444D01*
X297161Y287436D01*
X297280Y287432D01*
X297400Y287432D01*
X297519Y287436D01*
X297638Y287444D01*
X297757Y287456D01*
X297876Y287472D01*
X297993Y287492D01*
X298110Y287515D01*
X298227Y287543D01*
X298342Y287574D01*
X298456Y287609D01*
X298569Y287648D01*
X298681Y287690D01*
X298791Y287736D01*
X298899Y287786D01*
X299006Y287839D01*
X299111Y287896D01*
X299215Y287956D01*
X299316Y288020D01*
X299414Y288087D01*
X299511Y288157D01*
X299605Y288231D01*
X299697Y288307D01*
X299786Y288387D01*
X299873Y288469D01*
X299957Y288554D01*
X300038Y288642D01*
X300115Y288732D01*
X300190Y288825D01*
X300262Y288921D01*
X300331Y289019D01*
X300396Y289119D01*
X300458Y289221D01*
X300517Y289325D01*
X300572Y289431D01*
X300623Y289539D01*
X300671Y289648D01*
X300716Y289759D01*
X300756Y289871D01*
X300793Y289985D01*
X300826Y290100D01*
X300856Y290215D01*
X300881Y290332D01*
X300903Y290449D01*
X300920Y290568D01*
X300934Y290686D01*
X300944Y290805D01*
X300950Y290925D01*
X300952Y291044D01*
X286607Y287432D02*
X286607Y298269D01*
X278479Y298269D01*
X278378Y298267D01*
X278277Y298261D01*
X278176Y298252D01*
X278075Y298239D01*
X277975Y298222D01*
X277876Y298201D01*
X277778Y298177D01*
X277681Y298149D01*
X277584Y298117D01*
X277489Y298082D01*
X277396Y298043D01*
X277304Y298001D01*
X277213Y297955D01*
X277125Y297906D01*
X277038Y297854D01*
X276953Y297798D01*
X276870Y297740D01*
X276790Y297678D01*
X276712Y297613D01*
X276636Y297546D01*
X276563Y297476D01*
X276493Y297403D01*
X276426Y297327D01*
X276361Y297249D01*
X276299Y297169D01*
X276241Y297086D01*
X276185Y297001D01*
X276133Y296915D01*
X276084Y296826D01*
X276038Y296735D01*
X275996Y296643D01*
X275957Y296550D01*
X275922Y296455D01*
X275890Y296358D01*
X275862Y296261D01*
X275838Y296163D01*
X275817Y296064D01*
X275800Y295964D01*
X275787Y295863D01*
X275778Y295762D01*
X275772Y295661D01*
X275770Y295560D01*
X275770Y287432D01*
X281188Y287432D02*
X281188Y298269D01*
X265939Y287432D02*
X261423Y287432D01*
X265939Y287432D02*
X266040Y287434D01*
X266141Y287440D01*
X266242Y287449D01*
X266343Y287462D01*
X266443Y287479D01*
X266542Y287500D01*
X266640Y287524D01*
X266737Y287552D01*
X266834Y287584D01*
X266929Y287619D01*
X267022Y287658D01*
X267114Y287700D01*
X267205Y287746D01*
X267294Y287795D01*
X267380Y287847D01*
X267465Y287903D01*
X267548Y287961D01*
X267628Y288023D01*
X267706Y288088D01*
X267782Y288155D01*
X267855Y288225D01*
X267925Y288298D01*
X267992Y288374D01*
X268057Y288452D01*
X268119Y288532D01*
X268177Y288615D01*
X268233Y288700D01*
X268285Y288787D01*
X268334Y288875D01*
X268380Y288966D01*
X268422Y289058D01*
X268461Y289151D01*
X268496Y289246D01*
X268528Y289343D01*
X268556Y289440D01*
X268580Y289538D01*
X268601Y289637D01*
X268618Y289737D01*
X268631Y289838D01*
X268640Y289939D01*
X268646Y290040D01*
X268648Y290141D01*
X268648Y294657D01*
X268646Y294776D01*
X268640Y294896D01*
X268630Y295015D01*
X268616Y295133D01*
X268599Y295252D01*
X268577Y295369D01*
X268552Y295486D01*
X268522Y295601D01*
X268489Y295716D01*
X268452Y295830D01*
X268412Y295942D01*
X268367Y296053D01*
X268319Y296162D01*
X268268Y296270D01*
X268213Y296376D01*
X268154Y296480D01*
X268092Y296582D01*
X268027Y296682D01*
X267958Y296780D01*
X267886Y296876D01*
X267811Y296969D01*
X267734Y297059D01*
X267653Y297147D01*
X267569Y297232D01*
X267482Y297314D01*
X267393Y297394D01*
X267301Y297470D01*
X267207Y297544D01*
X267110Y297614D01*
X267012Y297681D01*
X266911Y297745D01*
X266807Y297805D01*
X266702Y297862D01*
X266595Y297915D01*
X266487Y297965D01*
X266377Y298011D01*
X266265Y298053D01*
X266152Y298092D01*
X266038Y298127D01*
X265923Y298158D01*
X265806Y298186D01*
X265689Y298209D01*
X265572Y298229D01*
X265453Y298245D01*
X265334Y298257D01*
X265215Y298265D01*
X265096Y298269D01*
X264976Y298269D01*
X264857Y298265D01*
X264738Y298257D01*
X264619Y298245D01*
X264500Y298229D01*
X264383Y298209D01*
X264266Y298186D01*
X264149Y298158D01*
X264034Y298127D01*
X263920Y298092D01*
X263807Y298053D01*
X263695Y298011D01*
X263585Y297965D01*
X263477Y297915D01*
X263370Y297862D01*
X263265Y297805D01*
X263161Y297745D01*
X263060Y297681D01*
X262962Y297614D01*
X262865Y297544D01*
X262771Y297470D01*
X262679Y297394D01*
X262590Y297314D01*
X262503Y297232D01*
X262419Y297147D01*
X262338Y297059D01*
X262261Y296969D01*
X262186Y296876D01*
X262114Y296780D01*
X262045Y296682D01*
X261980Y296582D01*
X261918Y296480D01*
X261859Y296376D01*
X261804Y296270D01*
X261753Y296162D01*
X261705Y296053D01*
X261660Y295942D01*
X261620Y295830D01*
X261583Y295716D01*
X261550Y295601D01*
X261520Y295486D01*
X261495Y295369D01*
X261473Y295252D01*
X261456Y295133D01*
X261442Y295015D01*
X261432Y294896D01*
X261426Y294776D01*
X261424Y294657D01*
X261423Y294657D02*
X261423Y292851D01*
X268648Y292851D01*
X256399Y298269D02*
X250980Y298269D01*
X254592Y303688D02*
X254592Y290141D01*
X254590Y290040D01*
X254584Y289939D01*
X254575Y289838D01*
X254562Y289737D01*
X254545Y289637D01*
X254524Y289538D01*
X254500Y289440D01*
X254472Y289343D01*
X254440Y289246D01*
X254405Y289151D01*
X254366Y289058D01*
X254324Y288966D01*
X254278Y288875D01*
X254229Y288787D01*
X254177Y288700D01*
X254121Y288615D01*
X254063Y288532D01*
X254001Y288452D01*
X253936Y288374D01*
X253869Y288298D01*
X253799Y288225D01*
X253726Y288155D01*
X253650Y288088D01*
X253572Y288023D01*
X253492Y287961D01*
X253409Y287903D01*
X253324Y287847D01*
X253238Y287795D01*
X253149Y287746D01*
X253058Y287700D01*
X252966Y287658D01*
X252873Y287619D01*
X252778Y287584D01*
X252681Y287552D01*
X252584Y287524D01*
X252486Y287500D01*
X252387Y287479D01*
X252287Y287462D01*
X252186Y287449D01*
X252085Y287440D01*
X251984Y287434D01*
X251883Y287432D01*
X250980Y287432D01*
X242492Y287432D02*
X237977Y287432D01*
X242492Y287432D02*
X242593Y287434D01*
X242694Y287440D01*
X242795Y287449D01*
X242896Y287462D01*
X242996Y287479D01*
X243095Y287500D01*
X243193Y287524D01*
X243290Y287552D01*
X243387Y287584D01*
X243482Y287619D01*
X243575Y287658D01*
X243667Y287700D01*
X243758Y287746D01*
X243847Y287795D01*
X243933Y287847D01*
X244018Y287903D01*
X244101Y287961D01*
X244181Y288023D01*
X244259Y288088D01*
X244335Y288155D01*
X244408Y288225D01*
X244478Y288298D01*
X244545Y288374D01*
X244610Y288452D01*
X244672Y288532D01*
X244730Y288615D01*
X244786Y288700D01*
X244838Y288787D01*
X244887Y288875D01*
X244933Y288966D01*
X244975Y289058D01*
X245014Y289151D01*
X245049Y289246D01*
X245081Y289343D01*
X245109Y289440D01*
X245133Y289538D01*
X245154Y289637D01*
X245171Y289737D01*
X245184Y289838D01*
X245193Y289939D01*
X245199Y290040D01*
X245201Y290141D01*
X245202Y290141D02*
X245202Y294657D01*
X245201Y294657D02*
X245199Y294776D01*
X245193Y294896D01*
X245183Y295015D01*
X245169Y295133D01*
X245152Y295252D01*
X245130Y295369D01*
X245105Y295486D01*
X245075Y295601D01*
X245042Y295716D01*
X245005Y295830D01*
X244965Y295942D01*
X244920Y296053D01*
X244872Y296162D01*
X244821Y296270D01*
X244766Y296376D01*
X244707Y296480D01*
X244645Y296582D01*
X244580Y296682D01*
X244511Y296780D01*
X244439Y296876D01*
X244364Y296969D01*
X244287Y297059D01*
X244206Y297147D01*
X244122Y297232D01*
X244035Y297314D01*
X243946Y297394D01*
X243854Y297470D01*
X243760Y297544D01*
X243663Y297614D01*
X243565Y297681D01*
X243464Y297745D01*
X243360Y297805D01*
X243255Y297862D01*
X243148Y297915D01*
X243040Y297965D01*
X242930Y298011D01*
X242818Y298053D01*
X242705Y298092D01*
X242591Y298127D01*
X242476Y298158D01*
X242359Y298186D01*
X242242Y298209D01*
X242125Y298229D01*
X242006Y298245D01*
X241887Y298257D01*
X241768Y298265D01*
X241649Y298269D01*
X241529Y298269D01*
X241410Y298265D01*
X241291Y298257D01*
X241172Y298245D01*
X241053Y298229D01*
X240936Y298209D01*
X240819Y298186D01*
X240702Y298158D01*
X240587Y298127D01*
X240473Y298092D01*
X240360Y298053D01*
X240248Y298011D01*
X240138Y297965D01*
X240030Y297915D01*
X239923Y297862D01*
X239818Y297805D01*
X239714Y297745D01*
X239613Y297681D01*
X239515Y297614D01*
X239418Y297544D01*
X239324Y297470D01*
X239232Y297394D01*
X239143Y297314D01*
X239056Y297232D01*
X238972Y297147D01*
X238891Y297059D01*
X238814Y296969D01*
X238739Y296876D01*
X238667Y296780D01*
X238598Y296682D01*
X238533Y296582D01*
X238471Y296480D01*
X238412Y296376D01*
X238357Y296270D01*
X238306Y296162D01*
X238258Y296053D01*
X238213Y295942D01*
X238173Y295830D01*
X238136Y295716D01*
X238103Y295601D01*
X238073Y295486D01*
X238048Y295369D01*
X238026Y295252D01*
X238009Y295133D01*
X237995Y295015D01*
X237985Y294896D01*
X237979Y294776D01*
X237977Y294657D01*
X237977Y292851D01*
X245202Y292851D01*
X231049Y287432D02*
X231049Y298269D01*
X225630Y298269D01*
X225630Y296463D01*
X221234Y285626D02*
X214009Y285626D01*
X203553Y287432D02*
X208972Y303688D01*
X198135Y303688D02*
X203553Y287432D01*
X192437Y287432D02*
X187922Y287432D01*
X187789Y287434D01*
X187657Y287440D01*
X187525Y287450D01*
X187393Y287463D01*
X187261Y287481D01*
X187131Y287502D01*
X187000Y287527D01*
X186871Y287556D01*
X186743Y287589D01*
X186615Y287625D01*
X186489Y287665D01*
X186364Y287709D01*
X186240Y287757D01*
X186118Y287808D01*
X185997Y287863D01*
X185878Y287921D01*
X185760Y287983D01*
X185645Y288048D01*
X185531Y288117D01*
X185420Y288188D01*
X185311Y288264D01*
X185204Y288342D01*
X185099Y288423D01*
X184997Y288508D01*
X184897Y288595D01*
X184800Y288685D01*
X184705Y288778D01*
X184614Y288874D01*
X184525Y288972D01*
X184439Y289073D01*
X184356Y289177D01*
X184276Y289283D01*
X184200Y289391D01*
X184126Y289501D01*
X184056Y289614D01*
X183989Y289728D01*
X183926Y289845D01*
X183866Y289963D01*
X183809Y290083D01*
X183756Y290205D01*
X183707Y290328D01*
X183661Y290452D01*
X183619Y290578D01*
X183581Y290705D01*
X183546Y290833D01*
X183515Y290962D01*
X183488Y291091D01*
X183465Y291222D01*
X183445Y291353D01*
X183430Y291485D01*
X183418Y291617D01*
X183410Y291749D01*
X183406Y291882D01*
X183406Y292014D01*
X183410Y292147D01*
X183418Y292279D01*
X183430Y292411D01*
X183445Y292543D01*
X183465Y292674D01*
X183488Y292805D01*
X183515Y292934D01*
X183546Y293063D01*
X183581Y293191D01*
X183619Y293318D01*
X183661Y293444D01*
X183707Y293568D01*
X183756Y293691D01*
X183809Y293813D01*
X183866Y293933D01*
X183926Y294051D01*
X183989Y294168D01*
X184056Y294282D01*
X184126Y294395D01*
X184200Y294505D01*
X184276Y294613D01*
X184356Y294719D01*
X184439Y294823D01*
X184525Y294924D01*
X184614Y295022D01*
X184705Y295118D01*
X184800Y295211D01*
X184897Y295301D01*
X184997Y295388D01*
X185099Y295473D01*
X185204Y295554D01*
X185311Y295632D01*
X185420Y295708D01*
X185531Y295779D01*
X185645Y295848D01*
X185760Y295913D01*
X185878Y295975D01*
X185997Y296033D01*
X186118Y296088D01*
X186240Y296139D01*
X186364Y296187D01*
X186489Y296231D01*
X186615Y296271D01*
X186743Y296307D01*
X186871Y296340D01*
X187000Y296369D01*
X187131Y296394D01*
X187261Y296415D01*
X187393Y296433D01*
X187525Y296446D01*
X187657Y296456D01*
X187789Y296462D01*
X187922Y296464D01*
X187019Y303688D02*
X192437Y303688D01*
X187019Y303688D02*
X186900Y303686D01*
X186780Y303680D01*
X186661Y303670D01*
X186543Y303656D01*
X186424Y303639D01*
X186307Y303617D01*
X186190Y303592D01*
X186075Y303562D01*
X185960Y303529D01*
X185846Y303492D01*
X185734Y303452D01*
X185623Y303407D01*
X185514Y303359D01*
X185406Y303308D01*
X185300Y303253D01*
X185196Y303194D01*
X185094Y303132D01*
X184994Y303067D01*
X184896Y302998D01*
X184800Y302926D01*
X184707Y302851D01*
X184617Y302774D01*
X184529Y302693D01*
X184444Y302609D01*
X184362Y302522D01*
X184282Y302433D01*
X184206Y302341D01*
X184132Y302247D01*
X184062Y302150D01*
X183995Y302052D01*
X183931Y301951D01*
X183871Y301847D01*
X183814Y301742D01*
X183761Y301635D01*
X183711Y301527D01*
X183665Y301417D01*
X183623Y301305D01*
X183584Y301192D01*
X183549Y301078D01*
X183518Y300963D01*
X183490Y300846D01*
X183467Y300729D01*
X183447Y300612D01*
X183431Y300493D01*
X183419Y300374D01*
X183411Y300255D01*
X183407Y300136D01*
X183407Y300016D01*
X183411Y299897D01*
X183419Y299778D01*
X183431Y299659D01*
X183447Y299540D01*
X183467Y299423D01*
X183490Y299306D01*
X183518Y299189D01*
X183549Y299074D01*
X183584Y298960D01*
X183623Y298847D01*
X183665Y298735D01*
X183711Y298625D01*
X183761Y298517D01*
X183814Y298410D01*
X183871Y298305D01*
X183931Y298201D01*
X183995Y298100D01*
X184062Y298002D01*
X184132Y297905D01*
X184206Y297811D01*
X184282Y297719D01*
X184362Y297630D01*
X184444Y297543D01*
X184529Y297459D01*
X184617Y297378D01*
X184707Y297301D01*
X184800Y297226D01*
X184896Y297154D01*
X184994Y297085D01*
X185094Y297020D01*
X185196Y296958D01*
X185300Y296899D01*
X185406Y296844D01*
X185514Y296793D01*
X185623Y296745D01*
X185734Y296700D01*
X185846Y296660D01*
X185960Y296623D01*
X186075Y296590D01*
X186190Y296560D01*
X186307Y296535D01*
X186424Y296513D01*
X186543Y296496D01*
X186661Y296482D01*
X186780Y296472D01*
X186900Y296466D01*
X187019Y296464D01*
X187019Y296463D02*
X190631Y296463D01*
X378238Y277018D02*
X378238Y260762D01*
X371013Y260762D01*
X365416Y260762D02*
X365416Y271599D01*
X365867Y276115D02*
X365867Y277018D01*
X364964Y277018D01*
X364964Y276115D01*
X365867Y276115D01*
X358241Y274309D02*
X358241Y260762D01*
X358240Y274309D02*
X358238Y274410D01*
X358232Y274511D01*
X358223Y274612D01*
X358210Y274713D01*
X358193Y274813D01*
X358172Y274912D01*
X358148Y275010D01*
X358120Y275107D01*
X358088Y275204D01*
X358053Y275299D01*
X358014Y275392D01*
X357972Y275484D01*
X357926Y275575D01*
X357877Y275664D01*
X357825Y275750D01*
X357769Y275835D01*
X357711Y275918D01*
X357649Y275998D01*
X357584Y276076D01*
X357517Y276152D01*
X357447Y276225D01*
X357374Y276295D01*
X357298Y276362D01*
X357220Y276427D01*
X357140Y276489D01*
X357057Y276547D01*
X356972Y276603D01*
X356886Y276655D01*
X356797Y276704D01*
X356706Y276750D01*
X356614Y276792D01*
X356521Y276831D01*
X356426Y276866D01*
X356329Y276898D01*
X356232Y276926D01*
X356134Y276950D01*
X356035Y276971D01*
X355935Y276988D01*
X355834Y277001D01*
X355733Y277010D01*
X355632Y277016D01*
X355531Y277018D01*
X354628Y277018D01*
X354628Y271599D02*
X360047Y271599D01*
X349581Y277018D02*
X349581Y260762D01*
X349581Y266181D02*
X342356Y271599D01*
X346420Y268438D02*
X342356Y260762D01*
X333636Y267084D02*
X329572Y267084D01*
X333636Y267084D02*
X333748Y267082D01*
X333859Y267076D01*
X333970Y267066D01*
X334081Y267053D01*
X334191Y267035D01*
X334300Y267013D01*
X334409Y266988D01*
X334517Y266959D01*
X334623Y266926D01*
X334729Y266889D01*
X334833Y266849D01*
X334935Y266805D01*
X335036Y266757D01*
X335135Y266706D01*
X335233Y266651D01*
X335328Y266593D01*
X335421Y266532D01*
X335512Y266467D01*
X335601Y266399D01*
X335687Y266328D01*
X335770Y266255D01*
X335851Y266178D01*
X335930Y266098D01*
X336005Y266016D01*
X336077Y265931D01*
X336147Y265844D01*
X336213Y265754D01*
X336276Y265662D01*
X336336Y265567D01*
X336392Y265471D01*
X336445Y265373D01*
X336494Y265273D01*
X336540Y265171D01*
X336582Y265068D01*
X336621Y264963D01*
X336656Y264857D01*
X336687Y264750D01*
X336714Y264642D01*
X336738Y264533D01*
X336757Y264423D01*
X336773Y264313D01*
X336785Y264202D01*
X336793Y264090D01*
X336797Y263979D01*
X336797Y263867D01*
X336793Y263756D01*
X336785Y263644D01*
X336773Y263533D01*
X336757Y263423D01*
X336738Y263313D01*
X336714Y263204D01*
X336687Y263096D01*
X336656Y262989D01*
X336621Y262883D01*
X336582Y262778D01*
X336540Y262675D01*
X336494Y262573D01*
X336445Y262473D01*
X336392Y262375D01*
X336336Y262279D01*
X336276Y262184D01*
X336213Y262092D01*
X336147Y262002D01*
X336077Y261915D01*
X336005Y261830D01*
X335930Y261748D01*
X335851Y261668D01*
X335770Y261591D01*
X335687Y261518D01*
X335601Y261447D01*
X335512Y261379D01*
X335421Y261314D01*
X335328Y261253D01*
X335233Y261195D01*
X335135Y261140D01*
X335036Y261089D01*
X334935Y261041D01*
X334833Y260997D01*
X334729Y260957D01*
X334623Y260920D01*
X334517Y260887D01*
X334409Y260858D01*
X334300Y260833D01*
X334191Y260811D01*
X334081Y260793D01*
X333970Y260780D01*
X333859Y260770D01*
X333748Y260764D01*
X333636Y260762D01*
X329572Y260762D01*
X329572Y268890D01*
X329574Y268991D01*
X329580Y269092D01*
X329589Y269193D01*
X329602Y269294D01*
X329619Y269394D01*
X329640Y269493D01*
X329664Y269591D01*
X329692Y269688D01*
X329724Y269785D01*
X329759Y269880D01*
X329798Y269973D01*
X329840Y270065D01*
X329886Y270156D01*
X329935Y270245D01*
X329987Y270331D01*
X330043Y270416D01*
X330101Y270499D01*
X330163Y270579D01*
X330228Y270657D01*
X330295Y270733D01*
X330365Y270806D01*
X330438Y270876D01*
X330514Y270943D01*
X330592Y271008D01*
X330672Y271070D01*
X330755Y271128D01*
X330840Y271184D01*
X330927Y271236D01*
X331015Y271285D01*
X331106Y271331D01*
X331198Y271373D01*
X331291Y271412D01*
X331386Y271447D01*
X331483Y271479D01*
X331580Y271507D01*
X331678Y271531D01*
X331777Y271552D01*
X331877Y271569D01*
X331978Y271582D01*
X332079Y271591D01*
X332180Y271597D01*
X332281Y271599D01*
X335894Y271599D01*
X323195Y260762D02*
X322292Y260762D01*
X323195Y260762D02*
X323195Y261665D01*
X322292Y261665D01*
X322292Y260762D01*
X323647Y257150D01*
X304053Y264374D02*
X304053Y277018D01*
X304053Y264374D02*
X304055Y264256D01*
X304061Y264138D01*
X304070Y264020D01*
X304084Y263903D01*
X304101Y263786D01*
X304122Y263669D01*
X304147Y263554D01*
X304176Y263439D01*
X304209Y263325D01*
X304245Y263213D01*
X304285Y263102D01*
X304328Y262992D01*
X304375Y262883D01*
X304425Y262776D01*
X304480Y262671D01*
X304537Y262568D01*
X304598Y262467D01*
X304662Y262367D01*
X304729Y262270D01*
X304799Y262175D01*
X304873Y262083D01*
X304949Y261992D01*
X305029Y261905D01*
X305111Y261820D01*
X305196Y261738D01*
X305283Y261658D01*
X305374Y261582D01*
X305466Y261508D01*
X305561Y261438D01*
X305658Y261371D01*
X305758Y261307D01*
X305859Y261246D01*
X305962Y261189D01*
X306067Y261134D01*
X306174Y261084D01*
X306283Y261037D01*
X306393Y260994D01*
X306504Y260954D01*
X306616Y260918D01*
X306730Y260885D01*
X306845Y260856D01*
X306960Y260831D01*
X307077Y260810D01*
X307194Y260793D01*
X307311Y260779D01*
X307429Y260770D01*
X307547Y260764D01*
X307665Y260762D01*
X309471Y260762D01*
X294037Y267084D02*
X289973Y267084D01*
X294037Y267084D02*
X294149Y267082D01*
X294260Y267076D01*
X294371Y267066D01*
X294482Y267053D01*
X294592Y267035D01*
X294701Y267013D01*
X294810Y266988D01*
X294918Y266959D01*
X295024Y266926D01*
X295130Y266889D01*
X295234Y266849D01*
X295336Y266805D01*
X295437Y266757D01*
X295536Y266706D01*
X295634Y266651D01*
X295729Y266593D01*
X295822Y266532D01*
X295913Y266467D01*
X296002Y266399D01*
X296088Y266328D01*
X296171Y266255D01*
X296252Y266178D01*
X296331Y266098D01*
X296406Y266016D01*
X296478Y265931D01*
X296548Y265844D01*
X296614Y265754D01*
X296677Y265662D01*
X296737Y265567D01*
X296793Y265471D01*
X296846Y265373D01*
X296895Y265273D01*
X296941Y265171D01*
X296983Y265068D01*
X297022Y264963D01*
X297057Y264857D01*
X297088Y264750D01*
X297115Y264642D01*
X297139Y264533D01*
X297158Y264423D01*
X297174Y264313D01*
X297186Y264202D01*
X297194Y264090D01*
X297198Y263979D01*
X297198Y263867D01*
X297194Y263756D01*
X297186Y263644D01*
X297174Y263533D01*
X297158Y263423D01*
X297139Y263313D01*
X297115Y263204D01*
X297088Y263096D01*
X297057Y262989D01*
X297022Y262883D01*
X296983Y262778D01*
X296941Y262675D01*
X296895Y262573D01*
X296846Y262473D01*
X296793Y262375D01*
X296737Y262279D01*
X296677Y262184D01*
X296614Y262092D01*
X296548Y262002D01*
X296478Y261915D01*
X296406Y261830D01*
X296331Y261748D01*
X296252Y261668D01*
X296171Y261591D01*
X296088Y261518D01*
X296002Y261447D01*
X295913Y261379D01*
X295822Y261314D01*
X295729Y261253D01*
X295634Y261195D01*
X295536Y261140D01*
X295437Y261089D01*
X295336Y261041D01*
X295234Y260997D01*
X295130Y260957D01*
X295024Y260920D01*
X294918Y260887D01*
X294810Y260858D01*
X294701Y260833D01*
X294592Y260811D01*
X294482Y260793D01*
X294371Y260780D01*
X294260Y260770D01*
X294149Y260764D01*
X294037Y260762D01*
X289973Y260762D01*
X289973Y268890D01*
X289975Y268991D01*
X289981Y269092D01*
X289990Y269193D01*
X290003Y269294D01*
X290020Y269394D01*
X290041Y269493D01*
X290065Y269591D01*
X290093Y269688D01*
X290125Y269785D01*
X290160Y269880D01*
X290199Y269973D01*
X290241Y270065D01*
X290287Y270156D01*
X290336Y270245D01*
X290388Y270331D01*
X290444Y270416D01*
X290502Y270499D01*
X290564Y270579D01*
X290629Y270657D01*
X290696Y270733D01*
X290766Y270806D01*
X290839Y270876D01*
X290915Y270943D01*
X290993Y271008D01*
X291073Y271070D01*
X291156Y271128D01*
X291241Y271184D01*
X291328Y271236D01*
X291416Y271285D01*
X291507Y271331D01*
X291599Y271373D01*
X291692Y271412D01*
X291787Y271447D01*
X291884Y271479D01*
X291981Y271507D01*
X292079Y271531D01*
X292178Y271552D01*
X292278Y271569D01*
X292379Y271582D01*
X292480Y271591D01*
X292581Y271597D01*
X292682Y271599D01*
X296295Y271599D01*
X282535Y271599D02*
X282535Y260762D01*
X282535Y271599D02*
X278020Y271599D01*
X277916Y271597D01*
X277813Y271591D01*
X277709Y271581D01*
X277606Y271567D01*
X277504Y271549D01*
X277403Y271528D01*
X277302Y271502D01*
X277203Y271473D01*
X277104Y271440D01*
X277007Y271403D01*
X276912Y271362D01*
X276818Y271318D01*
X276726Y271270D01*
X276636Y271219D01*
X276547Y271164D01*
X276461Y271106D01*
X276378Y271044D01*
X276296Y270980D01*
X276218Y270912D01*
X276142Y270842D01*
X276068Y270769D01*
X275998Y270692D01*
X275930Y270614D01*
X275866Y270532D01*
X275804Y270449D01*
X275746Y270363D01*
X275691Y270274D01*
X275640Y270184D01*
X275592Y270092D01*
X275548Y269998D01*
X275507Y269903D01*
X275470Y269806D01*
X275437Y269707D01*
X275408Y269608D01*
X275382Y269507D01*
X275361Y269406D01*
X275343Y269304D01*
X275329Y269201D01*
X275319Y269097D01*
X275313Y268994D01*
X275311Y268890D01*
X275310Y268890D02*
X275310Y260762D01*
X255025Y277018D02*
X254900Y277016D01*
X254775Y277010D01*
X254650Y277001D01*
X254526Y276987D01*
X254402Y276970D01*
X254278Y276949D01*
X254156Y276924D01*
X254034Y276895D01*
X253913Y276863D01*
X253793Y276827D01*
X253674Y276787D01*
X253557Y276744D01*
X253441Y276697D01*
X253326Y276646D01*
X253214Y276592D01*
X253102Y276534D01*
X252993Y276474D01*
X252886Y276409D01*
X252780Y276342D01*
X252677Y276271D01*
X252576Y276197D01*
X252477Y276120D01*
X252381Y276040D01*
X252287Y275957D01*
X252196Y275872D01*
X252107Y275783D01*
X252022Y275692D01*
X251939Y275598D01*
X251859Y275502D01*
X251782Y275403D01*
X251708Y275302D01*
X251637Y275199D01*
X251570Y275093D01*
X251505Y274986D01*
X251445Y274877D01*
X251387Y274765D01*
X251333Y274653D01*
X251282Y274538D01*
X251235Y274422D01*
X251192Y274305D01*
X251152Y274186D01*
X251116Y274066D01*
X251084Y273945D01*
X251055Y273823D01*
X251030Y273701D01*
X251009Y273577D01*
X250992Y273453D01*
X250978Y273329D01*
X250969Y273204D01*
X250963Y273079D01*
X250961Y272954D01*
X255025Y277018D02*
X255168Y277016D01*
X255310Y277010D01*
X255453Y277000D01*
X255595Y276987D01*
X255736Y276969D01*
X255878Y276948D01*
X256018Y276923D01*
X256158Y276894D01*
X256297Y276861D01*
X256435Y276824D01*
X256572Y276784D01*
X256707Y276740D01*
X256842Y276692D01*
X256975Y276640D01*
X257107Y276585D01*
X257237Y276526D01*
X257365Y276464D01*
X257492Y276398D01*
X257617Y276329D01*
X257740Y276257D01*
X257861Y276181D01*
X257979Y276102D01*
X258096Y276019D01*
X258210Y275934D01*
X258322Y275845D01*
X258431Y275754D01*
X258538Y275659D01*
X258643Y275562D01*
X258744Y275461D01*
X258843Y275358D01*
X258939Y275253D01*
X259032Y275144D01*
X259122Y275033D01*
X259209Y274920D01*
X259293Y274805D01*
X259373Y274687D01*
X259451Y274567D01*
X259525Y274445D01*
X259595Y274321D01*
X259663Y274195D01*
X259726Y274067D01*
X259787Y273938D01*
X259844Y273807D01*
X259897Y273675D01*
X259946Y273541D01*
X259992Y273406D01*
X252316Y269793D02*
X252222Y269885D01*
X252132Y269979D01*
X252044Y270076D01*
X251959Y270176D01*
X251877Y270278D01*
X251798Y270383D01*
X251723Y270490D01*
X251651Y270599D01*
X251582Y270710D01*
X251516Y270824D01*
X251454Y270939D01*
X251395Y271056D01*
X251340Y271175D01*
X251289Y271295D01*
X251241Y271417D01*
X251196Y271540D01*
X251156Y271664D01*
X251119Y271790D01*
X251086Y271917D01*
X251057Y272044D01*
X251031Y272173D01*
X251010Y272302D01*
X250992Y272432D01*
X250979Y272562D01*
X250969Y272692D01*
X250963Y272823D01*
X250961Y272954D01*
X252315Y269793D02*
X259992Y260762D01*
X250961Y260762D01*
X244360Y268890D02*
X244356Y269210D01*
X244345Y269529D01*
X244326Y269849D01*
X244299Y270167D01*
X244265Y270485D01*
X244223Y270802D01*
X244173Y271118D01*
X244116Y271433D01*
X244052Y271746D01*
X243980Y272058D01*
X243901Y272368D01*
X243814Y272675D01*
X243720Y272981D01*
X243619Y273284D01*
X243510Y273585D01*
X243395Y273883D01*
X243272Y274179D01*
X243142Y274471D01*
X243005Y274760D01*
X243006Y274761D02*
X242967Y274869D01*
X242924Y274976D01*
X242878Y275081D01*
X242827Y275185D01*
X242774Y275287D01*
X242717Y275387D01*
X242656Y275485D01*
X242592Y275580D01*
X242525Y275674D01*
X242454Y275765D01*
X242381Y275854D01*
X242304Y275940D01*
X242225Y276023D01*
X242143Y276104D01*
X242058Y276182D01*
X241970Y276256D01*
X241880Y276328D01*
X241788Y276396D01*
X241693Y276462D01*
X241596Y276524D01*
X241497Y276582D01*
X241395Y276638D01*
X241293Y276689D01*
X241188Y276737D01*
X241082Y276782D01*
X240974Y276823D01*
X240865Y276860D01*
X240755Y276893D01*
X240643Y276922D01*
X240531Y276948D01*
X240418Y276970D01*
X240304Y276987D01*
X240190Y277001D01*
X240075Y277011D01*
X239960Y277017D01*
X239845Y277019D01*
X239845Y277018D02*
X239730Y277016D01*
X239615Y277010D01*
X239500Y277000D01*
X239386Y276986D01*
X239272Y276969D01*
X239159Y276947D01*
X239047Y276921D01*
X238935Y276892D01*
X238825Y276859D01*
X238716Y276822D01*
X238608Y276781D01*
X238502Y276736D01*
X238398Y276688D01*
X238295Y276637D01*
X238194Y276581D01*
X238094Y276523D01*
X237997Y276461D01*
X237903Y276396D01*
X237810Y276327D01*
X237720Y276255D01*
X237632Y276181D01*
X237547Y276103D01*
X237465Y276022D01*
X237386Y275939D01*
X237309Y275853D01*
X237236Y275764D01*
X237165Y275673D01*
X237098Y275579D01*
X237034Y275484D01*
X236973Y275386D01*
X236916Y275286D01*
X236863Y275184D01*
X236812Y275080D01*
X236766Y274975D01*
X236723Y274868D01*
X236684Y274760D01*
X236685Y274760D02*
X236548Y274471D01*
X236418Y274179D01*
X236295Y273883D01*
X236180Y273585D01*
X236071Y273284D01*
X235970Y272981D01*
X235876Y272675D01*
X235789Y272368D01*
X235710Y272058D01*
X235638Y271746D01*
X235574Y271433D01*
X235517Y271118D01*
X235467Y270802D01*
X235425Y270485D01*
X235391Y270167D01*
X235364Y269849D01*
X235345Y269529D01*
X235334Y269210D01*
X235330Y268890D01*
X244360Y268890D02*
X244356Y268570D01*
X244345Y268251D01*
X244326Y267931D01*
X244299Y267613D01*
X244265Y267295D01*
X244223Y266978D01*
X244173Y266662D01*
X244116Y266347D01*
X244052Y266034D01*
X243980Y265722D01*
X243901Y265412D01*
X243814Y265105D01*
X243720Y264799D01*
X243619Y264496D01*
X243510Y264195D01*
X243395Y263897D01*
X243272Y263601D01*
X243142Y263309D01*
X243005Y263020D01*
X243006Y263020D02*
X242967Y262912D01*
X242924Y262805D01*
X242878Y262700D01*
X242827Y262596D01*
X242774Y262494D01*
X242717Y262394D01*
X242656Y262296D01*
X242592Y262201D01*
X242525Y262107D01*
X242454Y262016D01*
X242381Y261927D01*
X242304Y261841D01*
X242225Y261758D01*
X242143Y261677D01*
X242058Y261599D01*
X241970Y261525D01*
X241880Y261453D01*
X241787Y261384D01*
X241693Y261319D01*
X241596Y261257D01*
X241496Y261199D01*
X241395Y261143D01*
X241293Y261092D01*
X241188Y261044D01*
X241082Y260999D01*
X240974Y260958D01*
X240865Y260921D01*
X240755Y260888D01*
X240643Y260859D01*
X240531Y260833D01*
X240418Y260811D01*
X240304Y260794D01*
X240190Y260780D01*
X240075Y260770D01*
X239960Y260764D01*
X239845Y260762D01*
X236685Y263020D02*
X236548Y263309D01*
X236418Y263601D01*
X236295Y263897D01*
X236180Y264195D01*
X236071Y264496D01*
X235970Y264799D01*
X235876Y265105D01*
X235789Y265412D01*
X235710Y265722D01*
X235638Y266034D01*
X235574Y266347D01*
X235517Y266662D01*
X235467Y266978D01*
X235425Y267295D01*
X235391Y267613D01*
X235364Y267931D01*
X235345Y268251D01*
X235334Y268570D01*
X235330Y268890D01*
X236684Y263020D02*
X236723Y262912D01*
X236766Y262805D01*
X236812Y262700D01*
X236863Y262596D01*
X236916Y262494D01*
X236974Y262394D01*
X237034Y262296D01*
X237098Y262201D01*
X237165Y262107D01*
X237236Y262016D01*
X237309Y261927D01*
X237386Y261841D01*
X237465Y261758D01*
X237547Y261677D01*
X237632Y261599D01*
X237720Y261525D01*
X237810Y261453D01*
X237903Y261384D01*
X237997Y261319D01*
X238094Y261257D01*
X238194Y261199D01*
X238295Y261143D01*
X238398Y261092D01*
X238502Y261044D01*
X238608Y260999D01*
X238716Y260958D01*
X238825Y260921D01*
X238935Y260888D01*
X239047Y260859D01*
X239159Y260833D01*
X239272Y260811D01*
X239386Y260794D01*
X239500Y260780D01*
X239615Y260770D01*
X239730Y260764D01*
X239845Y260762D01*
X243457Y264374D02*
X236232Y273406D01*
X223762Y277018D02*
X223637Y277016D01*
X223512Y277010D01*
X223387Y277001D01*
X223263Y276987D01*
X223139Y276970D01*
X223015Y276949D01*
X222893Y276924D01*
X222771Y276895D01*
X222650Y276863D01*
X222530Y276827D01*
X222411Y276787D01*
X222294Y276744D01*
X222178Y276697D01*
X222063Y276646D01*
X221951Y276592D01*
X221839Y276534D01*
X221730Y276474D01*
X221623Y276409D01*
X221517Y276342D01*
X221414Y276271D01*
X221313Y276197D01*
X221214Y276120D01*
X221118Y276040D01*
X221024Y275957D01*
X220933Y275872D01*
X220844Y275783D01*
X220759Y275692D01*
X220676Y275598D01*
X220596Y275502D01*
X220519Y275403D01*
X220445Y275302D01*
X220374Y275199D01*
X220307Y275093D01*
X220242Y274986D01*
X220182Y274877D01*
X220124Y274765D01*
X220070Y274653D01*
X220019Y274538D01*
X219972Y274422D01*
X219929Y274305D01*
X219889Y274186D01*
X219853Y274066D01*
X219821Y273945D01*
X219792Y273823D01*
X219767Y273701D01*
X219746Y273577D01*
X219729Y273453D01*
X219715Y273329D01*
X219706Y273204D01*
X219700Y273079D01*
X219698Y272954D01*
X223762Y277018D02*
X223905Y277016D01*
X224047Y277010D01*
X224190Y277000D01*
X224332Y276987D01*
X224473Y276969D01*
X224615Y276948D01*
X224755Y276923D01*
X224895Y276894D01*
X225034Y276861D01*
X225172Y276824D01*
X225309Y276784D01*
X225444Y276740D01*
X225579Y276692D01*
X225712Y276640D01*
X225844Y276585D01*
X225974Y276526D01*
X226102Y276464D01*
X226229Y276398D01*
X226354Y276329D01*
X226477Y276257D01*
X226598Y276181D01*
X226716Y276102D01*
X226833Y276019D01*
X226947Y275934D01*
X227059Y275845D01*
X227168Y275754D01*
X227275Y275659D01*
X227380Y275562D01*
X227481Y275461D01*
X227580Y275358D01*
X227676Y275253D01*
X227769Y275144D01*
X227859Y275033D01*
X227946Y274920D01*
X228030Y274805D01*
X228110Y274687D01*
X228188Y274567D01*
X228262Y274445D01*
X228332Y274321D01*
X228400Y274195D01*
X228463Y274067D01*
X228524Y273938D01*
X228581Y273807D01*
X228634Y273675D01*
X228683Y273541D01*
X228729Y273406D01*
X221053Y269793D02*
X220959Y269885D01*
X220869Y269979D01*
X220781Y270076D01*
X220696Y270176D01*
X220614Y270278D01*
X220535Y270383D01*
X220460Y270490D01*
X220388Y270599D01*
X220319Y270710D01*
X220253Y270824D01*
X220191Y270939D01*
X220132Y271056D01*
X220077Y271175D01*
X220026Y271295D01*
X219978Y271417D01*
X219933Y271540D01*
X219893Y271664D01*
X219856Y271790D01*
X219823Y271917D01*
X219794Y272044D01*
X219768Y272173D01*
X219747Y272302D01*
X219729Y272432D01*
X219716Y272562D01*
X219706Y272692D01*
X219700Y272823D01*
X219698Y272954D01*
X221053Y269793D02*
X228729Y260762D01*
X219698Y260762D01*
X213098Y273406D02*
X208582Y277018D01*
X208582Y260762D01*
X204067Y260762D02*
X213098Y260762D01*
X575500Y231200D02*
X575500Y78800D01*
X575500Y231200D02*
X633500Y231200D01*
X633500Y78800D02*
X575500Y78800D01*
X633500Y78800D02*
X633500Y231200D01*
X2000Y283000D02*
X2008Y283614D01*
X2030Y284227D01*
X2068Y284839D01*
X2120Y285450D01*
X2188Y286060D01*
X2271Y286668D01*
X2368Y287274D01*
X2480Y287877D01*
X2607Y288478D01*
X2749Y289075D01*
X2906Y289668D01*
X3076Y290257D01*
X3262Y290842D01*
X3461Y291422D01*
X3675Y291997D01*
X3903Y292567D01*
X4145Y293131D01*
X4400Y293689D01*
X4669Y294240D01*
X4952Y294785D01*
X5248Y295322D01*
X5557Y295853D01*
X5879Y296375D01*
X6213Y296889D01*
X6560Y297395D01*
X6920Y297892D01*
X7291Y298381D01*
X7675Y298860D01*
X8070Y299329D01*
X8476Y299789D01*
X8894Y300239D01*
X9322Y300678D01*
X9761Y301106D01*
X10211Y301524D01*
X10671Y301930D01*
X11140Y302325D01*
X11619Y302709D01*
X12108Y303080D01*
X12605Y303440D01*
X13111Y303787D01*
X13625Y304121D01*
X14147Y304443D01*
X14678Y304752D01*
X15215Y305048D01*
X15760Y305331D01*
X16311Y305600D01*
X16869Y305855D01*
X17433Y306097D01*
X18003Y306325D01*
X18578Y306539D01*
X19158Y306738D01*
X19743Y306924D01*
X20332Y307094D01*
X20925Y307251D01*
X21522Y307393D01*
X22123Y307520D01*
X22726Y307632D01*
X23332Y307729D01*
X23940Y307812D01*
X24550Y307880D01*
X25161Y307932D01*
X25773Y307970D01*
X26386Y307992D01*
X27000Y308000D01*
X27614Y307992D01*
X28227Y307970D01*
X28839Y307932D01*
X29450Y307880D01*
X30060Y307812D01*
X30668Y307729D01*
X31274Y307632D01*
X31877Y307520D01*
X32478Y307393D01*
X33075Y307251D01*
X33668Y307094D01*
X34257Y306924D01*
X34842Y306738D01*
X35422Y306539D01*
X35997Y306325D01*
X36567Y306097D01*
X37131Y305855D01*
X37689Y305600D01*
X38240Y305331D01*
X38785Y305048D01*
X39322Y304752D01*
X39853Y304443D01*
X40375Y304121D01*
X40889Y303787D01*
X41395Y303440D01*
X41892Y303080D01*
X42381Y302709D01*
X42860Y302325D01*
X43329Y301930D01*
X43789Y301524D01*
X44239Y301106D01*
X44678Y300678D01*
X45106Y300239D01*
X45524Y299789D01*
X45930Y299329D01*
X46325Y298860D01*
X46709Y298381D01*
X47080Y297892D01*
X47440Y297395D01*
X47787Y296889D01*
X48121Y296375D01*
X48443Y295853D01*
X48752Y295322D01*
X49048Y294785D01*
X49331Y294240D01*
X49600Y293689D01*
X49855Y293131D01*
X50097Y292567D01*
X50325Y291997D01*
X50539Y291422D01*
X50738Y290842D01*
X50924Y290257D01*
X51094Y289668D01*
X51251Y289075D01*
X51393Y288478D01*
X51520Y287877D01*
X51632Y287274D01*
X51729Y286668D01*
X51812Y286060D01*
X51880Y285450D01*
X51932Y284839D01*
X51970Y284227D01*
X51992Y283614D01*
X52000Y283000D01*
X51992Y282386D01*
X51970Y281773D01*
X51932Y281161D01*
X51880Y280550D01*
X51812Y279940D01*
X51729Y279332D01*
X51632Y278726D01*
X51520Y278123D01*
X51393Y277522D01*
X51251Y276925D01*
X51094Y276332D01*
X50924Y275743D01*
X50738Y275158D01*
X50539Y274578D01*
X50325Y274003D01*
X50097Y273433D01*
X49855Y272869D01*
X49600Y272311D01*
X49331Y271760D01*
X49048Y271215D01*
X48752Y270678D01*
X48443Y270147D01*
X48121Y269625D01*
X47787Y269111D01*
X47440Y268605D01*
X47080Y268108D01*
X46709Y267619D01*
X46325Y267140D01*
X45930Y266671D01*
X45524Y266211D01*
X45106Y265761D01*
X44678Y265322D01*
X44239Y264894D01*
X43789Y264476D01*
X43329Y264070D01*
X42860Y263675D01*
X42381Y263291D01*
X41892Y262920D01*
X41395Y262560D01*
X40889Y262213D01*
X40375Y261879D01*
X39853Y261557D01*
X39322Y261248D01*
X38785Y260952D01*
X38240Y260669D01*
X37689Y260400D01*
X37131Y260145D01*
X36567Y259903D01*
X35997Y259675D01*
X35422Y259461D01*
X34842Y259262D01*
X34257Y259076D01*
X33668Y258906D01*
X33075Y258749D01*
X32478Y258607D01*
X31877Y258480D01*
X31274Y258368D01*
X30668Y258271D01*
X30060Y258188D01*
X29450Y258120D01*
X28839Y258068D01*
X28227Y258030D01*
X27614Y258008D01*
X27000Y258000D01*
X26386Y258008D01*
X25773Y258030D01*
X25161Y258068D01*
X24550Y258120D01*
X23940Y258188D01*
X23332Y258271D01*
X22726Y258368D01*
X22123Y258480D01*
X21522Y258607D01*
X20925Y258749D01*
X20332Y258906D01*
X19743Y259076D01*
X19158Y259262D01*
X18578Y259461D01*
X18003Y259675D01*
X17433Y259903D01*
X16869Y260145D01*
X16311Y260400D01*
X15760Y260669D01*
X15215Y260952D01*
X14678Y261248D01*
X14147Y261557D01*
X13625Y261879D01*
X13111Y262213D01*
X12605Y262560D01*
X12108Y262920D01*
X11619Y263291D01*
X11140Y263675D01*
X10671Y264070D01*
X10211Y264476D01*
X9761Y264894D01*
X9322Y265322D01*
X8894Y265761D01*
X8476Y266211D01*
X8070Y266671D01*
X7675Y267140D01*
X7291Y267619D01*
X6920Y268108D01*
X6560Y268605D01*
X6213Y269111D01*
X5879Y269625D01*
X5557Y270147D01*
X5248Y270678D01*
X4952Y271215D01*
X4669Y271760D01*
X4400Y272311D01*
X4145Y272869D01*
X3903Y273433D01*
X3675Y274003D01*
X3461Y274578D01*
X3262Y275158D01*
X3076Y275743D01*
X2906Y276332D01*
X2749Y276925D01*
X2607Y277522D01*
X2480Y278123D01*
X2368Y278726D01*
X2271Y279332D01*
X2188Y279940D01*
X2120Y280550D01*
X2068Y281161D01*
X2030Y281773D01*
X2008Y282386D01*
X2000Y283000D01*
X2000Y27000D02*
X2008Y27614D01*
X2030Y28227D01*
X2068Y28839D01*
X2120Y29450D01*
X2188Y30060D01*
X2271Y30668D01*
X2368Y31274D01*
X2480Y31877D01*
X2607Y32478D01*
X2749Y33075D01*
X2906Y33668D01*
X3076Y34257D01*
X3262Y34842D01*
X3461Y35422D01*
X3675Y35997D01*
X3903Y36567D01*
X4145Y37131D01*
X4400Y37689D01*
X4669Y38240D01*
X4952Y38785D01*
X5248Y39322D01*
X5557Y39853D01*
X5879Y40375D01*
X6213Y40889D01*
X6560Y41395D01*
X6920Y41892D01*
X7291Y42381D01*
X7675Y42860D01*
X8070Y43329D01*
X8476Y43789D01*
X8894Y44239D01*
X9322Y44678D01*
X9761Y45106D01*
X10211Y45524D01*
X10671Y45930D01*
X11140Y46325D01*
X11619Y46709D01*
X12108Y47080D01*
X12605Y47440D01*
X13111Y47787D01*
X13625Y48121D01*
X14147Y48443D01*
X14678Y48752D01*
X15215Y49048D01*
X15760Y49331D01*
X16311Y49600D01*
X16869Y49855D01*
X17433Y50097D01*
X18003Y50325D01*
X18578Y50539D01*
X19158Y50738D01*
X19743Y50924D01*
X20332Y51094D01*
X20925Y51251D01*
X21522Y51393D01*
X22123Y51520D01*
X22726Y51632D01*
X23332Y51729D01*
X23940Y51812D01*
X24550Y51880D01*
X25161Y51932D01*
X25773Y51970D01*
X26386Y51992D01*
X27000Y52000D01*
X27614Y51992D01*
X28227Y51970D01*
X28839Y51932D01*
X29450Y51880D01*
X30060Y51812D01*
X30668Y51729D01*
X31274Y51632D01*
X31877Y51520D01*
X32478Y51393D01*
X33075Y51251D01*
X33668Y51094D01*
X34257Y50924D01*
X34842Y50738D01*
X35422Y50539D01*
X35997Y50325D01*
X36567Y50097D01*
X37131Y49855D01*
X37689Y49600D01*
X38240Y49331D01*
X38785Y49048D01*
X39322Y48752D01*
X39853Y48443D01*
X40375Y48121D01*
X40889Y47787D01*
X41395Y47440D01*
X41892Y47080D01*
X42381Y46709D01*
X42860Y46325D01*
X43329Y45930D01*
X43789Y45524D01*
X44239Y45106D01*
X44678Y44678D01*
X45106Y44239D01*
X45524Y43789D01*
X45930Y43329D01*
X46325Y42860D01*
X46709Y42381D01*
X47080Y41892D01*
X47440Y41395D01*
X47787Y40889D01*
X48121Y40375D01*
X48443Y39853D01*
X48752Y39322D01*
X49048Y38785D01*
X49331Y38240D01*
X49600Y37689D01*
X49855Y37131D01*
X50097Y36567D01*
X50325Y35997D01*
X50539Y35422D01*
X50738Y34842D01*
X50924Y34257D01*
X51094Y33668D01*
X51251Y33075D01*
X51393Y32478D01*
X51520Y31877D01*
X51632Y31274D01*
X51729Y30668D01*
X51812Y30060D01*
X51880Y29450D01*
X51932Y28839D01*
X51970Y28227D01*
X51992Y27614D01*
X52000Y27000D01*
X51992Y26386D01*
X51970Y25773D01*
X51932Y25161D01*
X51880Y24550D01*
X51812Y23940D01*
X51729Y23332D01*
X51632Y22726D01*
X51520Y22123D01*
X51393Y21522D01*
X51251Y20925D01*
X51094Y20332D01*
X50924Y19743D01*
X50738Y19158D01*
X50539Y18578D01*
X50325Y18003D01*
X50097Y17433D01*
X49855Y16869D01*
X49600Y16311D01*
X49331Y15760D01*
X49048Y15215D01*
X48752Y14678D01*
X48443Y14147D01*
X48121Y13625D01*
X47787Y13111D01*
X47440Y12605D01*
X47080Y12108D01*
X46709Y11619D01*
X46325Y11140D01*
X45930Y10671D01*
X45524Y10211D01*
X45106Y9761D01*
X44678Y9322D01*
X44239Y8894D01*
X43789Y8476D01*
X43329Y8070D01*
X42860Y7675D01*
X42381Y7291D01*
X41892Y6920D01*
X41395Y6560D01*
X40889Y6213D01*
X40375Y5879D01*
X39853Y5557D01*
X39322Y5248D01*
X38785Y4952D01*
X38240Y4669D01*
X37689Y4400D01*
X37131Y4145D01*
X36567Y3903D01*
X35997Y3675D01*
X35422Y3461D01*
X34842Y3262D01*
X34257Y3076D01*
X33668Y2906D01*
X33075Y2749D01*
X32478Y2607D01*
X31877Y2480D01*
X31274Y2368D01*
X30668Y2271D01*
X30060Y2188D01*
X29450Y2120D01*
X28839Y2068D01*
X28227Y2030D01*
X27614Y2008D01*
X27000Y2000D01*
X26386Y2008D01*
X25773Y2030D01*
X25161Y2068D01*
X24550Y2120D01*
X23940Y2188D01*
X23332Y2271D01*
X22726Y2368D01*
X22123Y2480D01*
X21522Y2607D01*
X20925Y2749D01*
X20332Y2906D01*
X19743Y3076D01*
X19158Y3262D01*
X18578Y3461D01*
X18003Y3675D01*
X17433Y3903D01*
X16869Y4145D01*
X16311Y4400D01*
X15760Y4669D01*
X15215Y4952D01*
X14678Y5248D01*
X14147Y5557D01*
X13625Y5879D01*
X13111Y6213D01*
X12605Y6560D01*
X12108Y6920D01*
X11619Y7291D01*
X11140Y7675D01*
X10671Y8070D01*
X10211Y8476D01*
X9761Y8894D01*
X9322Y9322D01*
X8894Y9761D01*
X8476Y10211D01*
X8070Y10671D01*
X7675Y11140D01*
X7291Y11619D01*
X6920Y12108D01*
X6560Y12605D01*
X6213Y13111D01*
X5879Y13625D01*
X5557Y14147D01*
X5248Y14678D01*
X4952Y15215D01*
X4669Y15760D01*
X4400Y16311D01*
X4145Y16869D01*
X3903Y17433D01*
X3675Y18003D01*
X3461Y18578D01*
X3262Y19158D01*
X3076Y19743D01*
X2906Y20332D01*
X2749Y20925D01*
X2607Y21522D01*
X2480Y22123D01*
X2368Y22726D01*
X2271Y23332D01*
X2188Y23940D01*
X2120Y24550D01*
X2068Y25161D01*
X2030Y25773D01*
X2008Y26386D01*
X2000Y27000D01*
X598000Y27000D02*
X598008Y27614D01*
X598030Y28227D01*
X598068Y28839D01*
X598120Y29450D01*
X598188Y30060D01*
X598271Y30668D01*
X598368Y31274D01*
X598480Y31877D01*
X598607Y32478D01*
X598749Y33075D01*
X598906Y33668D01*
X599076Y34257D01*
X599262Y34842D01*
X599461Y35422D01*
X599675Y35997D01*
X599903Y36567D01*
X600145Y37131D01*
X600400Y37689D01*
X600669Y38240D01*
X600952Y38785D01*
X601248Y39322D01*
X601557Y39853D01*
X601879Y40375D01*
X602213Y40889D01*
X602560Y41395D01*
X602920Y41892D01*
X603291Y42381D01*
X603675Y42860D01*
X604070Y43329D01*
X604476Y43789D01*
X604894Y44239D01*
X605322Y44678D01*
X605761Y45106D01*
X606211Y45524D01*
X606671Y45930D01*
X607140Y46325D01*
X607619Y46709D01*
X608108Y47080D01*
X608605Y47440D01*
X609111Y47787D01*
X609625Y48121D01*
X610147Y48443D01*
X610678Y48752D01*
X611215Y49048D01*
X611760Y49331D01*
X612311Y49600D01*
X612869Y49855D01*
X613433Y50097D01*
X614003Y50325D01*
X614578Y50539D01*
X615158Y50738D01*
X615743Y50924D01*
X616332Y51094D01*
X616925Y51251D01*
X617522Y51393D01*
X618123Y51520D01*
X618726Y51632D01*
X619332Y51729D01*
X619940Y51812D01*
X620550Y51880D01*
X621161Y51932D01*
X621773Y51970D01*
X622386Y51992D01*
X623000Y52000D01*
X623614Y51992D01*
X624227Y51970D01*
X624839Y51932D01*
X625450Y51880D01*
X626060Y51812D01*
X626668Y51729D01*
X627274Y51632D01*
X627877Y51520D01*
X628478Y51393D01*
X629075Y51251D01*
X629668Y51094D01*
X630257Y50924D01*
X630842Y50738D01*
X631422Y50539D01*
X631997Y50325D01*
X632567Y50097D01*
X633131Y49855D01*
X633689Y49600D01*
X634240Y49331D01*
X634785Y49048D01*
X635322Y48752D01*
X635853Y48443D01*
X636375Y48121D01*
X636889Y47787D01*
X637395Y47440D01*
X637892Y47080D01*
X638381Y46709D01*
X638860Y46325D01*
X639329Y45930D01*
X639789Y45524D01*
X640239Y45106D01*
X640678Y44678D01*
X641106Y44239D01*
X641524Y43789D01*
X641930Y43329D01*
X642325Y42860D01*
X642709Y42381D01*
X643080Y41892D01*
X643440Y41395D01*
X643787Y40889D01*
X644121Y40375D01*
X644443Y39853D01*
X644752Y39322D01*
X645048Y38785D01*
X645331Y38240D01*
X645600Y37689D01*
X645855Y37131D01*
X646097Y36567D01*
X646325Y35997D01*
X646539Y35422D01*
X646738Y34842D01*
X646924Y34257D01*
X647094Y33668D01*
X647251Y33075D01*
X647393Y32478D01*
X647520Y31877D01*
X647632Y31274D01*
X647729Y30668D01*
X647812Y30060D01*
X647880Y29450D01*
X647932Y28839D01*
X647970Y28227D01*
X647992Y27614D01*
X648000Y27000D01*
X647992Y26386D01*
X647970Y25773D01*
X647932Y25161D01*
X647880Y24550D01*
X647812Y23940D01*
X647729Y23332D01*
X647632Y22726D01*
X647520Y22123D01*
X647393Y21522D01*
X647251Y20925D01*
X647094Y20332D01*
X646924Y19743D01*
X646738Y19158D01*
X646539Y18578D01*
X646325Y18003D01*
X646097Y17433D01*
X645855Y16869D01*
X645600Y16311D01*
X645331Y15760D01*
X645048Y15215D01*
X644752Y14678D01*
X644443Y14147D01*
X644121Y13625D01*
X643787Y13111D01*
X643440Y12605D01*
X643080Y12108D01*
X642709Y11619D01*
X642325Y11140D01*
X641930Y10671D01*
X641524Y10211D01*
X641106Y9761D01*
X640678Y9322D01*
X640239Y8894D01*
X639789Y8476D01*
X639329Y8070D01*
X638860Y7675D01*
X638381Y7291D01*
X637892Y6920D01*
X637395Y6560D01*
X636889Y6213D01*
X636375Y5879D01*
X635853Y5557D01*
X635322Y5248D01*
X634785Y4952D01*
X634240Y4669D01*
X633689Y4400D01*
X633131Y4145D01*
X632567Y3903D01*
X631997Y3675D01*
X631422Y3461D01*
X630842Y3262D01*
X630257Y3076D01*
X629668Y2906D01*
X629075Y2749D01*
X628478Y2607D01*
X627877Y2480D01*
X627274Y2368D01*
X626668Y2271D01*
X626060Y2188D01*
X625450Y2120D01*
X624839Y2068D01*
X624227Y2030D01*
X623614Y2008D01*
X623000Y2000D01*
X622386Y2008D01*
X621773Y2030D01*
X621161Y2068D01*
X620550Y2120D01*
X619940Y2188D01*
X619332Y2271D01*
X618726Y2368D01*
X618123Y2480D01*
X617522Y2607D01*
X616925Y2749D01*
X616332Y2906D01*
X615743Y3076D01*
X615158Y3262D01*
X614578Y3461D01*
X614003Y3675D01*
X613433Y3903D01*
X612869Y4145D01*
X612311Y4400D01*
X611760Y4669D01*
X611215Y4952D01*
X610678Y5248D01*
X610147Y5557D01*
X609625Y5879D01*
X609111Y6213D01*
X608605Y6560D01*
X608108Y6920D01*
X607619Y7291D01*
X607140Y7675D01*
X606671Y8070D01*
X606211Y8476D01*
X605761Y8894D01*
X605322Y9322D01*
X604894Y9761D01*
X604476Y10211D01*
X604070Y10671D01*
X603675Y11140D01*
X603291Y11619D01*
X602920Y12108D01*
X602560Y12605D01*
X602213Y13111D01*
X601879Y13625D01*
X601557Y14147D01*
X601248Y14678D01*
X600952Y15215D01*
X600669Y15760D01*
X600400Y16311D01*
X600145Y16869D01*
X599903Y17433D01*
X599675Y18003D01*
X599461Y18578D01*
X599262Y19158D01*
X599076Y19743D01*
X598906Y20332D01*
X598749Y20925D01*
X598607Y21522D01*
X598480Y22123D01*
X598368Y22726D01*
X598271Y23332D01*
X598188Y23940D01*
X598120Y24550D01*
X598068Y25161D01*
X598030Y25773D01*
X598008Y26386D01*
X598000Y27000D01*
X598000Y283000D02*
X598008Y283614D01*
X598030Y284227D01*
X598068Y284839D01*
X598120Y285450D01*
X598188Y286060D01*
X598271Y286668D01*
X598368Y287274D01*
X598480Y287877D01*
X598607Y288478D01*
X598749Y289075D01*
X598906Y289668D01*
X599076Y290257D01*
X599262Y290842D01*
X599461Y291422D01*
X599675Y291997D01*
X599903Y292567D01*
X600145Y293131D01*
X600400Y293689D01*
X600669Y294240D01*
X600952Y294785D01*
X601248Y295322D01*
X601557Y295853D01*
X601879Y296375D01*
X602213Y296889D01*
X602560Y297395D01*
X602920Y297892D01*
X603291Y298381D01*
X603675Y298860D01*
X604070Y299329D01*
X604476Y299789D01*
X604894Y300239D01*
X605322Y300678D01*
X605761Y301106D01*
X606211Y301524D01*
X606671Y301930D01*
X607140Y302325D01*
X607619Y302709D01*
X608108Y303080D01*
X608605Y303440D01*
X609111Y303787D01*
X609625Y304121D01*
X610147Y304443D01*
X610678Y304752D01*
X611215Y305048D01*
X611760Y305331D01*
X612311Y305600D01*
X612869Y305855D01*
X613433Y306097D01*
X614003Y306325D01*
X614578Y306539D01*
X615158Y306738D01*
X615743Y306924D01*
X616332Y307094D01*
X616925Y307251D01*
X617522Y307393D01*
X618123Y307520D01*
X618726Y307632D01*
X619332Y307729D01*
X619940Y307812D01*
X620550Y307880D01*
X621161Y307932D01*
X621773Y307970D01*
X622386Y307992D01*
X623000Y308000D01*
X623614Y307992D01*
X624227Y307970D01*
X624839Y307932D01*
X625450Y307880D01*
X626060Y307812D01*
X626668Y307729D01*
X627274Y307632D01*
X627877Y307520D01*
X628478Y307393D01*
X629075Y307251D01*
X629668Y307094D01*
X630257Y306924D01*
X630842Y306738D01*
X631422Y306539D01*
X631997Y306325D01*
X632567Y306097D01*
X633131Y305855D01*
X633689Y305600D01*
X634240Y305331D01*
X634785Y305048D01*
X635322Y304752D01*
X635853Y304443D01*
X636375Y304121D01*
X636889Y303787D01*
X637395Y303440D01*
X637892Y303080D01*
X638381Y302709D01*
X638860Y302325D01*
X639329Y301930D01*
X639789Y301524D01*
X640239Y301106D01*
X640678Y300678D01*
X641106Y300239D01*
X641524Y299789D01*
X641930Y299329D01*
X642325Y298860D01*
X642709Y298381D01*
X643080Y297892D01*
X643440Y297395D01*
X643787Y296889D01*
X644121Y296375D01*
X644443Y295853D01*
X644752Y295322D01*
X645048Y294785D01*
X645331Y294240D01*
X645600Y293689D01*
X645855Y293131D01*
X646097Y292567D01*
X646325Y291997D01*
X646539Y291422D01*
X646738Y290842D01*
X646924Y290257D01*
X647094Y289668D01*
X647251Y289075D01*
X647393Y288478D01*
X647520Y287877D01*
X647632Y287274D01*
X647729Y286668D01*
X647812Y286060D01*
X647880Y285450D01*
X647932Y284839D01*
X647970Y284227D01*
X647992Y283614D01*
X648000Y283000D01*
X647992Y282386D01*
X647970Y281773D01*
X647932Y281161D01*
X647880Y280550D01*
X647812Y279940D01*
X647729Y279332D01*
X647632Y278726D01*
X647520Y278123D01*
X647393Y277522D01*
X647251Y276925D01*
X647094Y276332D01*
X646924Y275743D01*
X646738Y275158D01*
X646539Y274578D01*
X646325Y274003D01*
X646097Y273433D01*
X645855Y272869D01*
X645600Y272311D01*
X645331Y271760D01*
X645048Y271215D01*
X644752Y270678D01*
X644443Y270147D01*
X644121Y269625D01*
X643787Y269111D01*
X643440Y268605D01*
X643080Y268108D01*
X642709Y267619D01*
X642325Y267140D01*
X641930Y266671D01*
X641524Y266211D01*
X641106Y265761D01*
X640678Y265322D01*
X640239Y264894D01*
X639789Y264476D01*
X639329Y264070D01*
X638860Y263675D01*
X638381Y263291D01*
X637892Y262920D01*
X637395Y262560D01*
X636889Y262213D01*
X636375Y261879D01*
X635853Y261557D01*
X635322Y261248D01*
X634785Y260952D01*
X634240Y260669D01*
X633689Y260400D01*
X633131Y260145D01*
X632567Y259903D01*
X631997Y259675D01*
X631422Y259461D01*
X630842Y259262D01*
X630257Y259076D01*
X629668Y258906D01*
X629075Y258749D01*
X628478Y258607D01*
X627877Y258480D01*
X627274Y258368D01*
X626668Y258271D01*
X626060Y258188D01*
X625450Y258120D01*
X624839Y258068D01*
X624227Y258030D01*
X623614Y258008D01*
X623000Y258000D01*
X622386Y258008D01*
X621773Y258030D01*
X621161Y258068D01*
X620550Y258120D01*
X619940Y258188D01*
X619332Y258271D01*
X618726Y258368D01*
X618123Y258480D01*
X617522Y258607D01*
X616925Y258749D01*
X616332Y258906D01*
X615743Y259076D01*
X615158Y259262D01*
X614578Y259461D01*
X614003Y259675D01*
X613433Y259903D01*
X612869Y260145D01*
X612311Y260400D01*
X611760Y260669D01*
X611215Y260952D01*
X610678Y261248D01*
X610147Y261557D01*
X609625Y261879D01*
X609111Y262213D01*
X608605Y262560D01*
X608108Y262920D01*
X607619Y263291D01*
X607140Y263675D01*
X606671Y264070D01*
X606211Y264476D01*
X605761Y264894D01*
X605322Y265322D01*
X604894Y265761D01*
X604476Y266211D01*
X604070Y266671D01*
X603675Y267140D01*
X603291Y267619D01*
X602920Y268108D01*
X602560Y268605D01*
X602213Y269111D01*
X601879Y269625D01*
X601557Y270147D01*
X601248Y270678D01*
X600952Y271215D01*
X600669Y271760D01*
X600400Y272311D01*
X600145Y272869D01*
X599903Y273433D01*
X599675Y274003D01*
X599461Y274578D01*
X599262Y275158D01*
X599076Y275743D01*
X598906Y276332D01*
X598749Y276925D01*
X598607Y277522D01*
X598480Y278123D01*
X598368Y278726D01*
X598271Y279332D01*
X598188Y279940D01*
X598120Y280550D01*
X598068Y281161D01*
X598030Y281773D01*
X598008Y282386D01*
X598000Y283000D01*
X13000Y180000D02*
X3000Y180000D01*
X13000Y180000D02*
X13000Y130000D01*
X3000Y130000D01*
D11*
X634119Y71779D02*
X634119Y62381D01*
X634119Y71779D02*
X631508Y71779D01*
X631407Y71777D01*
X631306Y71771D01*
X631205Y71761D01*
X631105Y71748D01*
X631005Y71730D01*
X630906Y71709D01*
X630808Y71683D01*
X630711Y71654D01*
X630615Y71622D01*
X630521Y71585D01*
X630428Y71545D01*
X630336Y71501D01*
X630247Y71454D01*
X630159Y71403D01*
X630073Y71349D01*
X629990Y71292D01*
X629908Y71232D01*
X629830Y71168D01*
X629753Y71102D01*
X629680Y71032D01*
X629609Y70960D01*
X629541Y70885D01*
X629476Y70807D01*
X629414Y70727D01*
X629355Y70645D01*
X629299Y70560D01*
X629247Y70474D01*
X629198Y70385D01*
X629152Y70294D01*
X629111Y70202D01*
X629072Y70108D01*
X629038Y70013D01*
X629007Y69917D01*
X628980Y69819D01*
X628956Y69721D01*
X628937Y69621D01*
X628921Y69521D01*
X628909Y69421D01*
X628901Y69320D01*
X628897Y69219D01*
X628897Y69117D01*
X628901Y69016D01*
X628909Y68915D01*
X628921Y68815D01*
X628937Y68715D01*
X628956Y68615D01*
X628980Y68517D01*
X629007Y68419D01*
X629038Y68323D01*
X629072Y68228D01*
X629111Y68134D01*
X629152Y68042D01*
X629198Y67951D01*
X629247Y67863D01*
X629299Y67776D01*
X629355Y67691D01*
X629414Y67609D01*
X629476Y67529D01*
X629541Y67451D01*
X629609Y67376D01*
X629680Y67304D01*
X629753Y67234D01*
X629830Y67168D01*
X629908Y67104D01*
X629990Y67044D01*
X630073Y66987D01*
X630159Y66933D01*
X630247Y66882D01*
X630336Y66835D01*
X630428Y66791D01*
X630521Y66751D01*
X630615Y66714D01*
X630711Y66682D01*
X630808Y66653D01*
X630906Y66627D01*
X631005Y66606D01*
X631105Y66588D01*
X631205Y66575D01*
X631306Y66565D01*
X631407Y66559D01*
X631508Y66557D01*
X631508Y66558D02*
X634119Y66558D01*
X625142Y68646D02*
X625142Y62381D01*
X625142Y68646D02*
X622010Y68646D01*
X622010Y67602D01*
X617531Y62381D02*
X614921Y62381D01*
X617531Y62381D02*
X617608Y62383D01*
X617684Y62389D01*
X617761Y62398D01*
X617837Y62411D01*
X617912Y62428D01*
X617986Y62448D01*
X618059Y62473D01*
X618130Y62500D01*
X618201Y62531D01*
X618269Y62566D01*
X618336Y62604D01*
X618401Y62645D01*
X618464Y62689D01*
X618524Y62736D01*
X618583Y62787D01*
X618638Y62840D01*
X618691Y62895D01*
X618742Y62954D01*
X618789Y63014D01*
X618833Y63077D01*
X618874Y63142D01*
X618912Y63209D01*
X618947Y63277D01*
X618978Y63348D01*
X619005Y63419D01*
X619030Y63492D01*
X619050Y63566D01*
X619067Y63641D01*
X619080Y63717D01*
X619089Y63794D01*
X619095Y63870D01*
X619097Y63947D01*
X619098Y63947D02*
X619098Y66558D01*
X619097Y66558D02*
X619095Y66648D01*
X619089Y66737D01*
X619080Y66827D01*
X619066Y66916D01*
X619049Y67004D01*
X619028Y67091D01*
X619003Y67178D01*
X618974Y67263D01*
X618942Y67347D01*
X618907Y67429D01*
X618867Y67510D01*
X618825Y67589D01*
X618779Y67666D01*
X618729Y67741D01*
X618677Y67814D01*
X618621Y67885D01*
X618563Y67953D01*
X618501Y68018D01*
X618437Y68081D01*
X618370Y68141D01*
X618301Y68198D01*
X618229Y68252D01*
X618155Y68303D01*
X618079Y68351D01*
X618001Y68395D01*
X617921Y68436D01*
X617839Y68474D01*
X617756Y68508D01*
X617671Y68538D01*
X617585Y68565D01*
X617499Y68588D01*
X617411Y68607D01*
X617322Y68622D01*
X617233Y68634D01*
X617144Y68642D01*
X617054Y68646D01*
X616964Y68646D01*
X616874Y68642D01*
X616785Y68634D01*
X616696Y68622D01*
X616607Y68607D01*
X616519Y68588D01*
X616433Y68565D01*
X616347Y68538D01*
X616262Y68508D01*
X616179Y68474D01*
X616097Y68436D01*
X616017Y68395D01*
X615939Y68351D01*
X615863Y68303D01*
X615789Y68252D01*
X615717Y68198D01*
X615648Y68141D01*
X615581Y68081D01*
X615517Y68018D01*
X615455Y67953D01*
X615397Y67885D01*
X615341Y67814D01*
X615289Y67741D01*
X615239Y67666D01*
X615193Y67589D01*
X615151Y67510D01*
X615111Y67429D01*
X615076Y67347D01*
X615044Y67263D01*
X615015Y67178D01*
X614990Y67091D01*
X614969Y67004D01*
X614952Y66916D01*
X614938Y66827D01*
X614929Y66737D01*
X614923Y66648D01*
X614921Y66558D01*
X614921Y65514D01*
X619098Y65514D01*
X610390Y66036D02*
X607779Y64992D01*
X610390Y66036D02*
X610456Y66064D01*
X610521Y66097D01*
X610584Y66132D01*
X610645Y66171D01*
X610704Y66213D01*
X610760Y66258D01*
X610814Y66306D01*
X610865Y66357D01*
X610914Y66410D01*
X610959Y66467D01*
X611002Y66525D01*
X611041Y66585D01*
X611078Y66648D01*
X611110Y66713D01*
X611139Y66779D01*
X611165Y66846D01*
X611187Y66915D01*
X611205Y66985D01*
X611220Y67056D01*
X611231Y67127D01*
X611238Y67199D01*
X611241Y67271D01*
X611240Y67343D01*
X611235Y67416D01*
X611227Y67487D01*
X611215Y67559D01*
X611199Y67629D01*
X611179Y67698D01*
X611155Y67767D01*
X611128Y67834D01*
X611098Y67899D01*
X611064Y67963D01*
X611026Y68025D01*
X610986Y68085D01*
X610942Y68142D01*
X610895Y68197D01*
X610845Y68250D01*
X610793Y68299D01*
X610738Y68346D01*
X610681Y68390D01*
X610621Y68431D01*
X610559Y68468D01*
X610495Y68503D01*
X610430Y68533D01*
X610363Y68561D01*
X610295Y68584D01*
X610225Y68604D01*
X610155Y68620D01*
X610084Y68633D01*
X610012Y68641D01*
X609940Y68646D01*
X609868Y68647D01*
X609867Y68646D02*
X609716Y68642D01*
X609565Y68634D01*
X609414Y68623D01*
X609263Y68607D01*
X609113Y68587D01*
X608963Y68564D01*
X608814Y68537D01*
X608666Y68506D01*
X608518Y68471D01*
X608372Y68433D01*
X608226Y68390D01*
X608082Y68344D01*
X607939Y68295D01*
X607797Y68242D01*
X607657Y68185D01*
X607518Y68124D01*
X607779Y64992D02*
X607713Y64964D01*
X607648Y64931D01*
X607585Y64896D01*
X607524Y64857D01*
X607465Y64815D01*
X607409Y64770D01*
X607355Y64722D01*
X607304Y64671D01*
X607255Y64618D01*
X607210Y64561D01*
X607167Y64503D01*
X607128Y64443D01*
X607091Y64380D01*
X607059Y64315D01*
X607030Y64249D01*
X607004Y64182D01*
X606982Y64113D01*
X606964Y64043D01*
X606949Y63972D01*
X606938Y63901D01*
X606931Y63829D01*
X606928Y63757D01*
X606929Y63685D01*
X606934Y63612D01*
X606942Y63541D01*
X606954Y63469D01*
X606970Y63399D01*
X606990Y63330D01*
X607014Y63261D01*
X607041Y63194D01*
X607071Y63129D01*
X607105Y63065D01*
X607143Y63003D01*
X607183Y62943D01*
X607227Y62886D01*
X607274Y62831D01*
X607324Y62778D01*
X607376Y62729D01*
X607431Y62682D01*
X607488Y62638D01*
X607548Y62597D01*
X607610Y62560D01*
X607674Y62525D01*
X607739Y62495D01*
X607806Y62467D01*
X607874Y62444D01*
X607944Y62424D01*
X608014Y62408D01*
X608085Y62395D01*
X608157Y62387D01*
X608229Y62382D01*
X608301Y62381D01*
X608511Y62386D01*
X608720Y62397D01*
X608929Y62412D01*
X609137Y62432D01*
X609345Y62458D01*
X609552Y62488D01*
X609759Y62523D01*
X609964Y62563D01*
X610169Y62607D01*
X610372Y62657D01*
X610575Y62711D01*
X610776Y62771D01*
X610975Y62834D01*
X611173Y62903D01*
X602465Y66036D02*
X599855Y64992D01*
X602465Y66036D02*
X602531Y66064D01*
X602596Y66097D01*
X602659Y66132D01*
X602720Y66171D01*
X602779Y66213D01*
X602835Y66258D01*
X602889Y66306D01*
X602940Y66357D01*
X602989Y66410D01*
X603034Y66467D01*
X603077Y66525D01*
X603116Y66585D01*
X603153Y66648D01*
X603185Y66713D01*
X603214Y66779D01*
X603240Y66846D01*
X603262Y66915D01*
X603280Y66985D01*
X603295Y67056D01*
X603306Y67127D01*
X603313Y67199D01*
X603316Y67271D01*
X603315Y67343D01*
X603310Y67416D01*
X603302Y67487D01*
X603290Y67559D01*
X603274Y67629D01*
X603254Y67698D01*
X603230Y67767D01*
X603203Y67834D01*
X603173Y67899D01*
X603139Y67963D01*
X603101Y68025D01*
X603061Y68085D01*
X603017Y68142D01*
X602970Y68197D01*
X602920Y68250D01*
X602868Y68299D01*
X602813Y68346D01*
X602756Y68390D01*
X602696Y68431D01*
X602634Y68468D01*
X602570Y68503D01*
X602505Y68533D01*
X602438Y68561D01*
X602370Y68584D01*
X602300Y68604D01*
X602230Y68620D01*
X602159Y68633D01*
X602087Y68641D01*
X602015Y68646D01*
X601943Y68647D01*
X601943Y68646D02*
X601792Y68642D01*
X601641Y68634D01*
X601490Y68623D01*
X601339Y68607D01*
X601189Y68587D01*
X601039Y68564D01*
X600890Y68537D01*
X600742Y68506D01*
X600594Y68471D01*
X600448Y68433D01*
X600302Y68390D01*
X600158Y68344D01*
X600015Y68295D01*
X599873Y68242D01*
X599733Y68185D01*
X599594Y68124D01*
X599854Y64992D02*
X599788Y64964D01*
X599723Y64931D01*
X599660Y64896D01*
X599599Y64857D01*
X599540Y64815D01*
X599484Y64770D01*
X599430Y64722D01*
X599379Y64671D01*
X599330Y64618D01*
X599285Y64561D01*
X599242Y64503D01*
X599203Y64443D01*
X599166Y64380D01*
X599134Y64315D01*
X599105Y64249D01*
X599079Y64182D01*
X599057Y64113D01*
X599039Y64043D01*
X599024Y63972D01*
X599013Y63901D01*
X599006Y63829D01*
X599003Y63757D01*
X599004Y63685D01*
X599009Y63612D01*
X599017Y63541D01*
X599029Y63469D01*
X599045Y63399D01*
X599065Y63330D01*
X599089Y63261D01*
X599116Y63194D01*
X599146Y63129D01*
X599180Y63065D01*
X599218Y63003D01*
X599258Y62943D01*
X599302Y62886D01*
X599349Y62831D01*
X599399Y62778D01*
X599451Y62729D01*
X599506Y62682D01*
X599563Y62638D01*
X599623Y62597D01*
X599685Y62560D01*
X599749Y62525D01*
X599814Y62495D01*
X599881Y62467D01*
X599949Y62444D01*
X600019Y62424D01*
X600089Y62408D01*
X600160Y62395D01*
X600232Y62387D01*
X600304Y62382D01*
X600376Y62381D01*
X600586Y62386D01*
X600795Y62397D01*
X601004Y62412D01*
X601212Y62432D01*
X601420Y62458D01*
X601627Y62488D01*
X601834Y62523D01*
X602039Y62563D01*
X602244Y62607D01*
X602447Y62657D01*
X602650Y62711D01*
X602851Y62771D01*
X603050Y62834D01*
X603248Y62903D01*
X595019Y63947D02*
X595019Y68646D01*
X595018Y63947D02*
X595016Y63870D01*
X595010Y63794D01*
X595001Y63717D01*
X594988Y63641D01*
X594971Y63566D01*
X594951Y63492D01*
X594926Y63419D01*
X594899Y63348D01*
X594868Y63277D01*
X594833Y63209D01*
X594795Y63142D01*
X594754Y63077D01*
X594710Y63014D01*
X594663Y62954D01*
X594612Y62895D01*
X594559Y62840D01*
X594504Y62787D01*
X594445Y62736D01*
X594385Y62689D01*
X594322Y62645D01*
X594257Y62604D01*
X594190Y62566D01*
X594122Y62531D01*
X594051Y62500D01*
X593980Y62473D01*
X593907Y62448D01*
X593833Y62428D01*
X593758Y62411D01*
X593682Y62398D01*
X593605Y62389D01*
X593529Y62383D01*
X593452Y62381D01*
X590842Y62381D01*
X590842Y68646D01*
X586433Y68646D02*
X586433Y62381D01*
X586433Y68646D02*
X583300Y68646D01*
X583300Y67602D01*
X578822Y62381D02*
X576212Y62381D01*
X578822Y62381D02*
X578899Y62383D01*
X578975Y62389D01*
X579052Y62398D01*
X579128Y62411D01*
X579203Y62428D01*
X579277Y62448D01*
X579350Y62473D01*
X579421Y62500D01*
X579492Y62531D01*
X579560Y62566D01*
X579627Y62604D01*
X579692Y62645D01*
X579755Y62689D01*
X579815Y62736D01*
X579874Y62787D01*
X579929Y62840D01*
X579982Y62895D01*
X580033Y62954D01*
X580080Y63014D01*
X580124Y63077D01*
X580165Y63142D01*
X580203Y63209D01*
X580238Y63277D01*
X580269Y63348D01*
X580296Y63419D01*
X580321Y63492D01*
X580341Y63566D01*
X580358Y63641D01*
X580371Y63717D01*
X580380Y63794D01*
X580386Y63870D01*
X580388Y63947D01*
X580388Y66558D01*
X580386Y66648D01*
X580380Y66737D01*
X580371Y66827D01*
X580357Y66916D01*
X580340Y67004D01*
X580319Y67091D01*
X580294Y67178D01*
X580265Y67263D01*
X580233Y67347D01*
X580198Y67429D01*
X580158Y67510D01*
X580116Y67589D01*
X580070Y67666D01*
X580020Y67741D01*
X579968Y67814D01*
X579912Y67885D01*
X579854Y67953D01*
X579792Y68018D01*
X579728Y68081D01*
X579661Y68141D01*
X579592Y68198D01*
X579520Y68252D01*
X579446Y68303D01*
X579370Y68351D01*
X579292Y68395D01*
X579212Y68436D01*
X579130Y68474D01*
X579047Y68508D01*
X578962Y68538D01*
X578876Y68565D01*
X578790Y68588D01*
X578702Y68607D01*
X578613Y68622D01*
X578524Y68634D01*
X578435Y68642D01*
X578345Y68646D01*
X578255Y68646D01*
X578165Y68642D01*
X578076Y68634D01*
X577987Y68622D01*
X577898Y68607D01*
X577810Y68588D01*
X577724Y68565D01*
X577638Y68538D01*
X577553Y68508D01*
X577470Y68474D01*
X577388Y68436D01*
X577308Y68395D01*
X577230Y68351D01*
X577154Y68303D01*
X577080Y68252D01*
X577008Y68198D01*
X576939Y68141D01*
X576872Y68081D01*
X576808Y68018D01*
X576746Y67953D01*
X576688Y67885D01*
X576632Y67814D01*
X576580Y67741D01*
X576530Y67666D01*
X576484Y67589D01*
X576442Y67510D01*
X576402Y67429D01*
X576367Y67347D01*
X576335Y67263D01*
X576306Y67178D01*
X576281Y67091D01*
X576260Y67004D01*
X576243Y66916D01*
X576229Y66827D01*
X576220Y66737D01*
X576214Y66648D01*
X576212Y66558D01*
X576212Y65514D01*
X580388Y65514D01*
X554619Y65861D02*
X554619Y75259D01*
X551486Y70038D01*
X548354Y75259D01*
X548354Y65861D01*
X542560Y65861D02*
X539949Y65861D01*
X542560Y65861D02*
X542637Y65863D01*
X542713Y65869D01*
X542790Y65878D01*
X542866Y65891D01*
X542941Y65908D01*
X543015Y65928D01*
X543088Y65953D01*
X543159Y65980D01*
X543230Y66011D01*
X543298Y66046D01*
X543365Y66084D01*
X543430Y66125D01*
X543493Y66169D01*
X543553Y66216D01*
X543612Y66267D01*
X543667Y66320D01*
X543720Y66375D01*
X543771Y66434D01*
X543818Y66494D01*
X543862Y66557D01*
X543903Y66622D01*
X543941Y66689D01*
X543976Y66757D01*
X544007Y66828D01*
X544034Y66899D01*
X544059Y66972D01*
X544079Y67046D01*
X544096Y67121D01*
X544109Y67197D01*
X544118Y67274D01*
X544124Y67350D01*
X544126Y67427D01*
X544126Y70038D01*
X544124Y70128D01*
X544118Y70217D01*
X544109Y70307D01*
X544095Y70396D01*
X544078Y70484D01*
X544057Y70571D01*
X544032Y70658D01*
X544003Y70743D01*
X543971Y70827D01*
X543936Y70909D01*
X543896Y70990D01*
X543854Y71069D01*
X543808Y71146D01*
X543758Y71221D01*
X543706Y71294D01*
X543650Y71365D01*
X543592Y71433D01*
X543530Y71498D01*
X543466Y71561D01*
X543399Y71621D01*
X543330Y71678D01*
X543258Y71732D01*
X543184Y71783D01*
X543108Y71831D01*
X543030Y71875D01*
X542950Y71916D01*
X542868Y71954D01*
X542785Y71988D01*
X542700Y72018D01*
X542614Y72045D01*
X542528Y72068D01*
X542440Y72087D01*
X542351Y72102D01*
X542262Y72114D01*
X542173Y72122D01*
X542083Y72126D01*
X541993Y72126D01*
X541903Y72122D01*
X541814Y72114D01*
X541725Y72102D01*
X541636Y72087D01*
X541548Y72068D01*
X541462Y72045D01*
X541376Y72018D01*
X541291Y71988D01*
X541208Y71954D01*
X541126Y71916D01*
X541046Y71875D01*
X540968Y71831D01*
X540892Y71783D01*
X540818Y71732D01*
X540746Y71678D01*
X540677Y71621D01*
X540610Y71561D01*
X540546Y71498D01*
X540484Y71433D01*
X540426Y71365D01*
X540370Y71294D01*
X540318Y71221D01*
X540268Y71146D01*
X540222Y71069D01*
X540180Y70990D01*
X540140Y70909D01*
X540105Y70827D01*
X540073Y70743D01*
X540044Y70658D01*
X540019Y70571D01*
X539998Y70484D01*
X539981Y70396D01*
X539967Y70307D01*
X539958Y70217D01*
X539952Y70128D01*
X539950Y70038D01*
X539949Y70038D02*
X539949Y68994D01*
X544126Y68994D01*
X534420Y69516D02*
X532070Y69516D01*
X534420Y69515D02*
X534504Y69513D01*
X534589Y69507D01*
X534672Y69497D01*
X534756Y69484D01*
X534838Y69466D01*
X534920Y69445D01*
X535001Y69420D01*
X535080Y69392D01*
X535158Y69359D01*
X535234Y69323D01*
X535309Y69284D01*
X535382Y69241D01*
X535453Y69195D01*
X535521Y69146D01*
X535587Y69094D01*
X535651Y69038D01*
X535712Y68980D01*
X535770Y68919D01*
X535826Y68855D01*
X535878Y68789D01*
X535927Y68721D01*
X535973Y68650D01*
X536016Y68577D01*
X536055Y68502D01*
X536091Y68426D01*
X536124Y68348D01*
X536152Y68269D01*
X536177Y68188D01*
X536198Y68106D01*
X536216Y68024D01*
X536229Y67940D01*
X536239Y67857D01*
X536245Y67772D01*
X536247Y67688D01*
X536245Y67604D01*
X536239Y67519D01*
X536229Y67436D01*
X536216Y67352D01*
X536198Y67270D01*
X536177Y67188D01*
X536152Y67107D01*
X536124Y67028D01*
X536091Y66950D01*
X536055Y66874D01*
X536016Y66799D01*
X535973Y66726D01*
X535927Y66655D01*
X535878Y66587D01*
X535826Y66521D01*
X535770Y66457D01*
X535712Y66396D01*
X535651Y66338D01*
X535587Y66282D01*
X535521Y66230D01*
X535453Y66181D01*
X535382Y66135D01*
X535309Y66092D01*
X535234Y66053D01*
X535158Y66017D01*
X535080Y65984D01*
X535001Y65956D01*
X534920Y65931D01*
X534838Y65910D01*
X534756Y65892D01*
X534672Y65879D01*
X534589Y65869D01*
X534504Y65863D01*
X534420Y65861D01*
X532070Y65861D01*
X532070Y70560D01*
X532072Y70637D01*
X532078Y70713D01*
X532087Y70790D01*
X532100Y70866D01*
X532117Y70941D01*
X532137Y71015D01*
X532162Y71088D01*
X532189Y71159D01*
X532220Y71230D01*
X532255Y71298D01*
X532293Y71365D01*
X532334Y71430D01*
X532378Y71493D01*
X532425Y71553D01*
X532476Y71612D01*
X532529Y71667D01*
X532584Y71720D01*
X532643Y71771D01*
X532703Y71818D01*
X532766Y71862D01*
X532831Y71903D01*
X532898Y71941D01*
X532966Y71976D01*
X533037Y72007D01*
X533108Y72034D01*
X533181Y72059D01*
X533256Y72079D01*
X533331Y72096D01*
X533406Y72109D01*
X533483Y72118D01*
X533559Y72124D01*
X533636Y72126D01*
X535725Y72126D01*
X527189Y69516D02*
X524578Y68472D01*
X527189Y69516D02*
X527255Y69544D01*
X527320Y69577D01*
X527383Y69612D01*
X527444Y69651D01*
X527503Y69693D01*
X527559Y69738D01*
X527613Y69786D01*
X527664Y69837D01*
X527713Y69890D01*
X527758Y69947D01*
X527801Y70005D01*
X527840Y70065D01*
X527877Y70128D01*
X527909Y70193D01*
X527938Y70259D01*
X527964Y70326D01*
X527986Y70395D01*
X528004Y70465D01*
X528019Y70536D01*
X528030Y70607D01*
X528037Y70679D01*
X528040Y70751D01*
X528039Y70823D01*
X528034Y70896D01*
X528026Y70967D01*
X528014Y71039D01*
X527998Y71109D01*
X527978Y71178D01*
X527954Y71247D01*
X527927Y71314D01*
X527897Y71379D01*
X527863Y71443D01*
X527825Y71505D01*
X527785Y71565D01*
X527741Y71622D01*
X527694Y71677D01*
X527644Y71730D01*
X527592Y71779D01*
X527537Y71826D01*
X527480Y71870D01*
X527420Y71911D01*
X527358Y71948D01*
X527294Y71983D01*
X527229Y72013D01*
X527162Y72041D01*
X527094Y72064D01*
X527024Y72084D01*
X526954Y72100D01*
X526883Y72113D01*
X526811Y72121D01*
X526739Y72126D01*
X526667Y72127D01*
X526666Y72126D02*
X526515Y72122D01*
X526364Y72114D01*
X526213Y72103D01*
X526062Y72087D01*
X525912Y72067D01*
X525762Y72044D01*
X525613Y72017D01*
X525465Y71986D01*
X525317Y71951D01*
X525171Y71913D01*
X525025Y71870D01*
X524881Y71824D01*
X524738Y71775D01*
X524596Y71722D01*
X524456Y71665D01*
X524317Y71604D01*
X524578Y68472D02*
X524512Y68444D01*
X524447Y68411D01*
X524384Y68376D01*
X524323Y68337D01*
X524264Y68295D01*
X524208Y68250D01*
X524154Y68202D01*
X524103Y68151D01*
X524054Y68098D01*
X524009Y68041D01*
X523966Y67983D01*
X523927Y67923D01*
X523890Y67860D01*
X523858Y67795D01*
X523829Y67729D01*
X523803Y67662D01*
X523781Y67593D01*
X523763Y67523D01*
X523748Y67452D01*
X523737Y67381D01*
X523730Y67309D01*
X523727Y67237D01*
X523728Y67165D01*
X523733Y67092D01*
X523741Y67021D01*
X523753Y66949D01*
X523769Y66879D01*
X523789Y66810D01*
X523813Y66741D01*
X523840Y66674D01*
X523870Y66609D01*
X523904Y66545D01*
X523942Y66483D01*
X523982Y66423D01*
X524026Y66366D01*
X524073Y66311D01*
X524123Y66258D01*
X524175Y66209D01*
X524230Y66162D01*
X524287Y66118D01*
X524347Y66077D01*
X524409Y66040D01*
X524473Y66005D01*
X524538Y65975D01*
X524605Y65947D01*
X524673Y65924D01*
X524743Y65904D01*
X524813Y65888D01*
X524884Y65875D01*
X524956Y65867D01*
X525028Y65862D01*
X525100Y65861D01*
X525310Y65866D01*
X525519Y65877D01*
X525728Y65892D01*
X525936Y65912D01*
X526144Y65938D01*
X526351Y65968D01*
X526558Y66003D01*
X526763Y66043D01*
X526968Y66087D01*
X527171Y66137D01*
X527374Y66191D01*
X527575Y66251D01*
X527774Y66314D01*
X527972Y66383D01*
X520353Y66383D02*
X520353Y65861D01*
X520353Y66383D02*
X519831Y66383D01*
X519831Y65861D01*
X520353Y65861D01*
X550442Y50621D02*
X552531Y50621D01*
X552620Y50623D01*
X552708Y50629D01*
X552796Y50638D01*
X552884Y50651D01*
X552971Y50668D01*
X553057Y50688D01*
X553142Y50713D01*
X553227Y50740D01*
X553310Y50772D01*
X553391Y50806D01*
X553471Y50845D01*
X553549Y50886D01*
X553626Y50931D01*
X553700Y50979D01*
X553773Y51030D01*
X553843Y51084D01*
X553910Y51142D01*
X553976Y51202D01*
X554038Y51264D01*
X554098Y51330D01*
X554156Y51397D01*
X554210Y51467D01*
X554261Y51540D01*
X554309Y51614D01*
X554354Y51691D01*
X554395Y51769D01*
X554434Y51849D01*
X554468Y51930D01*
X554500Y52013D01*
X554527Y52098D01*
X554552Y52183D01*
X554572Y52269D01*
X554589Y52356D01*
X554602Y52444D01*
X554611Y52532D01*
X554617Y52620D01*
X554619Y52709D01*
X554619Y57931D01*
X554617Y58020D01*
X554611Y58108D01*
X554602Y58196D01*
X554589Y58284D01*
X554572Y58371D01*
X554552Y58457D01*
X554527Y58542D01*
X554500Y58627D01*
X554468Y58710D01*
X554434Y58791D01*
X554395Y58871D01*
X554354Y58949D01*
X554309Y59026D01*
X554261Y59100D01*
X554210Y59173D01*
X554156Y59243D01*
X554098Y59310D01*
X554038Y59376D01*
X553976Y59438D01*
X553910Y59498D01*
X553843Y59556D01*
X553773Y59610D01*
X553700Y59661D01*
X553626Y59709D01*
X553549Y59754D01*
X553471Y59795D01*
X553391Y59834D01*
X553310Y59868D01*
X553227Y59900D01*
X553142Y59927D01*
X553057Y59952D01*
X552971Y59972D01*
X552884Y59989D01*
X552796Y60002D01*
X552708Y60011D01*
X552620Y60017D01*
X552531Y60019D01*
X550442Y60019D01*
X546756Y60019D02*
X546756Y50621D01*
X546756Y56886D02*
X544145Y56886D01*
X544068Y56884D01*
X543992Y56878D01*
X543915Y56869D01*
X543839Y56856D01*
X543765Y56839D01*
X543690Y56819D01*
X543617Y56794D01*
X543546Y56767D01*
X543475Y56736D01*
X543407Y56701D01*
X543340Y56663D01*
X543275Y56622D01*
X543212Y56578D01*
X543152Y56531D01*
X543093Y56480D01*
X543038Y56427D01*
X542985Y56372D01*
X542934Y56313D01*
X542887Y56253D01*
X542843Y56190D01*
X542802Y56125D01*
X542764Y56058D01*
X542729Y55990D01*
X542698Y55919D01*
X542671Y55848D01*
X542646Y55775D01*
X542626Y55701D01*
X542609Y55626D01*
X542596Y55550D01*
X542587Y55474D01*
X542581Y55397D01*
X542579Y55320D01*
X542579Y50621D01*
X536745Y54276D02*
X534395Y54276D01*
X536745Y54275D02*
X536829Y54273D01*
X536914Y54267D01*
X536997Y54257D01*
X537081Y54244D01*
X537163Y54226D01*
X537245Y54205D01*
X537326Y54180D01*
X537405Y54152D01*
X537483Y54119D01*
X537559Y54083D01*
X537634Y54044D01*
X537707Y54001D01*
X537778Y53955D01*
X537846Y53906D01*
X537912Y53854D01*
X537976Y53798D01*
X538037Y53740D01*
X538095Y53679D01*
X538151Y53615D01*
X538203Y53549D01*
X538252Y53481D01*
X538298Y53410D01*
X538341Y53337D01*
X538380Y53262D01*
X538416Y53186D01*
X538449Y53108D01*
X538477Y53029D01*
X538502Y52948D01*
X538523Y52866D01*
X538541Y52784D01*
X538554Y52700D01*
X538564Y52617D01*
X538570Y52532D01*
X538572Y52448D01*
X538570Y52364D01*
X538564Y52279D01*
X538554Y52196D01*
X538541Y52112D01*
X538523Y52030D01*
X538502Y51948D01*
X538477Y51867D01*
X538449Y51788D01*
X538416Y51710D01*
X538380Y51634D01*
X538341Y51559D01*
X538298Y51486D01*
X538252Y51415D01*
X538203Y51347D01*
X538151Y51281D01*
X538095Y51217D01*
X538037Y51156D01*
X537976Y51098D01*
X537912Y51042D01*
X537846Y50990D01*
X537778Y50941D01*
X537707Y50895D01*
X537634Y50852D01*
X537559Y50813D01*
X537483Y50777D01*
X537405Y50744D01*
X537326Y50716D01*
X537245Y50691D01*
X537163Y50670D01*
X537081Y50652D01*
X536997Y50639D01*
X536914Y50629D01*
X536829Y50623D01*
X536745Y50621D01*
X534395Y50621D01*
X534395Y55320D01*
X534396Y55320D02*
X534398Y55397D01*
X534404Y55473D01*
X534413Y55550D01*
X534426Y55626D01*
X534443Y55701D01*
X534463Y55775D01*
X534488Y55848D01*
X534515Y55919D01*
X534546Y55990D01*
X534581Y56058D01*
X534619Y56125D01*
X534660Y56190D01*
X534704Y56253D01*
X534751Y56313D01*
X534802Y56372D01*
X534855Y56427D01*
X534910Y56480D01*
X534969Y56531D01*
X535029Y56578D01*
X535092Y56622D01*
X535157Y56663D01*
X535224Y56701D01*
X535292Y56736D01*
X535363Y56767D01*
X535434Y56794D01*
X535507Y56819D01*
X535582Y56839D01*
X535657Y56856D01*
X535732Y56869D01*
X535809Y56878D01*
X535885Y56884D01*
X535962Y56886D01*
X538050Y56886D01*
X529817Y56886D02*
X529817Y50621D01*
X529817Y56886D02*
X525118Y56886D01*
X525041Y56884D01*
X524965Y56878D01*
X524888Y56869D01*
X524812Y56856D01*
X524737Y56839D01*
X524663Y56819D01*
X524590Y56794D01*
X524519Y56767D01*
X524448Y56736D01*
X524380Y56701D01*
X524313Y56663D01*
X524248Y56622D01*
X524185Y56578D01*
X524125Y56531D01*
X524066Y56480D01*
X524011Y56427D01*
X523958Y56372D01*
X523907Y56313D01*
X523860Y56253D01*
X523816Y56190D01*
X523775Y56125D01*
X523737Y56058D01*
X523702Y55990D01*
X523671Y55919D01*
X523644Y55848D01*
X523619Y55775D01*
X523599Y55701D01*
X523582Y55626D01*
X523569Y55550D01*
X523560Y55473D01*
X523554Y55397D01*
X523552Y55320D01*
X523552Y50621D01*
X526684Y50621D02*
X526684Y56886D01*
X518974Y60019D02*
X518974Y50621D01*
X516363Y50621D01*
X516286Y50623D01*
X516210Y50629D01*
X516133Y50638D01*
X516057Y50651D01*
X515983Y50668D01*
X515908Y50688D01*
X515835Y50713D01*
X515764Y50740D01*
X515693Y50771D01*
X515625Y50806D01*
X515558Y50844D01*
X515493Y50885D01*
X515430Y50929D01*
X515370Y50976D01*
X515311Y51027D01*
X515256Y51080D01*
X515203Y51135D01*
X515152Y51194D01*
X515105Y51254D01*
X515061Y51317D01*
X515020Y51382D01*
X514982Y51449D01*
X514947Y51517D01*
X514916Y51588D01*
X514889Y51659D01*
X514864Y51732D01*
X514844Y51806D01*
X514827Y51881D01*
X514814Y51957D01*
X514805Y52033D01*
X514799Y52110D01*
X514797Y52187D01*
X514797Y55320D01*
X514799Y55397D01*
X514805Y55473D01*
X514814Y55550D01*
X514827Y55626D01*
X514844Y55701D01*
X514864Y55775D01*
X514889Y55848D01*
X514916Y55919D01*
X514947Y55990D01*
X514982Y56058D01*
X515020Y56125D01*
X515061Y56190D01*
X515105Y56253D01*
X515152Y56313D01*
X515203Y56372D01*
X515256Y56427D01*
X515311Y56480D01*
X515370Y56531D01*
X515430Y56578D01*
X515493Y56622D01*
X515558Y56663D01*
X515625Y56701D01*
X515693Y56736D01*
X515764Y56767D01*
X515835Y56794D01*
X515908Y56819D01*
X515983Y56839D01*
X516058Y56856D01*
X516133Y56869D01*
X516210Y56878D01*
X516286Y56884D01*
X516363Y56886D01*
X518974Y56886D01*
X511401Y51143D02*
X511401Y50621D01*
X511401Y51143D02*
X510879Y51143D01*
X510879Y50621D01*
X511401Y50621D01*
X551486Y44779D02*
X554619Y35381D01*
X548354Y35381D02*
X551486Y44779D01*
X549137Y37731D02*
X553836Y37731D01*
X544536Y35381D02*
X544536Y43213D01*
X544534Y43290D01*
X544528Y43366D01*
X544519Y43443D01*
X544506Y43519D01*
X544489Y43594D01*
X544469Y43668D01*
X544444Y43741D01*
X544417Y43812D01*
X544386Y43883D01*
X544351Y43951D01*
X544313Y44018D01*
X544272Y44083D01*
X544228Y44146D01*
X544181Y44206D01*
X544130Y44265D01*
X544077Y44320D01*
X544022Y44373D01*
X543963Y44424D01*
X543903Y44471D01*
X543840Y44515D01*
X543775Y44556D01*
X543708Y44594D01*
X543640Y44629D01*
X543569Y44660D01*
X543498Y44687D01*
X543425Y44712D01*
X543351Y44732D01*
X543276Y44749D01*
X543200Y44762D01*
X543123Y44771D01*
X543047Y44777D01*
X542970Y44779D01*
X542447Y44779D01*
X542447Y41646D02*
X545580Y41646D01*
X540628Y41646D02*
X537495Y41646D01*
X539583Y44779D02*
X539583Y36947D01*
X539581Y36870D01*
X539575Y36794D01*
X539566Y36717D01*
X539553Y36641D01*
X539536Y36566D01*
X539516Y36492D01*
X539491Y36419D01*
X539464Y36348D01*
X539433Y36277D01*
X539398Y36209D01*
X539360Y36142D01*
X539319Y36077D01*
X539275Y36014D01*
X539228Y35954D01*
X539177Y35895D01*
X539124Y35840D01*
X539069Y35787D01*
X539010Y35736D01*
X538950Y35689D01*
X538887Y35645D01*
X538822Y35604D01*
X538755Y35566D01*
X538687Y35531D01*
X538616Y35500D01*
X538545Y35473D01*
X538472Y35448D01*
X538398Y35428D01*
X538323Y35411D01*
X538247Y35398D01*
X538170Y35389D01*
X538094Y35383D01*
X538017Y35381D01*
X537495Y35381D01*
X532501Y35381D02*
X529891Y35381D01*
X532501Y35381D02*
X532578Y35383D01*
X532654Y35389D01*
X532731Y35398D01*
X532807Y35411D01*
X532882Y35428D01*
X532956Y35448D01*
X533029Y35473D01*
X533100Y35500D01*
X533171Y35531D01*
X533239Y35566D01*
X533306Y35604D01*
X533371Y35645D01*
X533434Y35689D01*
X533494Y35736D01*
X533553Y35787D01*
X533608Y35840D01*
X533661Y35895D01*
X533712Y35954D01*
X533759Y36014D01*
X533803Y36077D01*
X533844Y36142D01*
X533882Y36209D01*
X533917Y36277D01*
X533948Y36348D01*
X533975Y36419D01*
X534000Y36492D01*
X534020Y36566D01*
X534037Y36641D01*
X534050Y36717D01*
X534059Y36794D01*
X534065Y36870D01*
X534067Y36947D01*
X534068Y36947D02*
X534068Y39558D01*
X534067Y39558D02*
X534065Y39648D01*
X534059Y39737D01*
X534050Y39827D01*
X534036Y39916D01*
X534019Y40004D01*
X533998Y40091D01*
X533973Y40178D01*
X533944Y40263D01*
X533912Y40347D01*
X533877Y40429D01*
X533837Y40510D01*
X533795Y40589D01*
X533749Y40666D01*
X533699Y40741D01*
X533647Y40814D01*
X533591Y40885D01*
X533533Y40953D01*
X533471Y41018D01*
X533407Y41081D01*
X533340Y41141D01*
X533271Y41198D01*
X533199Y41252D01*
X533125Y41303D01*
X533049Y41351D01*
X532971Y41395D01*
X532891Y41436D01*
X532809Y41474D01*
X532726Y41508D01*
X532641Y41538D01*
X532555Y41565D01*
X532469Y41588D01*
X532381Y41607D01*
X532292Y41622D01*
X532203Y41634D01*
X532114Y41642D01*
X532024Y41646D01*
X531934Y41646D01*
X531844Y41642D01*
X531755Y41634D01*
X531666Y41622D01*
X531577Y41607D01*
X531489Y41588D01*
X531403Y41565D01*
X531317Y41538D01*
X531232Y41508D01*
X531149Y41474D01*
X531067Y41436D01*
X530987Y41395D01*
X530909Y41351D01*
X530833Y41303D01*
X530759Y41252D01*
X530687Y41198D01*
X530618Y41141D01*
X530551Y41081D01*
X530487Y41018D01*
X530425Y40953D01*
X530367Y40885D01*
X530311Y40814D01*
X530259Y40741D01*
X530209Y40666D01*
X530163Y40589D01*
X530121Y40510D01*
X530081Y40429D01*
X530046Y40347D01*
X530014Y40263D01*
X529985Y40178D01*
X529960Y40091D01*
X529939Y40004D01*
X529922Y39916D01*
X529908Y39827D01*
X529899Y39737D01*
X529893Y39648D01*
X529891Y39558D01*
X529891Y38514D01*
X534068Y38514D01*
X525787Y35381D02*
X525787Y41646D01*
X522654Y41646D01*
X522654Y40602D01*
X486119Y65861D02*
X486119Y75259D01*
X482986Y70038D01*
X479854Y75259D01*
X479854Y65861D01*
X474060Y65861D02*
X471449Y65861D01*
X474060Y65861D02*
X474137Y65863D01*
X474213Y65869D01*
X474290Y65878D01*
X474366Y65891D01*
X474441Y65908D01*
X474515Y65928D01*
X474588Y65953D01*
X474659Y65980D01*
X474730Y66011D01*
X474798Y66046D01*
X474865Y66084D01*
X474930Y66125D01*
X474993Y66169D01*
X475053Y66216D01*
X475112Y66267D01*
X475167Y66320D01*
X475220Y66375D01*
X475271Y66434D01*
X475318Y66494D01*
X475362Y66557D01*
X475403Y66622D01*
X475441Y66689D01*
X475476Y66757D01*
X475507Y66828D01*
X475534Y66899D01*
X475559Y66972D01*
X475579Y67046D01*
X475596Y67121D01*
X475609Y67197D01*
X475618Y67274D01*
X475624Y67350D01*
X475626Y67427D01*
X475626Y70038D01*
X475624Y70128D01*
X475618Y70217D01*
X475609Y70307D01*
X475595Y70396D01*
X475578Y70484D01*
X475557Y70571D01*
X475532Y70658D01*
X475503Y70743D01*
X475471Y70827D01*
X475436Y70909D01*
X475396Y70990D01*
X475354Y71069D01*
X475308Y71146D01*
X475258Y71221D01*
X475206Y71294D01*
X475150Y71365D01*
X475092Y71433D01*
X475030Y71498D01*
X474966Y71561D01*
X474899Y71621D01*
X474830Y71678D01*
X474758Y71732D01*
X474684Y71783D01*
X474608Y71831D01*
X474530Y71875D01*
X474450Y71916D01*
X474368Y71954D01*
X474285Y71988D01*
X474200Y72018D01*
X474114Y72045D01*
X474028Y72068D01*
X473940Y72087D01*
X473851Y72102D01*
X473762Y72114D01*
X473673Y72122D01*
X473583Y72126D01*
X473493Y72126D01*
X473403Y72122D01*
X473314Y72114D01*
X473225Y72102D01*
X473136Y72087D01*
X473048Y72068D01*
X472962Y72045D01*
X472876Y72018D01*
X472791Y71988D01*
X472708Y71954D01*
X472626Y71916D01*
X472546Y71875D01*
X472468Y71831D01*
X472392Y71783D01*
X472318Y71732D01*
X472246Y71678D01*
X472177Y71621D01*
X472110Y71561D01*
X472046Y71498D01*
X471984Y71433D01*
X471926Y71365D01*
X471870Y71294D01*
X471818Y71221D01*
X471768Y71146D01*
X471722Y71069D01*
X471680Y70990D01*
X471640Y70909D01*
X471605Y70827D01*
X471573Y70743D01*
X471544Y70658D01*
X471519Y70571D01*
X471498Y70484D01*
X471481Y70396D01*
X471467Y70307D01*
X471458Y70217D01*
X471452Y70128D01*
X471450Y70038D01*
X471449Y70038D02*
X471449Y68994D01*
X475626Y68994D01*
X465920Y69516D02*
X463570Y69516D01*
X465920Y69515D02*
X466004Y69513D01*
X466089Y69507D01*
X466172Y69497D01*
X466256Y69484D01*
X466338Y69466D01*
X466420Y69445D01*
X466501Y69420D01*
X466580Y69392D01*
X466658Y69359D01*
X466734Y69323D01*
X466809Y69284D01*
X466882Y69241D01*
X466953Y69195D01*
X467021Y69146D01*
X467087Y69094D01*
X467151Y69038D01*
X467212Y68980D01*
X467270Y68919D01*
X467326Y68855D01*
X467378Y68789D01*
X467427Y68721D01*
X467473Y68650D01*
X467516Y68577D01*
X467555Y68502D01*
X467591Y68426D01*
X467624Y68348D01*
X467652Y68269D01*
X467677Y68188D01*
X467698Y68106D01*
X467716Y68024D01*
X467729Y67940D01*
X467739Y67857D01*
X467745Y67772D01*
X467747Y67688D01*
X467745Y67604D01*
X467739Y67519D01*
X467729Y67436D01*
X467716Y67352D01*
X467698Y67270D01*
X467677Y67188D01*
X467652Y67107D01*
X467624Y67028D01*
X467591Y66950D01*
X467555Y66874D01*
X467516Y66799D01*
X467473Y66726D01*
X467427Y66655D01*
X467378Y66587D01*
X467326Y66521D01*
X467270Y66457D01*
X467212Y66396D01*
X467151Y66338D01*
X467087Y66282D01*
X467021Y66230D01*
X466953Y66181D01*
X466882Y66135D01*
X466809Y66092D01*
X466734Y66053D01*
X466658Y66017D01*
X466580Y65984D01*
X466501Y65956D01*
X466420Y65931D01*
X466338Y65910D01*
X466256Y65892D01*
X466172Y65879D01*
X466089Y65869D01*
X466004Y65863D01*
X465920Y65861D01*
X463570Y65861D01*
X463570Y70560D01*
X463572Y70637D01*
X463578Y70713D01*
X463587Y70790D01*
X463600Y70866D01*
X463617Y70941D01*
X463637Y71015D01*
X463662Y71088D01*
X463689Y71159D01*
X463720Y71230D01*
X463755Y71298D01*
X463793Y71365D01*
X463834Y71430D01*
X463878Y71493D01*
X463925Y71553D01*
X463976Y71612D01*
X464029Y71667D01*
X464084Y71720D01*
X464143Y71771D01*
X464203Y71818D01*
X464266Y71862D01*
X464331Y71903D01*
X464398Y71941D01*
X464466Y71976D01*
X464537Y72007D01*
X464608Y72034D01*
X464681Y72059D01*
X464756Y72079D01*
X464831Y72096D01*
X464906Y72109D01*
X464983Y72118D01*
X465059Y72124D01*
X465136Y72126D01*
X467225Y72126D01*
X458689Y69516D02*
X456078Y68472D01*
X458689Y69516D02*
X458755Y69544D01*
X458820Y69577D01*
X458883Y69612D01*
X458944Y69651D01*
X459003Y69693D01*
X459059Y69738D01*
X459113Y69786D01*
X459164Y69837D01*
X459213Y69890D01*
X459258Y69947D01*
X459301Y70005D01*
X459340Y70065D01*
X459377Y70128D01*
X459409Y70193D01*
X459438Y70259D01*
X459464Y70326D01*
X459486Y70395D01*
X459504Y70465D01*
X459519Y70536D01*
X459530Y70607D01*
X459537Y70679D01*
X459540Y70751D01*
X459539Y70823D01*
X459534Y70896D01*
X459526Y70967D01*
X459514Y71039D01*
X459498Y71109D01*
X459478Y71178D01*
X459454Y71247D01*
X459427Y71314D01*
X459397Y71379D01*
X459363Y71443D01*
X459325Y71505D01*
X459285Y71565D01*
X459241Y71622D01*
X459194Y71677D01*
X459144Y71730D01*
X459092Y71779D01*
X459037Y71826D01*
X458980Y71870D01*
X458920Y71911D01*
X458858Y71948D01*
X458794Y71983D01*
X458729Y72013D01*
X458662Y72041D01*
X458594Y72064D01*
X458524Y72084D01*
X458454Y72100D01*
X458383Y72113D01*
X458311Y72121D01*
X458239Y72126D01*
X458167Y72127D01*
X458166Y72126D02*
X458015Y72122D01*
X457864Y72114D01*
X457713Y72103D01*
X457562Y72087D01*
X457412Y72067D01*
X457262Y72044D01*
X457113Y72017D01*
X456965Y71986D01*
X456817Y71951D01*
X456671Y71913D01*
X456525Y71870D01*
X456381Y71824D01*
X456238Y71775D01*
X456096Y71722D01*
X455956Y71665D01*
X455817Y71604D01*
X456078Y68472D02*
X456012Y68444D01*
X455947Y68411D01*
X455884Y68376D01*
X455823Y68337D01*
X455764Y68295D01*
X455708Y68250D01*
X455654Y68202D01*
X455603Y68151D01*
X455554Y68098D01*
X455509Y68041D01*
X455466Y67983D01*
X455427Y67923D01*
X455390Y67860D01*
X455358Y67795D01*
X455329Y67729D01*
X455303Y67662D01*
X455281Y67593D01*
X455263Y67523D01*
X455248Y67452D01*
X455237Y67381D01*
X455230Y67309D01*
X455227Y67237D01*
X455228Y67165D01*
X455233Y67092D01*
X455241Y67021D01*
X455253Y66949D01*
X455269Y66879D01*
X455289Y66810D01*
X455313Y66741D01*
X455340Y66674D01*
X455370Y66609D01*
X455404Y66545D01*
X455442Y66483D01*
X455482Y66423D01*
X455526Y66366D01*
X455573Y66311D01*
X455623Y66258D01*
X455675Y66209D01*
X455730Y66162D01*
X455787Y66118D01*
X455847Y66077D01*
X455909Y66040D01*
X455973Y66005D01*
X456038Y65975D01*
X456105Y65947D01*
X456173Y65924D01*
X456243Y65904D01*
X456313Y65888D01*
X456384Y65875D01*
X456456Y65867D01*
X456528Y65862D01*
X456600Y65861D01*
X456810Y65866D01*
X457019Y65877D01*
X457228Y65892D01*
X457436Y65912D01*
X457644Y65938D01*
X457851Y65968D01*
X458058Y66003D01*
X458263Y66043D01*
X458468Y66087D01*
X458671Y66137D01*
X458874Y66191D01*
X459075Y66251D01*
X459274Y66314D01*
X459472Y66383D01*
X451853Y66383D02*
X451853Y65861D01*
X451853Y66383D02*
X451331Y66383D01*
X451331Y65861D01*
X451853Y65861D01*
X481942Y50621D02*
X484031Y50621D01*
X484120Y50623D01*
X484208Y50629D01*
X484296Y50638D01*
X484384Y50651D01*
X484471Y50668D01*
X484557Y50688D01*
X484642Y50713D01*
X484727Y50740D01*
X484810Y50772D01*
X484891Y50806D01*
X484971Y50845D01*
X485049Y50886D01*
X485126Y50931D01*
X485200Y50979D01*
X485273Y51030D01*
X485343Y51084D01*
X485410Y51142D01*
X485476Y51202D01*
X485538Y51264D01*
X485598Y51330D01*
X485656Y51397D01*
X485710Y51467D01*
X485761Y51540D01*
X485809Y51614D01*
X485854Y51691D01*
X485895Y51769D01*
X485934Y51849D01*
X485968Y51930D01*
X486000Y52013D01*
X486027Y52098D01*
X486052Y52183D01*
X486072Y52269D01*
X486089Y52356D01*
X486102Y52444D01*
X486111Y52532D01*
X486117Y52620D01*
X486119Y52709D01*
X486119Y57931D01*
X486117Y58020D01*
X486111Y58108D01*
X486102Y58196D01*
X486089Y58284D01*
X486072Y58371D01*
X486052Y58457D01*
X486027Y58542D01*
X486000Y58627D01*
X485968Y58710D01*
X485934Y58791D01*
X485895Y58871D01*
X485854Y58949D01*
X485809Y59026D01*
X485761Y59100D01*
X485710Y59173D01*
X485656Y59243D01*
X485598Y59310D01*
X485538Y59376D01*
X485476Y59438D01*
X485410Y59498D01*
X485343Y59556D01*
X485273Y59610D01*
X485200Y59661D01*
X485126Y59709D01*
X485049Y59754D01*
X484971Y59795D01*
X484891Y59834D01*
X484810Y59868D01*
X484727Y59900D01*
X484642Y59927D01*
X484557Y59952D01*
X484471Y59972D01*
X484384Y59989D01*
X484296Y60002D01*
X484208Y60011D01*
X484120Y60017D01*
X484031Y60019D01*
X481942Y60019D01*
X478256Y60019D02*
X478256Y50621D01*
X478256Y56886D02*
X475645Y56886D01*
X475568Y56884D01*
X475492Y56878D01*
X475415Y56869D01*
X475339Y56856D01*
X475265Y56839D01*
X475190Y56819D01*
X475117Y56794D01*
X475046Y56767D01*
X474975Y56736D01*
X474907Y56701D01*
X474840Y56663D01*
X474775Y56622D01*
X474712Y56578D01*
X474652Y56531D01*
X474593Y56480D01*
X474538Y56427D01*
X474485Y56372D01*
X474434Y56313D01*
X474387Y56253D01*
X474343Y56190D01*
X474302Y56125D01*
X474264Y56058D01*
X474229Y55990D01*
X474198Y55919D01*
X474171Y55848D01*
X474146Y55775D01*
X474126Y55701D01*
X474109Y55626D01*
X474096Y55550D01*
X474087Y55474D01*
X474081Y55397D01*
X474079Y55320D01*
X474079Y50621D01*
X468245Y54276D02*
X465895Y54276D01*
X468245Y54275D02*
X468329Y54273D01*
X468414Y54267D01*
X468497Y54257D01*
X468581Y54244D01*
X468663Y54226D01*
X468745Y54205D01*
X468826Y54180D01*
X468905Y54152D01*
X468983Y54119D01*
X469059Y54083D01*
X469134Y54044D01*
X469207Y54001D01*
X469278Y53955D01*
X469346Y53906D01*
X469412Y53854D01*
X469476Y53798D01*
X469537Y53740D01*
X469595Y53679D01*
X469651Y53615D01*
X469703Y53549D01*
X469752Y53481D01*
X469798Y53410D01*
X469841Y53337D01*
X469880Y53262D01*
X469916Y53186D01*
X469949Y53108D01*
X469977Y53029D01*
X470002Y52948D01*
X470023Y52866D01*
X470041Y52784D01*
X470054Y52700D01*
X470064Y52617D01*
X470070Y52532D01*
X470072Y52448D01*
X470070Y52364D01*
X470064Y52279D01*
X470054Y52196D01*
X470041Y52112D01*
X470023Y52030D01*
X470002Y51948D01*
X469977Y51867D01*
X469949Y51788D01*
X469916Y51710D01*
X469880Y51634D01*
X469841Y51559D01*
X469798Y51486D01*
X469752Y51415D01*
X469703Y51347D01*
X469651Y51281D01*
X469595Y51217D01*
X469537Y51156D01*
X469476Y51098D01*
X469412Y51042D01*
X469346Y50990D01*
X469278Y50941D01*
X469207Y50895D01*
X469134Y50852D01*
X469059Y50813D01*
X468983Y50777D01*
X468905Y50744D01*
X468826Y50716D01*
X468745Y50691D01*
X468663Y50670D01*
X468581Y50652D01*
X468497Y50639D01*
X468414Y50629D01*
X468329Y50623D01*
X468245Y50621D01*
X465895Y50621D01*
X465895Y55320D01*
X465896Y55320D02*
X465898Y55397D01*
X465904Y55473D01*
X465913Y55550D01*
X465926Y55626D01*
X465943Y55701D01*
X465963Y55775D01*
X465988Y55848D01*
X466015Y55919D01*
X466046Y55990D01*
X466081Y56058D01*
X466119Y56125D01*
X466160Y56190D01*
X466204Y56253D01*
X466251Y56313D01*
X466302Y56372D01*
X466355Y56427D01*
X466410Y56480D01*
X466469Y56531D01*
X466529Y56578D01*
X466592Y56622D01*
X466657Y56663D01*
X466724Y56701D01*
X466792Y56736D01*
X466863Y56767D01*
X466934Y56794D01*
X467007Y56819D01*
X467082Y56839D01*
X467157Y56856D01*
X467232Y56869D01*
X467309Y56878D01*
X467385Y56884D01*
X467462Y56886D01*
X469550Y56886D01*
X461317Y56886D02*
X461317Y50621D01*
X461317Y56886D02*
X456618Y56886D01*
X456541Y56884D01*
X456465Y56878D01*
X456388Y56869D01*
X456312Y56856D01*
X456237Y56839D01*
X456163Y56819D01*
X456090Y56794D01*
X456019Y56767D01*
X455948Y56736D01*
X455880Y56701D01*
X455813Y56663D01*
X455748Y56622D01*
X455685Y56578D01*
X455625Y56531D01*
X455566Y56480D01*
X455511Y56427D01*
X455458Y56372D01*
X455407Y56313D01*
X455360Y56253D01*
X455316Y56190D01*
X455275Y56125D01*
X455237Y56058D01*
X455202Y55990D01*
X455171Y55919D01*
X455144Y55848D01*
X455119Y55775D01*
X455099Y55701D01*
X455082Y55626D01*
X455069Y55550D01*
X455060Y55473D01*
X455054Y55397D01*
X455052Y55320D01*
X455052Y50621D01*
X458184Y50621D02*
X458184Y56886D01*
X450474Y60019D02*
X450474Y50621D01*
X447863Y50621D01*
X447786Y50623D01*
X447710Y50629D01*
X447633Y50638D01*
X447557Y50651D01*
X447483Y50668D01*
X447408Y50688D01*
X447335Y50713D01*
X447264Y50740D01*
X447193Y50771D01*
X447125Y50806D01*
X447058Y50844D01*
X446993Y50885D01*
X446930Y50929D01*
X446870Y50976D01*
X446811Y51027D01*
X446756Y51080D01*
X446703Y51135D01*
X446652Y51194D01*
X446605Y51254D01*
X446561Y51317D01*
X446520Y51382D01*
X446482Y51449D01*
X446447Y51517D01*
X446416Y51588D01*
X446389Y51659D01*
X446364Y51732D01*
X446344Y51806D01*
X446327Y51881D01*
X446314Y51957D01*
X446305Y52033D01*
X446299Y52110D01*
X446297Y52187D01*
X446297Y55320D01*
X446299Y55397D01*
X446305Y55473D01*
X446314Y55550D01*
X446327Y55626D01*
X446344Y55701D01*
X446364Y55775D01*
X446389Y55848D01*
X446416Y55919D01*
X446447Y55990D01*
X446482Y56058D01*
X446520Y56125D01*
X446561Y56190D01*
X446605Y56253D01*
X446652Y56313D01*
X446703Y56372D01*
X446756Y56427D01*
X446811Y56480D01*
X446870Y56531D01*
X446930Y56578D01*
X446993Y56622D01*
X447058Y56663D01*
X447125Y56701D01*
X447193Y56736D01*
X447264Y56767D01*
X447335Y56794D01*
X447408Y56819D01*
X447483Y56839D01*
X447558Y56856D01*
X447633Y56869D01*
X447710Y56878D01*
X447786Y56884D01*
X447863Y56886D01*
X450474Y56886D01*
X442901Y51143D02*
X442901Y50621D01*
X442901Y51143D02*
X442379Y51143D01*
X442379Y50621D01*
X442901Y50621D01*
X483508Y40602D02*
X486119Y40602D01*
X483508Y40603D02*
X483407Y40601D01*
X483306Y40595D01*
X483205Y40585D01*
X483105Y40572D01*
X483005Y40554D01*
X482906Y40533D01*
X482808Y40507D01*
X482711Y40478D01*
X482615Y40446D01*
X482521Y40409D01*
X482428Y40369D01*
X482336Y40325D01*
X482247Y40278D01*
X482159Y40227D01*
X482073Y40173D01*
X481990Y40116D01*
X481908Y40056D01*
X481830Y39992D01*
X481753Y39926D01*
X481680Y39856D01*
X481609Y39784D01*
X481541Y39709D01*
X481476Y39631D01*
X481414Y39551D01*
X481355Y39469D01*
X481299Y39384D01*
X481247Y39298D01*
X481198Y39209D01*
X481152Y39118D01*
X481111Y39026D01*
X481072Y38932D01*
X481038Y38837D01*
X481007Y38741D01*
X480980Y38643D01*
X480956Y38545D01*
X480937Y38445D01*
X480921Y38345D01*
X480909Y38245D01*
X480901Y38144D01*
X480897Y38043D01*
X480897Y37941D01*
X480901Y37840D01*
X480909Y37739D01*
X480921Y37639D01*
X480937Y37539D01*
X480956Y37439D01*
X480980Y37341D01*
X481007Y37243D01*
X481038Y37147D01*
X481072Y37052D01*
X481111Y36958D01*
X481152Y36866D01*
X481198Y36775D01*
X481247Y36687D01*
X481299Y36600D01*
X481355Y36515D01*
X481414Y36433D01*
X481476Y36353D01*
X481541Y36275D01*
X481609Y36200D01*
X481680Y36128D01*
X481753Y36058D01*
X481830Y35992D01*
X481908Y35928D01*
X481990Y35868D01*
X482073Y35811D01*
X482159Y35757D01*
X482247Y35706D01*
X482336Y35659D01*
X482428Y35615D01*
X482521Y35575D01*
X482615Y35538D01*
X482711Y35506D01*
X482808Y35477D01*
X482906Y35451D01*
X483005Y35430D01*
X483105Y35412D01*
X483205Y35399D01*
X483306Y35389D01*
X483407Y35383D01*
X483508Y35381D01*
X486119Y35381D01*
X486119Y44779D01*
X483508Y44779D01*
X483418Y44777D01*
X483329Y44771D01*
X483239Y44762D01*
X483150Y44748D01*
X483062Y44731D01*
X482975Y44710D01*
X482888Y44685D01*
X482803Y44656D01*
X482719Y44624D01*
X482637Y44589D01*
X482556Y44549D01*
X482477Y44507D01*
X482400Y44461D01*
X482325Y44411D01*
X482252Y44359D01*
X482181Y44303D01*
X482113Y44245D01*
X482048Y44183D01*
X481985Y44119D01*
X481925Y44052D01*
X481868Y43983D01*
X481814Y43911D01*
X481763Y43837D01*
X481715Y43761D01*
X481671Y43683D01*
X481630Y43603D01*
X481592Y43521D01*
X481558Y43438D01*
X481528Y43353D01*
X481501Y43267D01*
X481478Y43181D01*
X481459Y43093D01*
X481444Y43004D01*
X481432Y42915D01*
X481424Y42826D01*
X481420Y42736D01*
X481420Y42646D01*
X481424Y42556D01*
X481432Y42467D01*
X481444Y42378D01*
X481459Y42289D01*
X481478Y42201D01*
X481501Y42115D01*
X481528Y42029D01*
X481558Y41944D01*
X481592Y41861D01*
X481630Y41779D01*
X481671Y41699D01*
X481715Y41621D01*
X481763Y41545D01*
X481814Y41471D01*
X481868Y41399D01*
X481925Y41330D01*
X481985Y41263D01*
X482048Y41199D01*
X482113Y41137D01*
X482181Y41079D01*
X482252Y41023D01*
X482325Y40971D01*
X482400Y40921D01*
X482477Y40875D01*
X482556Y40833D01*
X482637Y40793D01*
X482719Y40758D01*
X482803Y40726D01*
X482888Y40697D01*
X482975Y40672D01*
X483062Y40651D01*
X483150Y40634D01*
X483239Y40620D01*
X483329Y40611D01*
X483418Y40605D01*
X483508Y40603D01*
X475932Y35381D02*
X473322Y35381D01*
X475932Y35381D02*
X476009Y35383D01*
X476085Y35389D01*
X476162Y35398D01*
X476238Y35411D01*
X476313Y35428D01*
X476387Y35448D01*
X476460Y35473D01*
X476531Y35500D01*
X476602Y35531D01*
X476670Y35566D01*
X476737Y35604D01*
X476802Y35645D01*
X476865Y35689D01*
X476925Y35736D01*
X476984Y35787D01*
X477039Y35840D01*
X477092Y35895D01*
X477143Y35954D01*
X477190Y36014D01*
X477234Y36077D01*
X477275Y36142D01*
X477313Y36209D01*
X477348Y36277D01*
X477379Y36348D01*
X477406Y36419D01*
X477431Y36492D01*
X477451Y36566D01*
X477468Y36641D01*
X477481Y36717D01*
X477490Y36794D01*
X477496Y36870D01*
X477498Y36947D01*
X477499Y36947D02*
X477499Y39558D01*
X477498Y39558D02*
X477496Y39648D01*
X477490Y39737D01*
X477481Y39827D01*
X477467Y39916D01*
X477450Y40004D01*
X477429Y40091D01*
X477404Y40178D01*
X477375Y40263D01*
X477343Y40347D01*
X477308Y40429D01*
X477268Y40510D01*
X477226Y40589D01*
X477180Y40666D01*
X477130Y40741D01*
X477078Y40814D01*
X477022Y40885D01*
X476964Y40953D01*
X476902Y41018D01*
X476838Y41081D01*
X476771Y41141D01*
X476702Y41198D01*
X476630Y41252D01*
X476556Y41303D01*
X476480Y41351D01*
X476402Y41395D01*
X476322Y41436D01*
X476240Y41474D01*
X476157Y41508D01*
X476072Y41538D01*
X475986Y41565D01*
X475900Y41588D01*
X475812Y41607D01*
X475723Y41622D01*
X475634Y41634D01*
X475545Y41642D01*
X475455Y41646D01*
X475365Y41646D01*
X475275Y41642D01*
X475186Y41634D01*
X475097Y41622D01*
X475008Y41607D01*
X474920Y41588D01*
X474834Y41565D01*
X474748Y41538D01*
X474663Y41508D01*
X474580Y41474D01*
X474498Y41436D01*
X474418Y41395D01*
X474340Y41351D01*
X474264Y41303D01*
X474190Y41252D01*
X474118Y41198D01*
X474049Y41141D01*
X473982Y41081D01*
X473918Y41018D01*
X473856Y40953D01*
X473798Y40885D01*
X473742Y40814D01*
X473690Y40741D01*
X473640Y40666D01*
X473594Y40589D01*
X473552Y40510D01*
X473512Y40429D01*
X473477Y40347D01*
X473445Y40263D01*
X473416Y40178D01*
X473391Y40091D01*
X473370Y40004D01*
X473353Y39916D01*
X473339Y39827D01*
X473330Y39737D01*
X473324Y39648D01*
X473322Y39558D01*
X473322Y38514D01*
X477499Y38514D01*
X469069Y35381D02*
X469069Y43213D01*
X469067Y43290D01*
X469061Y43366D01*
X469052Y43443D01*
X469039Y43519D01*
X469022Y43594D01*
X469002Y43668D01*
X468977Y43741D01*
X468950Y43812D01*
X468919Y43883D01*
X468884Y43951D01*
X468846Y44018D01*
X468805Y44083D01*
X468761Y44146D01*
X468714Y44206D01*
X468663Y44265D01*
X468610Y44320D01*
X468555Y44373D01*
X468496Y44424D01*
X468436Y44471D01*
X468373Y44515D01*
X468308Y44556D01*
X468241Y44594D01*
X468173Y44629D01*
X468102Y44660D01*
X468031Y44687D01*
X467958Y44712D01*
X467884Y44732D01*
X467809Y44749D01*
X467733Y44762D01*
X467656Y44771D01*
X467580Y44777D01*
X467503Y44779D01*
X466981Y44779D01*
X466981Y41646D02*
X470113Y41646D01*
X464392Y39558D02*
X464392Y37469D01*
X464392Y39558D02*
X464390Y39648D01*
X464384Y39737D01*
X464375Y39827D01*
X464361Y39916D01*
X464344Y40004D01*
X464323Y40091D01*
X464298Y40178D01*
X464269Y40263D01*
X464237Y40347D01*
X464202Y40429D01*
X464162Y40510D01*
X464120Y40589D01*
X464074Y40666D01*
X464024Y40741D01*
X463972Y40814D01*
X463916Y40885D01*
X463858Y40953D01*
X463796Y41018D01*
X463732Y41081D01*
X463665Y41141D01*
X463596Y41198D01*
X463524Y41252D01*
X463450Y41303D01*
X463374Y41351D01*
X463296Y41395D01*
X463216Y41436D01*
X463134Y41474D01*
X463051Y41508D01*
X462966Y41538D01*
X462880Y41565D01*
X462794Y41588D01*
X462706Y41607D01*
X462617Y41622D01*
X462528Y41634D01*
X462439Y41642D01*
X462349Y41646D01*
X462259Y41646D01*
X462169Y41642D01*
X462080Y41634D01*
X461991Y41622D01*
X461902Y41607D01*
X461814Y41588D01*
X461728Y41565D01*
X461642Y41538D01*
X461557Y41508D01*
X461474Y41474D01*
X461392Y41436D01*
X461312Y41395D01*
X461234Y41351D01*
X461158Y41303D01*
X461084Y41252D01*
X461012Y41198D01*
X460943Y41141D01*
X460876Y41081D01*
X460812Y41018D01*
X460750Y40953D01*
X460692Y40885D01*
X460636Y40814D01*
X460584Y40741D01*
X460534Y40666D01*
X460488Y40589D01*
X460446Y40510D01*
X460406Y40429D01*
X460371Y40347D01*
X460339Y40263D01*
X460310Y40178D01*
X460285Y40091D01*
X460264Y40004D01*
X460247Y39916D01*
X460233Y39827D01*
X460224Y39737D01*
X460218Y39648D01*
X460216Y39558D01*
X460215Y39558D02*
X460215Y37469D01*
X460216Y37469D02*
X460218Y37379D01*
X460224Y37290D01*
X460233Y37200D01*
X460247Y37111D01*
X460264Y37023D01*
X460285Y36936D01*
X460310Y36849D01*
X460339Y36764D01*
X460371Y36680D01*
X460406Y36598D01*
X460446Y36517D01*
X460488Y36438D01*
X460534Y36361D01*
X460584Y36286D01*
X460636Y36213D01*
X460692Y36142D01*
X460750Y36074D01*
X460812Y36009D01*
X460876Y35946D01*
X460943Y35886D01*
X461012Y35829D01*
X461084Y35775D01*
X461158Y35724D01*
X461234Y35676D01*
X461312Y35632D01*
X461392Y35591D01*
X461474Y35553D01*
X461557Y35519D01*
X461642Y35489D01*
X461728Y35462D01*
X461814Y35439D01*
X461902Y35420D01*
X461991Y35405D01*
X462080Y35393D01*
X462169Y35385D01*
X462259Y35381D01*
X462349Y35381D01*
X462439Y35385D01*
X462528Y35393D01*
X462617Y35405D01*
X462706Y35420D01*
X462794Y35439D01*
X462880Y35462D01*
X462966Y35489D01*
X463051Y35519D01*
X463134Y35553D01*
X463216Y35591D01*
X463296Y35632D01*
X463374Y35676D01*
X463450Y35724D01*
X463524Y35775D01*
X463596Y35829D01*
X463665Y35886D01*
X463732Y35946D01*
X463796Y36009D01*
X463858Y36074D01*
X463916Y36142D01*
X463972Y36213D01*
X464024Y36286D01*
X464074Y36361D01*
X464120Y36438D01*
X464162Y36517D01*
X464202Y36598D01*
X464237Y36680D01*
X464269Y36764D01*
X464298Y36849D01*
X464323Y36936D01*
X464344Y37023D01*
X464361Y37111D01*
X464375Y37200D01*
X464384Y37290D01*
X464390Y37379D01*
X464392Y37469D01*
X456111Y35381D02*
X456111Y41646D01*
X452979Y41646D01*
X452979Y40602D01*
X448500Y35381D02*
X445890Y35381D01*
X448500Y35381D02*
X448577Y35383D01*
X448653Y35389D01*
X448730Y35398D01*
X448806Y35411D01*
X448881Y35428D01*
X448955Y35448D01*
X449028Y35473D01*
X449099Y35500D01*
X449170Y35531D01*
X449238Y35566D01*
X449305Y35604D01*
X449370Y35645D01*
X449433Y35689D01*
X449493Y35736D01*
X449552Y35787D01*
X449607Y35840D01*
X449660Y35895D01*
X449711Y35954D01*
X449758Y36014D01*
X449802Y36077D01*
X449843Y36142D01*
X449881Y36209D01*
X449916Y36277D01*
X449947Y36348D01*
X449974Y36419D01*
X449999Y36492D01*
X450019Y36566D01*
X450036Y36641D01*
X450049Y36717D01*
X450058Y36794D01*
X450064Y36870D01*
X450066Y36947D01*
X450067Y36947D02*
X450067Y39558D01*
X450066Y39558D02*
X450064Y39648D01*
X450058Y39737D01*
X450049Y39827D01*
X450035Y39916D01*
X450018Y40004D01*
X449997Y40091D01*
X449972Y40178D01*
X449943Y40263D01*
X449911Y40347D01*
X449876Y40429D01*
X449836Y40510D01*
X449794Y40589D01*
X449748Y40666D01*
X449698Y40741D01*
X449646Y40814D01*
X449590Y40885D01*
X449532Y40953D01*
X449470Y41018D01*
X449406Y41081D01*
X449339Y41141D01*
X449270Y41198D01*
X449198Y41252D01*
X449124Y41303D01*
X449048Y41351D01*
X448970Y41395D01*
X448890Y41436D01*
X448808Y41474D01*
X448725Y41508D01*
X448640Y41538D01*
X448554Y41565D01*
X448468Y41588D01*
X448380Y41607D01*
X448291Y41622D01*
X448202Y41634D01*
X448113Y41642D01*
X448023Y41646D01*
X447933Y41646D01*
X447843Y41642D01*
X447754Y41634D01*
X447665Y41622D01*
X447576Y41607D01*
X447488Y41588D01*
X447402Y41565D01*
X447316Y41538D01*
X447231Y41508D01*
X447148Y41474D01*
X447066Y41436D01*
X446986Y41395D01*
X446908Y41351D01*
X446832Y41303D01*
X446758Y41252D01*
X446686Y41198D01*
X446617Y41141D01*
X446550Y41081D01*
X446486Y41018D01*
X446424Y40953D01*
X446366Y40885D01*
X446310Y40814D01*
X446258Y40741D01*
X446208Y40666D01*
X446162Y40589D01*
X446120Y40510D01*
X446080Y40429D01*
X446045Y40347D01*
X446013Y40263D01*
X445984Y40178D01*
X445959Y40091D01*
X445938Y40004D01*
X445921Y39916D01*
X445907Y39827D01*
X445898Y39737D01*
X445892Y39648D01*
X445890Y39558D01*
X445890Y38514D01*
X450067Y38514D01*
X264619Y46381D02*
X261486Y55779D01*
X258354Y46381D01*
X259137Y48731D02*
X263836Y48731D01*
X254684Y46381D02*
X254684Y52646D01*
X251552Y52646D01*
X251552Y51602D01*
X244508Y55779D02*
X244508Y46381D01*
X247119Y46381D01*
X247196Y46383D01*
X247272Y46389D01*
X247349Y46398D01*
X247425Y46411D01*
X247500Y46428D01*
X247574Y46448D01*
X247647Y46473D01*
X247718Y46500D01*
X247789Y46531D01*
X247857Y46566D01*
X247924Y46604D01*
X247989Y46645D01*
X248052Y46689D01*
X248112Y46736D01*
X248171Y46787D01*
X248226Y46840D01*
X248279Y46895D01*
X248330Y46954D01*
X248377Y47014D01*
X248421Y47077D01*
X248462Y47142D01*
X248500Y47209D01*
X248535Y47277D01*
X248566Y47348D01*
X248593Y47419D01*
X248618Y47492D01*
X248638Y47566D01*
X248655Y47641D01*
X248668Y47717D01*
X248677Y47794D01*
X248683Y47870D01*
X248685Y47947D01*
X248685Y51080D01*
X248683Y51157D01*
X248677Y51233D01*
X248668Y51310D01*
X248655Y51386D01*
X248638Y51461D01*
X248618Y51535D01*
X248593Y51608D01*
X248566Y51679D01*
X248535Y51750D01*
X248500Y51818D01*
X248462Y51885D01*
X248421Y51950D01*
X248377Y52013D01*
X248330Y52073D01*
X248279Y52132D01*
X248226Y52187D01*
X248171Y52240D01*
X248112Y52291D01*
X248052Y52338D01*
X247989Y52382D01*
X247924Y52423D01*
X247857Y52461D01*
X247789Y52496D01*
X247718Y52527D01*
X247647Y52554D01*
X247574Y52579D01*
X247500Y52599D01*
X247425Y52616D01*
X247349Y52629D01*
X247272Y52638D01*
X247196Y52644D01*
X247119Y52646D01*
X244508Y52646D01*
X240105Y52646D02*
X240105Y47947D01*
X240103Y47870D01*
X240097Y47794D01*
X240088Y47717D01*
X240075Y47641D01*
X240058Y47566D01*
X240038Y47492D01*
X240013Y47419D01*
X239986Y47348D01*
X239955Y47277D01*
X239920Y47209D01*
X239882Y47142D01*
X239841Y47077D01*
X239797Y47014D01*
X239750Y46954D01*
X239699Y46895D01*
X239646Y46840D01*
X239591Y46787D01*
X239532Y46736D01*
X239472Y46689D01*
X239409Y46645D01*
X239344Y46604D01*
X239277Y46566D01*
X239209Y46531D01*
X239138Y46500D01*
X239067Y46473D01*
X238994Y46448D01*
X238920Y46428D01*
X238845Y46411D01*
X238769Y46398D01*
X238692Y46389D01*
X238616Y46383D01*
X238539Y46381D01*
X235928Y46381D01*
X235928Y52646D01*
X231921Y52646D02*
X231921Y46381D01*
X232182Y55257D02*
X232182Y55779D01*
X231660Y55779D01*
X231660Y55257D01*
X232182Y55257D01*
X227913Y52646D02*
X227913Y46381D01*
X227913Y52646D02*
X225303Y52646D01*
X225226Y52644D01*
X225150Y52638D01*
X225073Y52629D01*
X224997Y52616D01*
X224923Y52599D01*
X224848Y52579D01*
X224775Y52554D01*
X224704Y52527D01*
X224633Y52496D01*
X224565Y52461D01*
X224498Y52423D01*
X224433Y52382D01*
X224370Y52338D01*
X224310Y52291D01*
X224251Y52240D01*
X224196Y52187D01*
X224143Y52132D01*
X224092Y52073D01*
X224045Y52013D01*
X224001Y51950D01*
X223960Y51885D01*
X223922Y51818D01*
X223887Y51750D01*
X223856Y51679D01*
X223829Y51608D01*
X223804Y51535D01*
X223784Y51461D01*
X223767Y51386D01*
X223754Y51310D01*
X223745Y51234D01*
X223739Y51157D01*
X223737Y51080D01*
X223736Y51080D02*
X223736Y46381D01*
X219684Y48469D02*
X219684Y50558D01*
X219683Y50558D02*
X219681Y50648D01*
X219675Y50737D01*
X219666Y50827D01*
X219652Y50916D01*
X219635Y51004D01*
X219614Y51091D01*
X219589Y51178D01*
X219560Y51263D01*
X219528Y51347D01*
X219493Y51429D01*
X219453Y51510D01*
X219411Y51589D01*
X219365Y51666D01*
X219315Y51741D01*
X219263Y51814D01*
X219207Y51885D01*
X219149Y51953D01*
X219087Y52018D01*
X219023Y52081D01*
X218956Y52141D01*
X218887Y52198D01*
X218815Y52252D01*
X218741Y52303D01*
X218665Y52351D01*
X218587Y52395D01*
X218507Y52436D01*
X218425Y52474D01*
X218342Y52508D01*
X218257Y52538D01*
X218171Y52565D01*
X218085Y52588D01*
X217997Y52607D01*
X217908Y52622D01*
X217819Y52634D01*
X217730Y52642D01*
X217640Y52646D01*
X217550Y52646D01*
X217460Y52642D01*
X217371Y52634D01*
X217282Y52622D01*
X217193Y52607D01*
X217105Y52588D01*
X217019Y52565D01*
X216933Y52538D01*
X216848Y52508D01*
X216765Y52474D01*
X216683Y52436D01*
X216603Y52395D01*
X216525Y52351D01*
X216449Y52303D01*
X216375Y52252D01*
X216303Y52198D01*
X216234Y52141D01*
X216167Y52081D01*
X216103Y52018D01*
X216041Y51953D01*
X215983Y51885D01*
X215927Y51814D01*
X215875Y51741D01*
X215825Y51666D01*
X215779Y51589D01*
X215737Y51510D01*
X215697Y51429D01*
X215662Y51347D01*
X215630Y51263D01*
X215601Y51178D01*
X215576Y51091D01*
X215555Y51004D01*
X215538Y50916D01*
X215524Y50827D01*
X215515Y50737D01*
X215509Y50648D01*
X215507Y50558D01*
X215507Y48469D01*
X215509Y48379D01*
X215515Y48290D01*
X215524Y48200D01*
X215538Y48111D01*
X215555Y48023D01*
X215576Y47936D01*
X215601Y47849D01*
X215630Y47764D01*
X215662Y47680D01*
X215697Y47598D01*
X215737Y47517D01*
X215779Y47438D01*
X215825Y47361D01*
X215875Y47286D01*
X215927Y47213D01*
X215983Y47142D01*
X216041Y47074D01*
X216103Y47009D01*
X216167Y46946D01*
X216234Y46886D01*
X216303Y46829D01*
X216375Y46775D01*
X216449Y46724D01*
X216525Y46676D01*
X216603Y46632D01*
X216683Y46591D01*
X216765Y46553D01*
X216848Y46519D01*
X216933Y46489D01*
X217019Y46462D01*
X217105Y46439D01*
X217193Y46420D01*
X217282Y46405D01*
X217371Y46393D01*
X217460Y46385D01*
X217550Y46381D01*
X217640Y46381D01*
X217730Y46385D01*
X217819Y46393D01*
X217908Y46405D01*
X217997Y46420D01*
X218085Y46439D01*
X218171Y46462D01*
X218257Y46489D01*
X218342Y46519D01*
X218425Y46553D01*
X218507Y46591D01*
X218587Y46632D01*
X218665Y46676D01*
X218741Y46724D01*
X218815Y46775D01*
X218887Y46829D01*
X218956Y46886D01*
X219023Y46946D01*
X219087Y47009D01*
X219149Y47074D01*
X219207Y47142D01*
X219263Y47213D01*
X219315Y47286D01*
X219365Y47361D01*
X219411Y47438D01*
X219453Y47517D01*
X219493Y47598D01*
X219528Y47680D01*
X219560Y47764D01*
X219589Y47849D01*
X219614Y47936D01*
X219635Y48023D01*
X219652Y48111D01*
X219666Y48200D01*
X219675Y48290D01*
X219681Y48379D01*
X219683Y48469D01*
X206490Y46381D02*
X206490Y55779D01*
X201269Y46381D01*
X201269Y55779D01*
X195347Y50036D02*
X192997Y50036D01*
X195347Y50035D02*
X195431Y50033D01*
X195516Y50027D01*
X195599Y50017D01*
X195683Y50004D01*
X195765Y49986D01*
X195847Y49965D01*
X195928Y49940D01*
X196007Y49912D01*
X196085Y49879D01*
X196161Y49843D01*
X196236Y49804D01*
X196309Y49761D01*
X196380Y49715D01*
X196448Y49666D01*
X196514Y49614D01*
X196578Y49558D01*
X196639Y49500D01*
X196697Y49439D01*
X196753Y49375D01*
X196805Y49309D01*
X196854Y49241D01*
X196900Y49170D01*
X196943Y49097D01*
X196982Y49022D01*
X197018Y48946D01*
X197051Y48868D01*
X197079Y48789D01*
X197104Y48708D01*
X197125Y48626D01*
X197143Y48544D01*
X197156Y48460D01*
X197166Y48377D01*
X197172Y48292D01*
X197174Y48208D01*
X197172Y48124D01*
X197166Y48039D01*
X197156Y47956D01*
X197143Y47872D01*
X197125Y47790D01*
X197104Y47708D01*
X197079Y47627D01*
X197051Y47548D01*
X197018Y47470D01*
X196982Y47394D01*
X196943Y47319D01*
X196900Y47246D01*
X196854Y47175D01*
X196805Y47107D01*
X196753Y47041D01*
X196697Y46977D01*
X196639Y46916D01*
X196578Y46858D01*
X196514Y46802D01*
X196448Y46750D01*
X196380Y46701D01*
X196309Y46655D01*
X196236Y46612D01*
X196161Y46573D01*
X196085Y46537D01*
X196007Y46504D01*
X195928Y46476D01*
X195847Y46451D01*
X195765Y46430D01*
X195683Y46412D01*
X195599Y46399D01*
X195516Y46389D01*
X195431Y46383D01*
X195347Y46381D01*
X192997Y46381D01*
X192997Y51080D01*
X192998Y51080D02*
X193000Y51157D01*
X193006Y51233D01*
X193015Y51310D01*
X193028Y51386D01*
X193045Y51461D01*
X193065Y51535D01*
X193090Y51608D01*
X193117Y51679D01*
X193148Y51750D01*
X193183Y51818D01*
X193221Y51885D01*
X193262Y51950D01*
X193306Y52013D01*
X193353Y52073D01*
X193404Y52132D01*
X193457Y52187D01*
X193512Y52240D01*
X193571Y52291D01*
X193631Y52338D01*
X193694Y52382D01*
X193759Y52423D01*
X193826Y52461D01*
X193894Y52496D01*
X193965Y52527D01*
X194036Y52554D01*
X194109Y52579D01*
X194184Y52599D01*
X194259Y52616D01*
X194334Y52629D01*
X194411Y52638D01*
X194487Y52644D01*
X194564Y52646D01*
X196652Y52646D01*
X188594Y52646D02*
X188594Y46381D01*
X188594Y52646D02*
X185984Y52646D01*
X185907Y52644D01*
X185831Y52638D01*
X185754Y52629D01*
X185678Y52616D01*
X185604Y52599D01*
X185529Y52579D01*
X185456Y52554D01*
X185385Y52527D01*
X185314Y52496D01*
X185246Y52461D01*
X185179Y52423D01*
X185114Y52382D01*
X185051Y52338D01*
X184991Y52291D01*
X184932Y52240D01*
X184877Y52187D01*
X184824Y52132D01*
X184773Y52073D01*
X184726Y52013D01*
X184682Y51950D01*
X184641Y51885D01*
X184603Y51818D01*
X184568Y51750D01*
X184537Y51679D01*
X184510Y51608D01*
X184485Y51535D01*
X184465Y51461D01*
X184448Y51386D01*
X184435Y51310D01*
X184426Y51234D01*
X184420Y51157D01*
X184418Y51080D01*
X184417Y51080D02*
X184417Y46381D01*
X180365Y48469D02*
X180365Y50558D01*
X180364Y50558D02*
X180362Y50648D01*
X180356Y50737D01*
X180347Y50827D01*
X180333Y50916D01*
X180316Y51004D01*
X180295Y51091D01*
X180270Y51178D01*
X180241Y51263D01*
X180209Y51347D01*
X180174Y51429D01*
X180134Y51510D01*
X180092Y51589D01*
X180046Y51666D01*
X179996Y51741D01*
X179944Y51814D01*
X179888Y51885D01*
X179830Y51953D01*
X179768Y52018D01*
X179704Y52081D01*
X179637Y52141D01*
X179568Y52198D01*
X179496Y52252D01*
X179422Y52303D01*
X179346Y52351D01*
X179268Y52395D01*
X179188Y52436D01*
X179106Y52474D01*
X179023Y52508D01*
X178938Y52538D01*
X178852Y52565D01*
X178766Y52588D01*
X178678Y52607D01*
X178589Y52622D01*
X178500Y52634D01*
X178411Y52642D01*
X178321Y52646D01*
X178231Y52646D01*
X178141Y52642D01*
X178052Y52634D01*
X177963Y52622D01*
X177874Y52607D01*
X177786Y52588D01*
X177700Y52565D01*
X177614Y52538D01*
X177529Y52508D01*
X177446Y52474D01*
X177364Y52436D01*
X177284Y52395D01*
X177206Y52351D01*
X177130Y52303D01*
X177056Y52252D01*
X176984Y52198D01*
X176915Y52141D01*
X176848Y52081D01*
X176784Y52018D01*
X176722Y51953D01*
X176664Y51885D01*
X176608Y51814D01*
X176556Y51741D01*
X176506Y51666D01*
X176460Y51589D01*
X176418Y51510D01*
X176378Y51429D01*
X176343Y51347D01*
X176311Y51263D01*
X176282Y51178D01*
X176257Y51091D01*
X176236Y51004D01*
X176219Y50916D01*
X176205Y50827D01*
X176196Y50737D01*
X176190Y50648D01*
X176188Y50558D01*
X176188Y48469D01*
X176190Y48379D01*
X176196Y48290D01*
X176205Y48200D01*
X176219Y48111D01*
X176236Y48023D01*
X176257Y47936D01*
X176282Y47849D01*
X176311Y47764D01*
X176343Y47680D01*
X176378Y47598D01*
X176418Y47517D01*
X176460Y47438D01*
X176506Y47361D01*
X176556Y47286D01*
X176608Y47213D01*
X176664Y47142D01*
X176722Y47074D01*
X176784Y47009D01*
X176848Y46946D01*
X176915Y46886D01*
X176984Y46829D01*
X177056Y46775D01*
X177130Y46724D01*
X177206Y46676D01*
X177284Y46632D01*
X177364Y46591D01*
X177446Y46553D01*
X177529Y46519D01*
X177614Y46489D01*
X177700Y46462D01*
X177786Y46439D01*
X177874Y46420D01*
X177963Y46405D01*
X178052Y46393D01*
X178141Y46385D01*
X178231Y46381D01*
X178321Y46381D01*
X178411Y46385D01*
X178500Y46393D01*
X178589Y46405D01*
X178678Y46420D01*
X178766Y46439D01*
X178852Y46462D01*
X178938Y46489D01*
X179023Y46519D01*
X179106Y46553D01*
X179188Y46591D01*
X179268Y46632D01*
X179346Y46676D01*
X179422Y46724D01*
X179496Y46775D01*
X179568Y46829D01*
X179637Y46886D01*
X179704Y46946D01*
X179768Y47009D01*
X179830Y47074D01*
X179888Y47142D01*
X179944Y47213D01*
X179996Y47286D01*
X180046Y47361D01*
X180092Y47438D01*
X180134Y47517D01*
X180174Y47598D01*
X180209Y47680D01*
X180241Y47764D01*
X180270Y47849D01*
X180295Y47936D01*
X180316Y48023D01*
X180333Y48111D01*
X180347Y48200D01*
X180356Y48290D01*
X180362Y48379D01*
X180364Y48469D01*
X92521Y188941D02*
X92521Y191029D01*
X92521Y188941D02*
X92523Y188852D01*
X92529Y188764D01*
X92538Y188676D01*
X92551Y188588D01*
X92568Y188501D01*
X92588Y188415D01*
X92613Y188330D01*
X92640Y188245D01*
X92672Y188162D01*
X92706Y188081D01*
X92745Y188001D01*
X92786Y187923D01*
X92831Y187846D01*
X92879Y187772D01*
X92930Y187699D01*
X92984Y187629D01*
X93042Y187562D01*
X93102Y187496D01*
X93164Y187434D01*
X93230Y187374D01*
X93297Y187316D01*
X93367Y187262D01*
X93440Y187211D01*
X93514Y187163D01*
X93591Y187118D01*
X93669Y187077D01*
X93749Y187038D01*
X93830Y187004D01*
X93913Y186972D01*
X93998Y186945D01*
X94083Y186920D01*
X94169Y186900D01*
X94256Y186883D01*
X94344Y186870D01*
X94432Y186861D01*
X94520Y186855D01*
X94609Y186853D01*
X94609Y186852D02*
X99831Y186852D01*
X99831Y186853D02*
X99922Y186855D01*
X100013Y186861D01*
X100104Y186871D01*
X100194Y186885D01*
X100283Y186902D01*
X100371Y186924D01*
X100459Y186950D01*
X100545Y186979D01*
X100630Y187012D01*
X100713Y187049D01*
X100795Y187089D01*
X100875Y187133D01*
X100953Y187180D01*
X101029Y187231D01*
X101102Y187284D01*
X101173Y187341D01*
X101242Y187402D01*
X101307Y187465D01*
X101370Y187530D01*
X101430Y187599D01*
X101488Y187670D01*
X101541Y187743D01*
X101592Y187819D01*
X101639Y187897D01*
X101683Y187977D01*
X101723Y188059D01*
X101760Y188142D01*
X101793Y188227D01*
X101822Y188313D01*
X101848Y188401D01*
X101870Y188489D01*
X101887Y188578D01*
X101901Y188668D01*
X101911Y188759D01*
X101917Y188850D01*
X101919Y188941D01*
X101919Y191029D01*
X99831Y194498D02*
X101919Y197108D01*
X92521Y197108D01*
X92521Y194498D02*
X92521Y199719D01*
X148981Y156058D02*
X148981Y153969D01*
X148983Y153880D01*
X148989Y153792D01*
X148998Y153704D01*
X149011Y153616D01*
X149028Y153529D01*
X149048Y153443D01*
X149073Y153358D01*
X149100Y153273D01*
X149132Y153190D01*
X149166Y153109D01*
X149205Y153029D01*
X149246Y152951D01*
X149291Y152874D01*
X149339Y152800D01*
X149390Y152727D01*
X149444Y152657D01*
X149502Y152590D01*
X149562Y152524D01*
X149624Y152462D01*
X149690Y152402D01*
X149757Y152344D01*
X149827Y152290D01*
X149900Y152239D01*
X149974Y152191D01*
X150051Y152146D01*
X150129Y152105D01*
X150209Y152066D01*
X150290Y152032D01*
X150373Y152000D01*
X150458Y151973D01*
X150543Y151948D01*
X150629Y151928D01*
X150716Y151911D01*
X150804Y151898D01*
X150892Y151889D01*
X150980Y151883D01*
X151069Y151881D01*
X156291Y151881D01*
X156382Y151883D01*
X156473Y151889D01*
X156564Y151899D01*
X156654Y151913D01*
X156743Y151930D01*
X156831Y151952D01*
X156919Y151978D01*
X157005Y152007D01*
X157090Y152040D01*
X157173Y152077D01*
X157255Y152117D01*
X157335Y152161D01*
X157413Y152208D01*
X157489Y152259D01*
X157562Y152312D01*
X157633Y152369D01*
X157702Y152430D01*
X157767Y152493D01*
X157830Y152558D01*
X157890Y152627D01*
X157948Y152698D01*
X158001Y152771D01*
X158052Y152847D01*
X158099Y152925D01*
X158143Y153005D01*
X158183Y153087D01*
X158220Y153170D01*
X158253Y153255D01*
X158282Y153341D01*
X158308Y153429D01*
X158330Y153517D01*
X158347Y153606D01*
X158361Y153696D01*
X158371Y153787D01*
X158377Y153878D01*
X158379Y153969D01*
X158379Y156058D01*
X158379Y161615D02*
X151069Y159527D01*
X151069Y164748D01*
X148981Y163181D02*
X153158Y163181D01*
X50031Y127781D02*
X47942Y127781D01*
X50031Y127781D02*
X50120Y127783D01*
X50208Y127789D01*
X50296Y127798D01*
X50384Y127811D01*
X50471Y127828D01*
X50557Y127848D01*
X50642Y127873D01*
X50727Y127900D01*
X50810Y127932D01*
X50891Y127966D01*
X50971Y128005D01*
X51049Y128046D01*
X51126Y128091D01*
X51200Y128139D01*
X51273Y128190D01*
X51343Y128244D01*
X51410Y128302D01*
X51476Y128362D01*
X51538Y128424D01*
X51598Y128490D01*
X51656Y128557D01*
X51710Y128627D01*
X51761Y128700D01*
X51809Y128774D01*
X51854Y128851D01*
X51895Y128929D01*
X51934Y129009D01*
X51968Y129090D01*
X52000Y129173D01*
X52027Y129258D01*
X52052Y129343D01*
X52072Y129429D01*
X52089Y129516D01*
X52102Y129604D01*
X52111Y129692D01*
X52117Y129780D01*
X52119Y129869D01*
X52119Y135091D01*
X52117Y135180D01*
X52111Y135268D01*
X52102Y135356D01*
X52089Y135444D01*
X52072Y135531D01*
X52052Y135617D01*
X52027Y135702D01*
X52000Y135787D01*
X51968Y135870D01*
X51934Y135951D01*
X51895Y136031D01*
X51854Y136109D01*
X51809Y136186D01*
X51761Y136260D01*
X51710Y136333D01*
X51656Y136403D01*
X51598Y136470D01*
X51538Y136536D01*
X51476Y136598D01*
X51410Y136658D01*
X51343Y136716D01*
X51273Y136770D01*
X51200Y136821D01*
X51126Y136869D01*
X51049Y136914D01*
X50971Y136955D01*
X50891Y136994D01*
X50810Y137028D01*
X50727Y137060D01*
X50642Y137087D01*
X50557Y137112D01*
X50471Y137132D01*
X50384Y137149D01*
X50296Y137162D01*
X50208Y137171D01*
X50120Y137177D01*
X50031Y137179D01*
X47942Y137179D01*
X44473Y127781D02*
X41341Y127781D01*
X41252Y127783D01*
X41164Y127789D01*
X41076Y127798D01*
X40988Y127811D01*
X40901Y127828D01*
X40815Y127848D01*
X40730Y127873D01*
X40645Y127900D01*
X40562Y127932D01*
X40481Y127966D01*
X40401Y128005D01*
X40323Y128046D01*
X40246Y128091D01*
X40172Y128139D01*
X40099Y128190D01*
X40029Y128244D01*
X39962Y128302D01*
X39896Y128362D01*
X39834Y128424D01*
X39774Y128490D01*
X39716Y128557D01*
X39662Y128627D01*
X39611Y128700D01*
X39563Y128774D01*
X39518Y128851D01*
X39477Y128929D01*
X39438Y129009D01*
X39404Y129090D01*
X39372Y129173D01*
X39345Y129258D01*
X39320Y129343D01*
X39300Y129429D01*
X39283Y129516D01*
X39270Y129604D01*
X39261Y129692D01*
X39255Y129780D01*
X39253Y129869D01*
X39252Y129869D02*
X39252Y130914D01*
X39253Y130914D02*
X39255Y131003D01*
X39261Y131091D01*
X39270Y131179D01*
X39283Y131267D01*
X39300Y131354D01*
X39320Y131440D01*
X39345Y131525D01*
X39372Y131610D01*
X39404Y131693D01*
X39438Y131774D01*
X39477Y131854D01*
X39518Y131932D01*
X39563Y132009D01*
X39611Y132083D01*
X39662Y132156D01*
X39716Y132226D01*
X39774Y132293D01*
X39834Y132359D01*
X39896Y132421D01*
X39962Y132481D01*
X40029Y132539D01*
X40099Y132593D01*
X40172Y132644D01*
X40246Y132692D01*
X40323Y132737D01*
X40401Y132778D01*
X40481Y132817D01*
X40562Y132851D01*
X40645Y132883D01*
X40730Y132910D01*
X40815Y132935D01*
X40901Y132955D01*
X40988Y132972D01*
X41076Y132985D01*
X41164Y132994D01*
X41252Y133000D01*
X41341Y133002D01*
X44473Y133002D01*
X44473Y137179D01*
X39252Y137179D01*
X121021Y183841D02*
X121021Y185929D01*
X121021Y183841D02*
X121023Y183752D01*
X121029Y183664D01*
X121038Y183576D01*
X121051Y183488D01*
X121068Y183401D01*
X121088Y183315D01*
X121113Y183230D01*
X121140Y183145D01*
X121172Y183062D01*
X121206Y182981D01*
X121245Y182901D01*
X121286Y182823D01*
X121331Y182746D01*
X121379Y182672D01*
X121430Y182599D01*
X121484Y182529D01*
X121542Y182462D01*
X121602Y182396D01*
X121664Y182334D01*
X121730Y182274D01*
X121797Y182216D01*
X121867Y182162D01*
X121940Y182111D01*
X122014Y182063D01*
X122091Y182018D01*
X122169Y181977D01*
X122249Y181938D01*
X122330Y181904D01*
X122413Y181872D01*
X122498Y181845D01*
X122583Y181820D01*
X122669Y181800D01*
X122756Y181783D01*
X122844Y181770D01*
X122932Y181761D01*
X123020Y181755D01*
X123109Y181753D01*
X123109Y181752D02*
X128331Y181752D01*
X128331Y181753D02*
X128422Y181755D01*
X128513Y181761D01*
X128604Y181771D01*
X128694Y181785D01*
X128783Y181802D01*
X128871Y181824D01*
X128959Y181850D01*
X129045Y181879D01*
X129130Y181912D01*
X129213Y181949D01*
X129295Y181989D01*
X129375Y182033D01*
X129453Y182080D01*
X129529Y182131D01*
X129602Y182184D01*
X129673Y182241D01*
X129742Y182302D01*
X129807Y182365D01*
X129870Y182430D01*
X129930Y182499D01*
X129988Y182570D01*
X130041Y182643D01*
X130092Y182719D01*
X130139Y182797D01*
X130183Y182877D01*
X130223Y182959D01*
X130260Y183042D01*
X130293Y183127D01*
X130322Y183213D01*
X130348Y183301D01*
X130370Y183389D01*
X130387Y183478D01*
X130401Y183568D01*
X130411Y183659D01*
X130417Y183750D01*
X130419Y183841D01*
X130419Y185929D01*
X126242Y189398D02*
X126242Y192531D01*
X126240Y192620D01*
X126234Y192708D01*
X126225Y192796D01*
X126212Y192884D01*
X126195Y192971D01*
X126175Y193057D01*
X126150Y193142D01*
X126123Y193227D01*
X126091Y193310D01*
X126057Y193391D01*
X126018Y193471D01*
X125977Y193549D01*
X125932Y193626D01*
X125884Y193700D01*
X125833Y193773D01*
X125779Y193843D01*
X125721Y193910D01*
X125661Y193976D01*
X125599Y194038D01*
X125533Y194098D01*
X125466Y194156D01*
X125396Y194210D01*
X125323Y194261D01*
X125249Y194309D01*
X125172Y194354D01*
X125094Y194395D01*
X125014Y194434D01*
X124933Y194468D01*
X124850Y194500D01*
X124765Y194527D01*
X124680Y194552D01*
X124594Y194572D01*
X124507Y194589D01*
X124419Y194602D01*
X124331Y194611D01*
X124243Y194617D01*
X124154Y194619D01*
X123632Y194619D01*
X123531Y194617D01*
X123430Y194611D01*
X123329Y194601D01*
X123229Y194588D01*
X123129Y194570D01*
X123030Y194549D01*
X122932Y194523D01*
X122835Y194494D01*
X122739Y194462D01*
X122645Y194425D01*
X122552Y194385D01*
X122460Y194341D01*
X122371Y194294D01*
X122283Y194243D01*
X122197Y194189D01*
X122114Y194132D01*
X122032Y194072D01*
X121954Y194008D01*
X121877Y193942D01*
X121804Y193872D01*
X121733Y193800D01*
X121665Y193725D01*
X121600Y193647D01*
X121538Y193567D01*
X121479Y193485D01*
X121423Y193400D01*
X121371Y193314D01*
X121322Y193225D01*
X121276Y193134D01*
X121235Y193042D01*
X121196Y192948D01*
X121162Y192853D01*
X121131Y192757D01*
X121104Y192659D01*
X121080Y192561D01*
X121061Y192461D01*
X121045Y192361D01*
X121033Y192261D01*
X121025Y192160D01*
X121021Y192059D01*
X121021Y191957D01*
X121025Y191856D01*
X121033Y191755D01*
X121045Y191655D01*
X121061Y191555D01*
X121080Y191455D01*
X121104Y191357D01*
X121131Y191259D01*
X121162Y191163D01*
X121196Y191068D01*
X121235Y190974D01*
X121276Y190882D01*
X121322Y190791D01*
X121371Y190703D01*
X121423Y190616D01*
X121479Y190531D01*
X121538Y190449D01*
X121600Y190369D01*
X121665Y190291D01*
X121733Y190216D01*
X121804Y190144D01*
X121877Y190074D01*
X121954Y190008D01*
X122032Y189944D01*
X122114Y189884D01*
X122197Y189827D01*
X122283Y189773D01*
X122371Y189722D01*
X122460Y189675D01*
X122552Y189631D01*
X122645Y189591D01*
X122739Y189554D01*
X122835Y189522D01*
X122932Y189493D01*
X123030Y189467D01*
X123129Y189446D01*
X123229Y189428D01*
X123329Y189415D01*
X123430Y189405D01*
X123531Y189399D01*
X123632Y189397D01*
X123632Y189398D02*
X126242Y189398D01*
X126371Y189400D01*
X126499Y189406D01*
X126627Y189416D01*
X126755Y189430D01*
X126883Y189447D01*
X127010Y189469D01*
X127136Y189495D01*
X127261Y189524D01*
X127385Y189557D01*
X127508Y189595D01*
X127630Y189635D01*
X127751Y189680D01*
X127870Y189728D01*
X127988Y189780D01*
X128104Y189836D01*
X128218Y189895D01*
X128330Y189958D01*
X128441Y190024D01*
X128549Y190093D01*
X128655Y190166D01*
X128759Y190242D01*
X128861Y190321D01*
X128960Y190403D01*
X129056Y190488D01*
X129150Y190576D01*
X129241Y190667D01*
X129329Y190761D01*
X129414Y190857D01*
X129496Y190956D01*
X129575Y191058D01*
X129651Y191162D01*
X129724Y191268D01*
X129793Y191376D01*
X129859Y191486D01*
X129922Y191599D01*
X129981Y191713D01*
X130037Y191829D01*
X130089Y191947D01*
X130137Y192066D01*
X130182Y192187D01*
X130222Y192309D01*
X130260Y192432D01*
X130293Y192556D01*
X130322Y192681D01*
X130348Y192807D01*
X130370Y192934D01*
X130387Y193062D01*
X130401Y193190D01*
X130411Y193318D01*
X130417Y193446D01*
X130419Y193575D01*
X146521Y192329D02*
X146521Y190241D01*
X146523Y190152D01*
X146529Y190064D01*
X146538Y189976D01*
X146551Y189888D01*
X146568Y189801D01*
X146588Y189715D01*
X146613Y189630D01*
X146640Y189545D01*
X146672Y189462D01*
X146706Y189381D01*
X146745Y189301D01*
X146786Y189223D01*
X146831Y189146D01*
X146879Y189072D01*
X146930Y188999D01*
X146984Y188929D01*
X147042Y188862D01*
X147102Y188796D01*
X147164Y188734D01*
X147230Y188674D01*
X147297Y188616D01*
X147367Y188562D01*
X147440Y188511D01*
X147514Y188463D01*
X147591Y188418D01*
X147669Y188377D01*
X147749Y188338D01*
X147830Y188304D01*
X147913Y188272D01*
X147998Y188245D01*
X148083Y188220D01*
X148169Y188200D01*
X148256Y188183D01*
X148344Y188170D01*
X148432Y188161D01*
X148520Y188155D01*
X148609Y188153D01*
X148609Y188152D02*
X153831Y188152D01*
X153831Y188153D02*
X153922Y188155D01*
X154013Y188161D01*
X154104Y188171D01*
X154194Y188185D01*
X154283Y188202D01*
X154371Y188224D01*
X154459Y188250D01*
X154545Y188279D01*
X154630Y188312D01*
X154713Y188349D01*
X154795Y188389D01*
X154875Y188433D01*
X154953Y188480D01*
X155029Y188531D01*
X155102Y188584D01*
X155173Y188641D01*
X155242Y188702D01*
X155307Y188765D01*
X155370Y188830D01*
X155430Y188899D01*
X155488Y188970D01*
X155541Y189043D01*
X155592Y189119D01*
X155639Y189197D01*
X155683Y189277D01*
X155723Y189359D01*
X155760Y189442D01*
X155793Y189527D01*
X155822Y189613D01*
X155848Y189701D01*
X155870Y189789D01*
X155887Y189878D01*
X155901Y189968D01*
X155911Y190059D01*
X155917Y190150D01*
X155919Y190241D01*
X155919Y192329D01*
X155919Y195798D02*
X154875Y195798D01*
X155919Y195798D02*
X155919Y201019D01*
X146521Y198408D01*
X172721Y192229D02*
X172721Y190141D01*
X172723Y190052D01*
X172729Y189964D01*
X172738Y189876D01*
X172751Y189788D01*
X172768Y189701D01*
X172788Y189615D01*
X172813Y189530D01*
X172840Y189445D01*
X172872Y189362D01*
X172906Y189281D01*
X172945Y189201D01*
X172986Y189123D01*
X173031Y189046D01*
X173079Y188972D01*
X173130Y188899D01*
X173184Y188829D01*
X173242Y188762D01*
X173302Y188696D01*
X173364Y188634D01*
X173430Y188574D01*
X173497Y188516D01*
X173567Y188462D01*
X173640Y188411D01*
X173714Y188363D01*
X173791Y188318D01*
X173869Y188277D01*
X173949Y188238D01*
X174030Y188204D01*
X174113Y188172D01*
X174198Y188145D01*
X174283Y188120D01*
X174369Y188100D01*
X174456Y188083D01*
X174544Y188070D01*
X174632Y188061D01*
X174720Y188055D01*
X174809Y188053D01*
X174809Y188052D02*
X180031Y188052D01*
X180031Y188053D02*
X180122Y188055D01*
X180213Y188061D01*
X180304Y188071D01*
X180394Y188085D01*
X180483Y188102D01*
X180571Y188124D01*
X180659Y188150D01*
X180745Y188179D01*
X180830Y188212D01*
X180913Y188249D01*
X180995Y188289D01*
X181075Y188333D01*
X181153Y188380D01*
X181229Y188431D01*
X181302Y188484D01*
X181373Y188541D01*
X181442Y188602D01*
X181507Y188665D01*
X181570Y188730D01*
X181630Y188799D01*
X181688Y188870D01*
X181741Y188943D01*
X181792Y189019D01*
X181839Y189097D01*
X181883Y189177D01*
X181923Y189259D01*
X181960Y189342D01*
X181993Y189427D01*
X182022Y189513D01*
X182048Y189601D01*
X182070Y189689D01*
X182087Y189778D01*
X182101Y189868D01*
X182111Y189959D01*
X182117Y190050D01*
X182119Y190141D01*
X182119Y192229D01*
X175332Y195697D02*
X175433Y195699D01*
X175534Y195705D01*
X175635Y195715D01*
X175735Y195728D01*
X175835Y195746D01*
X175934Y195767D01*
X176032Y195793D01*
X176129Y195822D01*
X176225Y195854D01*
X176319Y195891D01*
X176412Y195931D01*
X176504Y195975D01*
X176593Y196022D01*
X176681Y196073D01*
X176767Y196127D01*
X176850Y196184D01*
X176932Y196244D01*
X177010Y196308D01*
X177087Y196374D01*
X177160Y196444D01*
X177231Y196516D01*
X177299Y196591D01*
X177364Y196669D01*
X177426Y196749D01*
X177485Y196831D01*
X177541Y196916D01*
X177593Y197002D01*
X177642Y197091D01*
X177688Y197182D01*
X177729Y197274D01*
X177768Y197368D01*
X177802Y197463D01*
X177833Y197559D01*
X177860Y197657D01*
X177884Y197755D01*
X177903Y197855D01*
X177919Y197955D01*
X177931Y198055D01*
X177939Y198156D01*
X177943Y198257D01*
X177943Y198359D01*
X177939Y198460D01*
X177931Y198561D01*
X177919Y198661D01*
X177903Y198761D01*
X177884Y198861D01*
X177860Y198959D01*
X177833Y199057D01*
X177802Y199153D01*
X177768Y199248D01*
X177729Y199342D01*
X177688Y199434D01*
X177642Y199525D01*
X177593Y199613D01*
X177541Y199700D01*
X177485Y199785D01*
X177426Y199867D01*
X177364Y199947D01*
X177299Y200025D01*
X177231Y200100D01*
X177160Y200172D01*
X177087Y200242D01*
X177010Y200308D01*
X176932Y200372D01*
X176850Y200432D01*
X176767Y200489D01*
X176681Y200543D01*
X176593Y200594D01*
X176504Y200641D01*
X176412Y200685D01*
X176319Y200725D01*
X176225Y200762D01*
X176129Y200794D01*
X176032Y200823D01*
X175934Y200849D01*
X175835Y200870D01*
X175735Y200888D01*
X175635Y200901D01*
X175534Y200911D01*
X175433Y200917D01*
X175332Y200919D01*
X175231Y200917D01*
X175130Y200911D01*
X175029Y200901D01*
X174929Y200888D01*
X174829Y200870D01*
X174730Y200849D01*
X174632Y200823D01*
X174535Y200794D01*
X174439Y200762D01*
X174345Y200725D01*
X174252Y200685D01*
X174160Y200641D01*
X174071Y200594D01*
X173983Y200543D01*
X173897Y200489D01*
X173814Y200432D01*
X173732Y200372D01*
X173654Y200308D01*
X173577Y200242D01*
X173504Y200172D01*
X173433Y200100D01*
X173365Y200025D01*
X173300Y199947D01*
X173238Y199867D01*
X173179Y199785D01*
X173123Y199700D01*
X173071Y199614D01*
X173022Y199525D01*
X172976Y199434D01*
X172935Y199342D01*
X172896Y199248D01*
X172862Y199153D01*
X172831Y199057D01*
X172804Y198959D01*
X172780Y198861D01*
X172761Y198761D01*
X172745Y198661D01*
X172733Y198561D01*
X172725Y198460D01*
X172721Y198359D01*
X172721Y198257D01*
X172725Y198156D01*
X172733Y198055D01*
X172745Y197955D01*
X172761Y197855D01*
X172780Y197755D01*
X172804Y197657D01*
X172831Y197559D01*
X172862Y197463D01*
X172896Y197368D01*
X172935Y197274D01*
X172976Y197182D01*
X173022Y197091D01*
X173071Y197003D01*
X173123Y196916D01*
X173179Y196831D01*
X173238Y196749D01*
X173300Y196669D01*
X173365Y196591D01*
X173433Y196516D01*
X173504Y196444D01*
X173577Y196374D01*
X173654Y196308D01*
X173732Y196244D01*
X173814Y196184D01*
X173897Y196127D01*
X173983Y196073D01*
X174071Y196022D01*
X174160Y195975D01*
X174252Y195931D01*
X174345Y195891D01*
X174439Y195854D01*
X174535Y195822D01*
X174632Y195793D01*
X174730Y195767D01*
X174829Y195746D01*
X174929Y195728D01*
X175029Y195715D01*
X175130Y195705D01*
X175231Y195699D01*
X175332Y195697D01*
X180031Y196220D02*
X180121Y196222D01*
X180210Y196228D01*
X180300Y196237D01*
X180389Y196251D01*
X180477Y196268D01*
X180564Y196289D01*
X180651Y196314D01*
X180736Y196343D01*
X180820Y196375D01*
X180902Y196410D01*
X180983Y196450D01*
X181062Y196492D01*
X181139Y196538D01*
X181214Y196588D01*
X181287Y196640D01*
X181358Y196696D01*
X181426Y196754D01*
X181491Y196816D01*
X181554Y196880D01*
X181614Y196947D01*
X181671Y197016D01*
X181725Y197088D01*
X181776Y197162D01*
X181824Y197238D01*
X181868Y197316D01*
X181909Y197396D01*
X181947Y197478D01*
X181981Y197561D01*
X182011Y197646D01*
X182038Y197732D01*
X182061Y197818D01*
X182080Y197906D01*
X182095Y197995D01*
X182107Y198084D01*
X182115Y198173D01*
X182119Y198263D01*
X182119Y198353D01*
X182115Y198443D01*
X182107Y198532D01*
X182095Y198621D01*
X182080Y198710D01*
X182061Y198798D01*
X182038Y198884D01*
X182011Y198970D01*
X181981Y199055D01*
X181947Y199138D01*
X181909Y199220D01*
X181868Y199300D01*
X181824Y199378D01*
X181776Y199454D01*
X181725Y199528D01*
X181671Y199600D01*
X181614Y199669D01*
X181554Y199736D01*
X181491Y199800D01*
X181426Y199862D01*
X181358Y199920D01*
X181287Y199976D01*
X181214Y200028D01*
X181139Y200078D01*
X181062Y200124D01*
X180983Y200166D01*
X180902Y200206D01*
X180820Y200241D01*
X180736Y200273D01*
X180651Y200302D01*
X180564Y200327D01*
X180477Y200348D01*
X180389Y200365D01*
X180300Y200379D01*
X180210Y200388D01*
X180121Y200394D01*
X180031Y200396D01*
X179941Y200394D01*
X179852Y200388D01*
X179762Y200379D01*
X179673Y200365D01*
X179585Y200348D01*
X179498Y200327D01*
X179411Y200302D01*
X179326Y200273D01*
X179242Y200241D01*
X179160Y200206D01*
X179079Y200166D01*
X179000Y200124D01*
X178923Y200078D01*
X178848Y200028D01*
X178775Y199976D01*
X178704Y199920D01*
X178636Y199862D01*
X178571Y199800D01*
X178508Y199736D01*
X178448Y199669D01*
X178391Y199600D01*
X178337Y199528D01*
X178286Y199454D01*
X178238Y199378D01*
X178194Y199300D01*
X178153Y199220D01*
X178115Y199138D01*
X178081Y199055D01*
X178051Y198970D01*
X178024Y198884D01*
X178001Y198798D01*
X177982Y198710D01*
X177967Y198621D01*
X177955Y198532D01*
X177947Y198443D01*
X177943Y198353D01*
X177943Y198263D01*
X177947Y198173D01*
X177955Y198084D01*
X177967Y197995D01*
X177982Y197906D01*
X178001Y197818D01*
X178024Y197732D01*
X178051Y197646D01*
X178081Y197561D01*
X178115Y197478D01*
X178153Y197396D01*
X178194Y197316D01*
X178238Y197238D01*
X178286Y197162D01*
X178337Y197088D01*
X178391Y197016D01*
X178448Y196947D01*
X178508Y196880D01*
X178571Y196816D01*
X178636Y196754D01*
X178704Y196696D01*
X178775Y196640D01*
X178848Y196588D01*
X178923Y196538D01*
X179000Y196492D01*
X179079Y196450D01*
X179160Y196410D01*
X179242Y196375D01*
X179326Y196343D01*
X179411Y196314D01*
X179498Y196289D01*
X179585Y196268D01*
X179673Y196251D01*
X179762Y196237D01*
X179852Y196228D01*
X179941Y196222D01*
X180031Y196220D01*
D10*
X94550Y91500D02*
X81850Y91500D01*
X75500Y85150D01*
X75500Y72450D01*
X81850Y66100D01*
X75500Y85150D02*
X69150Y91500D01*
X56450Y91500D01*
X50100Y85150D01*
X50100Y72450D01*
X56450Y66100D01*
X69150Y66100D01*
X75500Y72450D01*
X119950Y91500D02*
X126300Y85150D01*
X119950Y91500D02*
X107250Y91500D01*
X100900Y85150D01*
X100900Y72450D01*
X107250Y66100D01*
X119950Y66100D01*
X126300Y72450D01*
X100900Y85150D02*
X94550Y91500D01*
X100900Y72450D02*
X94550Y66100D01*
X81850Y66100D01*
X158050Y91500D02*
X170750Y91500D01*
X158050Y91500D02*
X151700Y85150D01*
X151700Y72450D01*
X158050Y66100D01*
X151700Y85150D02*
X145350Y91500D01*
X132650Y91500D01*
X126300Y85150D01*
X126300Y72450D01*
X132650Y66100D01*
X145350Y66100D01*
X151700Y72450D01*
X196150Y91500D02*
X202500Y85150D01*
X196150Y91500D02*
X183450Y91500D01*
X177100Y85150D01*
X177100Y72450D01*
X183450Y66100D01*
X196150Y66100D01*
X202500Y72450D01*
X177100Y85150D02*
X170750Y91500D01*
X177100Y72450D02*
X170750Y66100D01*
X158050Y66100D01*
X234250Y91500D02*
X246950Y91500D01*
X234250Y91500D02*
X227900Y85150D01*
X227900Y72450D01*
X234250Y66100D01*
X227900Y85150D02*
X221550Y91500D01*
X208850Y91500D01*
X202500Y85150D01*
X202500Y72450D01*
X208850Y66100D01*
X221550Y66100D01*
X227900Y72450D01*
X272350Y91500D02*
X278700Y85150D01*
X272350Y91500D02*
X259650Y91500D01*
X253300Y85150D01*
X253300Y72450D01*
X259650Y66100D01*
X272350Y66100D01*
X278700Y72450D01*
X253300Y85150D02*
X246950Y91500D01*
X253300Y72450D02*
X246950Y66100D01*
X234250Y66100D01*
X310450Y91500D02*
X323150Y91500D01*
X310450Y91500D02*
X304100Y85150D01*
X304100Y72450D01*
X310450Y66100D01*
X304100Y85150D02*
X297750Y91500D01*
X285050Y91500D01*
X278700Y85150D01*
X278700Y72450D01*
X285050Y66100D01*
X297750Y66100D01*
X304100Y72450D01*
X348550Y91500D02*
X354900Y85150D01*
X348550Y91500D02*
X335850Y91500D01*
X329500Y85150D01*
X329500Y72450D01*
X335850Y66100D01*
X348550Y66100D01*
X354900Y72450D01*
X329500Y85150D02*
X323150Y91500D01*
X329500Y72450D02*
X323150Y66100D01*
X310450Y66100D01*
X386650Y91500D02*
X399350Y91500D01*
X386650Y91500D02*
X380300Y85150D01*
X380300Y72450D01*
X386650Y66100D01*
X380300Y85150D02*
X373950Y91500D01*
X361250Y91500D01*
X354900Y85150D01*
X354900Y72450D01*
X361250Y66100D01*
X373950Y66100D01*
X380300Y72450D01*
X405700Y72450D02*
X405700Y85150D01*
X399350Y91500D01*
X405700Y72450D02*
X399350Y66100D01*
X386650Y66100D01*
X50100Y85150D02*
X43750Y91500D01*
X31050Y91500D01*
X24700Y85150D01*
X24700Y72450D01*
X31050Y66100D01*
X43750Y66100D01*
X50100Y72450D01*
D12*
X414892Y72803D02*
X422004Y72803D01*
X414892Y72803D02*
X414803Y72801D01*
X414715Y72795D01*
X414627Y72786D01*
X414539Y72772D01*
X414452Y72755D01*
X414366Y72734D01*
X414281Y72709D01*
X414197Y72680D01*
X414114Y72648D01*
X414033Y72613D01*
X413954Y72573D01*
X413876Y72531D01*
X413800Y72485D01*
X413726Y72436D01*
X413655Y72383D01*
X413586Y72328D01*
X413519Y72269D01*
X413455Y72208D01*
X413394Y72144D01*
X413335Y72077D01*
X413280Y72008D01*
X413227Y71937D01*
X413178Y71863D01*
X413132Y71787D01*
X413090Y71709D01*
X413050Y71630D01*
X413015Y71549D01*
X412983Y71466D01*
X412954Y71382D01*
X412929Y71297D01*
X412908Y71211D01*
X412891Y71124D01*
X412877Y71036D01*
X412868Y70948D01*
X412862Y70860D01*
X412860Y70771D01*
X412860Y69755D01*
X412860Y77587D02*
X422004Y77587D01*
X422004Y80127D01*
X422002Y80227D01*
X421996Y80326D01*
X421986Y80426D01*
X421973Y80524D01*
X421955Y80623D01*
X421934Y80720D01*
X421909Y80816D01*
X421880Y80912D01*
X421847Y81006D01*
X421811Y81099D01*
X421771Y81190D01*
X421727Y81280D01*
X421680Y81368D01*
X421630Y81454D01*
X421576Y81538D01*
X421519Y81620D01*
X421459Y81699D01*
X421395Y81777D01*
X421329Y81851D01*
X421260Y81923D01*
X421188Y81992D01*
X421114Y82058D01*
X421036Y82122D01*
X420957Y82182D01*
X420875Y82239D01*
X420791Y82293D01*
X420705Y82343D01*
X420617Y82390D01*
X420527Y82434D01*
X420436Y82474D01*
X420343Y82510D01*
X420249Y82543D01*
X420153Y82572D01*
X420057Y82597D01*
X419960Y82618D01*
X419861Y82636D01*
X419763Y82649D01*
X419663Y82659D01*
X419564Y82665D01*
X419464Y82667D01*
X419364Y82665D01*
X419265Y82659D01*
X419165Y82649D01*
X419067Y82636D01*
X418968Y82618D01*
X418871Y82597D01*
X418775Y82572D01*
X418679Y82543D01*
X418585Y82510D01*
X418492Y82474D01*
X418401Y82434D01*
X418311Y82390D01*
X418223Y82343D01*
X418137Y82293D01*
X418053Y82239D01*
X417971Y82182D01*
X417892Y82122D01*
X417814Y82058D01*
X417740Y81992D01*
X417668Y81923D01*
X417599Y81851D01*
X417533Y81777D01*
X417469Y81699D01*
X417409Y81620D01*
X417352Y81538D01*
X417298Y81454D01*
X417248Y81368D01*
X417201Y81280D01*
X417157Y81190D01*
X417117Y81099D01*
X417081Y81006D01*
X417048Y80912D01*
X417019Y80816D01*
X416994Y80720D01*
X416973Y80623D01*
X416955Y80524D01*
X416942Y80426D01*
X416932Y80326D01*
X416926Y80227D01*
X416924Y80127D01*
X416924Y77587D01*
X419972Y86274D02*
X422004Y88814D01*
X412860Y88814D01*
X412860Y86274D02*
X412860Y91354D01*
D10*
X94550Y243900D02*
X81850Y243900D01*
X75500Y237550D01*
X75500Y224850D01*
X81850Y218500D01*
X75500Y237550D02*
X69150Y243900D01*
X56450Y243900D01*
X50100Y237550D01*
X50100Y224850D01*
X56450Y218500D01*
X69150Y218500D01*
X75500Y224850D01*
X119950Y243900D02*
X126300Y237550D01*
X119950Y243900D02*
X107250Y243900D01*
X100900Y237550D01*
X100900Y224850D01*
X107250Y218500D01*
X119950Y218500D01*
X126300Y224850D01*
X100900Y237550D02*
X94550Y243900D01*
X100900Y224850D02*
X94550Y218500D01*
X81850Y218500D01*
X158050Y243900D02*
X170750Y243900D01*
X158050Y243900D02*
X151700Y237550D01*
X151700Y224850D01*
X158050Y218500D01*
X151700Y237550D02*
X145350Y243900D01*
X132650Y243900D01*
X126300Y237550D01*
X126300Y224850D01*
X132650Y218500D01*
X145350Y218500D01*
X151700Y224850D01*
X196150Y243900D02*
X202500Y237550D01*
X196150Y243900D02*
X183450Y243900D01*
X177100Y237550D01*
X177100Y224850D01*
X183450Y218500D01*
X196150Y218500D01*
X202500Y224850D01*
X177100Y237550D02*
X170750Y243900D01*
X177100Y224850D02*
X170750Y218500D01*
X158050Y218500D01*
X234250Y243900D02*
X246950Y243900D01*
X234250Y243900D02*
X227900Y237550D01*
X227900Y224850D01*
X234250Y218500D01*
X227900Y237550D02*
X221550Y243900D01*
X208850Y243900D01*
X202500Y237550D01*
X202500Y224850D01*
X208850Y218500D01*
X221550Y218500D01*
X227900Y224850D01*
X272350Y243900D02*
X278700Y237550D01*
X272350Y243900D02*
X259650Y243900D01*
X253300Y237550D01*
X253300Y224850D01*
X259650Y218500D01*
X272350Y218500D01*
X278700Y224850D01*
X253300Y237550D02*
X246950Y243900D01*
X253300Y224850D02*
X246950Y218500D01*
X234250Y218500D01*
X310450Y243900D02*
X323150Y243900D01*
X310450Y243900D02*
X304100Y237550D01*
X304100Y224850D01*
X310450Y218500D01*
X304100Y237550D02*
X297750Y243900D01*
X285050Y243900D01*
X278700Y237550D01*
X278700Y224850D01*
X285050Y218500D01*
X297750Y218500D01*
X304100Y224850D01*
X348550Y243900D02*
X354900Y237550D01*
X348550Y243900D02*
X335850Y243900D01*
X329500Y237550D01*
X329500Y224850D01*
X335850Y218500D01*
X348550Y218500D01*
X354900Y224850D01*
X329500Y237550D02*
X323150Y243900D01*
X329500Y224850D02*
X323150Y218500D01*
X310450Y218500D01*
X386650Y243900D02*
X399350Y243900D01*
X386650Y243900D02*
X380300Y237550D01*
X380300Y224850D01*
X386650Y218500D01*
X380300Y237550D02*
X373950Y243900D01*
X361250Y243900D01*
X354900Y237550D01*
X354900Y224850D01*
X361250Y218500D01*
X373950Y218500D01*
X380300Y224850D01*
X405700Y224850D02*
X405700Y237550D01*
X399350Y243900D01*
X405700Y224850D02*
X399350Y218500D01*
X386650Y218500D01*
X50100Y237550D02*
X43750Y243900D01*
X31050Y243900D01*
X24700Y237550D01*
X24700Y224850D01*
X31050Y218500D01*
X43750Y218500D01*
X50100Y224850D01*
D12*
X414628Y222994D02*
X421740Y222994D01*
X414628Y222994D02*
X414539Y222992D01*
X414451Y222986D01*
X414363Y222977D01*
X414275Y222963D01*
X414188Y222946D01*
X414102Y222925D01*
X414017Y222900D01*
X413933Y222871D01*
X413850Y222839D01*
X413769Y222804D01*
X413690Y222764D01*
X413612Y222722D01*
X413536Y222676D01*
X413462Y222627D01*
X413391Y222574D01*
X413322Y222519D01*
X413255Y222460D01*
X413191Y222399D01*
X413130Y222335D01*
X413071Y222268D01*
X413016Y222199D01*
X412963Y222128D01*
X412914Y222054D01*
X412868Y221978D01*
X412826Y221900D01*
X412786Y221821D01*
X412751Y221740D01*
X412719Y221657D01*
X412690Y221573D01*
X412665Y221488D01*
X412644Y221402D01*
X412627Y221315D01*
X412613Y221227D01*
X412604Y221139D01*
X412598Y221051D01*
X412596Y220962D01*
X412596Y219946D01*
X412596Y227778D02*
X421740Y227778D01*
X421740Y230318D01*
X421738Y230418D01*
X421732Y230517D01*
X421722Y230617D01*
X421709Y230715D01*
X421691Y230814D01*
X421670Y230911D01*
X421645Y231007D01*
X421616Y231103D01*
X421583Y231197D01*
X421547Y231290D01*
X421507Y231381D01*
X421463Y231471D01*
X421416Y231559D01*
X421366Y231645D01*
X421312Y231729D01*
X421255Y231811D01*
X421195Y231890D01*
X421131Y231968D01*
X421065Y232042D01*
X420996Y232114D01*
X420924Y232183D01*
X420850Y232249D01*
X420772Y232313D01*
X420693Y232373D01*
X420611Y232430D01*
X420527Y232484D01*
X420441Y232534D01*
X420353Y232581D01*
X420263Y232625D01*
X420172Y232665D01*
X420079Y232701D01*
X419985Y232734D01*
X419889Y232763D01*
X419793Y232788D01*
X419696Y232809D01*
X419597Y232827D01*
X419499Y232840D01*
X419399Y232850D01*
X419300Y232856D01*
X419200Y232858D01*
X419100Y232856D01*
X419001Y232850D01*
X418901Y232840D01*
X418803Y232827D01*
X418704Y232809D01*
X418607Y232788D01*
X418511Y232763D01*
X418415Y232734D01*
X418321Y232701D01*
X418228Y232665D01*
X418137Y232625D01*
X418047Y232581D01*
X417959Y232534D01*
X417873Y232484D01*
X417789Y232430D01*
X417707Y232373D01*
X417628Y232313D01*
X417550Y232249D01*
X417476Y232183D01*
X417404Y232114D01*
X417335Y232042D01*
X417269Y231968D01*
X417205Y231890D01*
X417145Y231811D01*
X417088Y231729D01*
X417034Y231645D01*
X416984Y231559D01*
X416937Y231471D01*
X416893Y231381D01*
X416853Y231290D01*
X416817Y231197D01*
X416784Y231103D01*
X416755Y231007D01*
X416730Y230911D01*
X416709Y230814D01*
X416691Y230715D01*
X416678Y230617D01*
X416668Y230517D01*
X416662Y230418D01*
X416660Y230318D01*
X416660Y227778D01*
X421740Y239259D02*
X421738Y239353D01*
X421732Y239448D01*
X421722Y239542D01*
X421709Y239635D01*
X421691Y239728D01*
X421670Y239820D01*
X421645Y239911D01*
X421616Y240001D01*
X421584Y240090D01*
X421547Y240177D01*
X421508Y240263D01*
X421464Y240347D01*
X421418Y240429D01*
X421368Y240509D01*
X421314Y240587D01*
X421258Y240663D01*
X421198Y240736D01*
X421136Y240807D01*
X421070Y240875D01*
X421002Y240941D01*
X420931Y241003D01*
X420858Y241063D01*
X420782Y241119D01*
X420704Y241173D01*
X420624Y241223D01*
X420542Y241269D01*
X420458Y241313D01*
X420372Y241352D01*
X420285Y241389D01*
X420196Y241421D01*
X420106Y241450D01*
X420015Y241475D01*
X419923Y241496D01*
X419830Y241514D01*
X419737Y241527D01*
X419643Y241537D01*
X419548Y241543D01*
X419454Y241545D01*
X421740Y239259D02*
X421738Y239153D01*
X421732Y239048D01*
X421723Y238943D01*
X421710Y238838D01*
X421693Y238734D01*
X421672Y238631D01*
X421648Y238528D01*
X421619Y238426D01*
X421588Y238326D01*
X421552Y238226D01*
X421514Y238128D01*
X421471Y238032D01*
X421425Y237936D01*
X421376Y237843D01*
X421324Y237752D01*
X421268Y237662D01*
X421209Y237574D01*
X421147Y237489D01*
X421082Y237406D01*
X421014Y237325D01*
X420943Y237247D01*
X420869Y237172D01*
X420793Y237099D01*
X420714Y237029D01*
X420633Y236962D01*
X420549Y236897D01*
X420463Y236836D01*
X420375Y236778D01*
X420285Y236723D01*
X420193Y236672D01*
X420099Y236623D01*
X420003Y236578D01*
X419906Y236537D01*
X419808Y236499D01*
X419708Y236465D01*
X417676Y240783D02*
X417743Y240850D01*
X417812Y240915D01*
X417884Y240977D01*
X417957Y241036D01*
X418034Y241092D01*
X418112Y241146D01*
X418192Y241196D01*
X418274Y241243D01*
X418358Y241287D01*
X418444Y241327D01*
X418531Y241365D01*
X418619Y241399D01*
X418709Y241429D01*
X418799Y241456D01*
X418891Y241480D01*
X418984Y241500D01*
X419077Y241516D01*
X419171Y241529D01*
X419265Y241538D01*
X419359Y241543D01*
X419454Y241545D01*
X417676Y240783D02*
X412596Y236465D01*
X412596Y241545D01*
D10*
X481400Y174050D02*
X481400Y161350D01*
X481400Y174050D02*
X475050Y180400D01*
X462350Y180400D01*
X456000Y174050D01*
X475050Y180400D02*
X481400Y186750D01*
X481400Y199450D01*
X475050Y205800D01*
X462350Y205800D01*
X456000Y199450D01*
X456000Y186750D01*
X462350Y180400D01*
X481400Y135950D02*
X475050Y129600D01*
X481400Y135950D02*
X481400Y148650D01*
X475050Y155000D01*
X462350Y155000D01*
X456000Y148650D01*
X456000Y135950D01*
X462350Y129600D01*
X475050Y155000D02*
X481400Y161350D01*
X462350Y155000D02*
X456000Y161350D01*
X456000Y174050D01*
X481400Y97850D02*
X481400Y85150D01*
X481400Y97850D02*
X475050Y104200D01*
X462350Y104200D01*
X456000Y97850D01*
X475050Y104200D02*
X481400Y110550D01*
X481400Y123250D01*
X475050Y129600D01*
X462350Y129600D01*
X456000Y123250D01*
X456000Y110550D01*
X462350Y104200D01*
X462350Y78800D02*
X475050Y78800D01*
X481400Y85150D01*
X462350Y78800D02*
X456000Y85150D01*
X456000Y97850D01*
X481400Y212150D02*
X481400Y224850D01*
X475050Y231200D01*
X462350Y231200D01*
X456000Y224850D01*
X475050Y205800D02*
X481400Y212150D01*
X462350Y205800D02*
X456000Y212150D01*
X456000Y224850D01*
D12*
X476797Y242380D02*
X476797Y249492D01*
X476797Y242380D02*
X476799Y242291D01*
X476805Y242203D01*
X476814Y242115D01*
X476828Y242027D01*
X476845Y241940D01*
X476866Y241854D01*
X476891Y241769D01*
X476920Y241685D01*
X476952Y241602D01*
X476987Y241521D01*
X477027Y241442D01*
X477069Y241364D01*
X477115Y241288D01*
X477164Y241214D01*
X477217Y241143D01*
X477272Y241074D01*
X477331Y241007D01*
X477392Y240943D01*
X477456Y240882D01*
X477523Y240823D01*
X477592Y240768D01*
X477663Y240715D01*
X477737Y240666D01*
X477813Y240620D01*
X477891Y240578D01*
X477970Y240538D01*
X478051Y240503D01*
X478134Y240471D01*
X478218Y240442D01*
X478303Y240417D01*
X478389Y240396D01*
X478476Y240379D01*
X478564Y240365D01*
X478652Y240356D01*
X478740Y240350D01*
X478829Y240348D01*
X479845Y240348D01*
X472013Y240348D02*
X472013Y249492D01*
X469473Y249492D01*
X469373Y249490D01*
X469274Y249484D01*
X469174Y249474D01*
X469076Y249461D01*
X468977Y249443D01*
X468880Y249422D01*
X468784Y249397D01*
X468688Y249368D01*
X468594Y249335D01*
X468501Y249299D01*
X468410Y249259D01*
X468320Y249215D01*
X468232Y249168D01*
X468146Y249118D01*
X468062Y249064D01*
X467980Y249007D01*
X467901Y248947D01*
X467823Y248883D01*
X467749Y248817D01*
X467677Y248748D01*
X467608Y248676D01*
X467542Y248602D01*
X467478Y248524D01*
X467418Y248445D01*
X467361Y248363D01*
X467307Y248279D01*
X467257Y248193D01*
X467210Y248105D01*
X467166Y248015D01*
X467126Y247924D01*
X467090Y247831D01*
X467057Y247737D01*
X467028Y247641D01*
X467003Y247545D01*
X466982Y247448D01*
X466964Y247349D01*
X466951Y247251D01*
X466941Y247151D01*
X466935Y247052D01*
X466933Y246952D01*
X466935Y246852D01*
X466941Y246753D01*
X466951Y246653D01*
X466964Y246555D01*
X466982Y246456D01*
X467003Y246359D01*
X467028Y246263D01*
X467057Y246167D01*
X467090Y246073D01*
X467126Y245980D01*
X467166Y245889D01*
X467210Y245799D01*
X467257Y245711D01*
X467307Y245625D01*
X467361Y245541D01*
X467418Y245459D01*
X467478Y245380D01*
X467542Y245302D01*
X467608Y245228D01*
X467677Y245156D01*
X467749Y245087D01*
X467823Y245021D01*
X467901Y244957D01*
X467980Y244897D01*
X468062Y244840D01*
X468146Y244786D01*
X468232Y244736D01*
X468320Y244689D01*
X468410Y244645D01*
X468501Y244605D01*
X468594Y244569D01*
X468688Y244536D01*
X468784Y244507D01*
X468880Y244482D01*
X468977Y244461D01*
X469076Y244443D01*
X469174Y244430D01*
X469274Y244420D01*
X469373Y244414D01*
X469473Y244412D01*
X472013Y244412D01*
X463326Y240348D02*
X460786Y240348D01*
X460686Y240350D01*
X460587Y240356D01*
X460487Y240366D01*
X460389Y240379D01*
X460290Y240397D01*
X460193Y240418D01*
X460097Y240443D01*
X460001Y240472D01*
X459907Y240505D01*
X459814Y240541D01*
X459723Y240581D01*
X459633Y240625D01*
X459545Y240672D01*
X459459Y240722D01*
X459375Y240776D01*
X459293Y240833D01*
X459214Y240893D01*
X459136Y240957D01*
X459062Y241023D01*
X458990Y241092D01*
X458921Y241164D01*
X458855Y241238D01*
X458791Y241316D01*
X458731Y241395D01*
X458674Y241477D01*
X458620Y241561D01*
X458570Y241647D01*
X458523Y241735D01*
X458479Y241825D01*
X458439Y241916D01*
X458403Y242009D01*
X458370Y242103D01*
X458341Y242199D01*
X458316Y242295D01*
X458295Y242392D01*
X458277Y242491D01*
X458264Y242589D01*
X458254Y242689D01*
X458248Y242788D01*
X458246Y242888D01*
X458248Y242988D01*
X458254Y243087D01*
X458264Y243187D01*
X458277Y243285D01*
X458295Y243384D01*
X458316Y243481D01*
X458341Y243577D01*
X458370Y243673D01*
X458403Y243767D01*
X458439Y243860D01*
X458479Y243951D01*
X458523Y244041D01*
X458570Y244129D01*
X458620Y244215D01*
X458674Y244299D01*
X458731Y244381D01*
X458791Y244460D01*
X458855Y244538D01*
X458921Y244612D01*
X458990Y244684D01*
X459062Y244753D01*
X459136Y244819D01*
X459214Y244883D01*
X459293Y244943D01*
X459375Y245000D01*
X459459Y245054D01*
X459545Y245104D01*
X459633Y245151D01*
X459723Y245195D01*
X459814Y245235D01*
X459907Y245271D01*
X460001Y245304D01*
X460097Y245333D01*
X460193Y245358D01*
X460290Y245379D01*
X460389Y245397D01*
X460487Y245410D01*
X460587Y245420D01*
X460686Y245426D01*
X460786Y245428D01*
X460278Y249492D02*
X463326Y249492D01*
X460278Y249492D02*
X460189Y249490D01*
X460101Y249484D01*
X460013Y249475D01*
X459925Y249461D01*
X459838Y249444D01*
X459752Y249423D01*
X459667Y249398D01*
X459583Y249369D01*
X459500Y249337D01*
X459419Y249302D01*
X459340Y249262D01*
X459262Y249220D01*
X459186Y249174D01*
X459112Y249125D01*
X459041Y249072D01*
X458972Y249017D01*
X458905Y248958D01*
X458841Y248897D01*
X458780Y248833D01*
X458721Y248766D01*
X458666Y248697D01*
X458613Y248626D01*
X458564Y248552D01*
X458518Y248476D01*
X458476Y248398D01*
X458436Y248319D01*
X458401Y248238D01*
X458369Y248155D01*
X458340Y248071D01*
X458315Y247986D01*
X458294Y247900D01*
X458277Y247813D01*
X458263Y247725D01*
X458254Y247637D01*
X458248Y247549D01*
X458246Y247460D01*
X458248Y247371D01*
X458254Y247283D01*
X458263Y247195D01*
X458277Y247107D01*
X458294Y247020D01*
X458315Y246934D01*
X458340Y246849D01*
X458369Y246765D01*
X458401Y246682D01*
X458436Y246601D01*
X458476Y246522D01*
X458518Y246444D01*
X458564Y246368D01*
X458613Y246294D01*
X458666Y246223D01*
X458721Y246154D01*
X458780Y246087D01*
X458841Y246023D01*
X458905Y245962D01*
X458972Y245903D01*
X459041Y245848D01*
X459112Y245795D01*
X459186Y245746D01*
X459262Y245700D01*
X459340Y245658D01*
X459419Y245618D01*
X459500Y245583D01*
X459583Y245551D01*
X459667Y245522D01*
X459752Y245497D01*
X459838Y245476D01*
X459925Y245459D01*
X460013Y245445D01*
X460101Y245436D01*
X460189Y245430D01*
X460278Y245428D01*
X462310Y245428D01*
D10*
X549400Y174050D02*
X549400Y161350D01*
X549400Y174050D02*
X543050Y180400D01*
X530350Y180400D01*
X524000Y174050D01*
X543050Y180400D02*
X549400Y186750D01*
X549400Y199450D01*
X543050Y205800D01*
X530350Y205800D01*
X524000Y199450D01*
X524000Y186750D01*
X530350Y180400D01*
X549400Y135950D02*
X543050Y129600D01*
X549400Y135950D02*
X549400Y148650D01*
X543050Y155000D01*
X530350Y155000D01*
X524000Y148650D01*
X524000Y135950D01*
X530350Y129600D01*
X543050Y155000D02*
X549400Y161350D01*
X530350Y155000D02*
X524000Y161350D01*
X524000Y174050D01*
X549400Y97850D02*
X549400Y85150D01*
X549400Y97850D02*
X543050Y104200D01*
X530350Y104200D01*
X524000Y97850D01*
X543050Y104200D02*
X549400Y110550D01*
X549400Y123250D01*
X543050Y129600D01*
X530350Y129600D01*
X524000Y123250D01*
X524000Y110550D01*
X530350Y104200D01*
X530350Y78800D02*
X543050Y78800D01*
X549400Y85150D01*
X530350Y78800D02*
X524000Y85150D01*
X524000Y97850D01*
X549400Y212150D02*
X549400Y224850D01*
X543050Y231200D01*
X530350Y231200D01*
X524000Y224850D01*
X543050Y205800D02*
X549400Y212150D01*
X530350Y205800D02*
X524000Y212150D01*
X524000Y224850D01*
D12*
X542297Y242380D02*
X542297Y249492D01*
X542297Y242380D02*
X542299Y242291D01*
X542305Y242203D01*
X542314Y242115D01*
X542328Y242027D01*
X542345Y241940D01*
X542366Y241854D01*
X542391Y241769D01*
X542420Y241685D01*
X542452Y241602D01*
X542487Y241521D01*
X542527Y241442D01*
X542569Y241364D01*
X542615Y241288D01*
X542664Y241214D01*
X542717Y241143D01*
X542772Y241074D01*
X542831Y241007D01*
X542892Y240943D01*
X542956Y240882D01*
X543023Y240823D01*
X543092Y240768D01*
X543163Y240715D01*
X543237Y240666D01*
X543313Y240620D01*
X543391Y240578D01*
X543470Y240538D01*
X543551Y240503D01*
X543634Y240471D01*
X543718Y240442D01*
X543803Y240417D01*
X543889Y240396D01*
X543976Y240379D01*
X544064Y240365D01*
X544152Y240356D01*
X544240Y240350D01*
X544329Y240348D01*
X545345Y240348D01*
X537513Y240348D02*
X537513Y249492D01*
X534973Y249492D01*
X534873Y249490D01*
X534774Y249484D01*
X534674Y249474D01*
X534576Y249461D01*
X534477Y249443D01*
X534380Y249422D01*
X534284Y249397D01*
X534188Y249368D01*
X534094Y249335D01*
X534001Y249299D01*
X533910Y249259D01*
X533820Y249215D01*
X533732Y249168D01*
X533646Y249118D01*
X533562Y249064D01*
X533480Y249007D01*
X533401Y248947D01*
X533323Y248883D01*
X533249Y248817D01*
X533177Y248748D01*
X533108Y248676D01*
X533042Y248602D01*
X532978Y248524D01*
X532918Y248445D01*
X532861Y248363D01*
X532807Y248279D01*
X532757Y248193D01*
X532710Y248105D01*
X532666Y248015D01*
X532626Y247924D01*
X532590Y247831D01*
X532557Y247737D01*
X532528Y247641D01*
X532503Y247545D01*
X532482Y247448D01*
X532464Y247349D01*
X532451Y247251D01*
X532441Y247151D01*
X532435Y247052D01*
X532433Y246952D01*
X532435Y246852D01*
X532441Y246753D01*
X532451Y246653D01*
X532464Y246555D01*
X532482Y246456D01*
X532503Y246359D01*
X532528Y246263D01*
X532557Y246167D01*
X532590Y246073D01*
X532626Y245980D01*
X532666Y245889D01*
X532710Y245799D01*
X532757Y245711D01*
X532807Y245625D01*
X532861Y245541D01*
X532918Y245459D01*
X532978Y245380D01*
X533042Y245302D01*
X533108Y245228D01*
X533177Y245156D01*
X533249Y245087D01*
X533323Y245021D01*
X533401Y244957D01*
X533480Y244897D01*
X533562Y244840D01*
X533646Y244786D01*
X533732Y244736D01*
X533820Y244689D01*
X533910Y244645D01*
X534001Y244605D01*
X534094Y244569D01*
X534188Y244536D01*
X534284Y244507D01*
X534380Y244482D01*
X534477Y244461D01*
X534576Y244443D01*
X534674Y244430D01*
X534774Y244420D01*
X534873Y244414D01*
X534973Y244412D01*
X537513Y244412D01*
X528826Y242380D02*
X526794Y249492D01*
X528826Y242380D02*
X523746Y242380D01*
X525270Y244412D02*
X525270Y240348D01*
D11*
X142339Y122169D02*
X142339Y112771D01*
X142339Y122169D02*
X139728Y122169D01*
X139627Y122167D01*
X139526Y122161D01*
X139425Y122151D01*
X139325Y122138D01*
X139225Y122120D01*
X139126Y122099D01*
X139028Y122073D01*
X138931Y122044D01*
X138835Y122012D01*
X138741Y121975D01*
X138648Y121935D01*
X138556Y121891D01*
X138467Y121844D01*
X138379Y121793D01*
X138293Y121739D01*
X138210Y121682D01*
X138128Y121622D01*
X138050Y121558D01*
X137973Y121492D01*
X137900Y121422D01*
X137829Y121350D01*
X137761Y121275D01*
X137696Y121197D01*
X137634Y121117D01*
X137575Y121035D01*
X137519Y120950D01*
X137467Y120864D01*
X137418Y120775D01*
X137372Y120684D01*
X137331Y120592D01*
X137292Y120498D01*
X137258Y120403D01*
X137227Y120307D01*
X137200Y120209D01*
X137176Y120111D01*
X137157Y120011D01*
X137141Y119911D01*
X137129Y119811D01*
X137121Y119710D01*
X137117Y119609D01*
X137117Y119507D01*
X137121Y119406D01*
X137129Y119305D01*
X137141Y119205D01*
X137157Y119105D01*
X137176Y119005D01*
X137200Y118907D01*
X137227Y118809D01*
X137258Y118713D01*
X137292Y118618D01*
X137331Y118524D01*
X137372Y118432D01*
X137418Y118341D01*
X137467Y118253D01*
X137519Y118166D01*
X137575Y118081D01*
X137634Y117999D01*
X137696Y117919D01*
X137761Y117841D01*
X137829Y117766D01*
X137900Y117694D01*
X137973Y117624D01*
X138050Y117558D01*
X138128Y117494D01*
X138210Y117434D01*
X138293Y117377D01*
X138379Y117323D01*
X138467Y117272D01*
X138556Y117225D01*
X138648Y117181D01*
X138741Y117141D01*
X138835Y117104D01*
X138931Y117072D01*
X139028Y117043D01*
X139126Y117017D01*
X139225Y116996D01*
X139325Y116978D01*
X139425Y116965D01*
X139526Y116955D01*
X139627Y116949D01*
X139728Y116947D01*
X139728Y116948D02*
X142339Y116948D01*
X139206Y116948D02*
X137118Y112771D01*
X133252Y120081D02*
X130642Y122169D01*
X130642Y112771D01*
X133252Y112771D02*
X128031Y112771D01*
X66339Y116169D02*
X66339Y106771D01*
X66339Y116169D02*
X63728Y116169D01*
X63627Y116167D01*
X63526Y116161D01*
X63425Y116151D01*
X63325Y116138D01*
X63225Y116120D01*
X63126Y116099D01*
X63028Y116073D01*
X62931Y116044D01*
X62835Y116012D01*
X62741Y115975D01*
X62648Y115935D01*
X62556Y115891D01*
X62467Y115844D01*
X62379Y115793D01*
X62293Y115739D01*
X62210Y115682D01*
X62128Y115622D01*
X62050Y115558D01*
X61973Y115492D01*
X61900Y115422D01*
X61829Y115350D01*
X61761Y115275D01*
X61696Y115197D01*
X61634Y115117D01*
X61575Y115035D01*
X61519Y114950D01*
X61467Y114864D01*
X61418Y114775D01*
X61372Y114684D01*
X61331Y114592D01*
X61292Y114498D01*
X61258Y114403D01*
X61227Y114307D01*
X61200Y114209D01*
X61176Y114111D01*
X61157Y114011D01*
X61141Y113911D01*
X61129Y113811D01*
X61121Y113710D01*
X61117Y113609D01*
X61117Y113507D01*
X61121Y113406D01*
X61129Y113305D01*
X61141Y113205D01*
X61157Y113105D01*
X61176Y113005D01*
X61200Y112907D01*
X61227Y112809D01*
X61258Y112713D01*
X61292Y112618D01*
X61331Y112524D01*
X61372Y112432D01*
X61418Y112341D01*
X61467Y112253D01*
X61519Y112166D01*
X61575Y112081D01*
X61634Y111999D01*
X61696Y111919D01*
X61761Y111841D01*
X61829Y111766D01*
X61900Y111694D01*
X61973Y111624D01*
X62050Y111558D01*
X62128Y111494D01*
X62210Y111434D01*
X62293Y111377D01*
X62379Y111323D01*
X62467Y111272D01*
X62556Y111225D01*
X62648Y111181D01*
X62741Y111141D01*
X62835Y111104D01*
X62931Y111072D01*
X63028Y111043D01*
X63126Y111017D01*
X63225Y110996D01*
X63325Y110978D01*
X63425Y110965D01*
X63526Y110955D01*
X63627Y110949D01*
X63728Y110947D01*
X63728Y110948D02*
X66339Y110948D01*
X63206Y110948D02*
X61118Y106771D01*
X57252Y106771D02*
X54119Y106771D01*
X54030Y106773D01*
X53942Y106779D01*
X53854Y106788D01*
X53766Y106801D01*
X53679Y106818D01*
X53593Y106838D01*
X53508Y106863D01*
X53423Y106890D01*
X53340Y106922D01*
X53259Y106956D01*
X53179Y106995D01*
X53101Y107036D01*
X53024Y107081D01*
X52950Y107129D01*
X52877Y107180D01*
X52807Y107234D01*
X52740Y107292D01*
X52674Y107352D01*
X52612Y107414D01*
X52552Y107480D01*
X52494Y107547D01*
X52440Y107617D01*
X52389Y107690D01*
X52341Y107764D01*
X52296Y107841D01*
X52255Y107919D01*
X52216Y107999D01*
X52182Y108080D01*
X52150Y108163D01*
X52123Y108248D01*
X52098Y108333D01*
X52078Y108419D01*
X52061Y108506D01*
X52048Y108594D01*
X52039Y108682D01*
X52033Y108770D01*
X52031Y108859D01*
X52031Y109904D01*
X52033Y109993D01*
X52039Y110081D01*
X52048Y110169D01*
X52061Y110257D01*
X52078Y110344D01*
X52098Y110430D01*
X52123Y110515D01*
X52150Y110600D01*
X52182Y110683D01*
X52216Y110764D01*
X52255Y110844D01*
X52296Y110922D01*
X52341Y110999D01*
X52389Y111073D01*
X52440Y111146D01*
X52494Y111216D01*
X52552Y111283D01*
X52612Y111349D01*
X52674Y111411D01*
X52740Y111471D01*
X52807Y111529D01*
X52877Y111583D01*
X52950Y111634D01*
X53024Y111682D01*
X53101Y111727D01*
X53179Y111768D01*
X53259Y111807D01*
X53340Y111841D01*
X53423Y111873D01*
X53508Y111900D01*
X53593Y111925D01*
X53679Y111945D01*
X53766Y111962D01*
X53854Y111975D01*
X53942Y111984D01*
X54030Y111990D01*
X54119Y111992D01*
X57252Y111992D01*
X57252Y116169D01*
X52031Y116169D01*
X59871Y146017D02*
X69269Y146017D01*
X69269Y148628D01*
X69267Y148729D01*
X69261Y148830D01*
X69251Y148931D01*
X69238Y149031D01*
X69220Y149131D01*
X69199Y149230D01*
X69173Y149328D01*
X69144Y149425D01*
X69112Y149521D01*
X69075Y149615D01*
X69035Y149708D01*
X68991Y149800D01*
X68944Y149889D01*
X68893Y149977D01*
X68839Y150063D01*
X68782Y150146D01*
X68722Y150228D01*
X68658Y150306D01*
X68592Y150383D01*
X68522Y150456D01*
X68450Y150527D01*
X68375Y150595D01*
X68297Y150660D01*
X68217Y150722D01*
X68135Y150781D01*
X68050Y150837D01*
X67964Y150889D01*
X67875Y150938D01*
X67784Y150984D01*
X67692Y151025D01*
X67598Y151064D01*
X67503Y151098D01*
X67407Y151129D01*
X67309Y151156D01*
X67211Y151180D01*
X67111Y151199D01*
X67011Y151215D01*
X66911Y151227D01*
X66810Y151235D01*
X66709Y151239D01*
X66607Y151239D01*
X66506Y151235D01*
X66405Y151227D01*
X66305Y151215D01*
X66205Y151199D01*
X66105Y151180D01*
X66007Y151156D01*
X65909Y151129D01*
X65813Y151098D01*
X65718Y151064D01*
X65624Y151025D01*
X65532Y150984D01*
X65441Y150938D01*
X65353Y150889D01*
X65266Y150837D01*
X65181Y150781D01*
X65099Y150722D01*
X65019Y150660D01*
X64941Y150595D01*
X64866Y150527D01*
X64794Y150456D01*
X64724Y150383D01*
X64658Y150306D01*
X64594Y150228D01*
X64534Y150146D01*
X64477Y150063D01*
X64423Y149977D01*
X64372Y149889D01*
X64325Y149800D01*
X64281Y149708D01*
X64241Y149615D01*
X64204Y149521D01*
X64172Y149425D01*
X64143Y149328D01*
X64117Y149230D01*
X64096Y149131D01*
X64078Y149031D01*
X64065Y148931D01*
X64055Y148830D01*
X64049Y148729D01*
X64047Y148628D01*
X64048Y148628D02*
X64048Y146017D01*
X64048Y149150D02*
X59871Y151238D01*
X67181Y155104D02*
X69269Y157714D01*
X59871Y157714D01*
X59871Y155104D02*
X59871Y160325D01*
X67181Y164248D02*
X69269Y166858D01*
X59871Y166858D01*
X59871Y164248D02*
X59871Y169469D01*
X50269Y146017D02*
X40871Y146017D01*
X50269Y146017D02*
X50269Y148628D01*
X50267Y148729D01*
X50261Y148830D01*
X50251Y148931D01*
X50238Y149031D01*
X50220Y149131D01*
X50199Y149230D01*
X50173Y149328D01*
X50144Y149425D01*
X50112Y149521D01*
X50075Y149615D01*
X50035Y149708D01*
X49991Y149800D01*
X49944Y149889D01*
X49893Y149977D01*
X49839Y150063D01*
X49782Y150146D01*
X49722Y150228D01*
X49658Y150306D01*
X49592Y150383D01*
X49522Y150456D01*
X49450Y150527D01*
X49375Y150595D01*
X49297Y150660D01*
X49217Y150722D01*
X49135Y150781D01*
X49050Y150837D01*
X48964Y150889D01*
X48875Y150938D01*
X48784Y150984D01*
X48692Y151025D01*
X48598Y151064D01*
X48503Y151098D01*
X48407Y151129D01*
X48309Y151156D01*
X48211Y151180D01*
X48111Y151199D01*
X48011Y151215D01*
X47911Y151227D01*
X47810Y151235D01*
X47709Y151239D01*
X47607Y151239D01*
X47506Y151235D01*
X47405Y151227D01*
X47305Y151215D01*
X47205Y151199D01*
X47105Y151180D01*
X47007Y151156D01*
X46909Y151129D01*
X46813Y151098D01*
X46718Y151064D01*
X46624Y151025D01*
X46532Y150984D01*
X46441Y150938D01*
X46353Y150889D01*
X46266Y150837D01*
X46181Y150781D01*
X46099Y150722D01*
X46019Y150660D01*
X45941Y150595D01*
X45866Y150527D01*
X45794Y150456D01*
X45724Y150383D01*
X45658Y150306D01*
X45594Y150228D01*
X45534Y150146D01*
X45477Y150063D01*
X45423Y149977D01*
X45372Y149889D01*
X45325Y149800D01*
X45281Y149708D01*
X45241Y149615D01*
X45204Y149521D01*
X45172Y149425D01*
X45143Y149328D01*
X45117Y149230D01*
X45096Y149131D01*
X45078Y149031D01*
X45065Y148931D01*
X45055Y148830D01*
X45049Y148729D01*
X45047Y148628D01*
X45048Y148628D02*
X45048Y146017D01*
X45048Y149150D02*
X40871Y151238D01*
X48181Y155104D02*
X50269Y157714D01*
X40871Y157714D01*
X40871Y155104D02*
X40871Y160325D01*
X47920Y169470D02*
X48015Y169468D01*
X48109Y169462D01*
X48203Y169453D01*
X48297Y169440D01*
X48390Y169423D01*
X48482Y169402D01*
X48574Y169377D01*
X48664Y169349D01*
X48753Y169317D01*
X48841Y169282D01*
X48927Y169243D01*
X49012Y169201D01*
X49095Y169155D01*
X49176Y169106D01*
X49255Y169054D01*
X49332Y168999D01*
X49406Y168940D01*
X49478Y168879D01*
X49548Y168815D01*
X49615Y168748D01*
X49679Y168678D01*
X49740Y168606D01*
X49799Y168532D01*
X49854Y168455D01*
X49906Y168376D01*
X49955Y168295D01*
X50001Y168212D01*
X50043Y168127D01*
X50082Y168041D01*
X50117Y167953D01*
X50149Y167864D01*
X50177Y167774D01*
X50202Y167682D01*
X50223Y167590D01*
X50240Y167497D01*
X50253Y167403D01*
X50262Y167309D01*
X50268Y167215D01*
X50270Y167120D01*
X50269Y167120D02*
X50267Y167012D01*
X50261Y166903D01*
X50251Y166795D01*
X50238Y166688D01*
X50220Y166581D01*
X50199Y166474D01*
X50174Y166369D01*
X50145Y166264D01*
X50113Y166161D01*
X50076Y166059D01*
X50036Y165958D01*
X49993Y165859D01*
X49946Y165761D01*
X49895Y165665D01*
X49841Y165571D01*
X49784Y165479D01*
X49723Y165389D01*
X49659Y165301D01*
X49593Y165216D01*
X49523Y165133D01*
X49450Y165053D01*
X49374Y164975D01*
X49296Y164900D01*
X49215Y164828D01*
X49131Y164759D01*
X49045Y164693D01*
X48957Y164630D01*
X48866Y164571D01*
X48774Y164514D01*
X48679Y164461D01*
X48583Y164412D01*
X48484Y164366D01*
X48385Y164323D01*
X48283Y164284D01*
X48181Y164249D01*
X46092Y168686D02*
X46161Y168755D01*
X46232Y168821D01*
X46305Y168885D01*
X46381Y168946D01*
X46460Y169004D01*
X46540Y169058D01*
X46623Y169110D01*
X46707Y169158D01*
X46793Y169204D01*
X46881Y169245D01*
X46971Y169284D01*
X47062Y169319D01*
X47154Y169350D01*
X47247Y169378D01*
X47341Y169402D01*
X47436Y169422D01*
X47532Y169439D01*
X47629Y169452D01*
X47726Y169461D01*
X47823Y169467D01*
X47920Y169469D01*
X46092Y168686D02*
X40871Y164248D01*
X40871Y169469D01*
X221231Y161531D02*
X230629Y161531D01*
X230629Y164142D01*
X230627Y164243D01*
X230621Y164344D01*
X230611Y164445D01*
X230598Y164545D01*
X230580Y164645D01*
X230559Y164744D01*
X230533Y164842D01*
X230504Y164939D01*
X230472Y165035D01*
X230435Y165129D01*
X230395Y165222D01*
X230351Y165314D01*
X230304Y165403D01*
X230253Y165491D01*
X230199Y165577D01*
X230142Y165660D01*
X230082Y165742D01*
X230018Y165820D01*
X229952Y165897D01*
X229882Y165970D01*
X229810Y166041D01*
X229735Y166109D01*
X229657Y166174D01*
X229577Y166236D01*
X229495Y166295D01*
X229410Y166351D01*
X229324Y166403D01*
X229235Y166452D01*
X229144Y166498D01*
X229052Y166539D01*
X228958Y166578D01*
X228863Y166612D01*
X228767Y166643D01*
X228669Y166670D01*
X228571Y166694D01*
X228471Y166713D01*
X228371Y166729D01*
X228271Y166741D01*
X228170Y166749D01*
X228069Y166753D01*
X227967Y166753D01*
X227866Y166749D01*
X227765Y166741D01*
X227665Y166729D01*
X227565Y166713D01*
X227465Y166694D01*
X227367Y166670D01*
X227269Y166643D01*
X227173Y166612D01*
X227078Y166578D01*
X226984Y166539D01*
X226892Y166498D01*
X226801Y166452D01*
X226713Y166403D01*
X226626Y166351D01*
X226541Y166295D01*
X226459Y166236D01*
X226379Y166174D01*
X226301Y166109D01*
X226226Y166041D01*
X226154Y165970D01*
X226084Y165897D01*
X226018Y165820D01*
X225954Y165742D01*
X225894Y165660D01*
X225837Y165577D01*
X225783Y165491D01*
X225732Y165403D01*
X225685Y165314D01*
X225641Y165222D01*
X225601Y165129D01*
X225564Y165035D01*
X225532Y164939D01*
X225503Y164842D01*
X225477Y164744D01*
X225456Y164645D01*
X225438Y164545D01*
X225425Y164445D01*
X225415Y164344D01*
X225409Y164243D01*
X225407Y164142D01*
X225408Y164142D02*
X225408Y161531D01*
X225408Y164664D02*
X221231Y166752D01*
X228541Y170618D02*
X230629Y173228D01*
X221231Y173228D01*
X221231Y170618D02*
X221231Y175839D01*
X221231Y179762D02*
X221231Y182372D01*
X221233Y182473D01*
X221239Y182574D01*
X221249Y182675D01*
X221262Y182775D01*
X221280Y182875D01*
X221301Y182974D01*
X221327Y183072D01*
X221356Y183169D01*
X221388Y183265D01*
X221425Y183359D01*
X221465Y183452D01*
X221509Y183544D01*
X221556Y183633D01*
X221607Y183721D01*
X221661Y183807D01*
X221718Y183890D01*
X221778Y183972D01*
X221842Y184050D01*
X221908Y184127D01*
X221978Y184200D01*
X222050Y184271D01*
X222125Y184339D01*
X222203Y184404D01*
X222283Y184466D01*
X222365Y184525D01*
X222450Y184581D01*
X222537Y184633D01*
X222625Y184682D01*
X222716Y184728D01*
X222808Y184769D01*
X222902Y184808D01*
X222997Y184842D01*
X223093Y184873D01*
X223191Y184900D01*
X223289Y184924D01*
X223389Y184943D01*
X223489Y184959D01*
X223589Y184971D01*
X223690Y184979D01*
X223791Y184983D01*
X223893Y184983D01*
X223994Y184979D01*
X224095Y184971D01*
X224195Y184959D01*
X224295Y184943D01*
X224395Y184924D01*
X224493Y184900D01*
X224591Y184873D01*
X224687Y184842D01*
X224782Y184808D01*
X224876Y184769D01*
X224968Y184728D01*
X225059Y184682D01*
X225148Y184633D01*
X225234Y184581D01*
X225319Y184525D01*
X225401Y184466D01*
X225481Y184404D01*
X225559Y184339D01*
X225634Y184271D01*
X225706Y184200D01*
X225776Y184127D01*
X225842Y184050D01*
X225906Y183972D01*
X225966Y183890D01*
X226023Y183807D01*
X226077Y183721D01*
X226128Y183633D01*
X226175Y183544D01*
X226219Y183452D01*
X226259Y183359D01*
X226296Y183265D01*
X226328Y183169D01*
X226357Y183072D01*
X226383Y182974D01*
X226404Y182875D01*
X226422Y182775D01*
X226435Y182675D01*
X226445Y182574D01*
X226451Y182473D01*
X226453Y182372D01*
X230629Y182895D02*
X230629Y179762D01*
X230629Y182895D02*
X230627Y182985D01*
X230621Y183074D01*
X230612Y183164D01*
X230598Y183253D01*
X230581Y183341D01*
X230560Y183428D01*
X230535Y183515D01*
X230506Y183600D01*
X230474Y183684D01*
X230439Y183766D01*
X230399Y183847D01*
X230357Y183926D01*
X230311Y184003D01*
X230261Y184078D01*
X230209Y184151D01*
X230153Y184222D01*
X230095Y184290D01*
X230033Y184355D01*
X229969Y184418D01*
X229902Y184478D01*
X229833Y184535D01*
X229761Y184589D01*
X229687Y184640D01*
X229611Y184688D01*
X229533Y184732D01*
X229453Y184773D01*
X229371Y184811D01*
X229288Y184845D01*
X229203Y184875D01*
X229117Y184902D01*
X229031Y184925D01*
X228943Y184944D01*
X228854Y184959D01*
X228765Y184971D01*
X228676Y184979D01*
X228586Y184983D01*
X228496Y184983D01*
X228406Y184979D01*
X228317Y184971D01*
X228228Y184959D01*
X228139Y184944D01*
X228051Y184925D01*
X227965Y184902D01*
X227879Y184875D01*
X227794Y184845D01*
X227711Y184811D01*
X227629Y184773D01*
X227549Y184732D01*
X227471Y184688D01*
X227395Y184640D01*
X227321Y184589D01*
X227249Y184535D01*
X227180Y184478D01*
X227113Y184418D01*
X227049Y184355D01*
X226987Y184290D01*
X226929Y184222D01*
X226873Y184151D01*
X226821Y184078D01*
X226771Y184003D01*
X226725Y183926D01*
X226683Y183847D01*
X226643Y183766D01*
X226608Y183684D01*
X226576Y183600D01*
X226547Y183515D01*
X226522Y183428D01*
X226501Y183341D01*
X226484Y183253D01*
X226470Y183164D01*
X226461Y183074D01*
X226455Y182985D01*
X226453Y182895D01*
X226452Y182895D02*
X226452Y180806D01*
X188483Y152769D02*
X188483Y143371D01*
X188483Y152769D02*
X185872Y152769D01*
X185771Y152767D01*
X185670Y152761D01*
X185569Y152751D01*
X185469Y152738D01*
X185369Y152720D01*
X185270Y152699D01*
X185172Y152673D01*
X185075Y152644D01*
X184979Y152612D01*
X184885Y152575D01*
X184792Y152535D01*
X184700Y152491D01*
X184611Y152444D01*
X184523Y152393D01*
X184437Y152339D01*
X184354Y152282D01*
X184272Y152222D01*
X184194Y152158D01*
X184117Y152092D01*
X184044Y152022D01*
X183973Y151950D01*
X183905Y151875D01*
X183840Y151797D01*
X183778Y151717D01*
X183719Y151635D01*
X183663Y151550D01*
X183611Y151464D01*
X183562Y151375D01*
X183516Y151284D01*
X183475Y151192D01*
X183436Y151098D01*
X183402Y151003D01*
X183371Y150907D01*
X183344Y150809D01*
X183320Y150711D01*
X183301Y150611D01*
X183285Y150511D01*
X183273Y150411D01*
X183265Y150310D01*
X183261Y150209D01*
X183261Y150107D01*
X183265Y150006D01*
X183273Y149905D01*
X183285Y149805D01*
X183301Y149705D01*
X183320Y149605D01*
X183344Y149507D01*
X183371Y149409D01*
X183402Y149313D01*
X183436Y149218D01*
X183475Y149124D01*
X183516Y149032D01*
X183562Y148941D01*
X183611Y148853D01*
X183663Y148766D01*
X183719Y148681D01*
X183778Y148599D01*
X183840Y148519D01*
X183905Y148441D01*
X183973Y148366D01*
X184044Y148294D01*
X184117Y148224D01*
X184194Y148158D01*
X184272Y148094D01*
X184354Y148034D01*
X184437Y147977D01*
X184523Y147923D01*
X184611Y147872D01*
X184700Y147825D01*
X184792Y147781D01*
X184885Y147741D01*
X184979Y147704D01*
X185075Y147672D01*
X185172Y147643D01*
X185270Y147617D01*
X185369Y147596D01*
X185469Y147578D01*
X185569Y147565D01*
X185670Y147555D01*
X185771Y147549D01*
X185872Y147547D01*
X185872Y147548D02*
X188483Y147548D01*
X185350Y147548D02*
X183262Y143371D01*
X179396Y150681D02*
X176786Y152769D01*
X176786Y143371D01*
X179396Y143371D02*
X174175Y143371D01*
X170252Y145459D02*
X168164Y152769D01*
X170252Y145459D02*
X165031Y145459D01*
X166597Y147548D02*
X166597Y143371D01*
D10*
X592000Y148650D02*
X592000Y135950D01*
X598350Y129600D01*
X611050Y129600D01*
X617400Y135950D01*
X598350Y129600D02*
X592000Y123250D01*
X592000Y110550D01*
X598350Y104200D01*
X611050Y104200D01*
X617400Y110550D01*
X617400Y123250D01*
X611050Y129600D01*
X592000Y174050D02*
X598350Y180400D01*
X592000Y174050D02*
X592000Y161350D01*
X598350Y155000D01*
X611050Y155000D01*
X617400Y161350D01*
X617400Y174050D01*
X611050Y180400D01*
X598350Y155000D02*
X592000Y148650D01*
X611050Y155000D02*
X617400Y148650D01*
X617400Y135950D01*
X592000Y212150D02*
X592000Y224850D01*
X592000Y212150D02*
X598350Y205800D01*
X611050Y205800D01*
X617400Y212150D01*
X598350Y205800D02*
X592000Y199450D01*
X592000Y186750D01*
X598350Y180400D01*
X611050Y180400D01*
X617400Y186750D01*
X617400Y199450D01*
X611050Y205800D01*
X611050Y231200D02*
X598350Y231200D01*
X592000Y224850D01*
X611050Y231200D02*
X617400Y224850D01*
X617400Y212150D01*
X592000Y97850D02*
X592000Y85150D01*
X598350Y78800D01*
X611050Y78800D01*
X617400Y85150D01*
X598350Y104200D02*
X592000Y97850D01*
X611050Y104200D02*
X617400Y97850D01*
X617400Y85150D01*
D12*
X611597Y242380D02*
X611597Y249492D01*
X611597Y242380D02*
X611599Y242291D01*
X611605Y242203D01*
X611614Y242115D01*
X611628Y242027D01*
X611645Y241940D01*
X611666Y241854D01*
X611691Y241769D01*
X611720Y241685D01*
X611752Y241602D01*
X611787Y241521D01*
X611827Y241442D01*
X611869Y241364D01*
X611915Y241288D01*
X611964Y241214D01*
X612017Y241143D01*
X612072Y241074D01*
X612131Y241007D01*
X612192Y240943D01*
X612256Y240882D01*
X612323Y240823D01*
X612392Y240768D01*
X612463Y240715D01*
X612537Y240666D01*
X612613Y240620D01*
X612691Y240578D01*
X612770Y240538D01*
X612851Y240503D01*
X612934Y240471D01*
X613018Y240442D01*
X613103Y240417D01*
X613189Y240396D01*
X613276Y240379D01*
X613364Y240365D01*
X613452Y240356D01*
X613540Y240350D01*
X613629Y240348D01*
X614645Y240348D01*
X606813Y240348D02*
X606813Y249492D01*
X604273Y249492D01*
X604173Y249490D01*
X604074Y249484D01*
X603974Y249474D01*
X603876Y249461D01*
X603777Y249443D01*
X603680Y249422D01*
X603584Y249397D01*
X603488Y249368D01*
X603394Y249335D01*
X603301Y249299D01*
X603210Y249259D01*
X603120Y249215D01*
X603032Y249168D01*
X602946Y249118D01*
X602862Y249064D01*
X602780Y249007D01*
X602701Y248947D01*
X602623Y248883D01*
X602549Y248817D01*
X602477Y248748D01*
X602408Y248676D01*
X602342Y248602D01*
X602278Y248524D01*
X602218Y248445D01*
X602161Y248363D01*
X602107Y248279D01*
X602057Y248193D01*
X602010Y248105D01*
X601966Y248015D01*
X601926Y247924D01*
X601890Y247831D01*
X601857Y247737D01*
X601828Y247641D01*
X601803Y247545D01*
X601782Y247448D01*
X601764Y247349D01*
X601751Y247251D01*
X601741Y247151D01*
X601735Y247052D01*
X601733Y246952D01*
X601735Y246852D01*
X601741Y246753D01*
X601751Y246653D01*
X601764Y246555D01*
X601782Y246456D01*
X601803Y246359D01*
X601828Y246263D01*
X601857Y246167D01*
X601890Y246073D01*
X601926Y245980D01*
X601966Y245889D01*
X602010Y245799D01*
X602057Y245711D01*
X602107Y245625D01*
X602161Y245541D01*
X602218Y245459D01*
X602278Y245380D01*
X602342Y245302D01*
X602408Y245228D01*
X602477Y245156D01*
X602549Y245087D01*
X602623Y245021D01*
X602701Y244957D01*
X602780Y244897D01*
X602862Y244840D01*
X602946Y244786D01*
X603032Y244736D01*
X603120Y244689D01*
X603210Y244645D01*
X603301Y244605D01*
X603394Y244569D01*
X603488Y244536D01*
X603584Y244507D01*
X603680Y244482D01*
X603777Y244461D01*
X603876Y244443D01*
X603974Y244430D01*
X604074Y244420D01*
X604173Y244414D01*
X604273Y244412D01*
X606813Y244412D01*
X598126Y240348D02*
X595078Y240348D01*
X594989Y240350D01*
X594901Y240356D01*
X594813Y240365D01*
X594725Y240379D01*
X594638Y240396D01*
X594552Y240417D01*
X594467Y240442D01*
X594383Y240471D01*
X594300Y240503D01*
X594219Y240538D01*
X594140Y240578D01*
X594062Y240620D01*
X593986Y240666D01*
X593912Y240715D01*
X593841Y240768D01*
X593772Y240823D01*
X593705Y240882D01*
X593641Y240943D01*
X593580Y241007D01*
X593521Y241074D01*
X593466Y241143D01*
X593413Y241214D01*
X593364Y241288D01*
X593318Y241364D01*
X593276Y241442D01*
X593236Y241521D01*
X593201Y241602D01*
X593169Y241685D01*
X593140Y241769D01*
X593115Y241854D01*
X593094Y241940D01*
X593077Y242027D01*
X593063Y242115D01*
X593054Y242203D01*
X593048Y242291D01*
X593046Y242380D01*
X593046Y243396D01*
X593048Y243485D01*
X593054Y243573D01*
X593063Y243661D01*
X593077Y243749D01*
X593094Y243836D01*
X593115Y243922D01*
X593140Y244007D01*
X593169Y244091D01*
X593201Y244174D01*
X593236Y244255D01*
X593276Y244334D01*
X593318Y244412D01*
X593364Y244488D01*
X593413Y244562D01*
X593466Y244633D01*
X593521Y244702D01*
X593580Y244769D01*
X593641Y244833D01*
X593705Y244894D01*
X593772Y244953D01*
X593841Y245008D01*
X593912Y245061D01*
X593986Y245110D01*
X594062Y245156D01*
X594140Y245198D01*
X594219Y245238D01*
X594300Y245273D01*
X594383Y245305D01*
X594467Y245334D01*
X594552Y245359D01*
X594638Y245380D01*
X594725Y245397D01*
X594813Y245411D01*
X594901Y245420D01*
X594989Y245426D01*
X595078Y245428D01*
X598126Y245428D01*
X598126Y249492D01*
X593046Y249492D01*
M02*
