G04 EAGLE Gerber RS-274X export*
G75*
%MOMM*%
%FSLAX34Y34*%
%LPD*%
%INSoldermask Top*%
%IPPOS*%
%AMOC8*
5,1,8,0,0,1.08239X$1,22.5*%
G01*
%ADD10C,3.403200*%
%ADD11R,1.253200X1.283200*%
%ADD12R,1.283200X1.253200*%
%ADD13R,0.803200X2.403200*%
%ADD14C,1.727200*%
%ADD15R,1.303200X1.203200*%
%ADD16R,1.203200X1.303200*%
%ADD17C,0.959600*%


D10*
X27000Y283000D03*
X27000Y27000D03*
X623000Y283000D03*
X623000Y27000D03*
D11*
X226250Y162600D03*
X243750Y162600D03*
X226250Y147400D03*
X243750Y147400D03*
D12*
X287600Y185450D03*
X287600Y202950D03*
D13*
X106650Y129000D03*
X106650Y181000D03*
X93950Y129000D03*
X119350Y129000D03*
X132050Y129000D03*
X93950Y181000D03*
X119350Y181000D03*
X132050Y181000D03*
X183650Y129000D03*
X183650Y181000D03*
X170950Y129000D03*
X196350Y129000D03*
X209050Y129000D03*
X170950Y181000D03*
X196350Y181000D03*
X209050Y181000D03*
D14*
X393000Y86420D02*
X393000Y71180D01*
X367600Y71180D02*
X367600Y86420D01*
X342200Y86420D02*
X342200Y71180D01*
X316800Y71180D02*
X316800Y86420D01*
X291400Y86420D02*
X291400Y71180D01*
X266000Y71180D02*
X266000Y86420D01*
X240600Y86420D02*
X240600Y71180D01*
X215200Y71180D02*
X215200Y86420D01*
X189800Y86420D02*
X189800Y71180D01*
X164400Y71180D02*
X164400Y86420D01*
X139000Y86420D02*
X139000Y71180D01*
X113600Y71180D02*
X113600Y86420D01*
X88200Y86420D02*
X88200Y71180D01*
X62800Y71180D02*
X62800Y86420D01*
X37400Y86420D02*
X37400Y71180D01*
X393000Y223580D02*
X393000Y238820D01*
X367600Y238820D02*
X367600Y223580D01*
X342200Y223580D02*
X342200Y238820D01*
X316800Y238820D02*
X316800Y223580D01*
X291400Y223580D02*
X291400Y238820D01*
X266000Y238820D02*
X266000Y223580D01*
X240600Y223580D02*
X240600Y238820D01*
X215200Y238820D02*
X215200Y223580D01*
X189800Y223580D02*
X189800Y238820D01*
X164400Y238820D02*
X164400Y223580D01*
X139000Y223580D02*
X139000Y238820D01*
X113600Y238820D02*
X113600Y223580D01*
X88200Y223580D02*
X88200Y238820D01*
X62800Y238820D02*
X62800Y223580D01*
X37400Y223580D02*
X37400Y238820D01*
X461080Y91500D02*
X476320Y91500D01*
X476320Y116900D02*
X461080Y116900D01*
X461080Y142300D02*
X476320Y142300D01*
X476320Y167700D02*
X461080Y167700D01*
X461080Y193100D02*
X476320Y193100D01*
X476320Y218500D02*
X461080Y218500D01*
X529080Y91500D02*
X544320Y91500D01*
X544320Y116900D02*
X529080Y116900D01*
X529080Y142300D02*
X544320Y142300D01*
X544320Y167700D02*
X529080Y167700D01*
X529080Y193100D02*
X544320Y193100D01*
X544320Y218500D02*
X529080Y218500D01*
D15*
X367200Y184900D03*
X367200Y201900D03*
X317000Y185600D03*
X317000Y202600D03*
D16*
X243500Y129400D03*
X226500Y129400D03*
X392100Y142800D03*
X409100Y142800D03*
X391700Y115600D03*
X408700Y115600D03*
X243500Y181400D03*
X226500Y181400D03*
D12*
X78000Y163750D03*
X78000Y146250D03*
X155000Y163750D03*
X155000Y146250D03*
D15*
X45000Y112000D03*
X45000Y129000D03*
D16*
X81500Y112000D03*
X64500Y112000D03*
X168000Y105500D03*
X151000Y105500D03*
X200500Y105500D03*
X183500Y105500D03*
D14*
X597080Y218500D02*
X612320Y218500D01*
X612320Y193100D02*
X597080Y193100D01*
X597080Y167700D02*
X612320Y167700D01*
X612320Y142300D02*
X597080Y142300D01*
X597080Y116900D02*
X612320Y116900D01*
X612320Y91500D02*
X597080Y91500D01*
D16*
X34500Y199500D03*
X51500Y199500D03*
D11*
X34750Y178500D03*
X52250Y178500D03*
D17*
X207500Y202628D03*
X151000Y129000D03*
X126000Y202628D03*
X61000Y129000D03*
X87500Y285000D03*
X317000Y276500D03*
X153000Y285000D03*
X423000Y285000D03*
X95000Y25000D03*
X193000Y25000D03*
X300500Y25000D03*
X425000Y25000D03*
X532000Y25000D03*
X339000Y108000D03*
X290000Y108000D03*
X314500Y126000D03*
X290000Y145000D03*
X339000Y145000D03*
X538500Y285000D03*
X119000Y111000D03*
X129368Y160500D03*
X196000Y148000D03*
X227000Y201000D03*
X119500Y155500D03*
X196500Y164000D03*
M02*
