G04 EAGLE Gerber RS-274X export*
G75*
%MOMM*%
%FSLAX34Y34*%
%LPD*%
%INSolderpaste Top*%
%IPPOS*%
%AMOC8*
5,1,8,0,0,1.08239X$1,22.5*%
G01*
%ADD10R,1.050000X1.080000*%
%ADD11R,1.080000X1.050000*%
%ADD12R,0.600000X2.200000*%
%ADD13R,1.100000X1.000000*%
%ADD14R,1.000000X1.100000*%


D10*
X226250Y162600D03*
X243750Y162600D03*
X226250Y147400D03*
X243750Y147400D03*
D11*
X287600Y185450D03*
X287600Y202950D03*
D12*
X106650Y129000D03*
X106650Y181000D03*
X93950Y129000D03*
X119350Y129000D03*
X132050Y129000D03*
X93950Y181000D03*
X119350Y181000D03*
X132050Y181000D03*
X183650Y129000D03*
X183650Y181000D03*
X170950Y129000D03*
X196350Y129000D03*
X209050Y129000D03*
X170950Y181000D03*
X196350Y181000D03*
X209050Y181000D03*
D13*
X367200Y184900D03*
X367200Y201900D03*
X317000Y185600D03*
X317000Y202600D03*
D14*
X243500Y129400D03*
X226500Y129400D03*
X392100Y142800D03*
X409100Y142800D03*
X391700Y115600D03*
X408700Y115600D03*
X243500Y181400D03*
X226500Y181400D03*
D11*
X78000Y163750D03*
X78000Y146250D03*
X155000Y163750D03*
X155000Y146250D03*
D13*
X45000Y112000D03*
X45000Y129000D03*
D14*
X81500Y112000D03*
X64500Y112000D03*
X168000Y105500D03*
X151000Y105500D03*
X200500Y105500D03*
X183500Y105500D03*
X34500Y199500D03*
X51500Y199500D03*
D10*
X34750Y178500D03*
X52250Y178500D03*
M02*
