G04 EAGLE Gerber RS-274X export*
G75*
%MOMM*%
%FSLAX34Y34*%
%LPD*%
%INSoldermask Bottom*%
%IPPOS*%
%AMOC8*
5,1,8,0,0,1.08239X$1,22.5*%
G01*
%ADD10C,3.403200*%
%ADD11R,1.283200X1.253200*%
%ADD12R,1.253200X1.283200*%
%ADD13C,1.727200*%
%ADD14R,1.203200X1.303200*%
%ADD15R,1.303200X1.203200*%
%ADD16C,0.959600*%


D10*
X27000Y283000D03*
X27000Y27000D03*
X623000Y283000D03*
X623000Y27000D03*
D11*
X113300Y202850D03*
X113300Y185350D03*
X140600Y150250D03*
X140600Y167750D03*
D12*
X95750Y132400D03*
X78250Y132400D03*
D11*
X139300Y202750D03*
X139300Y185250D03*
X164300Y202650D03*
X164300Y185150D03*
X190000Y202550D03*
X190000Y185050D03*
D13*
X393000Y86420D02*
X393000Y71180D01*
X367600Y71180D02*
X367600Y86420D01*
X342200Y86420D02*
X342200Y71180D01*
X316800Y71180D02*
X316800Y86420D01*
X291400Y86420D02*
X291400Y71180D01*
X266000Y71180D02*
X266000Y86420D01*
X240600Y86420D02*
X240600Y71180D01*
X215200Y71180D02*
X215200Y86420D01*
X189800Y86420D02*
X189800Y71180D01*
X164400Y71180D02*
X164400Y86420D01*
X139000Y86420D02*
X139000Y71180D01*
X113600Y71180D02*
X113600Y86420D01*
X88200Y86420D02*
X88200Y71180D01*
X62800Y71180D02*
X62800Y86420D01*
X37400Y86420D02*
X37400Y71180D01*
X393000Y223580D02*
X393000Y238820D01*
X367600Y238820D02*
X367600Y223580D01*
X342200Y223580D02*
X342200Y238820D01*
X316800Y238820D02*
X316800Y223580D01*
X291400Y223580D02*
X291400Y238820D01*
X266000Y238820D02*
X266000Y223580D01*
X240600Y223580D02*
X240600Y238820D01*
X215200Y238820D02*
X215200Y223580D01*
X189800Y223580D02*
X189800Y238820D01*
X164400Y238820D02*
X164400Y223580D01*
X139000Y223580D02*
X139000Y238820D01*
X113600Y238820D02*
X113600Y223580D01*
X88200Y223580D02*
X88200Y238820D01*
X62800Y238820D02*
X62800Y223580D01*
X37400Y223580D02*
X37400Y238820D01*
X461080Y91500D02*
X476320Y91500D01*
X476320Y116900D02*
X461080Y116900D01*
X461080Y142300D02*
X476320Y142300D01*
X476320Y167700D02*
X461080Y167700D01*
X461080Y193100D02*
X476320Y193100D01*
X476320Y218500D02*
X461080Y218500D01*
X529080Y91500D02*
X544320Y91500D01*
X544320Y116900D02*
X529080Y116900D01*
X529080Y142300D02*
X544320Y142300D01*
X544320Y167700D02*
X529080Y167700D01*
X529080Y193100D02*
X544320Y193100D01*
X544320Y218500D02*
X529080Y218500D01*
D14*
X110000Y132400D03*
X127000Y132400D03*
X78500Y110900D03*
X95500Y110900D03*
D15*
X106500Y151000D03*
X106500Y168000D03*
X84000Y168000D03*
X84000Y151000D03*
X207500Y164000D03*
X207500Y181000D03*
D14*
X168000Y164000D03*
X185000Y164000D03*
D13*
X597080Y218500D02*
X612320Y218500D01*
X612320Y193100D02*
X597080Y193100D01*
X597080Y167700D02*
X612320Y167700D01*
X612320Y142300D02*
X597080Y142300D01*
X597080Y116900D02*
X612320Y116900D01*
X612320Y91500D02*
X597080Y91500D01*
D16*
X207500Y202628D03*
X151000Y129000D03*
X126000Y202628D03*
X61000Y129000D03*
X87500Y285000D03*
X317000Y276500D03*
X153000Y285000D03*
X423000Y285000D03*
X95000Y25000D03*
X193000Y25000D03*
X300500Y25000D03*
X425000Y25000D03*
X532000Y25000D03*
X339000Y108000D03*
X290000Y108000D03*
X314500Y126000D03*
X290000Y145000D03*
X339000Y145000D03*
X538500Y285000D03*
X119000Y111000D03*
X129368Y160500D03*
X196000Y148000D03*
X227000Y201000D03*
X119500Y155500D03*
X196500Y164000D03*
M02*
